G04*
G04 #@! TF.GenerationSoftware,Altium Limited,Altium Designer,25.8.1 (18)*
G04*
G04 Layer_Color=16711935*
%FSLAX25Y25*%
%MOIN*%
G70*
G04*
G04 #@! TF.SameCoordinates,3E3247AC-293B-4C38-98CA-7CCBC5903F8F*
G04*
G04*
G04 #@! TF.FilePolarity,Negative*
G04*
G01*
G75*
%ADD19C,0.09068*%
%ADD20C,0.07453*%
%ADD21R,0.07453X0.07453*%
%ADD22C,0.19540*%
%ADD23C,0.22453*%
%ADD24C,0.14087*%
%ADD25C,0.08450*%
%ADD26C,0.08477*%
%ADD27R,0.08477X0.08477*%
%ADD28C,0.02769*%
D19*
X37008Y95669D02*
D03*
Y115669D02*
D03*
Y135669D02*
D03*
Y155669D02*
D03*
Y175669D02*
D03*
Y195669D02*
D03*
D20*
X160158Y289980D02*
D03*
X171339Y295433D02*
D03*
X160158Y300886D02*
D03*
X171339Y306339D02*
D03*
X160158Y311791D02*
D03*
X171339Y317244D02*
D03*
X160158Y322697D02*
D03*
X171339Y328150D02*
D03*
D21*
X160158Y333602D02*
D03*
D22*
X165748Y360984D02*
D03*
Y262598D02*
D03*
D23*
X35433Y402165D02*
D03*
X185039Y20276D02*
D03*
X35433D02*
D03*
X185039Y402165D02*
D03*
D24*
X150085Y195669D02*
D03*
Y135827D02*
D03*
Y75984D02*
D03*
D25*
X175124Y175669D02*
D03*
X135124D02*
D03*
Y215669D02*
D03*
X175124D02*
D03*
Y115827D02*
D03*
X135124D02*
D03*
Y155827D02*
D03*
X175124D02*
D03*
Y55984D02*
D03*
X135124D02*
D03*
Y95984D02*
D03*
X175124D02*
D03*
D26*
X37008Y335562D02*
D03*
Y315562D02*
D03*
Y295562D02*
D03*
Y275562D02*
D03*
Y255562D02*
D03*
D27*
Y235562D02*
D03*
D28*
X135614Y296023D02*
D03*
X135616Y316846D02*
D03*
M02*
