G04*
G04 #@! TF.GenerationSoftware,Altium Limited,Altium Designer,25.8.1 (18)*
G04*
G04 Layer_Physical_Order=4*
G04 Layer_Color=16711680*
%FSLAX25Y25*%
%MOIN*%
G70*
G04*
G04 #@! TF.SameCoordinates,3E3247AC-293B-4C38-98CA-7CCBC5903F8F*
G04*
G04*
G04 #@! TF.FilePolarity,Positive*
G04*
G01*
G75*
%ADD30C,0.08268*%
%ADD31C,0.06653*%
%ADD32R,0.06653X0.06653*%
%ADD33C,0.18740*%
%ADD34C,0.21654*%
%ADD35C,0.13287*%
%ADD36C,0.07650*%
%ADD37C,0.07677*%
%ADD38R,0.07677X0.07677*%
%ADD39C,0.01968*%
G36*
X188807Y112205D02*
X179235D01*
X179044Y112667D01*
X179130Y112753D01*
X179789Y113894D01*
X180130Y115168D01*
Y116486D01*
X179789Y117759D01*
X179130Y118901D01*
X178198Y119833D01*
X177056Y120492D01*
X175783Y120833D01*
X174465D01*
X173192Y120492D01*
X172050Y119833D01*
X171118Y118901D01*
X170459Y117759D01*
X170118Y116486D01*
Y115168D01*
X170459Y113894D01*
X171118Y112753D01*
X171204Y112667D01*
X171013Y112205D01*
X139235D01*
X139044Y112667D01*
X139130Y112753D01*
X139789Y113894D01*
X140130Y115168D01*
Y116486D01*
X139789Y117759D01*
X139130Y118901D01*
X138198Y119833D01*
X137056Y120492D01*
X135783Y120833D01*
X134465D01*
X133192Y120492D01*
X132050Y119833D01*
X131118Y118901D01*
X130459Y117759D01*
X130118Y116486D01*
Y115168D01*
X130459Y113894D01*
X131118Y112753D01*
X131204Y112667D01*
X131013Y112205D01*
X41722D01*
X41434Y112705D01*
X41961Y113618D01*
X42323Y114970D01*
Y116369D01*
X41961Y117721D01*
X41261Y118933D01*
X40271Y119922D01*
X39059Y120622D01*
X37708Y120984D01*
X36308D01*
X34956Y120622D01*
X33744Y119922D01*
X32755Y118933D01*
X32055Y117721D01*
X31693Y116369D01*
Y114970D01*
X32055Y113618D01*
X32582Y112705D01*
X32294Y112205D01*
X13780D01*
X13780Y159449D01*
X25185D01*
X25479Y159044D01*
X25296Y158481D01*
X25000Y156614D01*
Y154724D01*
X25296Y152857D01*
X25880Y151060D01*
X26738Y149376D01*
X27849Y147847D01*
X29185Y146510D01*
X30714Y145399D01*
X32399Y144541D01*
X34196Y143957D01*
X36063Y143661D01*
X37953D01*
X39820Y143957D01*
X41617Y144541D01*
X43301Y145399D01*
X44831Y146510D01*
X46167Y147847D01*
X47278Y149376D01*
X48136Y151060D01*
X48720Y152857D01*
X49016Y154724D01*
Y156614D01*
X48720Y158481D01*
X48537Y159044D01*
X48831Y159449D01*
X131013D01*
X131204Y158987D01*
X131118Y158901D01*
X130459Y157759D01*
X130118Y156486D01*
Y155168D01*
X130459Y153894D01*
X131118Y152753D01*
X132050Y151821D01*
X133192Y151162D01*
X134465Y150821D01*
X135783D01*
X137056Y151162D01*
X138198Y151821D01*
X139130Y152753D01*
X139789Y153894D01*
X140130Y155168D01*
Y156486D01*
X139789Y157759D01*
X139130Y158901D01*
X139044Y158987D01*
X139235Y159449D01*
X171013D01*
X171204Y158987D01*
X171118Y158901D01*
X170459Y157759D01*
X170118Y156486D01*
Y155168D01*
X170459Y153894D01*
X171118Y152753D01*
X172050Y151821D01*
X173192Y151162D01*
X174465Y150821D01*
X175783D01*
X177056Y151162D01*
X178198Y151821D01*
X179130Y152753D01*
X179789Y153894D01*
X180130Y155168D01*
Y156486D01*
X179789Y157759D01*
X179130Y158901D01*
X179044Y158987D01*
X179235Y159449D01*
X188807D01*
Y112205D01*
D02*
G37*
G36*
Y52362D02*
X179235D01*
X179044Y52824D01*
X179130Y52910D01*
X179789Y54052D01*
X180130Y55325D01*
Y56643D01*
X179789Y57916D01*
X179130Y59058D01*
X178198Y59990D01*
X177056Y60649D01*
X175783Y60990D01*
X174465D01*
X173192Y60649D01*
X172050Y59990D01*
X171118Y59058D01*
X170459Y57916D01*
X170118Y56643D01*
Y55325D01*
X170459Y54052D01*
X171118Y52910D01*
X171204Y52824D01*
X171013Y52362D01*
X139235D01*
X139044Y52824D01*
X139130Y52910D01*
X139789Y54052D01*
X140130Y55325D01*
Y56643D01*
X139789Y57916D01*
X139130Y59058D01*
X138198Y59990D01*
X137056Y60649D01*
X135783Y60990D01*
X134465D01*
X133192Y60649D01*
X132050Y59990D01*
X131118Y59058D01*
X130459Y57916D01*
X130118Y56643D01*
Y55325D01*
X130459Y54052D01*
X131118Y52910D01*
X131204Y52824D01*
X131013Y52362D01*
X13780D01*
Y99606D01*
X131013D01*
X131204Y99144D01*
X131118Y99058D01*
X130459Y97917D01*
X130118Y96643D01*
Y95325D01*
X130459Y94052D01*
X131118Y92910D01*
X132050Y91978D01*
X133192Y91319D01*
X134465Y90978D01*
X135783D01*
X137056Y91319D01*
X138198Y91978D01*
X139130Y92910D01*
X139789Y94052D01*
X140130Y95325D01*
Y96643D01*
X139789Y97917D01*
X139130Y99058D01*
X139044Y99144D01*
X139235Y99606D01*
X171013D01*
X171204Y99144D01*
X171118Y99058D01*
X170459Y97917D01*
X170118Y96643D01*
Y95325D01*
X170459Y94052D01*
X171118Y92910D01*
X172050Y91978D01*
X173192Y91319D01*
X174465Y90978D01*
X175783D01*
X177056Y91319D01*
X178198Y91978D01*
X179130Y92910D01*
X179789Y94052D01*
X180130Y95325D01*
Y96643D01*
X179789Y97917D01*
X179130Y99058D01*
X179044Y99144D01*
X179235Y99606D01*
X188807D01*
Y52362D01*
D02*
G37*
G36*
Y172047D02*
X179235D01*
X179044Y172509D01*
X179130Y172596D01*
X179789Y173737D01*
X180130Y175010D01*
Y176328D01*
X179789Y177602D01*
X179130Y178743D01*
X178198Y179675D01*
X177056Y180334D01*
X175783Y180675D01*
X174465D01*
X173192Y180334D01*
X172050Y179675D01*
X171118Y178743D01*
X170459Y177602D01*
X170118Y176328D01*
Y175010D01*
X170459Y173737D01*
X171118Y172596D01*
X171204Y172509D01*
X171013Y172047D01*
X139235D01*
X139044Y172509D01*
X139130Y172596D01*
X139789Y173737D01*
X140130Y175010D01*
Y176328D01*
X139789Y177602D01*
X139130Y178743D01*
X138198Y179675D01*
X137056Y180334D01*
X135783Y180675D01*
X134465D01*
X133192Y180334D01*
X132050Y179675D01*
X131118Y178743D01*
X130459Y177602D01*
X130118Y176328D01*
Y175010D01*
X130459Y173737D01*
X131118Y172596D01*
X131204Y172509D01*
X131013Y172047D01*
X41552D01*
X41342Y172547D01*
X41961Y173618D01*
X42323Y174970D01*
Y176369D01*
X41961Y177721D01*
X41261Y178933D01*
X40271Y179922D01*
X39059Y180622D01*
X37708Y180984D01*
X36308D01*
X34956Y180622D01*
X33744Y179922D01*
X32755Y178933D01*
X32055Y177721D01*
X31693Y176369D01*
Y174970D01*
X32055Y173618D01*
X32673Y172547D01*
X32463Y172047D01*
X13780D01*
Y219291D01*
X131013D01*
X131204Y218829D01*
X131118Y218743D01*
X130459Y217602D01*
X130118Y216328D01*
Y215010D01*
X130459Y213737D01*
X131118Y212596D01*
X132050Y211663D01*
X133192Y211004D01*
X134465Y210663D01*
X135783D01*
X137056Y211004D01*
X138198Y211663D01*
X139130Y212596D01*
X139789Y213737D01*
X140130Y215010D01*
Y216328D01*
X139789Y217602D01*
X139130Y218743D01*
X139044Y218829D01*
X139235Y219291D01*
X171013D01*
X171204Y218829D01*
X171118Y218743D01*
X170459Y217602D01*
X170118Y216328D01*
Y215010D01*
X170459Y213737D01*
X171118Y212596D01*
X172050Y211663D01*
X173192Y211004D01*
X174465Y210663D01*
X175783D01*
X177056Y211004D01*
X178198Y211663D01*
X179130Y212596D01*
X179789Y213737D01*
X180130Y215010D01*
Y216328D01*
X179789Y217602D01*
X179130Y218743D01*
X179044Y218829D01*
X179235Y219291D01*
X188807D01*
Y172047D01*
D02*
G37*
G36*
X188976Y225760D02*
X5472Y225544D01*
X5118Y225897D01*
Y373622D01*
X188976D01*
Y225760D01*
D02*
G37*
%LPC*%
G36*
X166710Y370748D02*
X164786D01*
X162900Y370373D01*
X161123Y369637D01*
X159524Y368568D01*
X158164Y367208D01*
X157096Y365609D01*
X156360Y363832D01*
X155984Y361946D01*
Y360023D01*
X156360Y358136D01*
X157096Y356359D01*
X158164Y354760D01*
X159524Y353400D01*
X161123Y352332D01*
X162900Y351596D01*
X164786Y351220D01*
X166710D01*
X168596Y351596D01*
X170373Y352332D01*
X171972Y353400D01*
X173332Y354760D01*
X174401Y356359D01*
X175137Y358136D01*
X175512Y360023D01*
Y361946D01*
X175137Y363832D01*
X174401Y365609D01*
X173332Y367208D01*
X171972Y368568D01*
X170373Y369637D01*
X168596Y370373D01*
X166710Y370748D01*
D02*
G37*
G36*
X37565Y339794D02*
X36451D01*
X35374Y339506D01*
X34409Y338949D01*
X33621Y338161D01*
X33064Y337196D01*
X32776Y336119D01*
Y335005D01*
X33064Y333929D01*
X33621Y332963D01*
X34409Y332175D01*
X35374Y331618D01*
X36451Y331330D01*
X37565D01*
X38642Y331618D01*
X39607Y332175D01*
X40394Y332963D01*
X40952Y333929D01*
X41240Y335005D01*
Y336119D01*
X40952Y337196D01*
X40394Y338161D01*
X39607Y338949D01*
X38642Y339506D01*
X37565Y339794D01*
D02*
G37*
G36*
X163878Y337323D02*
X156437D01*
Y329882D01*
X163878D01*
Y337323D01*
D02*
G37*
G36*
X171828Y331870D02*
X170849D01*
X169903Y331616D01*
X169054Y331127D01*
X168361Y330434D01*
X167872Y329586D01*
X167618Y328639D01*
Y327660D01*
X167872Y326714D01*
X168361Y325865D01*
X169054Y325172D01*
X169903Y324683D01*
X170849Y324429D01*
X171828D01*
X172775Y324683D01*
X173623Y325172D01*
X174316Y325865D01*
X174805Y326714D01*
X175059Y327660D01*
Y328639D01*
X174805Y329586D01*
X174316Y330434D01*
X173623Y331127D01*
X172775Y331616D01*
X171828Y331870D01*
D02*
G37*
G36*
X160647Y326417D02*
X159668D01*
X158721Y326164D01*
X157873Y325674D01*
X157180Y324981D01*
X156691Y324133D01*
X156437Y323187D01*
Y322207D01*
X156691Y321261D01*
X157180Y320412D01*
X157873Y319720D01*
X158721Y319230D01*
X159668Y318976D01*
X160647D01*
X161593Y319230D01*
X162442Y319720D01*
X163135Y320412D01*
X163624Y321261D01*
X163878Y322207D01*
Y323187D01*
X163624Y324133D01*
X163135Y324981D01*
X162442Y325674D01*
X161593Y326164D01*
X160647Y326417D01*
D02*
G37*
G36*
X135890Y318224D02*
X135342D01*
X134835Y318014D01*
X134448Y317626D01*
X134238Y317120D01*
Y316572D01*
X134448Y316065D01*
X134835Y315678D01*
X135342Y315468D01*
X135890D01*
X136396Y315678D01*
X136784Y316065D01*
X136994Y316572D01*
Y317120D01*
X136784Y317626D01*
X136396Y318014D01*
X135890Y318224D01*
D02*
G37*
G36*
X171828Y320965D02*
X170849D01*
X169903Y320711D01*
X169054Y320221D01*
X168361Y319529D01*
X167872Y318680D01*
X167618Y317734D01*
Y316754D01*
X167872Y315808D01*
X168361Y314960D01*
X169054Y314267D01*
X169903Y313777D01*
X170849Y313524D01*
X171828D01*
X172775Y313777D01*
X173623Y314267D01*
X174316Y314960D01*
X174805Y315808D01*
X175059Y316754D01*
Y317734D01*
X174805Y318680D01*
X174316Y319529D01*
X173623Y320221D01*
X172775Y320711D01*
X171828Y320965D01*
D02*
G37*
G36*
X37565Y319795D02*
X36451D01*
X35374Y319506D01*
X34409Y318949D01*
X33621Y318161D01*
X33064Y317196D01*
X32776Y316119D01*
Y315005D01*
X33064Y313929D01*
X33621Y312964D01*
X34409Y312175D01*
X35374Y311618D01*
X36451Y311330D01*
X37565D01*
X38642Y311618D01*
X39607Y312175D01*
X40394Y312964D01*
X40952Y313929D01*
X41240Y315005D01*
Y316119D01*
X40952Y317196D01*
X40394Y318161D01*
X39607Y318949D01*
X38642Y319506D01*
X37565Y319795D01*
D02*
G37*
G36*
X160647Y315512D02*
X159668D01*
X158721Y315258D01*
X157873Y314769D01*
X157180Y314076D01*
X156691Y313227D01*
X156437Y312281D01*
Y311301D01*
X156691Y310355D01*
X157180Y309507D01*
X157873Y308814D01*
X158721Y308324D01*
X159668Y308071D01*
X160647D01*
X161593Y308324D01*
X162442Y308814D01*
X163135Y309507D01*
X163624Y310355D01*
X163878Y311301D01*
Y312281D01*
X163624Y313227D01*
X163135Y314076D01*
X162442Y314769D01*
X161593Y315258D01*
X160647Y315512D01*
D02*
G37*
G36*
X171828Y310059D02*
X170849D01*
X169903Y309805D01*
X169054Y309316D01*
X168361Y308623D01*
X167872Y307775D01*
X167618Y306828D01*
Y305849D01*
X167872Y304903D01*
X168361Y304054D01*
X169054Y303362D01*
X169903Y302872D01*
X170849Y302618D01*
X171828D01*
X172775Y302872D01*
X173623Y303362D01*
X174316Y304054D01*
X174805Y304903D01*
X175059Y305849D01*
Y306828D01*
X174805Y307775D01*
X174316Y308623D01*
X173623Y309316D01*
X172775Y309805D01*
X171828Y310059D01*
D02*
G37*
G36*
X160647Y304606D02*
X159668D01*
X158721Y304353D01*
X157873Y303863D01*
X157180Y303170D01*
X156691Y302322D01*
X156437Y301376D01*
Y300396D01*
X156691Y299450D01*
X157180Y298601D01*
X157873Y297909D01*
X158721Y297419D01*
X159668Y297165D01*
X160647D01*
X161593Y297419D01*
X162442Y297909D01*
X163135Y298601D01*
X163624Y299450D01*
X163878Y300396D01*
Y301376D01*
X163624Y302322D01*
X163135Y303170D01*
X162442Y303863D01*
X161593Y304353D01*
X160647Y304606D01*
D02*
G37*
G36*
X135888Y297401D02*
X135340D01*
X134834Y297191D01*
X134446Y296803D01*
X134236Y296297D01*
Y295749D01*
X134446Y295242D01*
X134834Y294854D01*
X135340Y294645D01*
X135888D01*
X136395Y294854D01*
X136782Y295242D01*
X136992Y295749D01*
Y296297D01*
X136782Y296803D01*
X136395Y297191D01*
X135888Y297401D01*
D02*
G37*
G36*
X171828Y299153D02*
X170849D01*
X169903Y298900D01*
X169054Y298410D01*
X168361Y297717D01*
X167872Y296869D01*
X167618Y295923D01*
Y294943D01*
X167872Y293997D01*
X168361Y293149D01*
X169054Y292456D01*
X169903Y291966D01*
X170849Y291713D01*
X171828D01*
X172775Y291966D01*
X173623Y292456D01*
X174316Y293149D01*
X174805Y293997D01*
X175059Y294943D01*
Y295923D01*
X174805Y296869D01*
X174316Y297717D01*
X173623Y298410D01*
X172775Y298900D01*
X171828Y299153D01*
D02*
G37*
G36*
X37565Y299795D02*
X36451D01*
X35374Y299506D01*
X34409Y298949D01*
X33621Y298161D01*
X33064Y297196D01*
X32776Y296119D01*
Y295005D01*
X33064Y293929D01*
X33621Y292964D01*
X34409Y292176D01*
X35374Y291618D01*
X36451Y291330D01*
X37565D01*
X38642Y291618D01*
X39607Y292176D01*
X40394Y292964D01*
X40952Y293929D01*
X41240Y295005D01*
Y296119D01*
X40952Y297196D01*
X40394Y298161D01*
X39607Y298949D01*
X38642Y299506D01*
X37565Y299795D01*
D02*
G37*
G36*
X160647Y293701D02*
X159668D01*
X158721Y293447D01*
X157873Y292957D01*
X157180Y292265D01*
X156691Y291416D01*
X156437Y290470D01*
Y289491D01*
X156691Y288544D01*
X157180Y287696D01*
X157873Y287003D01*
X158721Y286513D01*
X159668Y286260D01*
X160647D01*
X161593Y286513D01*
X162442Y287003D01*
X163135Y287696D01*
X163624Y288544D01*
X163878Y289491D01*
Y290470D01*
X163624Y291416D01*
X163135Y292265D01*
X162442Y292957D01*
X161593Y293447D01*
X160647Y293701D01*
D02*
G37*
G36*
X37565Y279795D02*
X36451D01*
X35374Y279506D01*
X34409Y278949D01*
X33621Y278161D01*
X33064Y277196D01*
X32776Y276119D01*
Y275005D01*
X33064Y273929D01*
X33621Y272964D01*
X34409Y272176D01*
X35374Y271618D01*
X36451Y271330D01*
X37565D01*
X38642Y271618D01*
X39607Y272176D01*
X40394Y272964D01*
X40952Y273929D01*
X41240Y275005D01*
Y276119D01*
X40952Y277196D01*
X40394Y278161D01*
X39607Y278949D01*
X38642Y279506D01*
X37565Y279795D01*
D02*
G37*
G36*
X166710Y272362D02*
X164786D01*
X162900Y271987D01*
X161123Y271251D01*
X159524Y270182D01*
X158164Y268823D01*
X157096Y267223D01*
X156360Y265446D01*
X155984Y263560D01*
Y261637D01*
X156360Y259750D01*
X157096Y257974D01*
X158164Y256374D01*
X159524Y255014D01*
X161123Y253946D01*
X162900Y253210D01*
X164786Y252835D01*
X166710D01*
X168596Y253210D01*
X170373Y253946D01*
X171972Y255014D01*
X173332Y256374D01*
X174401Y257974D01*
X175137Y259750D01*
X175512Y261637D01*
Y263560D01*
X175137Y265446D01*
X174401Y267223D01*
X173332Y268823D01*
X171972Y270182D01*
X170373Y271251D01*
X168596Y271987D01*
X166710Y272362D01*
D02*
G37*
G36*
X37565Y259794D02*
X36451D01*
X35374Y259506D01*
X34409Y258949D01*
X33621Y258161D01*
X33064Y257196D01*
X32776Y256119D01*
Y255005D01*
X33064Y253929D01*
X33621Y252963D01*
X34409Y252175D01*
X35374Y251618D01*
X36451Y251330D01*
X37565D01*
X38642Y251618D01*
X39607Y252175D01*
X40394Y252963D01*
X40952Y253929D01*
X41240Y255005D01*
Y256119D01*
X40952Y257196D01*
X40394Y258161D01*
X39607Y258949D01*
X38642Y259506D01*
X37565Y259794D01*
D02*
G37*
G36*
X41240Y239794D02*
X32776D01*
Y231330D01*
X41240D01*
Y239794D01*
D02*
G37*
%LPD*%
D30*
X37008Y95669D02*
D03*
Y115669D02*
D03*
Y135669D02*
D03*
Y155669D02*
D03*
Y175669D02*
D03*
Y195669D02*
D03*
D31*
X160158Y289980D02*
D03*
X171339Y295433D02*
D03*
X160158Y300886D02*
D03*
X171339Y306339D02*
D03*
X160158Y311791D02*
D03*
X171339Y317244D02*
D03*
X160158Y322697D02*
D03*
X171339Y328150D02*
D03*
D32*
X160158Y333602D02*
D03*
D33*
X165748Y360984D02*
D03*
Y262598D02*
D03*
D34*
X35433Y402165D02*
D03*
X185039Y20276D02*
D03*
X35433D02*
D03*
X185039Y402165D02*
D03*
D35*
X150085Y195669D02*
D03*
Y135827D02*
D03*
Y75984D02*
D03*
D36*
X175124Y175669D02*
D03*
X135124D02*
D03*
Y215669D02*
D03*
X175124D02*
D03*
Y115827D02*
D03*
X135124D02*
D03*
Y155827D02*
D03*
X175124D02*
D03*
Y55984D02*
D03*
X135124D02*
D03*
Y95984D02*
D03*
X175124D02*
D03*
D37*
X37008Y335562D02*
D03*
Y315562D02*
D03*
Y295562D02*
D03*
Y275562D02*
D03*
Y255562D02*
D03*
D38*
Y235562D02*
D03*
D39*
X135614Y296023D02*
D03*
X135616Y316846D02*
D03*
M02*
