G04*
G04 #@! TF.GenerationSoftware,Altium Limited,Altium Designer,25.8.1 (18)*
G04*
G04 Layer_Color=65535*
%FSLAX25Y25*%
%MOIN*%
G70*
G04*
G04 #@! TF.SameCoordinates,6789479A-0495-4DC5-A9C5-A3C395FB81A6*
G04*
G04*
G04 #@! TF.FilePolarity,Positive*
G04*
G01*
G75*
%ADD10C,0.00787*%
%ADD11C,0.00013*%
%ADD12C,0.03937*%
%ADD13C,0.00394*%
%ADD14C,0.01000*%
%ADD15C,0.00591*%
%ADD16C,0.01575*%
G36*
X89880Y77167D02*
X90249Y77014D01*
X90566Y76772D01*
X90566Y76771D01*
X90566Y76771D01*
X90809Y76455D01*
X90962Y76086D01*
X90997Y75820D01*
X91014Y75690D01*
Y75557D01*
Y54720D01*
X91003Y54591D01*
X91003Y54591D01*
X91049Y54361D01*
X91179Y54166D01*
X91180Y54165D01*
X91374Y54036D01*
X91604Y53990D01*
X91607Y53991D01*
X91736Y54001D01*
X97644D01*
X97646Y53999D01*
Y53999D01*
X97646Y53999D01*
X97864Y53956D01*
X98051Y53831D01*
X98176Y53644D01*
X98195Y53548D01*
X98218Y53423D01*
X98219Y53417D01*
X98197Y53298D01*
X98176Y53191D01*
X98055Y53010D01*
X97951Y52937D01*
X97864Y52879D01*
X97646Y52836D01*
X97646D01*
X97644Y52833D01*
X91389D01*
Y52833D01*
X90995Y52885D01*
X90626Y53038D01*
X90308Y53282D01*
X90065Y53599D01*
X89912Y53969D01*
X89877Y54236D01*
X89860Y54365D01*
X89860Y54499D01*
Y75475D01*
X89871Y75475D01*
X89825Y75706D01*
X89694Y75902D01*
X89498Y76033D01*
X89270Y76079D01*
X89270Y76068D01*
X89270Y76068D01*
X72022D01*
X72022Y76068D01*
X72022Y76079D01*
X71793Y76033D01*
X71597Y75902D01*
X71467Y75706D01*
X71421Y75475D01*
X71421Y75475D01*
X71432Y75346D01*
Y54379D01*
X71432Y54379D01*
X71430Y54379D01*
X71432Y54365D01*
X71380Y53969D01*
X71227Y53599D01*
X70989Y53290D01*
X70889Y53209D01*
X70666Y53038D01*
X70296Y52885D01*
X69905Y52834D01*
X69905Y52833D01*
X55024D01*
Y52835D01*
X54804Y52879D01*
X54721Y52934D01*
X54617Y53004D01*
X54492Y53191D01*
X54448Y53412D01*
X54492Y53632D01*
X54547Y53715D01*
X54617Y53819D01*
X54804Y53944D01*
X55024Y53988D01*
Y53990D01*
X69555D01*
X69685Y53980D01*
X69688Y53979D01*
X69918Y54025D01*
X70113Y54155D01*
X70243Y54350D01*
X70289Y54580D01*
X70278D01*
Y75557D01*
X70278Y75690D01*
X70294Y75817D01*
X70330Y76086D01*
X70482Y76455D01*
X70725Y76771D01*
X70726Y76771D01*
X70726Y76772D01*
X71042Y77014D01*
X71411Y77167D01*
X71807Y77219D01*
X71807Y77219D01*
X89485D01*
X89485Y77219D01*
X89880Y77167D01*
D02*
G37*
G36*
X48742Y77219D02*
X65193D01*
X65194Y77208D01*
X65240Y77214D01*
X65430Y77189D01*
X65607Y77116D01*
X65759Y76999D01*
X65876Y76847D01*
X65949Y76670D01*
X65974Y76481D01*
X65949Y76291D01*
X65876Y76114D01*
X65797Y76012D01*
X65806Y76004D01*
X65806Y76004D01*
X49104Y53398D01*
X49086Y53396D01*
X49086D01*
X48966Y53239D01*
X48679Y53019D01*
X48344Y52880D01*
X48045Y52841D01*
X48045D01*
X48037Y52833D01*
X30978D01*
Y52833D01*
X30584Y52885D01*
X30215Y53038D01*
X29898Y53282D01*
X29654Y53599D01*
X29501Y53969D01*
X29466Y54236D01*
X29449Y54365D01*
X29449D01*
Y54499D01*
Y76526D01*
X29451D01*
X29495Y76747D01*
X29620Y76934D01*
X29725Y77004D01*
X29807Y77059D01*
X29898Y77077D01*
X30027Y77103D01*
Y77103D01*
X30245Y77059D01*
X30432Y76934D01*
X30557Y76747D01*
X30601Y76526D01*
X30603Y76526D01*
Y54723D01*
X30592Y54594D01*
Y54594D01*
X30638Y54364D01*
X30768Y54169D01*
X30769Y54168D01*
X30769D01*
X30963Y54039D01*
X31193Y53993D01*
X31196Y53993D01*
X31326Y54004D01*
X48045D01*
X48047Y54004D01*
X48090Y54013D01*
X48174Y54068D01*
X48174Y54068D01*
X48174Y54071D01*
X64144Y75713D01*
X64227Y75817D01*
X64267Y75915D01*
X64268Y75916D01*
X64217Y76038D01*
X64095Y76089D01*
X64094Y76089D01*
X64091Y76088D01*
X63961Y76077D01*
X48960D01*
Y76087D01*
X48729Y76042D01*
X48533Y75911D01*
X48402Y75715D01*
X48356Y75484D01*
X48367Y75473D01*
Y60461D01*
X48367Y60460D01*
X48365Y60460D01*
X48365Y60458D01*
X48322Y60238D01*
X48197Y60052D01*
X48011Y59928D01*
X47792Y59884D01*
Y59884D01*
X47665Y59909D01*
X47571Y59928D01*
X47384Y60053D01*
X47314Y60158D01*
X47259Y60240D01*
X47215Y60461D01*
X47213D01*
Y75690D01*
X47213Y75691D01*
X47265Y76086D01*
X47418Y76455D01*
X47661Y76771D01*
X47661Y76771D01*
X47661Y76772D01*
X47978Y77014D01*
X48346Y77167D01*
X48742Y77219D01*
X48742Y77219D01*
D02*
G37*
G36*
X50767Y45722D02*
X51568Y45586D01*
X52161Y45415D01*
X52172Y45420D01*
X52732Y45188D01*
X53263Y44863D01*
X53656Y44527D01*
X53750Y44434D01*
X54067Y44063D01*
X54379Y43554D01*
X54607Y43002D01*
X54638Y42876D01*
X54634Y42875D01*
X54744Y42494D01*
X54879Y41700D01*
X54924Y40896D01*
X54919Y40812D01*
X54925Y40812D01*
X54925Y40811D01*
Y32125D01*
X53545D01*
Y33564D01*
Y33687D01*
X53545Y33835D01*
X53543Y33840D01*
X53525Y33850D01*
X53412Y33747D01*
X53320Y33664D01*
X53270Y33618D01*
X52530Y33070D01*
X52134Y32832D01*
X52134D01*
X52020Y32761D01*
X51503Y32475D01*
X50939Y32242D01*
X50813Y32196D01*
X50690Y32155D01*
X50302Y32023D01*
X49659Y31895D01*
X49526Y31880D01*
X49181Y31829D01*
X48362Y31789D01*
X48229Y31787D01*
X48097Y31790D01*
X47539Y31827D01*
X46899Y31954D01*
X46591Y32059D01*
X46464Y32102D01*
X46065Y32267D01*
X45542Y32588D01*
X45281Y32810D01*
X45281Y32810D01*
X45119Y32949D01*
X44761Y33368D01*
X44473Y33838D01*
X44409Y33991D01*
X44409D01*
X44359Y34113D01*
X44257Y34359D01*
X44125Y34908D01*
X44087Y35386D01*
X44087Y35520D01*
X44087D01*
X44083Y35562D01*
X44081Y35653D01*
X44128Y36250D01*
X44274Y36861D01*
X44515Y37441D01*
X44843Y37976D01*
X45250Y38454D01*
X45728Y38862D01*
X46048Y39057D01*
X46156Y39131D01*
X46275Y39210D01*
X46787Y39463D01*
X46910Y39514D01*
X47273Y39665D01*
X47401Y39704D01*
X47721Y39819D01*
X47930Y39871D01*
Y39871D01*
X47930Y39872D01*
X48369Y39981D01*
X48500Y40009D01*
Y40009D01*
X48930Y40104D01*
X49108Y40127D01*
X49108Y40128D01*
X49624Y40196D01*
X49757Y40212D01*
X49889Y40227D01*
X50310Y40277D01*
X50311Y40277D01*
X50444Y40283D01*
X50577Y40292D01*
X51038Y40308D01*
X51171Y40313D01*
X51305Y40317D01*
X51928Y40338D01*
X51938Y40338D01*
Y40339D01*
X53530Y40339D01*
X53530D01*
X53530Y40339D01*
X53535Y40341D01*
X53535Y40341D01*
X53544Y40346D01*
X53548Y40419D01*
Y40419D01*
X53546Y40466D01*
X53504Y41426D01*
X53451Y41828D01*
X53436Y41962D01*
X53428Y42061D01*
X53420Y42094D01*
X53322Y42503D01*
X53148Y42923D01*
X52950Y43246D01*
X52868Y43346D01*
X52708Y43541D01*
X52330Y43851D01*
X51955Y44052D01*
X51899Y44082D01*
X51831Y44102D01*
X51831Y44102D01*
X51829Y44097D01*
X51415Y44238D01*
X50720Y44376D01*
X50012Y44423D01*
X49933Y44417D01*
X49799Y44418D01*
X49781Y44419D01*
X49667Y44414D01*
X49082Y44385D01*
X48949Y44377D01*
X48751Y44365D01*
Y44365D01*
X48722Y44362D01*
X48621Y44345D01*
X48445Y44315D01*
X48440Y44319D01*
X48271Y44286D01*
X48150Y44261D01*
X48149Y44262D01*
X48148Y44261D01*
X48024Y44236D01*
X47871Y44206D01*
X47865Y44196D01*
X47742Y44166D01*
X47638Y44141D01*
X47615Y44132D01*
X47616Y44130D01*
X47382Y44033D01*
Y44033D01*
X47161Y43942D01*
X47164Y43935D01*
X46963Y43827D01*
Y43827D01*
X46883Y43784D01*
X46852Y43758D01*
X46521Y43487D01*
X46225Y43126D01*
X46004Y42713D01*
X45869Y42266D01*
X45848Y42054D01*
X44598D01*
X44526Y42131D01*
X44511Y42188D01*
X44600Y42634D01*
X44626Y42761D01*
X44658Y42890D01*
X44725Y43087D01*
D01*
Y43087D01*
Y43087D01*
X44719Y43101D01*
X44791Y43273D01*
X44842Y43396D01*
X44842D01*
X44941Y43636D01*
X45227Y44102D01*
X45564Y44497D01*
X45878Y44766D01*
X45980Y44848D01*
X46089Y44915D01*
X46421Y45118D01*
X46544Y45171D01*
X46735Y45265D01*
X46843Y45306D01*
X46860Y45311D01*
X46985Y45354D01*
X47203Y45428D01*
X47203Y45429D01*
X47415Y45501D01*
X47570Y45532D01*
X47700Y45565D01*
X47964Y45610D01*
Y45610D01*
X47964Y45610D01*
X48248Y45658D01*
X48381Y45676D01*
X48641Y45714D01*
X48824Y45723D01*
X48825Y45724D01*
X49159Y45740D01*
X49292Y45746D01*
X49652Y45762D01*
X49786Y45758D01*
X49957Y45768D01*
X50767Y45722D01*
D02*
G37*
G36*
X42085Y45743D02*
X42098Y44480D01*
X41999Y44390D01*
X41824Y44407D01*
X41706Y44418D01*
X41691Y44417D01*
X41561Y44407D01*
X41317D01*
X41186Y44415D01*
X41181Y44416D01*
X41056Y44406D01*
X40735Y44380D01*
X40300Y44276D01*
X40037Y44167D01*
X40035Y44171D01*
X39535Y43925D01*
X39083Y43622D01*
X38995Y43564D01*
X38974Y43545D01*
X38881Y43475D01*
X38330Y42982D01*
X38133Y42762D01*
X38045Y42663D01*
X38044Y42663D01*
X38044Y42662D01*
X37955Y42562D01*
X37785Y42371D01*
X37361Y41775D01*
X37345Y41752D01*
X37294Y41660D01*
X37299Y41657D01*
X37298Y41654D01*
Y32125D01*
X35918D01*
Y45424D01*
X37298D01*
Y43887D01*
X37298Y43763D01*
Y43602D01*
X37297Y43601D01*
X37298Y43597D01*
Y43594D01*
X37300Y43589D01*
X37305Y43587D01*
X37305Y43587D01*
X37317Y43584D01*
X37431Y43712D01*
X37514Y43804D01*
X37745Y44062D01*
X38344Y44598D01*
X38483Y44697D01*
X38590Y44777D01*
X39113Y45127D01*
X39596Y45365D01*
X39596Y45365D01*
X40023Y45542D01*
X40634Y45688D01*
X40639Y45685D01*
X40791Y45715D01*
X41554Y45765D01*
X41554D01*
X41557Y45767D01*
X41813D01*
X42085Y45743D01*
D02*
G37*
G36*
X110215Y45720D02*
X110819Y45575D01*
X111393Y45337D01*
X111572Y45228D01*
X111685Y45158D01*
X111798Y45087D01*
X112169Y44770D01*
X112514Y44366D01*
X112791Y43913D01*
X112978Y43462D01*
X112982Y43451D01*
X112995Y43420D01*
X113016Y43330D01*
X113047Y43324D01*
X113194Y43545D01*
X113729Y44155D01*
X114142Y44517D01*
X114141Y44518D01*
X114282Y44642D01*
X114901Y45055D01*
X115318Y45261D01*
X115317Y45262D01*
X115495Y45350D01*
X116139Y45568D01*
X116518Y45644D01*
X116518Y45645D01*
X116988Y45724D01*
X117559Y45757D01*
X117691Y45764D01*
Y45764D01*
X117693Y45764D01*
X117824Y45763D01*
X118427Y45715D01*
X118905Y45600D01*
X119029Y45570D01*
X119151Y45522D01*
X119467Y45390D01*
X119583Y45323D01*
X119583D01*
X119872Y45145D01*
X120233Y44837D01*
X120541Y44477D01*
X120746Y44143D01*
X120804Y44022D01*
X120953Y43718D01*
X121063Y43395D01*
X121063Y43395D01*
X121063Y43395D01*
X121163Y43102D01*
X121222Y42802D01*
X121248Y42671D01*
X121272Y42540D01*
X121349Y42089D01*
X121362Y41850D01*
X121372Y41717D01*
X121409Y40960D01*
X121407Y40931D01*
X121409Y40931D01*
X121425Y32220D01*
X121331Y32125D01*
X120046D01*
Y40682D01*
X120057Y40811D01*
X120058Y40832D01*
X120052Y40943D01*
X120023Y41532D01*
X120015Y41666D01*
X120003Y41862D01*
X119980Y41990D01*
X119972Y42035D01*
X119953Y42168D01*
X119953D01*
X119897Y42453D01*
X119870Y42584D01*
X119854Y42666D01*
X119836Y42719D01*
X119804Y42838D01*
X119802Y42848D01*
X119802Y42848D01*
X119799Y42859D01*
X119756Y42962D01*
X119756Y42962D01*
X119664Y43183D01*
X119668Y43185D01*
X119562Y43383D01*
X119562D01*
X119562Y43383D01*
X119488Y43520D01*
X119451Y43565D01*
X119451Y43565D01*
X119450Y43564D01*
X119274Y43779D01*
X119111Y43913D01*
X119107Y43916D01*
X119104Y43919D01*
X119014Y43992D01*
X119007Y43998D01*
Y43998D01*
X118934Y44037D01*
X118819Y44098D01*
X118819Y44098D01*
X118817Y44100D01*
X118817D01*
X118653Y44187D01*
X118616Y44199D01*
X118518Y44229D01*
X118392Y44267D01*
X118393Y44270D01*
X118154Y44328D01*
X118154Y44328D01*
X118031Y44357D01*
X118009Y44363D01*
X117899Y44372D01*
Y44372D01*
X117626Y44394D01*
X117492Y44402D01*
X117341Y44412D01*
X117337Y44411D01*
Y44411D01*
X117210Y44400D01*
X116768Y44365D01*
X116165Y44220D01*
X115592Y43983D01*
X115173Y43726D01*
X115170Y43729D01*
X114518Y43246D01*
X113881Y42669D01*
X113304Y42032D01*
X113137Y41806D01*
X113138Y41806D01*
X113136Y41801D01*
Y32119D01*
X111756D01*
Y40679D01*
X111761Y40811D01*
X111767Y40929D01*
X111767Y40944D01*
X111724Y41807D01*
X111630Y42444D01*
X111632Y42445D01*
X111622Y42548D01*
X111614Y42576D01*
X111464Y43069D01*
X111259Y43452D01*
X111207Y43549D01*
X111192Y43568D01*
X111192Y43568D01*
X111185Y43564D01*
X111003Y43785D01*
X110724Y44015D01*
X110467Y44152D01*
X110405Y44185D01*
X110345Y44203D01*
X110222Y44253D01*
X110216Y44255D01*
X109707Y44377D01*
X109219Y44416D01*
X109185Y44418D01*
X109086Y44416D01*
Y44416D01*
X108547Y44373D01*
X107991Y44240D01*
X107463Y44021D01*
X106997Y43736D01*
X107002Y43729D01*
X106504Y43360D01*
X105796Y42717D01*
X105153Y42009D01*
X105008Y41813D01*
X105010Y41811D01*
X105008Y41807D01*
Y41807D01*
Y32125D01*
X103628D01*
Y45424D01*
X105008D01*
Y43743D01*
X105008Y43619D01*
Y43455D01*
X105010Y43450D01*
X105010Y43450D01*
X105015Y43448D01*
X105015Y43448D01*
X105016Y43448D01*
X105029Y43443D01*
X105142Y43567D01*
X105142D01*
X105225Y43659D01*
X105448Y43905D01*
X106096Y44492D01*
X106334Y44669D01*
Y44669D01*
X106337Y44684D01*
X106980Y45114D01*
X107490Y45365D01*
X107490Y45365D01*
X107490D01*
X107923Y45544D01*
X108516Y45687D01*
X108526Y45680D01*
D01*
X108526Y45680D01*
X108526Y45680D01*
X108791Y45725D01*
X109332Y45755D01*
X109466Y45759D01*
Y45759D01*
X109596Y45769D01*
X110215Y45720D01*
D02*
G37*
G36*
X80222Y45760D02*
X80356Y45762D01*
X81004Y45726D01*
X81697Y45608D01*
X82372Y45413D01*
X82696Y45279D01*
X82707Y45284D01*
X83269Y45007D01*
X83824Y44636D01*
X84326Y44195D01*
X84576Y43910D01*
X84576Y43911D01*
X84785Y43672D01*
X85237Y42996D01*
X85597Y42266D01*
X85781Y41724D01*
X85781Y41724D01*
X85781D01*
X85788Y41720D01*
X86012Y40828D01*
X86163Y39808D01*
X86213Y38779D01*
X86163Y37749D01*
X86012Y36730D01*
X85789Y35839D01*
X85780Y35835D01*
X85780D01*
X85713Y35602D01*
X85442Y34948D01*
X85100Y34328D01*
X84690Y33751D01*
X84584Y33632D01*
X84582Y33634D01*
X84338Y33355D01*
X83832Y32912D01*
X83272Y32537D01*
X82709Y32260D01*
X82699Y32264D01*
D01*
X82699D01*
X82699D01*
X82458Y32164D01*
X81738Y31956D01*
X80999Y31831D01*
X80251Y31789D01*
X79503Y31831D01*
X78764Y31956D01*
X78044Y32164D01*
X77803Y32264D01*
X77792Y32259D01*
X77223Y32540D01*
X76678Y32904D01*
X76185Y33336D01*
X75932Y33625D01*
X75930Y33624D01*
X75813Y33755D01*
X75399Y34338D01*
X75053Y34964D01*
X74779Y35625D01*
X74721Y35826D01*
X74713Y35831D01*
X74485Y36741D01*
X74334Y37759D01*
X74283Y38787D01*
X74334Y39815D01*
X74485Y40833D01*
X74713Y41744D01*
X74721Y41749D01*
Y41749D01*
X74906Y42294D01*
X75265Y43021D01*
X75715Y43695D01*
X75923Y43933D01*
X75924Y43932D01*
X76160Y44202D01*
X76664Y44644D01*
X77221Y45017D01*
X77800Y45302D01*
X77800Y45302D01*
Y45302D01*
X77802Y45305D01*
X78544Y45557D01*
X79340Y45715D01*
X80088Y45764D01*
X80222Y45760D01*
D02*
G37*
G36*
X17830Y40000D02*
X17830Y40000D01*
X17823Y40000D01*
X17831Y39814D01*
X17780Y38521D01*
X17628Y37236D01*
X17489Y36536D01*
X17490Y36535D01*
X17454Y36326D01*
X17258Y35644D01*
X16987Y34989D01*
X16644Y34368D01*
X16350Y33955D01*
X16350D01*
X16350Y33955D01*
X16351Y33949D01*
X15970Y33515D01*
X15470Y33077D01*
X14918Y32707D01*
X14322Y32414D01*
X14134Y32350D01*
X14133Y32351D01*
X13701Y32197D01*
X12777Y31965D01*
X11835Y31826D01*
X10883Y31779D01*
X10594Y31793D01*
X10593Y31790D01*
X10387Y31780D01*
X9364Y31830D01*
X8351Y31981D01*
X7698Y32144D01*
X7685Y32137D01*
X6943Y32389D01*
X6222Y32745D01*
X5810Y33019D01*
X5701Y33093D01*
X5701D01*
X5593Y33171D01*
X5172Y33541D01*
X4765Y34004D01*
X4442Y34488D01*
X4445Y34497D01*
Y34497D01*
X4444D01*
X4185Y34966D01*
X3884Y35693D01*
X3735Y36209D01*
X3736Y36210D01*
X3736D01*
X3736Y36210D01*
X3591Y36790D01*
X3450Y37736D01*
X3433Y38097D01*
X3420Y38108D01*
X3391Y38670D01*
X3399Y38679D01*
X3399D01*
X3399Y38679D01*
X3386Y39119D01*
X3382Y39253D01*
X3382D01*
X3365Y39817D01*
X3360Y39822D01*
X3359Y40003D01*
Y50923D01*
X4739D01*
Y40058D01*
X4737Y40056D01*
X4737D01*
X4737Y40056D01*
X4723Y39728D01*
X4772Y38600D01*
X4920Y37481D01*
X5125Y36556D01*
X5124Y36556D01*
X5140Y36480D01*
X5158Y36427D01*
X5342Y35882D01*
X5621Y35317D01*
X5972Y34792D01*
X6273Y34448D01*
X6267Y34441D01*
X6733Y34043D01*
X7258Y33721D01*
X7826Y33485D01*
X7986Y33447D01*
X8116Y33415D01*
X8491Y33321D01*
X9488Y33174D01*
X10494Y33124D01*
X10601Y33129D01*
X10700Y33124D01*
X10734Y33126D01*
X11736Y33175D01*
X12761Y33327D01*
X13113Y33415D01*
X13113Y33416D01*
X13113Y33416D01*
X13420Y33490D01*
X13968Y33717D01*
X14473Y34026D01*
X14863Y34359D01*
X14924Y34411D01*
X14959Y34453D01*
X14954Y34458D01*
X14954Y34458D01*
X14954Y34458D01*
X15040Y34556D01*
X15206Y34746D01*
X15564Y35282D01*
X15849Y35859D01*
X16045Y36435D01*
X16056Y36469D01*
X16075Y36565D01*
X16074Y36565D01*
X16267Y37436D01*
X16417Y38572D01*
X16467Y39715D01*
X16452Y40056D01*
Y40056D01*
X16450Y40058D01*
Y50923D01*
X17830D01*
Y40000D01*
D02*
G37*
G36*
X90958Y43742D02*
X90958Y43619D01*
Y43619D01*
X90958Y43455D01*
X90960Y43450D01*
X90965Y43448D01*
X90965Y43448D01*
X90980Y43442D01*
X91092Y43568D01*
X91174Y43660D01*
X91379Y43890D01*
X92083Y44519D01*
X92263Y44646D01*
X92264Y44653D01*
X92825Y45027D01*
X93371Y45296D01*
X93490Y45352D01*
X93615Y45397D01*
X94129Y45572D01*
X94501Y45646D01*
X94632Y45669D01*
X94960Y45724D01*
X95526Y45756D01*
X95658Y45762D01*
Y45762D01*
X95678Y45763D01*
X95791Y45762D01*
X96418Y45721D01*
X97015Y45602D01*
X97144Y45565D01*
X97272Y45533D01*
X97764Y45329D01*
Y45329D01*
X97764Y45329D01*
X97766Y45329D01*
X98207Y45059D01*
X98605Y44719D01*
X98945Y44320D01*
X99219Y43874D01*
X99365Y43522D01*
X99408Y43395D01*
X99556Y42958D01*
X99613Y42671D01*
X99641Y42540D01*
X99733Y41996D01*
X99742Y41850D01*
X99742D01*
X99753Y41717D01*
X99790Y40954D01*
X99789Y40931D01*
X99791Y40931D01*
X99791Y40931D01*
Y32125D01*
X98412D01*
Y40679D01*
X98417Y40811D01*
X98423Y40909D01*
X98421Y40944D01*
X98379Y41691D01*
X98255Y42421D01*
X98255Y42421D01*
X98115Y42880D01*
X97865Y43348D01*
X97794Y43434D01*
X97710Y43537D01*
X97710Y43538D01*
X97610Y43659D01*
X97267Y43942D01*
X96875Y44151D01*
X96865Y44154D01*
X96740Y44203D01*
X96725Y44210D01*
X96610Y44237D01*
X96063Y44368D01*
X95403Y44420D01*
X95385Y44422D01*
X95270Y44417D01*
Y44417D01*
X94665Y44370D01*
X94052Y44222D01*
X93468Y43981D01*
X93073Y43739D01*
X93069Y43746D01*
X93053Y43736D01*
X92960Y43668D01*
X92252Y43142D01*
X91513Y42472D01*
X90947Y41848D01*
X90951Y41845D01*
X90950Y41840D01*
Y32125D01*
X89570D01*
Y50923D01*
X90950D01*
X90958Y43742D01*
D02*
G37*
G36*
X71744Y49093D02*
X59099Y33715D01*
X59020Y33619D01*
Y33619D01*
X58920Y33497D01*
X58919Y33495D01*
X58918Y33492D01*
X58918Y33492D01*
X58918Y33492D01*
X58918Y33492D01*
X58919Y33490D01*
X58920Y33487D01*
X58920Y33487D01*
X58921Y33487D01*
X58921Y33487D01*
X58923Y33486D01*
X58925Y33485D01*
X59083D01*
X59207Y33485D01*
X72101D01*
Y32125D01*
X57527D01*
Y33936D01*
X70151Y49330D01*
X70229Y49426D01*
X70329Y49548D01*
X70330Y49551D01*
X70331Y49553D01*
X70331Y49553D01*
X70331Y49553D01*
X70330Y49556D01*
X70329Y49558D01*
X70328Y49558D01*
X70328Y49558D01*
X70328Y49558D01*
X70326Y49559D01*
X70324Y49560D01*
X58653D01*
Y50923D01*
X71744D01*
Y49093D01*
D02*
G37*
G36*
X24065Y32125D02*
X22685D01*
Y50923D01*
X24065D01*
Y32125D01*
D02*
G37*
G36*
X30408Y45434D02*
X30410Y45429D01*
X30415Y45427D01*
X32608D01*
Y44067D01*
X30415D01*
X30410Y44065D01*
X30408Y44060D01*
Y35803D01*
X30403Y35798D01*
X30403D01*
X30403Y35798D01*
X30395Y35663D01*
X30443Y34920D01*
X30531Y34481D01*
X30523Y34479D01*
X30620Y34160D01*
X30778Y33865D01*
X30895Y33723D01*
X30895Y33722D01*
X30895Y33722D01*
X30895Y33722D01*
X30893Y33720D01*
X30932Y33670D01*
X30987Y33627D01*
X31161Y33494D01*
X31368Y33408D01*
X31428Y33383D01*
X31495Y33374D01*
X31624Y33344D01*
X31671Y33333D01*
X32169Y33294D01*
X32257Y33287D01*
X32303Y33291D01*
X32434Y33298D01*
X32632D01*
X32689Y33298D01*
X32718Y33299D01*
X32719Y33299D01*
X32749Y33299D01*
X32749Y33299D01*
X32808Y33301D01*
X32813Y33300D01*
X32885Y33249D01*
X32936Y33184D01*
X32934Y32004D01*
X32764Y31986D01*
X32646Y31975D01*
X32529Y31965D01*
X32486Y31962D01*
X32351Y31965D01*
X32176Y31953D01*
X32176Y31953D01*
X32043Y31938D01*
X32000Y31937D01*
X32000D01*
X31941Y31936D01*
X31892Y31936D01*
X31764Y31946D01*
X31625Y31935D01*
X31080Y31977D01*
X30548Y32105D01*
X30325Y32197D01*
X30317Y32195D01*
X30038Y32344D01*
X29774Y32560D01*
X29558Y32823D01*
X29498Y32936D01*
X29498D01*
X29432Y33052D01*
X29262Y33464D01*
X29144Y33953D01*
X29127Y34172D01*
X29126Y34172D01*
X29076Y34602D01*
X29029Y35792D01*
X29034Y35915D01*
X29028Y35915D01*
X29028Y35915D01*
Y44057D01*
X29026Y44062D01*
X29021Y44064D01*
X27313D01*
Y45424D01*
X29021D01*
X29026Y45427D01*
X29028Y45432D01*
Y48915D01*
X30408D01*
Y45434D01*
D02*
G37*
G36*
X62691Y412075D02*
X62698Y411943D01*
X62713Y411820D01*
X62727Y411710D01*
X62742Y411608D01*
X62764Y411513D01*
X62779Y411426D01*
X62793Y411346D01*
X62815Y411280D01*
X62830Y411222D01*
X62844Y411178D01*
X62859Y411142D01*
X62866Y411112D01*
X62873Y411098D01*
Y411091D01*
X62954Y410930D01*
X63056Y410784D01*
X63158Y410668D01*
X63267Y410566D01*
X63362Y410486D01*
X63442Y410427D01*
X63471Y410413D01*
X63493Y410398D01*
X63508Y410384D01*
X63515D01*
X63697Y410303D01*
X63887Y410245D01*
X64083Y410201D01*
X64266Y410172D01*
X64346Y410165D01*
X64426Y410157D01*
X64499Y410150D01*
X64557D01*
X64608Y410143D01*
X62684D01*
Y412213D01*
X62691Y412075D01*
D02*
G37*
G36*
X156491Y415990D02*
Y408116D01*
X62684D01*
Y410143D01*
X64674D01*
X64936Y410157D01*
X65053Y410172D01*
X65162Y410187D01*
X65272Y410209D01*
X65367Y410230D01*
X65454Y410252D01*
X65534Y410281D01*
X65607Y410311D01*
X65665Y410332D01*
X65724Y410354D01*
X65768Y410376D01*
X65804Y410398D01*
X65826Y410405D01*
X65840Y410420D01*
X65848D01*
X66008Y410529D01*
X66139Y410653D01*
X66241Y410770D01*
X66329Y410886D01*
X66394Y410989D01*
X66438Y411069D01*
X66453Y411098D01*
X66467Y411120D01*
X66475Y411134D01*
Y411142D01*
X66504Y411229D01*
X66533Y411324D01*
X66577Y411521D01*
X66606Y411725D01*
X66628Y411922D01*
X66635Y412009D01*
X66642Y412097D01*
Y412170D01*
X66650Y412235D01*
Y415275D01*
X65381D01*
X65979D01*
Y412359D01*
Y412191D01*
X65964Y412031D01*
X65950Y411893D01*
X65928Y411761D01*
X65906Y411645D01*
X65877Y411535D01*
X65855Y411441D01*
X65826Y411360D01*
X65797Y411295D01*
X65768Y411229D01*
X65738Y411185D01*
X65716Y411142D01*
X65695Y411112D01*
X65680Y411091D01*
X65673Y411083D01*
X65665Y411076D01*
X65600Y411018D01*
X65527Y410967D01*
X65367Y410886D01*
X65199Y410828D01*
X65024Y410792D01*
X64864Y410763D01*
X64798Y410755D01*
X64732D01*
X64689Y410748D01*
X64616D01*
X64463Y410755D01*
X64324Y410777D01*
X64193Y410799D01*
X64091Y410836D01*
X64003Y410865D01*
X63938Y410886D01*
X63901Y410908D01*
X63887Y410916D01*
X63785Y410981D01*
X63697Y411061D01*
X63624Y411142D01*
X63573Y411214D01*
X63529Y411287D01*
X63493Y411339D01*
X63478Y411375D01*
X63471Y411389D01*
X63449Y411455D01*
X63435Y411521D01*
X63406Y411674D01*
X63384Y411834D01*
X63369Y411995D01*
X63362Y412133D01*
Y412199D01*
X63354Y412250D01*
Y412293D01*
Y412330D01*
Y412352D01*
Y412359D01*
Y415275D01*
X62684D01*
Y415990D01*
X156491D01*
D02*
G37*
G36*
X150926Y400242D02*
Y392368D01*
Y384494D01*
X68249D01*
Y392368D01*
Y400242D01*
X150926D01*
D02*
G37*
G36*
D02*
X68249D01*
Y408116D01*
X150926D01*
Y400242D01*
D02*
G37*
%LPC*%
G36*
X51415Y38989D02*
X51312Y38986D01*
X50298Y38950D01*
X50165Y38942D01*
X50074Y38939D01*
X49775Y38903D01*
X49771Y38906D01*
Y38906D01*
X49275Y38841D01*
X49275Y38841D01*
X49275Y38841D01*
X48809Y38771D01*
X48803Y38764D01*
X48504Y38713D01*
X48374Y38675D01*
X48374Y38674D01*
X47971Y38558D01*
X47971Y38559D01*
X47596Y38432D01*
X47596Y38431D01*
X47470Y38388D01*
X47375Y38342D01*
X47253Y38286D01*
X47134Y38237D01*
X46943Y38119D01*
X46942Y38119D01*
X46654Y37964D01*
X46242Y37626D01*
X45904Y37214D01*
X45653Y36744D01*
X45498Y36234D01*
X45454Y35789D01*
X45446Y35704D01*
X45451Y35656D01*
X45448Y35577D01*
X45489Y35158D01*
X45611Y34754D01*
X45810Y34383D01*
X46077Y34057D01*
X46394Y33797D01*
X46396Y33800D01*
X46764Y33574D01*
X47023Y33467D01*
Y33467D01*
X47023Y33467D01*
X47267Y33366D01*
X47502Y33309D01*
X47507Y33301D01*
X47642Y33274D01*
X47772Y33248D01*
X47773Y33248D01*
Y33248D01*
X47774Y33248D01*
X47774Y33248D01*
X47903Y33222D01*
X48049Y33193D01*
X48049Y33192D01*
X48090Y33184D01*
X48208Y33176D01*
X48341Y33166D01*
X48647Y33149D01*
Y33149D01*
X48779Y33141D01*
X48962Y33131D01*
X48965Y33131D01*
X48984Y33133D01*
X49561Y33171D01*
X50129Y33284D01*
X50343Y33356D01*
X50346Y33355D01*
X50346D01*
Y33355D01*
X50514Y33404D01*
X51175Y33678D01*
X51604Y33915D01*
X51604Y33915D01*
X51834Y34042D01*
X52517Y34526D01*
X52685Y34676D01*
X52690Y34676D01*
X53299Y35228D01*
X53544Y35498D01*
X53543Y35498D01*
X53545Y35503D01*
Y38971D01*
X53543Y38976D01*
X53538Y38978D01*
X51574D01*
X51444Y38989D01*
X51415Y38989D01*
D02*
G37*
G36*
X80214Y44418D02*
X79538Y44373D01*
X78874Y44241D01*
X78338Y44060D01*
X78340Y44055D01*
X78062Y43940D01*
X77543Y43621D01*
X77079Y43225D01*
X76977Y43106D01*
X76977Y43106D01*
X76890Y43005D01*
X76747Y42843D01*
X76399Y42322D01*
X76122Y41761D01*
X75950Y41253D01*
X75953Y41252D01*
X75794Y40617D01*
X75660Y39710D01*
X75615Y38793D01*
X75660Y37876D01*
X75794Y36968D01*
X75953Y36334D01*
X75950Y36333D01*
X76127Y35810D01*
X76414Y35230D01*
X76773Y34692D01*
X76889Y34560D01*
X76890Y34561D01*
X76890Y34561D01*
X76891Y34560D01*
X77109Y34306D01*
X77563Y33917D01*
X78073Y33605D01*
X78340Y33494D01*
X78337Y33487D01*
X78898Y33297D01*
X79520Y33173D01*
X80153Y33132D01*
X80222Y33136D01*
X80283Y33132D01*
X80355Y33137D01*
X80910Y33173D01*
X81527Y33296D01*
X82090Y33487D01*
X82087Y33494D01*
X82354Y33605D01*
X82864Y33917D01*
X83319Y34306D01*
X83536Y34560D01*
X83537Y34561D01*
X83539Y34560D01*
X83657Y34696D01*
X84023Y35243D01*
X84315Y35834D01*
X84442Y36209D01*
X84484Y36333D01*
X84658Y37026D01*
X84788Y37905D01*
X84832Y38793D01*
X84788Y39681D01*
X84658Y40560D01*
X84484Y41252D01*
X84484Y41252D01*
X84320Y41736D01*
X84037Y42309D01*
X83683Y42840D01*
X83538Y43005D01*
Y43005D01*
X83538D01*
X83450Y43106D01*
X83348Y43225D01*
X82885Y43621D01*
X82365Y43940D01*
X82087Y44055D01*
X82089Y44060D01*
X81553Y44241D01*
X80889Y44373D01*
X80214Y44418D01*
D02*
G37*
G36*
X77803Y32264D02*
X77803D01*
D01*
X77803D01*
D02*
G37*
G36*
X147095Y415275D02*
X146475D01*
Y414568D01*
X147095D01*
Y414327D01*
Y414568D01*
Y415275D01*
D02*
G37*
G36*
X133091Y415166D02*
X132471Y414794D01*
Y413890D01*
X132012D01*
D01*
Y413409D01*
X132471D01*
Y411295D01*
Y411193D01*
Y411105D01*
X132478Y411025D01*
X132486Y410945D01*
Y410879D01*
X132493Y410821D01*
X132507Y410726D01*
X132522Y410653D01*
X132529Y410602D01*
X132544Y410573D01*
Y410566D01*
X132573Y410500D01*
X132617Y410449D01*
X132660Y410398D01*
X132697Y410362D01*
X132741Y410325D01*
X132770Y410303D01*
X132792Y410289D01*
X132799Y410281D01*
X132879Y410245D01*
X132959Y410223D01*
X133047Y410201D01*
X133134Y410194D01*
X133207Y410187D01*
X133266Y410179D01*
X133324D01*
X133484Y410187D01*
X133564Y410194D01*
X133637Y410209D01*
X133703Y410216D01*
X133754Y410223D01*
X133783Y410230D01*
X133798D01*
X133718Y410777D01*
X133659Y410770D01*
X133601Y410763D01*
X133550D01*
X133513Y410755D01*
X133441D01*
X133346Y410763D01*
X133280Y410777D01*
X133244Y410792D01*
X133229Y410799D01*
X133178Y410836D01*
X133149Y410872D01*
X133127Y410901D01*
X133120Y410916D01*
X133113Y410952D01*
X133105Y411003D01*
X133098Y411120D01*
X133091Y411171D01*
Y411214D01*
Y411244D01*
Y411258D01*
Y413409D01*
X133718D01*
Y413890D01*
X133091D01*
Y415166D01*
D02*
G37*
G36*
X97268Y415275D02*
X94096D01*
X96648D01*
Y413467D01*
X96582Y413547D01*
X96509Y413613D01*
X96444Y413679D01*
X96371Y413730D01*
X96313Y413766D01*
X96269Y413802D01*
X96240Y413817D01*
X96225Y413824D01*
X96130Y413875D01*
X96028Y413912D01*
X95926Y413934D01*
X95831Y413956D01*
X95751Y413963D01*
X95693Y413970D01*
X95635D01*
X95474Y413963D01*
X95321Y413934D01*
X95183Y413897D01*
X95066Y413854D01*
X94964Y413802D01*
X94891Y413766D01*
X94862Y413752D01*
X94840Y413737D01*
X94833Y413730D01*
X94825D01*
X94694Y413635D01*
X94585Y413518D01*
X94490Y413409D01*
X94417Y413300D01*
X94359Y413197D01*
X94315Y413117D01*
X94301Y413088D01*
X94286Y413066D01*
X94279Y413052D01*
Y413044D01*
X94220Y412877D01*
X94177Y412702D01*
X94140Y412534D01*
X94118Y412381D01*
X94104Y412250D01*
Y412191D01*
X94096Y412148D01*
Y412053D01*
X94104Y411849D01*
X94126Y411659D01*
X94162Y411492D01*
X94199Y411346D01*
X94213Y411280D01*
X94228Y411229D01*
X94249Y411178D01*
X94264Y411134D01*
X94279Y411105D01*
X94286Y411083D01*
X94293Y411069D01*
Y411061D01*
X94373Y410908D01*
X94468Y410777D01*
X94563Y410661D01*
X94658Y410566D01*
X94738Y410493D01*
X94804Y410434D01*
X94847Y410405D01*
X94855Y410391D01*
X94862D01*
X95000Y410311D01*
X95139Y410252D01*
X95277Y410209D01*
X95401Y410179D01*
X95503Y410165D01*
X95591Y410157D01*
X95620Y410150D01*
X97268D01*
Y415275D01*
D02*
G37*
G36*
X118846Y413970D02*
X118788D01*
X118649Y413963D01*
X118518Y413941D01*
X118401Y413912D01*
X118285Y413875D01*
X118183Y413832D01*
X118088Y413781D01*
X118000Y413722D01*
X117927Y413671D01*
X117854Y413613D01*
X117796Y413555D01*
X117745Y413504D01*
X117701Y413460D01*
X117672Y413423D01*
X117650Y413394D01*
X117636Y413372D01*
X117629Y413365D01*
Y413890D01*
X117075D01*
Y410230D01*
X120042D01*
Y412636D01*
Y412629D01*
X120034Y412753D01*
X120027Y412855D01*
Y412942D01*
X120020Y413001D01*
X120012Y413044D01*
X120005Y413073D01*
Y413081D01*
X119983Y413176D01*
X119947Y413263D01*
X119918Y413336D01*
X119888Y413409D01*
X119852Y413460D01*
X119830Y413496D01*
X119816Y413525D01*
X119808Y413533D01*
X119750Y413606D01*
X119684Y413664D01*
X119619Y413722D01*
X119546Y413766D01*
X119488Y413802D01*
X119437Y413824D01*
X119407Y413839D01*
X119393Y413846D01*
X119291Y413890D01*
X119181Y413919D01*
X119079Y413941D01*
X118984Y413956D01*
X118904Y413963D01*
X118846Y413970D01*
D02*
G37*
G36*
X140227D02*
X138245D01*
Y410230D01*
X138864D01*
D01*
X138944D01*
X138864D01*
Y412140D01*
X138872Y412286D01*
X138879Y412417D01*
X138893Y412541D01*
X138915Y412651D01*
X138937Y412738D01*
X138952Y412804D01*
X138959Y412848D01*
X138966Y412862D01*
X138996Y412942D01*
X139032Y413008D01*
X139068Y413066D01*
X139105Y413117D01*
X139141Y413154D01*
X139163Y413183D01*
X139185Y413197D01*
X139192Y413205D01*
X139251Y413248D01*
X139316Y413278D01*
X139382Y413300D01*
X139433Y413314D01*
X139484Y413321D01*
X139520Y413329D01*
X139557D01*
X139637Y413321D01*
X139717Y413307D01*
X139797Y413285D01*
X139863Y413263D01*
X139921Y413241D01*
X139965Y413219D01*
X139994Y413205D01*
X140001Y413197D01*
X140227Y413766D01*
X140104Y413832D01*
X139987Y413883D01*
X139885Y413919D01*
X139790Y413948D01*
X139710Y413963D01*
X139644Y413970D01*
X140227D01*
D01*
D02*
G37*
G36*
X103442D02*
X103267D01*
X103165Y413956D01*
X103078Y413948D01*
X102998Y413934D01*
X102932Y413919D01*
X102881Y413905D01*
X102852Y413897D01*
X102837Y413890D01*
X102750Y413861D01*
X102670Y413832D01*
X102604Y413802D01*
X102545Y413773D01*
X102502Y413752D01*
X102473Y413730D01*
X102451Y413722D01*
X102444Y413715D01*
X102371Y413664D01*
X102312Y413606D01*
X102261Y413540D01*
X102217Y413489D01*
X102181Y413438D01*
X102159Y413402D01*
X102145Y413372D01*
X102137Y413365D01*
X102101Y413285D01*
X102072Y413212D01*
X102057Y413132D01*
X102042Y413066D01*
X102035Y413001D01*
X102028Y412957D01*
Y412928D01*
Y412913D01*
X102035Y412811D01*
X102050Y412724D01*
X102072Y412636D01*
X102094Y412563D01*
X102115Y412505D01*
X102137Y412454D01*
X102152Y412425D01*
X102159Y412417D01*
X102217Y412337D01*
X102283Y412272D01*
X102349Y412213D01*
X102414Y412162D01*
X102473Y412126D01*
X102516Y412097D01*
X102545Y412082D01*
X102560Y412075D01*
X102611Y412053D01*
X102677Y412024D01*
X102823Y411973D01*
X102976Y411929D01*
X103136Y411878D01*
X103275Y411841D01*
X103340Y411820D01*
X103399Y411805D01*
X103442Y411790D01*
X103479Y411783D01*
X103500Y411776D01*
X103508D01*
X103603Y411754D01*
X103683Y411732D01*
X103756Y411710D01*
X103821Y411688D01*
X103880Y411674D01*
X103931Y411652D01*
X104018Y411623D01*
X104076Y411601D01*
X104113Y411579D01*
X104135Y411572D01*
X104142Y411564D01*
X104208Y411521D01*
X104251Y411462D01*
X104288Y411411D01*
X104310Y411360D01*
X104324Y411309D01*
X104332Y411273D01*
Y411244D01*
Y411236D01*
X104324Y411149D01*
X104302Y411076D01*
X104266Y411003D01*
X104229Y410945D01*
X104186Y410894D01*
X104157Y410857D01*
X104128Y410836D01*
X104120Y410828D01*
X104033Y410770D01*
X103938Y410733D01*
X103829Y410704D01*
X103726Y410682D01*
X103632Y410668D01*
X103559Y410661D01*
X103486D01*
X103333Y410668D01*
X103202Y410690D01*
X103092Y410719D01*
X102998Y410755D01*
X102925Y410792D01*
X102866Y410821D01*
X102837Y410843D01*
X102823Y410850D01*
X102742Y410930D01*
X102677Y411025D01*
X102633Y411120D01*
X102597Y411207D01*
X102567Y411287D01*
X102553Y411360D01*
X102538Y411404D01*
Y411411D01*
Y411419D01*
X101926Y411324D01*
X101977Y411120D01*
X102042Y410938D01*
X102123Y410792D01*
X102203Y410668D01*
X102276Y410566D01*
X102341Y410500D01*
X102385Y410456D01*
X102392Y410449D01*
X102400Y410442D01*
X102473Y410391D01*
X102553Y410347D01*
X102728Y410274D01*
X102910Y410223D01*
X103085Y410187D01*
X103165Y410172D01*
X103238Y410165D01*
X103311Y410157D01*
X103369D01*
X103420Y410150D01*
X101926D01*
X104966D01*
D01*
X103486D01*
X103646Y410157D01*
X103785Y410172D01*
X103916Y410194D01*
X104033Y410223D01*
X104128Y410252D01*
X104200Y410274D01*
X104244Y410289D01*
X104251Y410296D01*
X104259D01*
X104383Y410362D01*
X104485Y410427D01*
X104572Y410500D01*
X104652Y410566D01*
X104711Y410624D01*
X104747Y410675D01*
X104776Y410704D01*
X104784Y410719D01*
X104842Y410821D01*
X104886Y410930D01*
X104922Y411025D01*
X104944Y411112D01*
X104958Y411193D01*
X104966Y411251D01*
Y411302D01*
X104958Y411419D01*
X104944Y411521D01*
X104915Y411608D01*
X104893Y411688D01*
X104864Y411754D01*
X104835Y411798D01*
X104820Y411827D01*
X104813Y411834D01*
X104754Y411907D01*
X104689Y411973D01*
X104623Y412031D01*
X104558Y412075D01*
X104492Y412111D01*
X104448Y412133D01*
X104419Y412148D01*
X104404Y412155D01*
X104353Y412177D01*
X104295Y412199D01*
X104157Y412250D01*
X104004Y412301D01*
X103850Y412345D01*
X103712Y412388D01*
X103646Y412403D01*
X103595Y412417D01*
X103551Y412432D01*
X103515Y412439D01*
X103493Y412447D01*
X103486D01*
X103406Y412468D01*
X103333Y412490D01*
X103267Y412505D01*
X103209Y412527D01*
X103114Y412549D01*
X103041Y412570D01*
X102990Y412592D01*
X102961Y412600D01*
X102946Y412607D01*
X102939D01*
X102881Y412636D01*
X102830Y412658D01*
X102786Y412687D01*
X102757Y412709D01*
X102728Y412731D01*
X102713Y412753D01*
X102706Y412760D01*
X102699Y412767D01*
X102655Y412840D01*
X102633Y412913D01*
Y412942D01*
X102626Y412964D01*
Y412979D01*
Y412986D01*
X102633Y413052D01*
X102655Y413117D01*
X102684Y413176D01*
X102720Y413219D01*
X102750Y413263D01*
X102779Y413292D01*
X102801Y413307D01*
X102808Y413314D01*
X102888Y413365D01*
X102983Y413402D01*
X103085Y413423D01*
X103180Y413445D01*
X103275Y413453D01*
X103347Y413460D01*
X103420D01*
X103544Y413453D01*
X103661Y413438D01*
X103756Y413409D01*
X103829Y413380D01*
X103894Y413350D01*
X103938Y413321D01*
X103967Y413307D01*
X103974Y413300D01*
X104047Y413234D01*
X104098Y413161D01*
X104142Y413088D01*
X104179Y413023D01*
X104200Y412957D01*
X104215Y412906D01*
X104222Y412877D01*
Y412862D01*
X104827Y412942D01*
X104798Y413066D01*
X104769Y413176D01*
X104733Y413270D01*
X104696Y413358D01*
X104660Y413416D01*
X104630Y413467D01*
X104616Y413496D01*
X104609Y413504D01*
X104543Y413577D01*
X104470Y413642D01*
X104390Y413700D01*
X104310Y413752D01*
X104237Y413788D01*
X104179Y413817D01*
X104142Y413832D01*
X104135Y413839D01*
X104128D01*
X104004Y413883D01*
X103872Y413912D01*
X103748Y413941D01*
X103632Y413956D01*
X103522Y413963D01*
X103442Y413970D01*
D02*
G37*
G36*
X122535D02*
X120814D01*
X122476D01*
X122301Y413963D01*
X122141Y413934D01*
X121988Y413897D01*
X121864Y413861D01*
X121755Y413817D01*
X121711Y413795D01*
X121675Y413781D01*
X121645Y413766D01*
X121624Y413752D01*
X121609Y413744D01*
X121602D01*
X121463Y413657D01*
X121339Y413547D01*
X121237Y413438D01*
X121150Y413329D01*
X121084Y413234D01*
X121040Y413154D01*
X121026Y413125D01*
X121011Y413103D01*
X121004Y413088D01*
Y413081D01*
X120938Y412906D01*
X120895Y412731D01*
X120858Y412556D01*
X120836Y412395D01*
X120829Y412323D01*
X120822Y412257D01*
Y412199D01*
X120814Y412148D01*
Y412046D01*
X120822Y411878D01*
X120836Y411725D01*
X120858Y411572D01*
X120887Y411441D01*
X120916Y411309D01*
X120960Y411200D01*
X120996Y411091D01*
X121040Y410996D01*
X121084Y410916D01*
X121121Y410843D01*
X121164Y410777D01*
X121193Y410726D01*
X121222Y410690D01*
X121244Y410661D01*
X121259Y410646D01*
X121266Y410639D01*
X121354Y410551D01*
X121449Y410478D01*
X121543Y410413D01*
X121645Y410354D01*
X121747Y410311D01*
X121842Y410267D01*
X122039Y410209D01*
X122126Y410194D01*
X122207Y410179D01*
X122280Y410165D01*
X122345Y410157D01*
X122396Y410150D01*
X122469D01*
X122578Y410157D01*
X122688Y410165D01*
X122877Y410209D01*
X123052Y410260D01*
X123198Y410325D01*
X123256Y410362D01*
X123315Y410391D01*
X123366Y410420D01*
X123402Y410449D01*
X123431Y410471D01*
X123453Y410486D01*
X123468Y410493D01*
X123475Y410500D01*
X123548Y410573D01*
X123614Y410646D01*
X123730Y410806D01*
X123825Y410974D01*
X123891Y411127D01*
X123942Y411273D01*
X123956Y411331D01*
X123971Y411389D01*
X123978Y411433D01*
X123985Y411462D01*
X123993Y411484D01*
Y410580D01*
Y411484D01*
Y411492D01*
X123380Y411572D01*
X123351Y411411D01*
X123307Y411266D01*
X123249Y411149D01*
X123198Y411054D01*
X123147Y410974D01*
X123103Y410923D01*
X123082Y410886D01*
X123067Y410879D01*
X122972Y410806D01*
X122870Y410755D01*
X122768Y410711D01*
X122673Y410690D01*
X122593Y410675D01*
X122520Y410668D01*
X122476Y410661D01*
X122462D01*
X122382Y410668D01*
X122301Y410675D01*
X122156Y410711D01*
X122032Y410763D01*
X121922Y410828D01*
X121842Y410886D01*
X121776Y410938D01*
X121740Y410974D01*
X121725Y410989D01*
X121675Y411054D01*
X121631Y411134D01*
X121565Y411295D01*
X121514Y411477D01*
X121485Y411652D01*
X121463Y411812D01*
X121456Y411878D01*
Y411943D01*
X121449Y411987D01*
Y412031D01*
Y412053D01*
Y412060D01*
Y412191D01*
X121463Y412315D01*
X121478Y412432D01*
X121492Y412534D01*
X121514Y412629D01*
X121543Y412716D01*
X121565Y412796D01*
X121594Y412869D01*
X121624Y412928D01*
X121645Y412979D01*
X121675Y413023D01*
X121696Y413059D01*
X121711Y413088D01*
X121725Y413110D01*
X121740Y413117D01*
Y413125D01*
X121798Y413183D01*
X121857Y413234D01*
X121981Y413321D01*
X122112Y413380D01*
X122229Y413416D01*
X122338Y413445D01*
X122418Y413453D01*
X122455Y413460D01*
X122498D01*
X122608Y413453D01*
X122710Y413431D01*
X122797Y413402D01*
X122877Y413365D01*
X122936Y413329D01*
X122987Y413300D01*
X123016Y413278D01*
X123023Y413270D01*
X123096Y413197D01*
X123162Y413110D01*
X123220Y413015D01*
X123256Y412928D01*
X123293Y412848D01*
X123315Y412782D01*
X123322Y412738D01*
X123329Y412731D01*
Y412724D01*
X123934Y412818D01*
X123883Y413015D01*
X123811Y413183D01*
X123730Y413329D01*
X123650Y413445D01*
X123570Y413540D01*
X123504Y413606D01*
X123460Y413649D01*
X123453Y413664D01*
X123446D01*
X123293Y413766D01*
X123133Y413839D01*
X122972Y413897D01*
X122819Y413934D01*
X122680Y413956D01*
X122622Y413963D01*
X122578D01*
X122535Y413970D01*
D02*
G37*
G36*
X84474Y415275D02*
Y410828D01*
X81375D01*
Y412541D01*
X84167D01*
Y413139D01*
X81375D01*
Y414677D01*
X84357D01*
Y415275D01*
X84474D01*
X80705D01*
Y410230D01*
X84474D01*
Y415275D01*
D02*
G37*
G36*
X71352D02*
Y410828D01*
X68122D01*
X68421Y411185D01*
X71271Y414677D01*
Y415275D01*
X71352D01*
X67648D01*
Y414677D01*
X70469D01*
X70375Y414575D01*
X70280Y414473D01*
X70192Y414371D01*
X70112Y414276D01*
X70047Y414196D01*
X69996Y414130D01*
X69959Y414087D01*
X69945Y414080D01*
Y414072D01*
X67357Y410850D01*
Y410230D01*
X71352D01*
Y415275D01*
D02*
G37*
G36*
X112387Y415275D02*
X109216D01*
Y410230D01*
X109792D01*
Y410690D01*
X109865Y410595D01*
X109938Y410515D01*
X110018Y410442D01*
X110105Y410376D01*
X110185Y410325D01*
X110273Y410281D01*
X110353Y410245D01*
X110433Y410216D01*
X110579Y410179D01*
X110645Y410165D01*
X110696Y410157D01*
X110740D01*
X110776Y410150D01*
X110805D01*
X110922Y410157D01*
X111038Y410172D01*
X111148Y410194D01*
X111250Y410230D01*
X111447Y410311D01*
X111527Y410362D01*
X111607Y410405D01*
X111680Y410456D01*
X111738Y410500D01*
X111789Y410544D01*
X111840Y410580D01*
X111877Y410617D01*
X111899Y410639D01*
X111913Y410653D01*
X111920Y410661D01*
X112001Y410763D01*
X112074Y410872D01*
X112139Y410981D01*
X112190Y411105D01*
X112234Y411222D01*
X112270Y411346D01*
X112329Y411579D01*
X112351Y411688D01*
X112365Y411790D01*
X112373Y411878D01*
X112380Y411958D01*
X112387Y412024D01*
Y410245D01*
Y412111D01*
X112380Y412257D01*
X112373Y412395D01*
X112351Y412519D01*
X112329Y412629D01*
X112307Y412724D01*
X112292Y412796D01*
X112285Y412818D01*
X112278Y412840D01*
X112270Y412848D01*
Y412855D01*
X112227Y412979D01*
X112176Y413095D01*
X112125Y413197D01*
X112074Y413285D01*
X112030Y413350D01*
X111993Y413402D01*
X111971Y413438D01*
X111964Y413445D01*
X111891Y413533D01*
X111804Y413613D01*
X111724Y413679D01*
X111644Y413730D01*
X111578Y413773D01*
X111520Y413810D01*
X111483Y413824D01*
X111469Y413832D01*
X111359Y413875D01*
X111242Y413912D01*
X111133Y413934D01*
X111038Y413956D01*
X110958Y413963D01*
X110893Y413970D01*
X110834D01*
X110725Y413963D01*
X110616Y413948D01*
X110513Y413926D01*
X110419Y413890D01*
X110251Y413817D01*
X110105Y413722D01*
X110047Y413679D01*
X109989Y413635D01*
X109945Y413591D01*
X109908Y413555D01*
X109872Y413518D01*
X109850Y413496D01*
X109843Y413482D01*
X109836Y413474D01*
Y415275D01*
X112387D01*
D01*
D02*
G37*
G36*
X156491Y415275D02*
X155872D01*
Y410230D01*
X156491D01*
Y415275D01*
D02*
G37*
G36*
X153590Y413970D02*
X151753D01*
Y410150D01*
Y411193D01*
X151760Y411105D01*
X151768Y411032D01*
X151804Y410879D01*
X151855Y410755D01*
X151913Y410646D01*
X151972Y410558D01*
X152023Y410493D01*
X152059Y410456D01*
X152074Y410442D01*
X152205Y410347D01*
X152351Y410274D01*
X152511Y410223D01*
X152657Y410187D01*
X152788Y410165D01*
X152847Y410157D01*
X152898D01*
X152941Y410150D01*
X151753D01*
X153000D01*
X153131Y410157D01*
X153262Y410172D01*
X153379Y410187D01*
X153481Y410209D01*
X153561Y410230D01*
X153627Y410252D01*
X153670Y410260D01*
X153685Y410267D01*
X153809Y410318D01*
X153926Y410384D01*
X154035Y410456D01*
X154144Y410522D01*
X154232Y410588D01*
X154297Y410639D01*
X154341Y410675D01*
X154348Y410690D01*
X154356D01*
X154370Y410595D01*
X154385Y410507D01*
X154399Y410427D01*
X154421Y410362D01*
X154443Y410303D01*
X154458Y410267D01*
X154465Y410238D01*
X154472Y410230D01*
X155121D01*
X155085Y410311D01*
X155048Y410391D01*
X155019Y410464D01*
X155004Y410529D01*
X154982Y410588D01*
X154975Y410631D01*
X154968Y410661D01*
Y410668D01*
X154961Y410719D01*
X154953Y410784D01*
Y410857D01*
X154946Y410938D01*
X154939Y411120D01*
Y411302D01*
X154931Y411477D01*
Y411557D01*
Y411623D01*
Y411681D01*
Y411725D01*
Y411754D01*
Y411761D01*
Y412592D01*
Y412731D01*
X154924Y412855D01*
X154917Y412950D01*
Y413030D01*
X154910Y413088D01*
X154902Y413132D01*
X154895Y413154D01*
Y413161D01*
X154873Y413256D01*
X154844Y413336D01*
X154815Y413402D01*
X154778Y413467D01*
X154749Y413511D01*
X154727Y413547D01*
X154713Y413569D01*
X154706Y413577D01*
X154647Y413635D01*
X154581Y413693D01*
X154509Y413737D01*
X154436Y413781D01*
X154370Y413810D01*
X154319Y413832D01*
X154283Y413846D01*
X154268Y413854D01*
X154151Y413890D01*
X154027Y413919D01*
X153904Y413941D01*
X153780Y413956D01*
X153670Y413963D01*
X153590Y413970D01*
D02*
G37*
G36*
X151009D02*
X148042Y413970D01*
Y410230D01*
X149526Y410230D01*
X148662D01*
Y412221D01*
Y412345D01*
X148677Y412468D01*
X148691Y412570D01*
X148706Y412665D01*
X148728Y412753D01*
X148749Y412833D01*
X148779Y412906D01*
X148808Y412964D01*
X148830Y413015D01*
X148859Y413059D01*
X148881Y413095D01*
X148903Y413125D01*
X148932Y413161D01*
X148946Y413176D01*
X149056Y413263D01*
X149172Y413321D01*
X149289Y413365D01*
X149391Y413402D01*
X149486Y413416D01*
X149559Y413423D01*
X149588Y413431D01*
X149624D01*
X149712Y413423D01*
X149799Y413416D01*
X149872Y413394D01*
X149931Y413372D01*
X149982Y413350D01*
X150025Y413336D01*
X150047Y413321D01*
X150055Y413314D01*
X150120Y413270D01*
X150178Y413219D01*
X150222Y413168D01*
X150259Y413125D01*
X150280Y413081D01*
X150302Y413044D01*
X150317Y413023D01*
Y413015D01*
X150339Y412935D01*
X150361Y412848D01*
X150375Y412753D01*
X150382Y412658D01*
X150390Y412578D01*
Y412512D01*
Y412461D01*
Y412454D01*
Y412447D01*
Y410230D01*
X151009D01*
Y412629D01*
X151002Y412753D01*
X150995Y412855D01*
Y412942D01*
X150988Y413001D01*
X150980Y413044D01*
X150973Y413073D01*
Y413081D01*
X150951Y413176D01*
X150915Y413263D01*
X150885Y413336D01*
X150856Y413409D01*
X150820Y413460D01*
X150798Y413496D01*
X150784Y413525D01*
X150776Y413533D01*
X150718Y413606D01*
X150652Y413664D01*
X150587Y413722D01*
X150514Y413766D01*
X150455Y413802D01*
X150404Y413824D01*
X150375Y413839D01*
X150361Y413846D01*
X150259Y413890D01*
X150149Y413919D01*
X150047Y413941D01*
X149952Y413956D01*
X149872Y413963D01*
X149814Y413970D01*
X151009D01*
D02*
G37*
G36*
X147095Y413890D02*
D01*
X146475D01*
Y410230D01*
X147095D01*
Y413890D01*
D02*
G37*
G36*
X145556Y413970D02*
X140592D01*
Y410230D01*
X142247D01*
X141212D01*
Y412126D01*
X141219Y412301D01*
X141226Y412454D01*
X141241Y412585D01*
X141263Y412694D01*
X141285Y412775D01*
X141299Y412833D01*
X141306Y412869D01*
X141314Y412884D01*
X141358Y412979D01*
X141409Y413059D01*
X141460Y413132D01*
X141511Y413190D01*
X141562Y413234D01*
X141598Y413263D01*
X141627Y413285D01*
X141635Y413292D01*
X141722Y413336D01*
X141802Y413372D01*
X141890Y413394D01*
X141963Y413416D01*
X142021Y413423D01*
X142072Y413431D01*
X142116D01*
X142240Y413423D01*
X142342Y413402D01*
X142429Y413365D01*
X142495Y413329D01*
X142546Y413285D01*
X142582Y413256D01*
X142604Y413227D01*
X142611Y413219D01*
X142662Y413132D01*
X142699Y413037D01*
X142728Y412935D01*
X142743Y412833D01*
X142757Y412745D01*
X142764Y412665D01*
Y412636D01*
Y412621D01*
Y412607D01*
Y412600D01*
Y410230D01*
X143384D01*
D01*
X143902D01*
X143384D01*
Y412352D01*
X143399Y412549D01*
X143428Y412716D01*
X143464Y412855D01*
X143515Y412971D01*
X143559Y413059D01*
X143603Y413117D01*
X143632Y413154D01*
X143639Y413168D01*
X143741Y413256D01*
X143851Y413321D01*
X143960Y413365D01*
X144062Y413402D01*
X144150Y413416D01*
X144222Y413423D01*
X144252Y413431D01*
X144288D01*
X144368Y413423D01*
X144434Y413416D01*
X144500Y413402D01*
X144551Y413380D01*
X144602Y413358D01*
X144631Y413343D01*
X144653Y413336D01*
X144660Y413329D01*
X144718Y413285D01*
X144762Y413241D01*
X144798Y413197D01*
X144827Y413154D01*
X144849Y413117D01*
X144864Y413088D01*
X144879Y413066D01*
Y413059D01*
X144900Y412993D01*
X144915Y412906D01*
X144922Y412818D01*
X144930Y412731D01*
X144937Y412651D01*
Y412585D01*
Y412541D01*
Y412534D01*
Y412527D01*
Y410230D01*
X145556D01*
Y412855D01*
X145542Y412957D01*
X145527Y413059D01*
X145513Y413146D01*
X145491Y413234D01*
X145462Y413307D01*
X145440Y413372D01*
X145411Y413438D01*
X145382Y413489D01*
X145360Y413540D01*
X145309Y413606D01*
X145280Y413649D01*
X145265Y413664D01*
X145148Y413766D01*
X145010Y413839D01*
X144871Y413897D01*
X144740Y413934D01*
X144616Y413956D01*
X144565Y413963D01*
X144514D01*
X144478Y413970D01*
X145556D01*
D02*
G37*
G36*
X125145Y415275D02*
X124525D01*
Y410230D01*
X126008D01*
X125145D01*
Y412228D01*
X125152Y412381D01*
X125159Y412512D01*
X125174Y412629D01*
X125196Y412724D01*
X125217Y412796D01*
X125232Y412855D01*
X125239Y412884D01*
X125247Y412898D01*
X125290Y412986D01*
X125341Y413066D01*
X125400Y413132D01*
X125458Y413190D01*
X125509Y413234D01*
X125553Y413263D01*
X125582Y413285D01*
X125589Y413292D01*
X125684Y413343D01*
X125771Y413380D01*
X125859Y413402D01*
X125932Y413423D01*
X126005Y413431D01*
X126056Y413438D01*
X126100D01*
X126231Y413431D01*
X126347Y413402D01*
X126442Y413372D01*
X126522Y413329D01*
X126588Y413292D01*
X126632Y413256D01*
X126661Y413227D01*
X126668Y413219D01*
X126734Y413132D01*
X126785Y413023D01*
X126821Y412913D01*
X126850Y412804D01*
X126865Y412702D01*
X126872Y412621D01*
Y412592D01*
Y412570D01*
Y412556D01*
Y412549D01*
Y410230D01*
X127492D01*
Y412541D01*
X127485Y412731D01*
X127470Y412898D01*
X127448Y413037D01*
X127426Y413154D01*
X127404Y413248D01*
X127383Y413314D01*
X127368Y413350D01*
X127361Y413365D01*
X127302Y413467D01*
X127237Y413555D01*
X127164Y413627D01*
X127098Y413693D01*
X127033Y413744D01*
X126982Y413781D01*
X126945Y413802D01*
X126931Y413810D01*
X126814Y413861D01*
X126697Y413905D01*
X126581Y413934D01*
X126471Y413948D01*
X126376Y413963D01*
X126296Y413970D01*
X126231D01*
X126114Y413963D01*
X125997Y413948D01*
X125888Y413926D01*
X125786Y413890D01*
X125596Y413810D01*
X125516Y413766D01*
X125443Y413722D01*
X125378Y413671D01*
X125312Y413627D01*
X125261Y413584D01*
X125225Y413547D01*
X125188Y413511D01*
X125166Y413489D01*
X125152Y413474D01*
X125145Y413467D01*
Y415275D01*
D02*
G37*
G36*
X106322D02*
X105702D01*
Y410230D01*
X108735D01*
X107189Y412527D01*
X108596Y413890D01*
X107787D01*
X106322Y412395D01*
Y415275D01*
D02*
G37*
G36*
X78066Y415275D02*
X75995D01*
Y410230D01*
X79844D01*
X76666D01*
Y412279D01*
X77956D01*
X78146Y412286D01*
X78328Y412301D01*
X78488Y412323D01*
X78634Y412352D01*
X78773Y412381D01*
X78890Y412417D01*
X78999Y412461D01*
X79094Y412505D01*
X79174Y412541D01*
X79247Y412585D01*
X79305Y412621D01*
X79349Y412658D01*
X79385Y412680D01*
X79407Y412702D01*
X79422Y412716D01*
X79429Y412724D01*
X79502Y412811D01*
X79567Y412898D01*
X79619Y412986D01*
X79669Y413081D01*
X79713Y413175D01*
X79742Y413263D01*
X79793Y413431D01*
X79808Y413511D01*
X79823Y413584D01*
X79830Y413649D01*
X79837Y413700D01*
X79844Y413752D01*
Y413810D01*
Y413810D01*
X79837Y413948D01*
X79823Y414080D01*
X79793Y414196D01*
X79772Y414298D01*
X79742Y414386D01*
X79713Y414451D01*
X79699Y414488D01*
X79691Y414502D01*
X79633Y414612D01*
X79560Y414706D01*
X79495Y414794D01*
X79429Y414859D01*
X79371Y414911D01*
X79327Y414954D01*
X79298Y414976D01*
X79283Y414984D01*
X79188Y415042D01*
X79079Y415093D01*
X78977Y415136D01*
X78882Y415173D01*
X78795Y415195D01*
X78729Y415209D01*
X78678Y415224D01*
X78663D01*
X78554Y415239D01*
X78430Y415253D01*
X78299Y415261D01*
X78175Y415268D01*
X78066Y415275D01*
D02*
G37*
G36*
X133266Y410179D02*
X132012D01*
X133266D01*
D01*
D02*
G37*
G36*
X137494Y413970D02*
X134118D01*
Y412024D01*
X134126Y411863D01*
X134140Y411710D01*
X134162Y411564D01*
X134191Y411433D01*
X134228Y411309D01*
X134264Y411193D01*
X134308Y411091D01*
X134352Y410996D01*
X134396Y410916D01*
X134439Y410843D01*
X134476Y410784D01*
X134512Y410733D01*
X134541Y410690D01*
X134563Y410661D01*
X134578Y410646D01*
X134585Y410639D01*
X134680Y410551D01*
X134775Y410478D01*
X134877Y410413D01*
X134986Y410354D01*
X135088Y410311D01*
X135197Y410267D01*
X135402Y410209D01*
X135496Y410194D01*
X135584Y410179D01*
X135664Y410165D01*
X135730Y410157D01*
X135781Y410150D01*
X134118D01*
X137494D01*
X135861D01*
X136087Y410165D01*
X136291Y410201D01*
X136473Y410245D01*
X136546Y410274D01*
X136619Y410303D01*
X136685Y410332D01*
X136743Y410362D01*
X136787Y410384D01*
X136830Y410405D01*
X136860Y410427D01*
X136881Y410442D01*
X136896Y410456D01*
X136903D01*
X137049Y410588D01*
X137166Y410726D01*
X137268Y410872D01*
X137341Y411010D01*
X137399Y411134D01*
X137421Y411193D01*
X137443Y411236D01*
X137457Y411280D01*
X137465Y411309D01*
X137472Y411324D01*
Y411331D01*
X136830Y411411D01*
X136772Y411273D01*
X136706Y411156D01*
X136641Y411054D01*
X136583Y410974D01*
X136531Y410916D01*
X136488Y410872D01*
X136451Y410843D01*
X136444Y410836D01*
X136349Y410777D01*
X136255Y410733D01*
X136152Y410704D01*
X136065Y410682D01*
X135985Y410668D01*
X135919Y410661D01*
X135861D01*
X135773Y410668D01*
X135693Y410675D01*
X135547Y410711D01*
X135416Y410763D01*
X135300Y410821D01*
X135212Y410872D01*
X135146Y410923D01*
X135103Y410959D01*
X135095Y410974D01*
X135088D01*
X134986Y411105D01*
X134906Y411251D01*
X134847Y411411D01*
X134804Y411557D01*
X134782Y411688D01*
X134767Y411747D01*
X134760Y411798D01*
Y411841D01*
X134753Y411871D01*
Y411893D01*
Y411900D01*
X137487D01*
X137494Y411973D01*
Y412060D01*
X137487Y412228D01*
X137472Y412381D01*
X137450Y412527D01*
X137421Y412665D01*
X137384Y412789D01*
X137348Y412906D01*
X137304Y413008D01*
X137260Y413103D01*
X137217Y413190D01*
X137173Y413263D01*
X137137Y413321D01*
X137100Y413372D01*
X137071Y413416D01*
X137049Y413445D01*
X137034Y413460D01*
X137027Y413467D01*
X136940Y413555D01*
X136845Y413635D01*
X136743Y413700D01*
X136641Y413759D01*
X136539Y413810D01*
X136444Y413846D01*
X136342Y413883D01*
X136255Y413905D01*
X136160Y413926D01*
X136080Y413941D01*
X136007Y413956D01*
X135948Y413963D01*
X135897Y413970D01*
X137494D01*
D02*
G37*
G36*
X116316D02*
X112941D01*
Y412024D01*
X112948Y411863D01*
X112963Y411710D01*
X112985Y411564D01*
X113014Y411433D01*
X113050Y411309D01*
X113087Y411193D01*
X113131Y411091D01*
X113174Y410996D01*
X113218Y410916D01*
X113262Y410843D01*
X113298Y410784D01*
X113335Y410733D01*
X113364Y410690D01*
X113386Y410661D01*
X113400Y410646D01*
X113408Y410639D01*
X113502Y410551D01*
X113597Y410478D01*
X113699Y410413D01*
X113809Y410354D01*
X113911Y410311D01*
X114020Y410267D01*
X114224Y410209D01*
X114319Y410194D01*
X114406Y410179D01*
X114487Y410165D01*
X114552Y410157D01*
X114603Y410150D01*
X112941D01*
X116316D01*
Y412060D01*
X116309Y412228D01*
X116295Y412381D01*
X116273Y412527D01*
X116243Y412665D01*
X116207Y412789D01*
X116171Y412906D01*
X116127Y413008D01*
X116083Y413103D01*
X116039Y413190D01*
X115996Y413263D01*
X115959Y413321D01*
X115923Y413372D01*
X115893Y413416D01*
X115872Y413445D01*
X115857Y413460D01*
X115850Y413467D01*
X115762Y413555D01*
X115667Y413635D01*
X115566Y413700D01*
X115463Y413759D01*
X115361Y413810D01*
X115267Y413846D01*
X115164Y413883D01*
X115077Y413905D01*
X114982Y413926D01*
X114902Y413941D01*
X114829Y413956D01*
X114771Y413963D01*
X114720Y413970D01*
X116316D01*
D02*
G37*
G36*
X101416D02*
X98040D01*
Y412024D01*
X98048Y411863D01*
X98062Y411710D01*
X98084Y411564D01*
X98113Y411433D01*
X98150Y411309D01*
X98186Y411193D01*
X98230Y411091D01*
X98274Y410996D01*
X98317Y410916D01*
X98361Y410843D01*
X98397Y410784D01*
X98434Y410733D01*
X98463Y410690D01*
X98485Y410661D01*
X98500Y410646D01*
X98507Y410639D01*
X98602Y410551D01*
X98696Y410478D01*
X98799Y410413D01*
X98908Y410354D01*
X99010Y410311D01*
X99119Y410267D01*
X99323Y410209D01*
X99418Y410194D01*
X99506Y410179D01*
X99586Y410165D01*
X99651Y410157D01*
X99702Y410150D01*
X98040D01*
X101416D01*
Y412060D01*
X101408Y412228D01*
X101394Y412381D01*
X101372Y412527D01*
X101343Y412665D01*
X101306Y412789D01*
X101270Y412906D01*
X101226Y413008D01*
X101182Y413103D01*
X101139Y413190D01*
X101095Y413263D01*
X101058Y413321D01*
X101022Y413372D01*
X100993Y413416D01*
X100971Y413445D01*
X100956Y413460D01*
X100949Y413467D01*
X100862Y413555D01*
X100767Y413635D01*
X100665Y413700D01*
X100563Y413759D01*
X100461Y413810D01*
X100366Y413846D01*
X100264Y413883D01*
X100176Y413905D01*
X100082Y413926D01*
X100001Y413941D01*
X99928Y413956D01*
X99870Y413963D01*
X99819Y413970D01*
X101416D01*
D02*
G37*
G36*
X127871Y410230D02*
Y408831D01*
X131975D01*
Y409275D01*
X127871D01*
Y410230D01*
D02*
G37*
G36*
X87747Y415275D02*
X85407D01*
Y410230D01*
X87594D01*
X86077D01*
Y412468D01*
X86938D01*
X87018Y412461D01*
X87076D01*
X87127Y412454D01*
X87164Y412446D01*
X87193D01*
X87207Y412439D01*
X87215D01*
X87331Y412403D01*
X87382Y412381D01*
X87426Y412359D01*
X87470Y412337D01*
X87499Y412323D01*
X87514Y412315D01*
X87521Y412308D01*
X87579Y412264D01*
X87638Y412213D01*
X87747Y412104D01*
X87798Y412053D01*
X87834Y412009D01*
X87856Y411980D01*
X87863Y411973D01*
X87936Y411871D01*
X88017Y411761D01*
X88097Y411645D01*
X88177Y411535D01*
X88243Y411433D01*
X88294Y411353D01*
X88315Y411324D01*
X88330Y411302D01*
X88345Y411287D01*
Y411280D01*
X89008Y410230D01*
X89832D01*
Y408831D01*
X93936Y408831D01*
Y409275D01*
X89832Y409275D01*
Y410230D01*
X93936Y410230D01*
X89839Y410230D01*
X88972Y411601D01*
X88870Y411747D01*
X88775Y411878D01*
X88680Y411987D01*
X88600Y412089D01*
X88527Y412162D01*
X88468Y412221D01*
X88432Y412257D01*
X88418Y412272D01*
X88359Y412315D01*
X88294Y412366D01*
X88162Y412446D01*
X88104Y412476D01*
X88060Y412505D01*
X88031Y412519D01*
X88017Y412527D01*
X88148Y412549D01*
X88272Y412570D01*
X88381Y412607D01*
X88490Y412636D01*
X88585Y412673D01*
X88673Y412716D01*
X88753Y412753D01*
X88826Y412789D01*
X88884Y412833D01*
X88942Y412869D01*
X88986Y412898D01*
X89023Y412928D01*
X89052Y412950D01*
X89074Y412971D01*
X89081Y412979D01*
X89088Y412986D01*
X89147Y413059D01*
X89205Y413132D01*
X89292Y413285D01*
X89351Y413438D01*
X89394Y413584D01*
X89424Y413708D01*
X89431Y413759D01*
Y413810D01*
X89438Y413846D01*
Y413875D01*
Y413890D01*
Y413897D01*
X89431Y414050D01*
X89409Y414189D01*
X89372Y414320D01*
X89336Y414429D01*
X89292Y414524D01*
X89263Y414597D01*
X89234Y414641D01*
X89227Y414648D01*
Y414655D01*
X89139Y414772D01*
X89052Y414874D01*
X88957Y414962D01*
X88870Y415027D01*
X88789Y415078D01*
X88724Y415107D01*
X88680Y415129D01*
X88673Y415136D01*
X88665D01*
X88600Y415158D01*
X88520Y415180D01*
X88359Y415217D01*
X88184Y415239D01*
X88024Y415261D01*
X87871Y415268D01*
X87805D01*
X87747Y415275D01*
D02*
G37*
G36*
X71417Y410230D02*
Y408831D01*
X75521D01*
Y409275D01*
X71417D01*
Y410230D01*
D02*
G37*
%LPD*%
G36*
X95780Y413453D02*
X95853Y413445D01*
X95992Y413402D01*
X96116Y413350D01*
X96218Y413285D01*
X96298Y413219D01*
X96364Y413161D01*
X96400Y413117D01*
X96415Y413110D01*
Y413103D01*
X96466Y413030D01*
X96509Y412957D01*
X96582Y412782D01*
X96633Y412600D01*
X96670Y412425D01*
X96684Y412337D01*
X96692Y412257D01*
X96699Y412184D01*
Y412126D01*
X96706Y412075D01*
Y412038D01*
Y412009D01*
Y412002D01*
Y411878D01*
X96692Y411761D01*
X96677Y411659D01*
X96662Y411557D01*
X96641Y411470D01*
X96611Y411382D01*
X96590Y411309D01*
X96560Y411244D01*
X96531Y411185D01*
X96509Y411127D01*
X96480Y411091D01*
X96458Y411054D01*
X96444Y411025D01*
X96429Y411003D01*
X96415Y410996D01*
Y410989D01*
X96364Y410930D01*
X96305Y410879D01*
X96189Y410799D01*
X96072Y410741D01*
X95963Y410704D01*
X95868Y410675D01*
X95788Y410668D01*
X95758Y410661D01*
X95722D01*
X95649Y410668D01*
X95576Y410675D01*
X95445Y410711D01*
X95321Y410770D01*
X95219Y410836D01*
X95139Y410894D01*
X95073Y410952D01*
X95037Y410989D01*
X95029Y411003D01*
X95022D01*
X94971Y411076D01*
X94928Y411149D01*
X94855Y411317D01*
X94804Y411492D01*
X94767Y411659D01*
X94745Y411812D01*
X94738Y411878D01*
Y411936D01*
X94731Y411987D01*
Y412024D01*
Y412046D01*
Y412053D01*
Y412184D01*
X94745Y412308D01*
X94760Y412425D01*
X94774Y412527D01*
X94796Y412621D01*
X94818Y412709D01*
X94840Y412789D01*
X94869Y412862D01*
X94898Y412920D01*
X94920Y412971D01*
X94942Y413015D01*
X94964Y413052D01*
X94986Y413081D01*
X94993Y413103D01*
X95008Y413110D01*
Y413117D01*
X95059Y413176D01*
X95117Y413234D01*
X95234Y413314D01*
X95350Y413380D01*
X95460Y413416D01*
X95554Y413445D01*
X95635Y413453D01*
X95664Y413460D01*
X95700D01*
X95780Y413453D01*
D02*
G37*
G36*
X96692Y410230D02*
X97268D01*
Y410150D01*
X95664D01*
X95788Y410157D01*
X95904Y410172D01*
X96014Y410201D01*
X96109Y410238D01*
X96203Y410274D01*
X96291Y410318D01*
X96364Y410369D01*
X96429Y410420D01*
X96495Y410471D01*
X96546Y410522D01*
X96590Y410566D01*
X96626Y410602D01*
X96655Y410639D01*
X96677Y410668D01*
X96684Y410682D01*
X96692Y410690D01*
Y410230D01*
D02*
G37*
G36*
X118744Y413423D02*
X118831Y413416D01*
X118904Y413394D01*
X118963Y413372D01*
X119014Y413350D01*
X119057Y413336D01*
X119079Y413321D01*
X119087Y413314D01*
X119152Y413270D01*
X119211Y413219D01*
X119254Y413168D01*
X119291Y413125D01*
X119313Y413081D01*
X119334Y413044D01*
X119349Y413023D01*
Y413015D01*
X119371Y412935D01*
X119393Y412848D01*
X119407Y412753D01*
X119415Y412658D01*
X119422Y412578D01*
Y412512D01*
Y412461D01*
Y412454D01*
Y412447D01*
Y410230D01*
X117694D01*
Y412221D01*
Y412345D01*
X117709Y412468D01*
X117723Y412570D01*
X117738Y412665D01*
X117760Y412753D01*
X117782Y412833D01*
X117811Y412906D01*
X117840Y412964D01*
X117862Y413015D01*
X117891Y413059D01*
X117913Y413095D01*
X117935Y413125D01*
X117964Y413161D01*
X117979Y413176D01*
X118088Y413263D01*
X118204Y413321D01*
X118321Y413365D01*
X118423Y413402D01*
X118518Y413416D01*
X118591Y413423D01*
X118620Y413431D01*
X118656D01*
X118744Y413423D01*
D02*
G37*
G36*
X139513Y413963D02*
X139440Y413948D01*
X139367Y413926D01*
X139309Y413905D01*
X139265Y413883D01*
X139222Y413861D01*
X139200Y413846D01*
X139192Y413839D01*
X139127Y413781D01*
X139061Y413708D01*
X138996Y413620D01*
X138937Y413540D01*
X138879Y413460D01*
X138842Y413394D01*
X138813Y413343D01*
X138806Y413336D01*
Y413890D01*
X138245D01*
Y413970D01*
X139593D01*
X139513Y413963D01*
D02*
G37*
G36*
X110922Y413445D02*
X111060Y413409D01*
X111177Y413350D01*
X111279Y413292D01*
X111359Y413227D01*
X111417Y413168D01*
X111454Y413132D01*
X111469Y413125D01*
Y413117D01*
X111520Y413052D01*
X111563Y412971D01*
X111636Y412811D01*
X111687Y412629D01*
X111716Y412461D01*
X111738Y412308D01*
X111746Y412235D01*
Y412177D01*
X111753Y412126D01*
Y412089D01*
Y412068D01*
Y412060D01*
Y411936D01*
X111738Y411812D01*
X111724Y411703D01*
X111709Y411601D01*
X111687Y411506D01*
X111658Y411419D01*
X111629Y411346D01*
X111607Y411273D01*
X111578Y411214D01*
X111549Y411156D01*
X111527Y411112D01*
X111498Y411076D01*
X111483Y411047D01*
X111469Y411025D01*
X111454Y411018D01*
Y411010D01*
X111396Y410952D01*
X111337Y410894D01*
X111221Y410806D01*
X111104Y410748D01*
X110995Y410704D01*
X110900Y410682D01*
X110820Y410668D01*
X110791Y410661D01*
X110754D01*
X110659Y410668D01*
X110579Y410682D01*
X110492Y410704D01*
X110419Y410733D01*
X110280Y410814D01*
X110171Y410901D01*
X110076Y410981D01*
X110011Y411061D01*
X109989Y411091D01*
X109974Y411112D01*
X109959Y411127D01*
Y411134D01*
X109930Y411193D01*
X109901Y411258D01*
X109857Y411404D01*
X109828Y411564D01*
X109806Y411718D01*
X109792Y411856D01*
Y411922D01*
X109784Y411973D01*
Y412016D01*
Y412053D01*
Y412075D01*
Y412082D01*
Y412206D01*
X109799Y412315D01*
X109814Y412425D01*
X109828Y412527D01*
X109850Y412614D01*
X109879Y412702D01*
X109901Y412775D01*
X109930Y412848D01*
X109959Y412906D01*
X109981Y412957D01*
X110011Y413001D01*
X110032Y413037D01*
X110047Y413066D01*
X110062Y413088D01*
X110076Y413095D01*
Y413103D01*
X110134Y413168D01*
X110193Y413219D01*
X110251Y413270D01*
X110309Y413307D01*
X110426Y413372D01*
X110535Y413416D01*
X110630Y413438D01*
X110710Y413453D01*
X110740Y413460D01*
X110849D01*
X110922Y413445D01*
D02*
G37*
G36*
X153335Y413963D02*
X153182Y413948D01*
X153036Y413926D01*
X152919Y413905D01*
X152817Y413883D01*
X152744Y413861D01*
X152715Y413854D01*
X152693Y413846D01*
X152686Y413839D01*
X152679D01*
X152555Y413788D01*
X152446Y413722D01*
X152351Y413664D01*
X152271Y413606D01*
X152212Y413547D01*
X152169Y413504D01*
X152139Y413474D01*
X152132Y413467D01*
X152067Y413372D01*
X152008Y413270D01*
X151964Y413168D01*
X151928Y413073D01*
X151899Y412979D01*
X151877Y412913D01*
X151870Y412884D01*
Y412862D01*
X151862Y412855D01*
Y412848D01*
X152468Y412767D01*
X152511Y412898D01*
X152555Y413015D01*
X152606Y413110D01*
X152650Y413183D01*
X152693Y413241D01*
X152730Y413278D01*
X152759Y413300D01*
X152766Y413307D01*
X152854Y413358D01*
X152956Y413394D01*
X153065Y413423D01*
X153167Y413438D01*
X153269Y413453D01*
X153342Y413460D01*
X153415D01*
X153583Y413453D01*
X153729Y413431D01*
X153845Y413394D01*
X153947Y413358D01*
X154020Y413314D01*
X154078Y413285D01*
X154115Y413256D01*
X154122Y413248D01*
X154181Y413183D01*
X154224Y413103D01*
X154261Y413015D01*
X154283Y412928D01*
X154297Y412848D01*
X154305Y412775D01*
Y412731D01*
Y412724D01*
Y412716D01*
Y412702D01*
Y412673D01*
Y412621D01*
X154297Y412578D01*
Y412563D01*
Y412556D01*
X154224Y412534D01*
X154144Y412512D01*
X153977Y412468D01*
X153787Y412432D01*
X153612Y412395D01*
X153524Y412381D01*
X153444Y412374D01*
X153371Y412359D01*
X153313Y412352D01*
X153262Y412345D01*
X153226D01*
X153197Y412337D01*
X153189D01*
X153058Y412323D01*
X152949Y412301D01*
X152854Y412286D01*
X152781Y412272D01*
X152723Y412264D01*
X152679Y412250D01*
X152650Y412242D01*
X152642D01*
X152548Y412213D01*
X152468Y412184D01*
X152387Y412148D01*
X152322Y412118D01*
X152263Y412089D01*
X152227Y412060D01*
X152198Y412046D01*
X152190Y412038D01*
X152118Y411987D01*
X152059Y411929D01*
X152001Y411871D01*
X151957Y411812D01*
X151921Y411761D01*
X151892Y411718D01*
X151877Y411688D01*
X151870Y411681D01*
X151833Y411601D01*
X151804Y411513D01*
X151782Y411433D01*
X151768Y411353D01*
X151760Y411287D01*
X151753Y411236D01*
Y413970D01*
X153510D01*
X153335Y413963D01*
D02*
G37*
G36*
X154297Y411834D02*
X154290Y411688D01*
X154283Y411564D01*
X154268Y411462D01*
X154246Y411375D01*
X154224Y411309D01*
X154210Y411258D01*
X154202Y411229D01*
X154195Y411222D01*
X154137Y411127D01*
X154078Y411040D01*
X154006Y410967D01*
X153940Y410908D01*
X153882Y410857D01*
X153831Y410821D01*
X153802Y410799D01*
X153787Y410792D01*
X153678Y410741D01*
X153568Y410704D01*
X153466Y410675D01*
X153364Y410661D01*
X153284Y410646D01*
X153211Y410639D01*
X153153D01*
X153022Y410646D01*
X152912Y410661D01*
X152817Y410690D01*
X152737Y410719D01*
X152679Y410748D01*
X152635Y410777D01*
X152606Y410792D01*
X152599Y410799D01*
X152540Y410865D01*
X152497Y410938D01*
X152460Y411003D01*
X152438Y411069D01*
X152424Y411127D01*
X152416Y411171D01*
Y411207D01*
Y411214D01*
X152424Y411273D01*
X152431Y411331D01*
X152446Y411375D01*
X152460Y411419D01*
X152475Y411455D01*
X152482Y411484D01*
X152497Y411499D01*
Y411506D01*
X152569Y411594D01*
X152657Y411652D01*
X152686Y411674D01*
X152715Y411688D01*
X152737Y411703D01*
X152744D01*
X152817Y411732D01*
X152898Y411754D01*
X152985Y411776D01*
X153073Y411791D01*
X153153Y411805D01*
X153226Y411820D01*
X153269Y411827D01*
X153284D01*
X153408Y411849D01*
X153524Y411863D01*
X153627Y411885D01*
X153729Y411907D01*
X153823Y411929D01*
X153904Y411951D01*
X153984Y411965D01*
X154049Y411987D01*
X154108Y412002D01*
X154159Y412016D01*
X154202Y412031D01*
X154239Y412046D01*
X154268Y412053D01*
X154290Y412060D01*
X154297Y412068D01*
X154305D01*
X154297Y411834D01*
D02*
G37*
G36*
X149617Y413963D02*
X149486Y413941D01*
X149369Y413912D01*
X149253Y413875D01*
X149151Y413832D01*
X149056Y413781D01*
X148968Y413722D01*
X148895Y413671D01*
X148822Y413613D01*
X148764Y413555D01*
X148713Y413504D01*
X148669Y413460D01*
X148640Y413423D01*
X148618Y413394D01*
X148604Y413372D01*
X148597Y413365D01*
Y413890D01*
X148042Y413890D01*
Y413970D01*
X149756Y413970D01*
X149617Y413963D01*
D02*
G37*
G36*
X142123Y413963D02*
X141999Y413941D01*
X141890Y413919D01*
X141795Y413890D01*
X141715Y413854D01*
X141656Y413832D01*
X141620Y413810D01*
X141605Y413802D01*
X141503Y413737D01*
X141416Y413664D01*
X141336Y413591D01*
X141270Y413518D01*
X141219Y413460D01*
X141175Y413409D01*
X141153Y413380D01*
X141146Y413365D01*
Y413890D01*
X140592D01*
Y413970D01*
X142254D01*
X142123Y413963D01*
D02*
G37*
G36*
X144295D02*
X144179Y413941D01*
X144062Y413912D01*
X143953Y413868D01*
X143851Y413817D01*
X143756Y413766D01*
X143676Y413708D01*
X143596Y413649D01*
X143523Y413584D01*
X143464Y413525D01*
X143413Y413474D01*
X143369Y413423D01*
X143333Y413380D01*
X143311Y413350D01*
X143297Y413329D01*
X143289Y413321D01*
X143246Y413431D01*
X143187Y413525D01*
X143122Y413606D01*
X143063Y413671D01*
X143005Y413730D01*
X142961Y413766D01*
X142932Y413788D01*
X142918Y413795D01*
X142815Y413854D01*
X142706Y413897D01*
X142597Y413926D01*
X142487Y413948D01*
X142400Y413963D01*
X142320Y413970D01*
X144427D01*
X144295Y413963D01*
D02*
G37*
G36*
X107969Y410230D02*
X106322D01*
Y411681D01*
X106752Y412097D01*
X107969Y410230D01*
D02*
G37*
G36*
X78241Y414670D02*
X78350Y414663D01*
X78438Y414655D01*
X78496Y414641D01*
X78540Y414634D01*
X78569Y414626D01*
X78576D01*
X78671Y414590D01*
X78751Y414546D01*
X78824Y414502D01*
X78890Y414451D01*
X78933Y414400D01*
X78970Y414364D01*
X78992Y414335D01*
X78999Y414327D01*
X79050Y414240D01*
X79094Y414152D01*
X79123Y414058D01*
X79137Y413977D01*
X79152Y413904D01*
X79159Y413839D01*
Y413802D01*
Y413795D01*
Y413788D01*
X79145Y413635D01*
X79115Y413504D01*
X79072Y413387D01*
X79021Y413292D01*
X78970Y413219D01*
X78926Y413161D01*
X78897Y413132D01*
X78882Y413117D01*
X78831Y413073D01*
X78765Y413037D01*
X78627Y412979D01*
X78474Y412935D01*
X78321Y412906D01*
X78182Y412891D01*
X78124Y412884D01*
X78073D01*
X78022Y412877D01*
X76666D01*
Y414677D01*
X78110D01*
X78241Y414670D01*
D02*
G37*
G36*
X135919Y413453D02*
X135999Y413445D01*
X136152Y413402D01*
X136284Y413343D01*
X136393Y413278D01*
X136480Y413212D01*
X136546Y413154D01*
X136583Y413110D01*
X136597Y413103D01*
Y413095D01*
X136663Y413001D01*
X136721Y412891D01*
X136758Y412782D01*
X136794Y412665D01*
X136816Y412570D01*
X136830Y412483D01*
Y412454D01*
X136838Y412432D01*
Y412417D01*
Y412410D01*
X134789D01*
X134811Y412578D01*
X134855Y412731D01*
X134906Y412862D01*
X134964Y412964D01*
X135015Y413052D01*
X135066Y413117D01*
X135095Y413154D01*
X135110Y413168D01*
X135227Y413263D01*
X135343Y413336D01*
X135467Y413387D01*
X135584Y413423D01*
X135679Y413445D01*
X135759Y413453D01*
X135788Y413460D01*
X135832D01*
X135919Y413453D01*
D02*
G37*
G36*
X135686Y413963D02*
X135555Y413948D01*
X135431Y413926D01*
X135314Y413890D01*
X135205Y413854D01*
X135103Y413810D01*
X135008Y413766D01*
X134928Y413715D01*
X134847Y413671D01*
X134782Y413620D01*
X134724Y413577D01*
X134680Y413540D01*
X134643Y413504D01*
X134614Y413482D01*
X134600Y413467D01*
X134592Y413460D01*
X134512Y413358D01*
X134439Y413248D01*
X134374Y413139D01*
X134315Y413023D01*
X134272Y412898D01*
X134235Y412782D01*
X134177Y412549D01*
X134155Y412447D01*
X134140Y412345D01*
X134133Y412257D01*
X134126Y412177D01*
X134118Y412111D01*
Y413970D01*
X135824D01*
X135686Y413963D01*
D02*
G37*
G36*
X114742Y413453D02*
X114822Y413445D01*
X114975Y413402D01*
X115106Y413343D01*
X115216Y413278D01*
X115303Y413212D01*
X115369Y413154D01*
X115405Y413110D01*
X115420Y413103D01*
Y413095D01*
X115485Y413001D01*
X115544Y412891D01*
X115580Y412782D01*
X115617Y412665D01*
X115638Y412570D01*
X115653Y412483D01*
Y412454D01*
X115660Y412432D01*
Y412417D01*
Y412410D01*
X113612D01*
X113634Y412578D01*
X113677Y412731D01*
X113728Y412862D01*
X113787Y412964D01*
X113838Y413052D01*
X113889Y413117D01*
X113918Y413154D01*
X113933Y413168D01*
X114049Y413263D01*
X114166Y413336D01*
X114290Y413387D01*
X114406Y413423D01*
X114501Y413445D01*
X114581Y413453D01*
X114611Y413460D01*
X114654D01*
X114742Y413453D01*
D02*
G37*
G36*
X114508Y413963D02*
X114377Y413948D01*
X114253Y413926D01*
X114137Y413890D01*
X114027Y413854D01*
X113925Y413810D01*
X113830Y413766D01*
X113750Y413715D01*
X113670Y413671D01*
X113604Y413620D01*
X113546Y413577D01*
X113502Y413540D01*
X113466Y413504D01*
X113437Y413482D01*
X113422Y413467D01*
X113415Y413460D01*
X113335Y413358D01*
X113262Y413248D01*
X113196Y413139D01*
X113138Y413023D01*
X113094Y412898D01*
X113058Y412782D01*
X112999Y412549D01*
X112978Y412447D01*
X112963Y412345D01*
X112956Y412257D01*
X112948Y412177D01*
X112941Y412111D01*
Y413970D01*
X114647D01*
X114508Y413963D01*
D02*
G37*
G36*
X116316Y410150D02*
X114683D01*
X114909Y410165D01*
X115113Y410201D01*
X115296Y410245D01*
X115369Y410274D01*
X115442Y410303D01*
X115507Y410332D01*
X115566Y410362D01*
X115609Y410384D01*
X115653Y410405D01*
X115682Y410427D01*
X115704Y410442D01*
X115719Y410456D01*
X115726D01*
X115872Y410588D01*
X115988Y410726D01*
X116090Y410872D01*
X116163Y411010D01*
X116222Y411134D01*
X116243Y411193D01*
X116265Y411236D01*
X116280Y411280D01*
X116287Y411309D01*
X116295Y411324D01*
Y411331D01*
X115653Y411411D01*
X115595Y411273D01*
X115529Y411156D01*
X115463Y411054D01*
X115405Y410974D01*
X115354Y410916D01*
X115310Y410872D01*
X115274Y410843D01*
X115267Y410836D01*
X115172Y410777D01*
X115077Y410733D01*
X114975Y410704D01*
X114887Y410682D01*
X114807Y410668D01*
X114742Y410661D01*
X114683D01*
X114596Y410668D01*
X114516Y410675D01*
X114370Y410711D01*
X114239Y410763D01*
X114122Y410821D01*
X114035Y410872D01*
X113969Y410923D01*
X113925Y410959D01*
X113918Y410974D01*
X113911D01*
X113809Y411105D01*
X113728Y411251D01*
X113670Y411411D01*
X113626Y411557D01*
X113604Y411688D01*
X113590Y411747D01*
X113583Y411798D01*
Y411841D01*
X113575Y411871D01*
Y411893D01*
Y411900D01*
X116309D01*
X116316Y411973D01*
Y410150D01*
D02*
G37*
G36*
X99841Y413453D02*
X99921Y413445D01*
X100074Y413402D01*
X100205Y413343D01*
X100315Y413278D01*
X100402Y413212D01*
X100468Y413154D01*
X100504Y413110D01*
X100519Y413103D01*
Y413095D01*
X100584Y413001D01*
X100643Y412891D01*
X100679Y412782D01*
X100716Y412665D01*
X100738Y412570D01*
X100752Y412483D01*
Y412454D01*
X100759Y412432D01*
Y412417D01*
Y412410D01*
X98711D01*
X98733Y412578D01*
X98777Y412731D01*
X98828Y412862D01*
X98886Y412964D01*
X98937Y413052D01*
X98988Y413117D01*
X99017Y413154D01*
X99032Y413168D01*
X99148Y413263D01*
X99265Y413336D01*
X99389Y413387D01*
X99506Y413423D01*
X99600Y413445D01*
X99681Y413453D01*
X99710Y413460D01*
X99753D01*
X99841Y413453D01*
D02*
G37*
G36*
X99608Y413963D02*
X99476Y413948D01*
X99353Y413926D01*
X99236Y413890D01*
X99126Y413854D01*
X99024Y413810D01*
X98930Y413766D01*
X98849Y413715D01*
X98769Y413671D01*
X98704Y413620D01*
X98645Y413577D01*
X98602Y413540D01*
X98565Y413504D01*
X98536Y413482D01*
X98522Y413467D01*
X98514Y413460D01*
X98434Y413358D01*
X98361Y413248D01*
X98295Y413139D01*
X98237Y413023D01*
X98193Y412898D01*
X98157Y412782D01*
X98099Y412549D01*
X98077Y412447D01*
X98062Y412345D01*
X98055Y412257D01*
X98048Y412177D01*
X98040Y412111D01*
Y413970D01*
X99746D01*
X99608Y413963D01*
D02*
G37*
G36*
X101416Y410150D02*
X99783D01*
X100009Y410165D01*
X100213Y410201D01*
X100395Y410245D01*
X100468Y410274D01*
X100541Y410303D01*
X100606Y410332D01*
X100665Y410362D01*
X100708Y410384D01*
X100752Y410405D01*
X100781Y410427D01*
X100803Y410442D01*
X100818Y410456D01*
X100825D01*
X100971Y410588D01*
X101087Y410726D01*
X101190Y410872D01*
X101262Y411010D01*
X101321Y411134D01*
X101343Y411193D01*
X101365Y411236D01*
X101379Y411280D01*
X101386Y411309D01*
X101394Y411324D01*
Y411331D01*
X100752Y411411D01*
X100694Y411273D01*
X100628Y411156D01*
X100563Y411054D01*
X100504Y410974D01*
X100453Y410916D01*
X100410Y410872D01*
X100373Y410843D01*
X100366Y410836D01*
X100271Y410777D01*
X100176Y410733D01*
X100074Y410704D01*
X99987Y410682D01*
X99907Y410668D01*
X99841Y410661D01*
X99783D01*
X99695Y410668D01*
X99615Y410675D01*
X99469Y410711D01*
X99338Y410763D01*
X99221Y410821D01*
X99134Y410872D01*
X99068Y410923D01*
X99024Y410959D01*
X99017Y410974D01*
X99010D01*
X98908Y411105D01*
X98828Y411251D01*
X98769Y411411D01*
X98726Y411557D01*
X98704Y411688D01*
X98689Y411747D01*
X98682Y411798D01*
Y411841D01*
X98674Y411871D01*
Y411893D01*
Y411900D01*
X101408D01*
X101416Y411973D01*
Y410150D01*
D02*
G37*
G36*
X87863Y414706D02*
X88031Y414677D01*
X88177Y414641D01*
X88286Y414597D01*
X88381Y414553D01*
X88439Y414517D01*
X88476Y414488D01*
X88490Y414480D01*
X88578Y414386D01*
X88643Y414291D01*
X88687Y414189D01*
X88724Y414101D01*
X88738Y414014D01*
X88746Y413948D01*
X88753Y413904D01*
Y413897D01*
Y413890D01*
X88746Y413802D01*
X88731Y413715D01*
X88709Y413642D01*
X88687Y413577D01*
X88658Y413518D01*
X88636Y413474D01*
X88622Y413445D01*
X88614Y413438D01*
X88563Y413365D01*
X88498Y413300D01*
X88432Y413248D01*
X88367Y413205D01*
X88308Y413175D01*
X88264Y413154D01*
X88235Y413139D01*
X88221Y413132D01*
X88119Y413103D01*
X88002Y413081D01*
X87885Y413066D01*
X87769Y413059D01*
X87667Y413052D01*
X87579Y413044D01*
X86077D01*
Y414714D01*
X87667D01*
X87863Y414706D01*
D02*
G37*
%LPC*%
G36*
X120811Y399611D02*
D01*
Y394479D01*
X119841D01*
Y397657D01*
X120548D01*
Y398138D01*
X119841D01*
Y398474D01*
X119848Y398590D01*
X119863Y398685D01*
X119878Y398758D01*
X119899Y398816D01*
X119921Y398867D01*
X119943Y398897D01*
X119950Y398911D01*
X119958Y398918D01*
X120009Y398962D01*
X120067Y398991D01*
X120133Y399013D01*
X120198Y399028D01*
X120257Y399035D01*
X120308Y399042D01*
X120351D01*
X120483Y399035D01*
X120541Y399028D01*
X120599D01*
X120650Y399020D01*
X120687Y399013D01*
X120709Y399006D01*
X120716D01*
X120811Y399545D01*
X120694Y399567D01*
X120592Y399582D01*
X120490Y399596D01*
X120402Y399604D01*
X120337Y399611D01*
X120811D01*
X118675D01*
X120235D01*
X120089Y399604D01*
X119965Y399589D01*
X119856Y399560D01*
X119768Y399538D01*
X119695Y399509D01*
X119644Y399480D01*
X119608Y399465D01*
X119600Y399458D01*
X119520Y399399D01*
X119455Y399334D01*
X119404Y399268D01*
X119360Y399210D01*
X119324Y399159D01*
X119302Y399115D01*
X119294Y399079D01*
X119287Y399071D01*
X119265Y398998D01*
X119251Y398911D01*
X119236Y398816D01*
X119229Y398729D01*
Y398649D01*
X119221Y398583D01*
Y398539D01*
Y398532D01*
Y398525D01*
Y398138D01*
X118675D01*
Y397657D01*
X119221D01*
Y394479D01*
X118675D01*
X120811D01*
Y399611D01*
D02*
G37*
G36*
X94027Y398218D02*
X92431D01*
D01*
X94027D01*
D02*
G37*
G36*
X77165D02*
X75569D01*
D01*
X77165D01*
D02*
G37*
G36*
X131862Y398218D02*
D01*
Y398138D01*
X131294D01*
Y397686D01*
X131213Y397781D01*
X131126Y397861D01*
X131038Y397934D01*
X130951Y397992D01*
X130856Y398043D01*
X130769Y398087D01*
X130681Y398124D01*
X130601Y398153D01*
X130521Y398175D01*
X130448Y398189D01*
X130382Y398204D01*
X130331Y398211D01*
X130288Y398218D01*
X128640D01*
X130222D01*
X130047Y398211D01*
X129887Y398182D01*
X129741Y398138D01*
X129617Y398095D01*
X129515Y398051D01*
X129442Y398007D01*
X129413Y397992D01*
X129391Y397978D01*
X129384Y397971D01*
X129376D01*
X129252Y397876D01*
X129143Y397759D01*
X129048Y397650D01*
X128968Y397540D01*
X128910Y397439D01*
X128866Y397358D01*
X128851Y397329D01*
X128837Y397307D01*
X128830Y397293D01*
Y397285D01*
X128764Y397118D01*
X128720Y396950D01*
X128684Y396790D01*
X128662Y396644D01*
X128647Y396513D01*
Y396462D01*
X128640Y396411D01*
Y396323D01*
X128647Y396185D01*
X128655Y396046D01*
X128706Y395798D01*
X128735Y395682D01*
X128771Y395580D01*
X128808Y395477D01*
X128844Y395390D01*
X128881Y395303D01*
X128917Y395230D01*
X128954Y395171D01*
X128983Y395113D01*
X129012Y395076D01*
X129034Y395040D01*
X129041Y395025D01*
X129048Y395018D01*
X129129Y394923D01*
X129216Y394843D01*
X129311Y394770D01*
X129405Y394705D01*
X129508Y394654D01*
X129602Y394610D01*
X129697Y394573D01*
X129792Y394544D01*
X129879Y394522D01*
X129960Y394508D01*
X130033Y394493D01*
X130098Y394486D01*
X130149D01*
X130186Y394479D01*
X130222D01*
X130331Y394486D01*
X130441Y394501D01*
X130543Y394522D01*
X130638Y394552D01*
X130805Y394632D01*
X130958Y394719D01*
X131017Y394763D01*
X131075Y394807D01*
X131126Y394850D01*
X131162Y394887D01*
X131192Y394916D01*
X131213Y394938D01*
X131228Y394953D01*
X131235Y394960D01*
Y394850D01*
Y394756D01*
X131228Y394661D01*
Y394581D01*
Y394508D01*
X131221Y394442D01*
Y394384D01*
X131213Y394333D01*
X131206Y394260D01*
X131199Y394202D01*
X131192Y394173D01*
Y394165D01*
X131155Y394056D01*
X131104Y393961D01*
X131053Y393881D01*
X131002Y393808D01*
X130951Y393757D01*
X130907Y393713D01*
X130878Y393691D01*
X130871Y393684D01*
X130776Y393626D01*
X130667Y393582D01*
X130557Y393553D01*
X130455Y393531D01*
X130353Y393516D01*
X130280Y393509D01*
X130207D01*
X130069Y393516D01*
X129938Y393538D01*
X129828Y393567D01*
X129741Y393604D01*
X129668Y393633D01*
X129617Y393662D01*
X129588Y393684D01*
X129573Y393691D01*
X129515Y393742D01*
X129471Y393808D01*
X129435Y393874D01*
X129405Y393939D01*
X129391Y394005D01*
X129376Y394056D01*
X129369Y394085D01*
Y394100D01*
X128764Y394180D01*
Y394071D01*
X128779Y393976D01*
X128793Y393881D01*
X128815Y393793D01*
X128881Y393640D01*
X128954Y393516D01*
X129026Y393422D01*
X129085Y393356D01*
X129136Y393312D01*
X129143Y393305D01*
X129150Y393298D01*
X129311Y393196D01*
X129486Y393123D01*
X129661Y393072D01*
X129828Y393035D01*
X129909Y393021D01*
X129981Y393013D01*
X130040Y393006D01*
X130098D01*
X130142Y392999D01*
X131862D01*
Y398218D01*
D02*
G37*
G36*
X86001Y398218D02*
D01*
Y398138D01*
X85432D01*
Y397686D01*
X85352Y397781D01*
X85265Y397861D01*
X85177Y397934D01*
X85090Y397992D01*
X84995Y398043D01*
X84907Y398087D01*
X84820Y398124D01*
X84740Y398153D01*
X84659Y398175D01*
X84587Y398189D01*
X84521Y398204D01*
X84470Y398211D01*
X84426Y398218D01*
X82779D01*
X84361D01*
X84186Y398211D01*
X84025Y398182D01*
X83880Y398138D01*
X83756Y398095D01*
X83653Y398051D01*
X83581Y398007D01*
X83551Y397992D01*
X83530Y397978D01*
X83522Y397971D01*
X83515D01*
X83391Y397876D01*
X83282Y397759D01*
X83187Y397650D01*
X83107Y397540D01*
X83048Y397438D01*
X83005Y397358D01*
X82990Y397329D01*
X82976Y397307D01*
X82968Y397293D01*
Y397285D01*
X82903Y397118D01*
X82859Y396950D01*
X82822Y396790D01*
X82801Y396644D01*
X82786Y396513D01*
Y396462D01*
X82779Y396411D01*
Y396323D01*
X82786Y396185D01*
X82793Y396046D01*
X82844Y395798D01*
X82873Y395682D01*
X82910Y395580D01*
X82946Y395477D01*
X82983Y395390D01*
X83019Y395303D01*
X83056Y395230D01*
X83092Y395171D01*
X83121Y395113D01*
X83151Y395076D01*
X83172Y395040D01*
X83180Y395025D01*
X83187Y395018D01*
X83267Y394923D01*
X83355Y394843D01*
X83449Y394770D01*
X83544Y394705D01*
X83646Y394654D01*
X83741Y394610D01*
X83836Y394573D01*
X83930Y394544D01*
X84018Y394522D01*
X84098Y394508D01*
X84171Y394493D01*
X84237Y394486D01*
X84288D01*
X84324Y394479D01*
X84361D01*
X84470Y394486D01*
X84579Y394501D01*
X84681Y394522D01*
X84776Y394552D01*
X84944Y394632D01*
X85097Y394719D01*
X85155Y394763D01*
X85214Y394807D01*
X85265Y394850D01*
X85301Y394887D01*
X85330Y394916D01*
X85352Y394938D01*
X85367Y394953D01*
X85374Y394960D01*
Y394850D01*
Y394756D01*
X85367Y394661D01*
Y394581D01*
Y394508D01*
X85359Y394442D01*
Y394384D01*
X85352Y394333D01*
X85345Y394260D01*
X85338Y394202D01*
X85330Y394173D01*
Y394165D01*
X85294Y394056D01*
X85243Y393961D01*
X85192Y393881D01*
X85141Y393808D01*
X85090Y393757D01*
X85046Y393713D01*
X85017Y393691D01*
X85009Y393684D01*
X84915Y393626D01*
X84805Y393582D01*
X84696Y393553D01*
X84594Y393531D01*
X84492Y393516D01*
X84419Y393509D01*
X84346D01*
X84207Y393516D01*
X84076Y393538D01*
X83967Y393567D01*
X83880Y393604D01*
X83807Y393633D01*
X83756Y393662D01*
X83726Y393684D01*
X83712Y393691D01*
X83653Y393742D01*
X83610Y393808D01*
X83573Y393874D01*
X83544Y393939D01*
X83530Y394005D01*
X83515Y394056D01*
X83508Y394085D01*
Y394100D01*
X82903Y394180D01*
Y394071D01*
X82917Y393976D01*
X82932Y393881D01*
X82954Y393793D01*
X83019Y393640D01*
X83092Y393516D01*
X83165Y393422D01*
X83223Y393356D01*
X83274Y393312D01*
X83282Y393305D01*
X83289Y393298D01*
X83449Y393196D01*
X83624Y393123D01*
X83799Y393072D01*
X83967Y393035D01*
X84047Y393021D01*
X84120Y393013D01*
X84178Y393006D01*
X84237D01*
X84280Y392999D01*
X86001D01*
Y398218D01*
D02*
G37*
G36*
X150182Y399523D02*
X148206D01*
X149511D01*
Y397453D01*
X146902D01*
Y399523D01*
X146231D01*
Y394479D01*
X148206D01*
X146902D01*
Y396855D01*
X149511D01*
Y394479D01*
X150182D01*
Y399523D01*
D02*
G37*
G36*
X114118D02*
X113162D01*
X113448D01*
Y397453D01*
X110838D01*
Y399523D01*
X110167D01*
Y394479D01*
X113162D01*
X110838D01*
Y396855D01*
X113448D01*
Y394479D01*
X114118D01*
Y399523D01*
D02*
G37*
G36*
X80716Y398218D02*
D01*
Y395550D01*
X80708Y395667D01*
X80694Y395769D01*
X80665Y395856D01*
X80643Y395937D01*
X80614Y396002D01*
X80584Y396046D01*
X80570Y396075D01*
X80563Y396082D01*
X80504Y396155D01*
X80439Y396221D01*
X80373Y396279D01*
X80307Y396323D01*
X80242Y396359D01*
X80198Y396381D01*
X80169Y396396D01*
X80154Y396403D01*
X80103Y396425D01*
X80045Y396447D01*
X79906Y396498D01*
X79753Y396549D01*
X79600Y396593D01*
X79462Y396637D01*
X79396Y396651D01*
X79345Y396666D01*
X79301Y396680D01*
X79265Y396688D01*
X79243Y396695D01*
X79236D01*
X79156Y396717D01*
X79083Y396739D01*
X79017Y396753D01*
X78959Y396775D01*
X78864Y396797D01*
X78791Y396819D01*
X78740Y396841D01*
X78711Y396848D01*
X78696Y396855D01*
X78689D01*
X78631Y396884D01*
X78580Y396906D01*
X78536Y396935D01*
X78507Y396957D01*
X78478Y396979D01*
X78463Y397001D01*
X78456Y397008D01*
X78448Y397016D01*
X78405Y397089D01*
X78383Y397161D01*
Y397191D01*
X78376Y397212D01*
Y397227D01*
Y397234D01*
X78383Y397300D01*
X78405Y397365D01*
X78434Y397424D01*
X78470Y397468D01*
X78500Y397511D01*
X78529Y397540D01*
X78550Y397555D01*
X78558Y397562D01*
X78638Y397613D01*
X78733Y397650D01*
X78835Y397672D01*
X78930Y397694D01*
X79024Y397701D01*
X79097Y397708D01*
X79170D01*
X79294Y397701D01*
X79411Y397686D01*
X79505Y397657D01*
X79578Y397628D01*
X79644Y397599D01*
X79688Y397570D01*
X79717Y397555D01*
X79724Y397548D01*
X79797Y397482D01*
X79848Y397409D01*
X79892Y397336D01*
X79928Y397271D01*
X79950Y397205D01*
X79965Y397154D01*
X79972Y397125D01*
Y397110D01*
X80577Y397191D01*
X80548Y397315D01*
X80519Y397424D01*
X80482Y397519D01*
X80446Y397606D01*
X80409Y397664D01*
X80380Y397715D01*
X80366Y397745D01*
X80358Y397752D01*
X80293Y397825D01*
X80220Y397890D01*
X80140Y397949D01*
X80059Y398000D01*
X79987Y398036D01*
X79928Y398065D01*
X79892Y398080D01*
X79885Y398087D01*
X79877D01*
X79753Y398131D01*
X79622Y398160D01*
X79498Y398189D01*
X79382Y398204D01*
X79272Y398211D01*
X79192Y398218D01*
X79017D01*
X78915Y398204D01*
X78828Y398197D01*
X78747Y398182D01*
X78682Y398167D01*
X78631Y398153D01*
X78601Y398146D01*
X78587Y398138D01*
X78500Y398109D01*
X78419Y398080D01*
X78354Y398051D01*
X78295Y398022D01*
X78252Y398000D01*
X78223Y397978D01*
X78201Y397971D01*
X78193Y397963D01*
X78120Y397912D01*
X78062Y397854D01*
X78011Y397788D01*
X77967Y397737D01*
X77931Y397686D01*
X77909Y397650D01*
X77894Y397621D01*
X77887Y397613D01*
X77851Y397533D01*
X77821Y397460D01*
X77807Y397380D01*
X77792Y397315D01*
X77785Y397249D01*
X77778Y397205D01*
Y397176D01*
Y397161D01*
X77785Y397059D01*
X77800Y396972D01*
X77821Y396884D01*
X77843Y396812D01*
X77865Y396753D01*
X77887Y396702D01*
X77902Y396673D01*
X77909Y396666D01*
X77967Y396585D01*
X78033Y396520D01*
X78098Y396462D01*
X78164Y396411D01*
X78223Y396374D01*
X78266Y396345D01*
X78295Y396330D01*
X78310Y396323D01*
X78361Y396301D01*
X78427Y396272D01*
X78572Y396221D01*
X78725Y396177D01*
X78886Y396126D01*
X79024Y396090D01*
X79090Y396068D01*
X79148Y396053D01*
X79192Y396039D01*
X79229Y396031D01*
X79250Y396024D01*
X79258D01*
X79352Y396002D01*
X79433Y395980D01*
X79505Y395959D01*
X79571Y395937D01*
X79629Y395922D01*
X79680Y395900D01*
X79768Y395871D01*
X79826Y395849D01*
X79863Y395827D01*
X79885Y395820D01*
X79892Y395813D01*
X79957Y395769D01*
X80001Y395711D01*
X80038Y395660D01*
X80059Y395609D01*
X80074Y395558D01*
X80081Y395521D01*
Y395492D01*
Y395485D01*
X80074Y395397D01*
X80052Y395324D01*
X80016Y395251D01*
X79979Y395193D01*
X79936Y395142D01*
X79906Y395106D01*
X79877Y395084D01*
X79870Y395076D01*
X79782Y395018D01*
X79688Y394982D01*
X79578Y394953D01*
X79476Y394931D01*
X79382Y394916D01*
X79309Y394909D01*
X79236D01*
X79083Y394916D01*
X78951Y394938D01*
X78842Y394967D01*
X78747Y395004D01*
X78674Y395040D01*
X78616Y395069D01*
X78587Y395091D01*
X78572Y395098D01*
X78492Y395179D01*
X78427Y395273D01*
X78383Y395368D01*
X78346Y395456D01*
X78317Y395536D01*
X78303Y395609D01*
X78288Y395652D01*
Y395660D01*
Y395667D01*
X77676Y395572D01*
D01*
X77727Y395368D01*
X77792Y395186D01*
X77873Y395040D01*
X77953Y394916D01*
X78026Y394814D01*
X78091Y394748D01*
X78135Y394705D01*
X78142Y394697D01*
X78149Y394690D01*
X78223Y394639D01*
X78303Y394595D01*
X78478Y394522D01*
X78660Y394471D01*
X78835Y394435D01*
X78915Y394420D01*
X78988Y394413D01*
X79061Y394406D01*
X79119D01*
X79170Y394398D01*
X77676D01*
X80716D01*
Y398218D01*
D02*
G37*
G36*
X105305Y399523D02*
D01*
Y397023D01*
X105298Y397271D01*
X105276Y397497D01*
X105239Y397701D01*
X105225Y397796D01*
X105203Y397876D01*
X105181Y397956D01*
X105166Y398022D01*
X105152Y398080D01*
X105130Y398131D01*
X105123Y398175D01*
X105108Y398204D01*
X105101Y398218D01*
Y398226D01*
X105020Y398415D01*
X104926Y398583D01*
X104824Y398729D01*
X104729Y398853D01*
X104641Y398955D01*
X104569Y399028D01*
X104539Y399049D01*
X104517Y399071D01*
X104510Y399079D01*
X104503Y399086D01*
X104386Y399181D01*
X104262Y399254D01*
X104138Y399319D01*
X104022Y399370D01*
X103920Y399407D01*
X103840Y399429D01*
X103810Y399443D01*
X103788D01*
X103774Y399450D01*
X103767D01*
X103643Y399472D01*
X103497Y399494D01*
X103351Y399509D01*
X103205Y399516D01*
X103074Y399523D01*
X101135D01*
Y394479D01*
X105305D01*
Y399523D01*
D02*
G37*
G36*
X73163Y399523D02*
D01*
Y397023D01*
X73156Y397271D01*
X73134Y397497D01*
X73098Y397701D01*
X73083Y397796D01*
X73061Y397876D01*
X73039Y397956D01*
X73025Y398022D01*
X73010Y398080D01*
X72988Y398131D01*
X72981Y398175D01*
X72966Y398204D01*
X72959Y398218D01*
Y398226D01*
X72879Y398415D01*
X72784Y398583D01*
X72682Y398729D01*
X72587Y398853D01*
X72500Y398955D01*
X72427Y399028D01*
X72398Y399049D01*
X72376Y399071D01*
X72369Y399079D01*
X72361Y399086D01*
X72245Y399181D01*
X72121Y399254D01*
X71997Y399319D01*
X71880Y399370D01*
X71778Y399407D01*
X71698Y399429D01*
X71669Y399443D01*
X71647D01*
X71632Y399450D01*
X71625D01*
X71501Y399472D01*
X71355Y399494D01*
X71210Y399509D01*
X71064Y399516D01*
X70932Y399523D01*
X73163D01*
X68993D01*
Y394479D01*
X70809D01*
X70976Y394486D01*
X71129Y394493D01*
X71268Y394508D01*
X71384Y394522D01*
X71487Y394537D01*
X71559Y394544D01*
X71581Y394552D01*
X71603Y394559D01*
X71618D01*
X71749Y394595D01*
X71866Y394639D01*
X71968Y394675D01*
X72055Y394719D01*
X72128Y394756D01*
X72179Y394785D01*
X72208Y394807D01*
X72223Y394814D01*
X72318Y394880D01*
X72398Y394960D01*
X72478Y395033D01*
X72544Y395106D01*
X72602Y395171D01*
X72646Y395222D01*
X72675Y395259D01*
X72682Y395273D01*
X72755Y395390D01*
X72828Y395514D01*
X72886Y395631D01*
X72930Y395747D01*
X72974Y395849D01*
X73003Y395929D01*
X73010Y395959D01*
X73017Y395980D01*
X73025Y395995D01*
Y396002D01*
X73068Y396177D01*
X73105Y396352D01*
X73127Y396520D01*
X73149Y396680D01*
X73156Y396819D01*
Y396877D01*
X73163Y396928D01*
Y394479D01*
X73163D01*
X73163D01*
Y399523D01*
D02*
G37*
G36*
X124004Y398218D02*
D01*
Y396877D01*
X123996Y397001D01*
X123989Y397103D01*
Y397191D01*
X123982Y397249D01*
X123975Y397293D01*
X123967Y397322D01*
Y397329D01*
X123945Y397424D01*
X123909Y397511D01*
X123880Y397584D01*
X123851Y397657D01*
X123814Y397708D01*
X123792Y397745D01*
X123778Y397774D01*
X123770Y397781D01*
X123712Y397854D01*
X123646Y397912D01*
X123581Y397971D01*
X123508Y398014D01*
X123450Y398051D01*
X123399Y398073D01*
X123369Y398087D01*
X123355Y398095D01*
X123253Y398138D01*
X123143Y398167D01*
X123041Y398189D01*
X122947Y398204D01*
X122866Y398211D01*
X122808Y398218D01*
X124004D01*
X122750D01*
X122611Y398211D01*
X122480Y398189D01*
X122363Y398160D01*
X122247Y398124D01*
X122145Y398080D01*
X122050Y398029D01*
X121962Y397971D01*
X121890Y397920D01*
X121817Y397861D01*
X121758Y397803D01*
X121707Y397752D01*
X121664Y397708D01*
X121634Y397672D01*
X121613Y397643D01*
X121598Y397621D01*
X121591Y397613D01*
Y398138D01*
X121037D01*
Y394479D01*
X122520D01*
X121656D01*
Y396469D01*
Y396593D01*
X121671Y396717D01*
X121685Y396819D01*
X121700Y396914D01*
X121722Y397001D01*
X121744Y397081D01*
X121773Y397154D01*
X121802Y397213D01*
X121824Y397264D01*
X121853Y397307D01*
X121875Y397344D01*
X121897Y397373D01*
X121926Y397409D01*
X121941Y397424D01*
X122050Y397511D01*
X122167Y397570D01*
X122283Y397613D01*
X122385Y397650D01*
X122480Y397664D01*
X122553Y397672D01*
X122582Y397679D01*
X122619D01*
X122706Y397672D01*
X122793Y397664D01*
X122866Y397643D01*
X122925Y397621D01*
X122976Y397599D01*
X123020Y397584D01*
X123041Y397570D01*
X123049Y397562D01*
X123114Y397519D01*
X123173Y397468D01*
X123216Y397417D01*
X123253Y397373D01*
X123275Y397329D01*
X123296Y397293D01*
X123311Y397271D01*
Y397264D01*
X123333Y397183D01*
X123355Y397096D01*
X123369Y397001D01*
X123377Y396906D01*
X123384Y396826D01*
Y396761D01*
Y396709D01*
Y396702D01*
Y396695D01*
Y394479D01*
X124004D01*
Y398218D01*
D02*
G37*
G36*
X89908Y398218D02*
D01*
Y396877D01*
X89901Y397001D01*
X89894Y397103D01*
Y397191D01*
X89886Y397249D01*
X89879Y397293D01*
X89872Y397322D01*
Y397329D01*
X89850Y397424D01*
X89814Y397511D01*
X89784Y397584D01*
X89755Y397657D01*
X89719Y397708D01*
X89697Y397745D01*
X89682Y397774D01*
X89675Y397781D01*
X89617Y397854D01*
X89551Y397912D01*
X89486Y397971D01*
X89413Y398014D01*
X89354Y398051D01*
X89303Y398073D01*
X89274Y398087D01*
X89259Y398095D01*
X89157Y398138D01*
X89048Y398167D01*
X88946Y398189D01*
X88851Y398204D01*
X88771Y398211D01*
X88713Y398218D01*
X89908D01*
X88654D01*
D01*
X86941D01*
X88654D01*
X88516Y398211D01*
X88385Y398189D01*
X88268Y398160D01*
X88151Y398124D01*
X88049Y398080D01*
X87955Y398029D01*
X87867Y397971D01*
X87794Y397920D01*
X87721Y397861D01*
X87663Y397803D01*
X87612Y397752D01*
X87568Y397708D01*
X87539Y397672D01*
X87517Y397643D01*
X87503Y397621D01*
X87495Y397613D01*
Y398138D01*
X86941D01*
Y394479D01*
X88425D01*
X87561D01*
Y396469D01*
Y396593D01*
X87576Y396717D01*
X87590Y396819D01*
X87605Y396914D01*
X87626Y397001D01*
X87648Y397081D01*
X87678Y397154D01*
X87707Y397212D01*
X87729Y397264D01*
X87758Y397307D01*
X87780Y397344D01*
X87801Y397373D01*
X87831Y397409D01*
X87845Y397424D01*
X87955Y397511D01*
X88071Y397570D01*
X88188Y397613D01*
X88290Y397650D01*
X88385Y397664D01*
X88458Y397672D01*
X88487Y397679D01*
X88523D01*
X88611Y397672D01*
X88698Y397664D01*
X88771Y397643D01*
X88829Y397621D01*
X88880Y397599D01*
X88924Y397584D01*
X88946Y397570D01*
X88953Y397562D01*
X89019Y397519D01*
X89077Y397468D01*
X89121Y397417D01*
X89157Y397373D01*
X89179Y397329D01*
X89201Y397293D01*
X89216Y397271D01*
Y397264D01*
X89238Y397183D01*
X89259Y397096D01*
X89274Y397001D01*
X89281Y396906D01*
X89289Y396826D01*
Y396761D01*
Y396709D01*
Y396702D01*
Y396695D01*
Y394479D01*
X89908D01*
Y398218D01*
D02*
G37*
G36*
X135967Y398218D02*
D01*
Y396308D01*
X135959Y396476D01*
X135945Y396629D01*
X135923Y396775D01*
X135894Y396914D01*
X135857Y397038D01*
X135821Y397154D01*
X135777Y397256D01*
X135733Y397351D01*
X135689Y397439D01*
X135646Y397511D01*
X135609Y397570D01*
X135573Y397621D01*
X135544Y397664D01*
X135522Y397694D01*
X135507Y397708D01*
X135500Y397715D01*
X135413Y397803D01*
X135318Y397883D01*
X135216Y397949D01*
X135114Y398007D01*
X135012Y398058D01*
X134917Y398095D01*
X134815Y398131D01*
X134727Y398153D01*
X134633Y398175D01*
X134552Y398189D01*
X134479Y398204D01*
X134421Y398211D01*
X134370Y398218D01*
X134297D01*
D01*
D01*
D01*
X132591D01*
X134297D01*
X134159Y398211D01*
X134027Y398197D01*
X133904Y398175D01*
X133787Y398138D01*
X133677Y398102D01*
X133575Y398058D01*
X133481Y398014D01*
X133400Y397963D01*
X133320Y397920D01*
X133255Y397869D01*
X133196Y397825D01*
X133153Y397788D01*
X133116Y397752D01*
X133087Y397730D01*
X133072Y397715D01*
X133065Y397708D01*
X132985Y397606D01*
X132912Y397497D01*
X132846Y397387D01*
X132788Y397271D01*
X132744Y397147D01*
X132708Y397030D01*
X132650Y396797D01*
X132628Y396695D01*
X132613Y396593D01*
X132606Y396505D01*
X132599Y396425D01*
X132591Y396359D01*
Y396272D01*
X132599Y396112D01*
X132613Y395959D01*
X132635Y395813D01*
X132664Y395682D01*
X132701Y395558D01*
X132737Y395441D01*
X132781Y395339D01*
X132825Y395244D01*
X132868Y395164D01*
X132912Y395091D01*
X132949Y395033D01*
X132985Y394982D01*
X133014Y394938D01*
X133036Y394909D01*
X133051Y394894D01*
X133058Y394887D01*
X133153Y394799D01*
X133247Y394727D01*
X133349Y394661D01*
X133459Y394603D01*
X133561Y394559D01*
X133670Y394515D01*
X133874Y394457D01*
X133969Y394442D01*
X134057Y394428D01*
X134137Y394413D01*
X134202Y394406D01*
X134253Y394398D01*
X132591D01*
X135967D01*
Y398218D01*
D02*
G37*
G36*
X94027Y398218D02*
D01*
Y396308D01*
X94020Y396476D01*
X94005Y396629D01*
X93983Y396775D01*
X93954Y396914D01*
X93918Y397038D01*
X93881Y397154D01*
X93838Y397256D01*
X93794Y397351D01*
X93750Y397438D01*
X93706Y397511D01*
X93670Y397570D01*
X93634Y397621D01*
X93604Y397664D01*
X93582Y397694D01*
X93568Y397708D01*
X93561Y397715D01*
X93473Y397803D01*
X93378Y397883D01*
X93276Y397949D01*
X93174Y398007D01*
X93072Y398058D01*
X92977Y398095D01*
X92875Y398131D01*
X92788Y398153D01*
X92693Y398175D01*
X92613Y398189D01*
X92540Y398204D01*
X92482Y398211D01*
X92431Y398218D01*
X92358D01*
D01*
X90652D01*
X92358D01*
X92219Y398211D01*
X92088Y398197D01*
X91964Y398175D01*
X91847Y398138D01*
X91738Y398102D01*
X91636Y398058D01*
X91541Y398014D01*
X91461Y397963D01*
X91381Y397920D01*
X91315Y397869D01*
X91257Y397825D01*
X91213Y397788D01*
X91177Y397752D01*
X91148Y397730D01*
X91133Y397715D01*
X91126Y397708D01*
X91046Y397606D01*
X90973Y397497D01*
X90907Y397387D01*
X90849Y397271D01*
X90805Y397147D01*
X90768Y397030D01*
X90710Y396797D01*
X90688Y396695D01*
X90674Y396593D01*
X90667Y396505D01*
X90659Y396425D01*
X90652Y396359D01*
Y396272D01*
X90659Y396112D01*
X90674Y395959D01*
X90696Y395813D01*
X90725Y395682D01*
X90761Y395558D01*
X90798Y395441D01*
X90841Y395339D01*
X90885Y395244D01*
X90929Y395164D01*
X90973Y395091D01*
X91009Y395033D01*
X91046Y394982D01*
X91075Y394938D01*
X91097Y394909D01*
X91111Y394894D01*
X91119Y394887D01*
X91213Y394799D01*
X91308Y394727D01*
X91410Y394661D01*
X91519Y394603D01*
X91622Y394559D01*
X91731Y394515D01*
X91935Y394457D01*
X92030Y394442D01*
X92117Y394428D01*
X92197Y394413D01*
X92263Y394406D01*
X92314Y394398D01*
X90652D01*
X94027D01*
Y398218D01*
D02*
G37*
G36*
X77165D02*
D01*
Y396308D01*
X77158Y396476D01*
X77144Y396629D01*
X77122Y396775D01*
X77092Y396914D01*
X77056Y397038D01*
X77020Y397154D01*
X76976Y397256D01*
X76932Y397351D01*
X76888Y397438D01*
X76845Y397511D01*
X76808Y397570D01*
X76772Y397621D01*
X76743Y397664D01*
X76721Y397694D01*
X76706Y397708D01*
X76699Y397715D01*
X76611Y397803D01*
X76517Y397883D01*
X76415Y397949D01*
X76313Y398007D01*
X76210Y398058D01*
X76116Y398095D01*
X76014Y398131D01*
X75926Y398153D01*
X75831Y398175D01*
X75751Y398189D01*
X75678Y398204D01*
X75620Y398211D01*
X75569Y398218D01*
X75496D01*
D01*
X73790D01*
X75496D01*
X75358Y398211D01*
X75226Y398197D01*
X75102Y398175D01*
X74986Y398138D01*
X74876Y398102D01*
X74774Y398058D01*
X74679Y398014D01*
X74599Y397963D01*
X74519Y397920D01*
X74454Y397869D01*
X74395Y397825D01*
X74352Y397788D01*
X74315Y397752D01*
X74286Y397730D01*
X74271Y397715D01*
X74264Y397708D01*
X74184Y397606D01*
X74111Y397497D01*
X74045Y397387D01*
X73987Y397271D01*
X73943Y397147D01*
X73907Y397030D01*
X73848Y396797D01*
X73827Y396695D01*
X73812Y396593D01*
X73805Y396505D01*
X73797Y396425D01*
X73790Y396359D01*
Y396272D01*
X73797Y396112D01*
X73812Y395959D01*
X73834Y395813D01*
X73863Y395682D01*
X73900Y395558D01*
X73936Y395441D01*
X73980Y395339D01*
X74023Y395244D01*
X74067Y395164D01*
X74111Y395091D01*
X74147Y395033D01*
X74184Y394982D01*
X74213Y394938D01*
X74235Y394909D01*
X74249Y394894D01*
X74257Y394887D01*
X74352Y394799D01*
X74446Y394727D01*
X74548Y394661D01*
X74658Y394603D01*
X74760Y394559D01*
X74869Y394515D01*
X75073Y394457D01*
X75168Y394442D01*
X75255Y394428D01*
X75336Y394413D01*
X75401Y394406D01*
X75452Y394398D01*
X73790D01*
X77165D01*
Y398218D01*
D02*
G37*
G36*
X145123Y399523D02*
X142476D01*
X144226D01*
X143016Y396010D01*
X142950Y395820D01*
X142899Y395660D01*
X142848Y395521D01*
X142812Y395405D01*
X142783Y395317D01*
X142761Y395251D01*
X142754Y395215D01*
X142746Y395200D01*
X142717Y395303D01*
X142681Y395419D01*
X142637Y395543D01*
X142600Y395667D01*
X142564Y395776D01*
X142535Y395864D01*
X142520Y395900D01*
X142513Y395922D01*
X142506Y395937D01*
Y395944D01*
X141310Y399523D01*
X140311D01*
Y394479D01*
X144268D01*
X143009D01*
X144481Y398700D01*
Y394479D01*
X145123D01*
Y399523D01*
D02*
G37*
G36*
X118106Y398138D02*
X116622D01*
X117486D01*
Y396177D01*
X117479Y396010D01*
X117472Y395864D01*
X117457Y395740D01*
X117435Y395638D01*
X117413Y395558D01*
X117399Y395499D01*
X117392Y395470D01*
X117384Y395456D01*
X117341Y395368D01*
X117290Y395295D01*
X117231Y395230D01*
X117173Y395171D01*
X117122Y395128D01*
X117078Y395098D01*
X117049Y395076D01*
X117034Y395069D01*
X116940Y395025D01*
X116845Y394989D01*
X116757Y394967D01*
X116677Y394945D01*
X116612Y394938D01*
X116561Y394931D01*
X116509D01*
X116408Y394938D01*
X116320Y394953D01*
X116240Y394974D01*
X116174Y395004D01*
X116116Y395025D01*
X116079Y395047D01*
X116050Y395062D01*
X116043Y395069D01*
X115977Y395128D01*
X115926Y395186D01*
X115883Y395251D01*
X115846Y395310D01*
X115824Y395368D01*
X115810Y395412D01*
X115795Y395441D01*
Y395448D01*
X115780Y395529D01*
X115773Y395623D01*
X115766Y395733D01*
Y395842D01*
X115759Y395944D01*
Y396024D01*
Y396061D01*
Y396082D01*
Y396097D01*
Y396104D01*
Y398138D01*
X115139D01*
Y395733D01*
X115146Y395609D01*
X115154Y395514D01*
X115161Y395426D01*
Y395368D01*
X115168Y395324D01*
X115175Y395295D01*
Y395288D01*
X115197Y395193D01*
X115226Y395106D01*
X115256Y395025D01*
X115292Y394960D01*
X115321Y394901D01*
X115343Y394865D01*
X115358Y394836D01*
X115365Y394829D01*
X115423Y394763D01*
X115489Y394705D01*
X115554Y394654D01*
X115627Y394610D01*
X115686Y394573D01*
X115737Y394544D01*
X115766Y394530D01*
X115780Y394522D01*
X115890Y394479D01*
X115992Y394449D01*
X116094Y394428D01*
X116189Y394413D01*
X116269Y394406D01*
X116335Y394398D01*
X115139D01*
X118106D01*
Y398138D01*
D02*
G37*
G36*
X137330Y399523D02*
X136710D01*
Y394479D01*
X137330D01*
Y399523D01*
D02*
G37*
G36*
X126584Y398218D02*
X124747D01*
X126504D01*
X126329Y398211D01*
X126176Y398197D01*
X126030Y398175D01*
X125914Y398153D01*
X125812Y398131D01*
X125739Y398109D01*
X125709Y398102D01*
X125688Y398095D01*
X125680Y398087D01*
X125673D01*
X125549Y398036D01*
X125440Y397971D01*
X125345Y397912D01*
X125265Y397854D01*
X125206Y397796D01*
X125163Y397752D01*
X125134Y397723D01*
X125126Y397715D01*
X125061Y397621D01*
X125002Y397519D01*
X124959Y397417D01*
X124922Y397322D01*
X124893Y397227D01*
X124871Y397161D01*
X124864Y397132D01*
Y397110D01*
X124857Y397103D01*
Y397096D01*
X125462Y397016D01*
X125505Y397147D01*
X125549Y397264D01*
X125600Y397358D01*
X125644Y397431D01*
X125688Y397490D01*
X125724Y397526D01*
X125753Y397548D01*
X125760Y397555D01*
X125848Y397606D01*
X125950Y397643D01*
X126059Y397672D01*
X126162Y397686D01*
X126264Y397701D01*
X126336Y397708D01*
X126409D01*
X126577Y397701D01*
X126723Y397679D01*
X126839Y397643D01*
X126942Y397606D01*
X127014Y397562D01*
X127073Y397533D01*
X127109Y397504D01*
X127117Y397497D01*
X127175Y397431D01*
X127218Y397351D01*
X127255Y397264D01*
X127277Y397176D01*
X127291Y397096D01*
X127299Y397023D01*
Y396979D01*
Y396972D01*
Y396965D01*
Y396950D01*
Y396921D01*
Y396870D01*
X127291Y396826D01*
Y396812D01*
Y396804D01*
X127218Y396782D01*
X127138Y396761D01*
X126971Y396717D01*
X126781Y396680D01*
X126606Y396644D01*
X126519Y396629D01*
X126438Y396622D01*
X126366Y396607D01*
X126307Y396600D01*
X126256Y396593D01*
X126220D01*
X126191Y396585D01*
X126183D01*
X126052Y396571D01*
X125943Y396549D01*
X125848Y396534D01*
X125775Y396520D01*
X125717Y396513D01*
X125673Y396498D01*
X125644Y396491D01*
X125637D01*
X125542Y396462D01*
X125462Y396432D01*
X125382Y396396D01*
X125316Y396367D01*
X125258Y396338D01*
X125221Y396308D01*
X125192Y396294D01*
X125185Y396287D01*
X125112Y396236D01*
X125053Y396177D01*
X124995Y396119D01*
X124951Y396061D01*
X124915Y396010D01*
X124886Y395966D01*
X124871Y395937D01*
X124864Y395929D01*
X124827Y395849D01*
X124798Y395762D01*
X124776Y395682D01*
X124762Y395601D01*
X124755Y395536D01*
X124747Y395485D01*
Y395441D01*
X124755Y395354D01*
X124762Y395281D01*
X124798Y395128D01*
X124849Y395004D01*
X124908Y394894D01*
X124966Y394807D01*
X125017Y394741D01*
X125053Y394705D01*
X125068Y394690D01*
X125199Y394595D01*
X125345Y394522D01*
X125505Y394471D01*
X125651Y394435D01*
X125782Y394413D01*
X125841Y394406D01*
X125892D01*
X125935Y394398D01*
X124747D01*
X125994D01*
X126125Y394406D01*
X126256Y394420D01*
X126373Y394435D01*
X126475Y394457D01*
X126555Y394479D01*
X126621Y394501D01*
X126664Y394508D01*
X126679Y394515D01*
X126803Y394566D01*
X126920Y394632D01*
X127029Y394705D01*
X127138Y394770D01*
X127226Y394836D01*
X127291Y394887D01*
X127335Y394923D01*
X127342Y394938D01*
X127350D01*
X127364Y394843D01*
X127379Y394756D01*
X127393Y394675D01*
X127415Y394610D01*
X127437Y394552D01*
X127452Y394515D01*
X127459Y394486D01*
X127466Y394479D01*
X128115D01*
X128079Y394559D01*
X128042Y394639D01*
X128013Y394712D01*
X127999Y394778D01*
X127977Y394836D01*
X127969Y394880D01*
X127962Y394909D01*
Y394916D01*
X127955Y394967D01*
X127947Y395033D01*
Y395106D01*
X127940Y395186D01*
X127933Y395368D01*
Y395550D01*
X127926Y395725D01*
Y395806D01*
Y395871D01*
Y395929D01*
Y395973D01*
Y396002D01*
Y396010D01*
Y396841D01*
Y396979D01*
X127918Y397103D01*
X127911Y397198D01*
Y397278D01*
X127904Y397336D01*
X127896Y397380D01*
X127889Y397402D01*
Y397409D01*
X127867Y397504D01*
X127838Y397584D01*
X127809Y397650D01*
X127773Y397715D01*
X127743Y397759D01*
X127722Y397796D01*
X127707Y397817D01*
X127700Y397825D01*
X127641Y397883D01*
X127576Y397941D01*
X127503Y397985D01*
X127430Y398029D01*
X127364Y398058D01*
X127313Y398080D01*
X127277Y398095D01*
X127262Y398102D01*
X127146Y398138D01*
X127022Y398167D01*
X126898Y398189D01*
X126774Y398204D01*
X126664Y398211D01*
X126584Y398218D01*
D02*
G37*
G36*
X107025Y395186D02*
X106318D01*
Y394479D01*
X107025D01*
Y395186D01*
D02*
G37*
G36*
X98008Y398138D02*
X97300D01*
Y397431D01*
X98008D01*
Y395186D01*
X97300D01*
Y394479D01*
X98008D01*
Y398138D01*
D02*
G37*
G36*
X96761Y398218D02*
X94778D01*
X96127D01*
X96047Y398211D01*
X95974Y398197D01*
X95901Y398175D01*
X95842Y398153D01*
X95799Y398131D01*
X95755Y398109D01*
X95733Y398095D01*
X95726Y398087D01*
X95660Y398029D01*
X95595Y397956D01*
X95529Y397869D01*
X95471Y397788D01*
X95412Y397708D01*
X95376Y397643D01*
X95347Y397591D01*
X95339Y397584D01*
Y398138D01*
X94778D01*
Y394479D01*
X95478D01*
X95398D01*
Y396389D01*
X95405Y396534D01*
X95412Y396666D01*
X95427Y396790D01*
X95449Y396899D01*
X95471Y396987D01*
X95485Y397052D01*
X95493Y397096D01*
X95500Y397110D01*
X95529Y397191D01*
X95565Y397256D01*
X95602Y397315D01*
X95638Y397365D01*
X95675Y397402D01*
X95697Y397431D01*
X95718Y397446D01*
X95726Y397453D01*
X95784Y397497D01*
X95850Y397526D01*
X95915Y397548D01*
X95966Y397562D01*
X96017Y397570D01*
X96054Y397577D01*
X96090D01*
X96170Y397570D01*
X96251Y397555D01*
X96331Y397533D01*
X96396Y397511D01*
X96455Y397490D01*
X96499Y397468D01*
X96528Y397453D01*
X96535Y397446D01*
X96761Y398014D01*
X96637Y398080D01*
X96520Y398131D01*
X96418Y398167D01*
X96324Y398197D01*
X96243Y398211D01*
X96178Y398218D01*
X96761D01*
Y394479D01*
D01*
Y398218D01*
D02*
G37*
G36*
X82072Y399523D02*
X81452D01*
Y398816D01*
X82072D01*
Y398138D01*
X81452D01*
Y394479D01*
X82072D01*
Y399523D01*
D02*
G37*
G36*
X128115Y398218D02*
D01*
Y394398D01*
D01*
D01*
Y398218D01*
D02*
G37*
G36*
X139787Y399611D02*
X137826D01*
X139291D01*
X137826Y394391D01*
D01*
X138577D01*
X138321D01*
X139787Y399611D01*
Y394391D01*
D01*
Y399611D01*
D02*
G37*
G36*
X114115Y390975D02*
Y386506D01*
X111629D01*
X111716Y386630D01*
X111760Y386681D01*
X111796Y386732D01*
X111833Y386776D01*
X111862Y386805D01*
X111884Y386827D01*
X111891Y386834D01*
X111928Y386871D01*
X111971Y386907D01*
X112074Y387002D01*
X112190Y387111D01*
X112314Y387221D01*
X112431Y387316D01*
X112482Y387359D01*
X112525Y387403D01*
X112562Y387432D01*
X112591Y387454D01*
X112606Y387469D01*
X112613Y387476D01*
X112730Y387578D01*
X112846Y387673D01*
X112948Y387768D01*
X113043Y387848D01*
X113131Y387928D01*
X113204Y388001D01*
X113276Y388066D01*
X113335Y388125D01*
X113393Y388183D01*
X113437Y388227D01*
X113473Y388263D01*
X113510Y388300D01*
X113546Y388343D01*
X113561Y388358D01*
X113663Y388482D01*
X113750Y388591D01*
X113823Y388701D01*
X113882Y388788D01*
X113925Y388868D01*
X113954Y388927D01*
X113969Y388963D01*
X113976Y388978D01*
X114020Y389087D01*
X114049Y389196D01*
X114078Y389298D01*
X114093Y389386D01*
X114100Y389466D01*
X114108Y389524D01*
Y389561D01*
Y389575D01*
X114100Y389685D01*
X114086Y389787D01*
X114071Y389889D01*
X114042Y389976D01*
X113969Y390151D01*
X113896Y390290D01*
X113852Y390355D01*
X113816Y390406D01*
X113779Y390458D01*
X113743Y390494D01*
X113714Y390523D01*
X113699Y390552D01*
X113685Y390560D01*
X113677Y390567D01*
X113597Y390640D01*
X113510Y390705D01*
X113415Y390756D01*
X113320Y390800D01*
X113131Y390873D01*
X112941Y390924D01*
X112861Y390939D01*
X112781Y390953D01*
X112708Y390961D01*
X112650Y390968D01*
X112598Y390975D01*
X114115D01*
X110769D01*
X112525D01*
X112394Y390968D01*
X112270Y390961D01*
X112154Y390939D01*
X112044Y390917D01*
X111942Y390888D01*
X111848Y390858D01*
X111760Y390822D01*
X111680Y390786D01*
X111607Y390749D01*
X111549Y390713D01*
X111498Y390683D01*
X111454Y390654D01*
X111417Y390632D01*
X111396Y390611D01*
X111381Y390603D01*
X111374Y390596D01*
X111301Y390523D01*
X111235Y390443D01*
X111170Y390355D01*
X111119Y390268D01*
X111031Y390093D01*
X110973Y389918D01*
X110951Y389838D01*
X110929Y389758D01*
X110915Y389692D01*
X110900Y389634D01*
X110893Y389583D01*
Y389546D01*
X110885Y389524D01*
Y389517D01*
X111520Y389451D01*
X111534Y389619D01*
X111563Y389765D01*
X111607Y389896D01*
X111658Y389998D01*
X111702Y390086D01*
X111746Y390144D01*
X111775Y390180D01*
X111789Y390195D01*
X111899Y390283D01*
X112015Y390348D01*
X112139Y390399D01*
X112249Y390428D01*
X112351Y390450D01*
X112438Y390458D01*
X112467Y390465D01*
X112511D01*
X112664Y390458D01*
X112803Y390428D01*
X112919Y390385D01*
X113021Y390341D01*
X113101Y390290D01*
X113153Y390253D01*
X113189Y390224D01*
X113204Y390210D01*
X113291Y390107D01*
X113357Y390005D01*
X113408Y389903D01*
X113437Y389801D01*
X113459Y389721D01*
X113466Y389648D01*
X113473Y389604D01*
Y389597D01*
Y389590D01*
X113459Y389459D01*
X113429Y389320D01*
X113379Y389196D01*
X113327Y389080D01*
X113269Y388985D01*
X113218Y388905D01*
X113204Y388876D01*
X113189Y388854D01*
X113174Y388846D01*
Y388839D01*
X113116Y388759D01*
X113043Y388679D01*
X112963Y388591D01*
X112875Y388504D01*
X112693Y388329D01*
X112511Y388154D01*
X112416Y388074D01*
X112336Y388001D01*
X112256Y387935D01*
X112190Y387877D01*
X112139Y387833D01*
X112095Y387797D01*
X112066Y387775D01*
X112059Y387768D01*
X111877Y387614D01*
X111709Y387469D01*
X111571Y387337D01*
X111461Y387228D01*
X111366Y387133D01*
X111301Y387068D01*
X111264Y387024D01*
X111250Y387017D01*
Y387009D01*
X111148Y386885D01*
X111067Y386769D01*
X110995Y386652D01*
X110936Y386550D01*
X110893Y386462D01*
X110863Y386397D01*
X110849Y386353D01*
X110842Y386346D01*
Y386339D01*
X110812Y386258D01*
X110798Y386186D01*
X110783Y386113D01*
X110776Y386047D01*
X110769Y385989D01*
Y386018D01*
Y385909D01*
X114115D01*
Y390975D01*
D02*
G37*
G36*
X117884Y390888D02*
X115376D01*
X114887Y388292D01*
X115471Y388212D01*
X115522Y388292D01*
X115587Y388358D01*
X115646Y388423D01*
X115704Y388475D01*
X115762Y388511D01*
X115806Y388547D01*
X115835Y388562D01*
X115842Y388569D01*
X115937Y388613D01*
X116032Y388650D01*
X116120Y388671D01*
X116207Y388693D01*
X116280Y388701D01*
X116338Y388708D01*
X116477D01*
X116564Y388693D01*
X116717Y388657D01*
X116849Y388606D01*
X116965Y388555D01*
X117053Y388496D01*
X117118Y388445D01*
X117155Y388409D01*
X117169Y388402D01*
Y388394D01*
X117271Y388270D01*
X117344Y388139D01*
X117395Y388001D01*
X117432Y387862D01*
X117454Y387746D01*
X117461Y387695D01*
Y387651D01*
X117468Y387614D01*
Y387585D01*
Y387571D01*
Y387563D01*
Y387461D01*
X117454Y387367D01*
X117417Y387184D01*
X117366Y387031D01*
X117315Y386907D01*
X117257Y386805D01*
X117206Y386725D01*
X117184Y386703D01*
X117169Y386681D01*
X117162Y386674D01*
X117155Y386667D01*
X117096Y386608D01*
X117038Y386557D01*
X116907Y386470D01*
X116783Y386411D01*
X116659Y386375D01*
X116557Y386346D01*
X116469Y386339D01*
X116440Y386331D01*
X116396D01*
X116258Y386339D01*
X116134Y386368D01*
X116025Y386404D01*
X115937Y386448D01*
X115857Y386492D01*
X115799Y386528D01*
X115770Y386557D01*
X115755Y386565D01*
X115667Y386667D01*
X115595Y386776D01*
X115536Y386900D01*
X115493Y387009D01*
X115463Y387119D01*
X115442Y387199D01*
X115434Y387235D01*
X115427Y387257D01*
Y387272D01*
Y387279D01*
X114778Y387228D01*
X114793Y387111D01*
X114815Y387002D01*
X114880Y386798D01*
X114960Y386623D01*
X115004Y386543D01*
X115048Y386477D01*
X115084Y386411D01*
X115128Y386353D01*
X115164Y386310D01*
X115201Y386273D01*
X115230Y386244D01*
X115245Y386215D01*
X115259Y386207D01*
X115267Y386200D01*
X115354Y386135D01*
X115442Y386076D01*
X115536Y386025D01*
X115631Y385981D01*
X115813Y385916D01*
X115996Y385872D01*
X116076Y385850D01*
X116156Y385843D01*
X116222Y385836D01*
X116280Y385828D01*
X116331Y385821D01*
X114778D01*
Y390888D01*
D01*
Y385821D01*
X118124D01*
D01*
X116396D01*
X116550Y385828D01*
X116695Y385850D01*
X116834Y385879D01*
X116958Y385916D01*
X117075Y385967D01*
X117184Y386018D01*
X117286Y386069D01*
X117373Y386127D01*
X117454Y386186D01*
X117526Y386237D01*
X117585Y386295D01*
X117636Y386339D01*
X117672Y386375D01*
X117701Y386404D01*
X117716Y386426D01*
X117723Y386433D01*
X117796Y386528D01*
X117854Y386630D01*
X117913Y386725D01*
X117957Y386827D01*
X118029Y387024D01*
X118073Y387213D01*
X118088Y387294D01*
X118102Y387374D01*
X118110Y387439D01*
X118117Y387498D01*
X118124Y387549D01*
Y387614D01*
X118117Y387746D01*
X118102Y387870D01*
X118080Y387993D01*
X118051Y388103D01*
X118015Y388205D01*
X117979Y388307D01*
X117935Y388394D01*
X117898Y388475D01*
X117854Y388547D01*
X117811Y388613D01*
X117774Y388664D01*
X117738Y388715D01*
X117709Y388752D01*
X117687Y388773D01*
X117672Y388788D01*
X117665Y388795D01*
X117578Y388876D01*
X117490Y388948D01*
X117395Y389007D01*
X117300Y389058D01*
X117206Y389109D01*
X117111Y389145D01*
X116936Y389196D01*
X116856Y389218D01*
X116783Y389233D01*
X116717Y389240D01*
X116659Y389247D01*
X116615Y389255D01*
X116455D01*
X116367Y389240D01*
X116192Y389204D01*
X116032Y389153D01*
X115886Y389094D01*
X115770Y389036D01*
X115719Y389007D01*
X115675Y388985D01*
X115638Y388963D01*
X115617Y388948D01*
X115602Y388941D01*
X115595Y388934D01*
X115864Y390297D01*
X117884D01*
Y390888D01*
D02*
G37*
G36*
X110564Y391041D02*
X110069D01*
X108604Y385821D01*
X110564D01*
X109099D01*
X110564Y391041D01*
D01*
D02*
G37*
G36*
X108604D02*
D01*
Y385821D01*
D01*
Y391041D01*
D01*
D02*
G37*
G36*
X108290Y390975D02*
X104966D01*
Y385821D01*
D01*
Y387359D01*
X104973Y387243D01*
X104988Y387126D01*
X105009Y387017D01*
X105039Y386907D01*
X105112Y386725D01*
X105148Y386637D01*
X105192Y386565D01*
X105236Y386492D01*
X105272Y386433D01*
X105316Y386382D01*
X105345Y386339D01*
X105374Y386302D01*
X105396Y386280D01*
X105411Y386266D01*
X105418Y386258D01*
X105505Y386178D01*
X105600Y386113D01*
X105702Y386054D01*
X105804Y386003D01*
X105899Y385967D01*
X106001Y385930D01*
X106198Y385879D01*
X106285Y385858D01*
X106366Y385843D01*
X106438Y385836D01*
X106504Y385828D01*
X106555Y385821D01*
X104966D01*
X106628D01*
X106766Y385828D01*
X106890Y385843D01*
X107014Y385865D01*
X107131Y385887D01*
X107233Y385923D01*
X107335Y385960D01*
X107430Y385996D01*
X107510Y386040D01*
X107583Y386084D01*
X107649Y386120D01*
X107700Y386156D01*
X107751Y386193D01*
X107787Y386215D01*
X107809Y386237D01*
X107824Y386251D01*
X107831Y386258D01*
X107911Y386346D01*
X107984Y386433D01*
X108042Y386521D01*
X108093Y386616D01*
X108144Y386703D01*
X108181Y386798D01*
X108232Y386965D01*
X108254Y387046D01*
X108268Y387119D01*
X108275Y387184D01*
X108283Y387235D01*
X108290Y387279D01*
Y387359D01*
Y387345D01*
X108283Y387512D01*
X108254Y387665D01*
X108210Y387804D01*
X108166Y387920D01*
X108122Y388015D01*
X108079Y388088D01*
X108049Y388132D01*
X108042Y388139D01*
Y388146D01*
X107940Y388263D01*
X107831Y388365D01*
X107714Y388445D01*
X107605Y388518D01*
X107503Y388569D01*
X107415Y388606D01*
X107386Y388620D01*
X107364Y388628D01*
X107350Y388635D01*
X107342D01*
X107474Y388693D01*
X107583Y388759D01*
X107678Y388825D01*
X107758Y388890D01*
X107816Y388948D01*
X107860Y388992D01*
X107889Y389021D01*
X107896Y389036D01*
X107962Y389138D01*
X108006Y389240D01*
X108042Y389342D01*
X108064Y389444D01*
X108079Y389524D01*
X108086Y389590D01*
Y389634D01*
Y389641D01*
Y389648D01*
X108079Y389750D01*
X108071Y389845D01*
X108020Y390027D01*
X107955Y390188D01*
X107882Y390326D01*
X107809Y390436D01*
X107773Y390479D01*
X107743Y390523D01*
X107714Y390552D01*
X107692Y390574D01*
X107685Y390581D01*
X107678Y390589D01*
X107597Y390654D01*
X107517Y390720D01*
X107430Y390771D01*
X107342Y390815D01*
X107167Y390880D01*
X106992Y390924D01*
X106920Y390946D01*
X106847Y390953D01*
X106781Y390961D01*
X106723Y390968D01*
X106679Y390975D01*
X108290D01*
D02*
G37*
G36*
X102764D02*
X102699D01*
X102502Y390961D01*
X102320Y390931D01*
X102166Y390880D01*
X102035Y390829D01*
X101926Y390771D01*
X101882Y390749D01*
X101846Y390720D01*
X101816Y390705D01*
X101795Y390691D01*
X101787Y390676D01*
X101780D01*
X101649Y390560D01*
X101540Y390421D01*
X101445Y390283D01*
X101372Y390151D01*
X101313Y390027D01*
X101284Y389976D01*
X101270Y389925D01*
X101255Y389889D01*
X101241Y389860D01*
X101233Y389845D01*
Y389838D01*
X101204Y389728D01*
X101175Y389619D01*
X101131Y389378D01*
X101095Y389138D01*
X101073Y388912D01*
X101066Y388803D01*
X101058Y388708D01*
Y388620D01*
X101051Y388540D01*
Y388394D01*
X101058Y388139D01*
X101073Y387899D01*
X101095Y387680D01*
X101131Y387476D01*
X101168Y387286D01*
X101212Y387119D01*
X101255Y386965D01*
X101299Y386834D01*
X101343Y386718D01*
X101394Y386616D01*
X101430Y386528D01*
X101467Y386462D01*
X101503Y386404D01*
X101525Y386368D01*
X101540Y386346D01*
X101547Y386339D01*
X101627Y386251D01*
X101715Y386171D01*
X101809Y386098D01*
X101904Y386040D01*
X101999Y385989D01*
X102094Y385945D01*
X102188Y385916D01*
X102276Y385887D01*
X102363Y385865D01*
X102444Y385850D01*
X102516Y385836D01*
X102575Y385828D01*
X102626Y385821D01*
X101051D01*
Y388074D01*
Y385821D01*
X104346D01*
D01*
X102699D01*
X102895Y385836D01*
X103078Y385865D01*
X103231Y385916D01*
X103362Y385967D01*
X103471Y386018D01*
X103508Y386047D01*
X103544Y386069D01*
X103573Y386084D01*
X103595Y386098D01*
X103603Y386113D01*
X103610D01*
X103741Y386237D01*
X103850Y386368D01*
X103945Y386514D01*
X104018Y386645D01*
X104076Y386769D01*
X104106Y386820D01*
X104120Y386871D01*
X104135Y386907D01*
X104149Y386936D01*
X104157Y386951D01*
Y386958D01*
X104193Y387068D01*
X104222Y387177D01*
X104266Y387410D01*
X104302Y387651D01*
X104324Y387884D01*
X104332Y387986D01*
X104339Y388081D01*
Y388168D01*
X104346Y388249D01*
Y388533D01*
X104339Y388664D01*
Y388781D01*
X104332Y388897D01*
X104317Y389000D01*
X104310Y389102D01*
X104302Y389189D01*
X104288Y389269D01*
X104280Y389342D01*
X104266Y389408D01*
X104259Y389459D01*
X104251Y389503D01*
X104244Y389539D01*
X104237Y389561D01*
X104229Y389575D01*
Y389583D01*
X104186Y389743D01*
X104135Y389889D01*
X104076Y390013D01*
X104033Y390122D01*
X103982Y390217D01*
X103953Y390283D01*
X103923Y390319D01*
X103916Y390334D01*
X103836Y390443D01*
X103756Y390538D01*
X103668Y390618D01*
X103588Y390691D01*
X103515Y390742D01*
X103457Y390778D01*
X103420Y390800D01*
X103413Y390807D01*
X103406D01*
X103289Y390866D01*
X103165Y390902D01*
X103049Y390931D01*
X102939Y390953D01*
X102844Y390968D01*
X102764Y390975D01*
D02*
G37*
%LPD*%
G36*
X130419Y397694D02*
X130557Y397657D01*
X130681Y397599D01*
X130783Y397540D01*
X130871Y397475D01*
X130936Y397417D01*
X130973Y397380D01*
X130988Y397373D01*
Y397365D01*
X131038Y397300D01*
X131089Y397227D01*
X131162Y397059D01*
X131213Y396892D01*
X131250Y396724D01*
X131272Y396578D01*
X131279Y396513D01*
Y396454D01*
X131286Y396411D01*
Y396374D01*
Y396352D01*
Y396345D01*
Y396221D01*
X131272Y396097D01*
X131257Y395988D01*
X131243Y395893D01*
X131221Y395798D01*
X131192Y395711D01*
X131170Y395638D01*
X131141Y395572D01*
X131111Y395507D01*
X131089Y395456D01*
X131060Y395412D01*
X131038Y395383D01*
X131024Y395354D01*
X131009Y395332D01*
X130995Y395324D01*
Y395317D01*
X130936Y395259D01*
X130878Y395208D01*
X130762Y395128D01*
X130638Y395069D01*
X130528Y395033D01*
X130426Y395004D01*
X130346Y394996D01*
X130317Y394989D01*
X130273D01*
X130193Y394996D01*
X130120Y395004D01*
X129981Y395040D01*
X129858Y395091D01*
X129755Y395157D01*
X129668Y395215D01*
X129610Y395266D01*
X129573Y395303D01*
X129559Y395317D01*
X129508Y395383D01*
X129464Y395456D01*
X129391Y395623D01*
X129347Y395791D01*
X129311Y395966D01*
X129289Y396119D01*
X129282Y396192D01*
Y396250D01*
X129274Y396301D01*
Y396338D01*
Y396359D01*
Y396367D01*
Y396491D01*
X129289Y396600D01*
X129304Y396702D01*
X129318Y396804D01*
X129340Y396892D01*
X129362Y396972D01*
X129391Y397052D01*
X129420Y397118D01*
X129442Y397176D01*
X129471Y397227D01*
X129493Y397271D01*
X129515Y397300D01*
X129530Y397329D01*
X129544Y397351D01*
X129559Y397358D01*
Y397365D01*
X129617Y397424D01*
X129675Y397482D01*
X129792Y397562D01*
X129909Y397628D01*
X130025Y397664D01*
X130120Y397694D01*
X130200Y397701D01*
X130229Y397708D01*
X130346D01*
X130419Y397694D01*
D02*
G37*
G36*
X131862Y392999D02*
X130207D01*
X130404Y393006D01*
X130587Y393035D01*
X130747Y393064D01*
X130878Y393108D01*
X130988Y393145D01*
X131031Y393159D01*
X131068Y393181D01*
X131097Y393188D01*
X131119Y393203D01*
X131126Y393210D01*
X131133D01*
X131264Y393290D01*
X131381Y393385D01*
X131476Y393480D01*
X131556Y393567D01*
X131614Y393648D01*
X131651Y393713D01*
X131680Y393757D01*
X131687Y393764D01*
Y393772D01*
X131717Y393845D01*
X131746Y393925D01*
X131767Y394012D01*
X131789Y394107D01*
X131818Y394311D01*
X131840Y394508D01*
X131848Y394603D01*
X131855Y394690D01*
Y394770D01*
X131862Y394836D01*
Y392999D01*
D02*
G37*
G36*
X84557Y397694D02*
X84696Y397657D01*
X84820Y397599D01*
X84922Y397540D01*
X85009Y397475D01*
X85075Y397417D01*
X85111Y397380D01*
X85126Y397373D01*
Y397365D01*
X85177Y397300D01*
X85228Y397227D01*
X85301Y397059D01*
X85352Y396892D01*
X85388Y396724D01*
X85410Y396578D01*
X85418Y396513D01*
Y396454D01*
X85425Y396411D01*
Y396374D01*
Y396352D01*
Y396345D01*
Y396221D01*
X85410Y396097D01*
X85396Y395988D01*
X85381Y395893D01*
X85359Y395798D01*
X85330Y395711D01*
X85308Y395638D01*
X85279Y395572D01*
X85250Y395507D01*
X85228Y395456D01*
X85199Y395412D01*
X85177Y395383D01*
X85163Y395354D01*
X85148Y395332D01*
X85133Y395324D01*
Y395317D01*
X85075Y395259D01*
X85017Y395208D01*
X84900Y395128D01*
X84776Y395069D01*
X84667Y395033D01*
X84565Y395004D01*
X84485Y394996D01*
X84455Y394989D01*
X84412D01*
X84332Y394996D01*
X84259Y395004D01*
X84120Y395040D01*
X83996Y395091D01*
X83894Y395157D01*
X83807Y395215D01*
X83748Y395266D01*
X83712Y395303D01*
X83697Y395317D01*
X83646Y395383D01*
X83602Y395456D01*
X83530Y395623D01*
X83486Y395791D01*
X83449Y395966D01*
X83428Y396119D01*
X83420Y396192D01*
Y396250D01*
X83413Y396301D01*
Y396338D01*
Y396359D01*
Y396367D01*
Y396491D01*
X83428Y396600D01*
X83442Y396702D01*
X83457Y396804D01*
X83478Y396892D01*
X83500Y396972D01*
X83530Y397052D01*
X83559Y397118D01*
X83581Y397176D01*
X83610Y397227D01*
X83632Y397271D01*
X83653Y397300D01*
X83668Y397329D01*
X83683Y397351D01*
X83697Y397358D01*
Y397365D01*
X83756Y397424D01*
X83814Y397482D01*
X83930Y397562D01*
X84047Y397628D01*
X84164Y397664D01*
X84259Y397694D01*
X84339Y397701D01*
X84368Y397708D01*
X84485D01*
X84557Y397694D01*
D02*
G37*
G36*
X86001Y392999D02*
X84346D01*
X84543Y393006D01*
X84725Y393035D01*
X84886Y393064D01*
X85017Y393108D01*
X85126Y393145D01*
X85170Y393159D01*
X85206Y393181D01*
X85235Y393188D01*
X85257Y393203D01*
X85265Y393210D01*
X85272D01*
X85403Y393290D01*
X85520Y393385D01*
X85615Y393480D01*
X85695Y393567D01*
X85753Y393648D01*
X85790Y393713D01*
X85819Y393757D01*
X85826Y393764D01*
Y393772D01*
X85855Y393845D01*
X85884Y393925D01*
X85906Y394012D01*
X85928Y394107D01*
X85957Y394311D01*
X85979Y394508D01*
X85986Y394603D01*
X85994Y394690D01*
Y394770D01*
X86001Y394836D01*
Y392999D01*
D02*
G37*
G36*
X80716Y394398D02*
X79236D01*
X79396Y394406D01*
X79535Y394420D01*
X79666Y394442D01*
X79782Y394471D01*
X79877Y394501D01*
X79950Y394522D01*
X79994Y394537D01*
X80001Y394544D01*
X80009D01*
X80132Y394610D01*
X80234Y394675D01*
X80322Y394748D01*
X80402Y394814D01*
X80461Y394872D01*
X80497Y394923D01*
X80526Y394953D01*
X80533Y394967D01*
X80592Y395069D01*
X80635Y395179D01*
X80672Y395273D01*
X80694Y395361D01*
X80708Y395441D01*
X80716Y395499D01*
Y394398D01*
D02*
G37*
G36*
X103067Y398918D02*
X103162D01*
X103249Y398911D01*
X103395Y398889D01*
X103512Y398875D01*
X103606Y398853D01*
X103672Y398831D01*
X103708Y398823D01*
X103723Y398816D01*
X103854Y398751D01*
X103978Y398671D01*
X104087Y398576D01*
X104182Y398481D01*
X104255Y398393D01*
X104313Y398321D01*
X104328Y398291D01*
X104342Y398270D01*
X104357Y398255D01*
Y398248D01*
X104401Y398167D01*
X104445Y398073D01*
X104510Y397883D01*
X104554Y397679D01*
X104590Y397482D01*
X104598Y397395D01*
X104605Y397307D01*
X104612Y397234D01*
Y397169D01*
X104620Y397110D01*
Y397074D01*
Y397045D01*
Y397038D01*
X104612Y396833D01*
X104598Y396644D01*
X104576Y396476D01*
X104554Y396330D01*
X104539Y396272D01*
X104525Y396221D01*
X104510Y396170D01*
X104503Y396133D01*
X104496Y396104D01*
X104488Y396082D01*
X104481Y396068D01*
Y396061D01*
X104430Y395922D01*
X104372Y395798D01*
X104306Y395689D01*
X104248Y395594D01*
X104197Y395521D01*
X104153Y395470D01*
X104124Y395441D01*
X104116Y395426D01*
X104044Y395368D01*
X103971Y395317D01*
X103898Y395273D01*
X103825Y395230D01*
X103759Y395200D01*
X103708Y395179D01*
X103672Y395171D01*
X103657Y395164D01*
X103548Y395135D01*
X103417Y395113D01*
X103286Y395098D01*
X103162Y395091D01*
X103052Y395084D01*
X103001Y395076D01*
X101806D01*
Y398926D01*
X102972D01*
X103067Y398918D01*
D02*
G37*
G36*
X105305Y394479D02*
X102950D01*
X103118Y394486D01*
X103271Y394493D01*
X103409Y394508D01*
X103526Y394522D01*
X103628Y394537D01*
X103701Y394544D01*
X103723Y394552D01*
X103745Y394559D01*
X103759D01*
X103891Y394595D01*
X104007Y394639D01*
X104109Y394675D01*
X104197Y394719D01*
X104270Y394756D01*
X104321Y394785D01*
X104350Y394807D01*
X104364Y394814D01*
X104459Y394880D01*
X104539Y394960D01*
X104620Y395033D01*
X104685Y395106D01*
X104744Y395171D01*
X104787Y395222D01*
X104816Y395259D01*
X104824Y395273D01*
X104897Y395390D01*
X104970Y395514D01*
X105028Y395631D01*
X105071Y395747D01*
X105115Y395849D01*
X105144Y395929D01*
X105152Y395959D01*
X105159Y395981D01*
X105166Y395995D01*
Y396002D01*
X105210Y396177D01*
X105246Y396352D01*
X105268Y396520D01*
X105290Y396680D01*
X105298Y396819D01*
Y396877D01*
X105305Y396928D01*
Y394479D01*
D02*
G37*
G36*
X70925Y398918D02*
X71020D01*
X71107Y398911D01*
X71253Y398889D01*
X71370Y398875D01*
X71465Y398853D01*
X71530Y398831D01*
X71567Y398823D01*
X71581Y398816D01*
X71712Y398751D01*
X71836Y398670D01*
X71946Y398576D01*
X72040Y398481D01*
X72113Y398393D01*
X72172Y398321D01*
X72186Y398291D01*
X72201Y398270D01*
X72215Y398255D01*
Y398248D01*
X72259Y398167D01*
X72303Y398073D01*
X72369Y397883D01*
X72412Y397679D01*
X72449Y397482D01*
X72456Y397395D01*
X72463Y397307D01*
X72471Y397234D01*
Y397169D01*
X72478Y397110D01*
Y397074D01*
Y397045D01*
Y397038D01*
X72471Y396833D01*
X72456Y396644D01*
X72434Y396476D01*
X72412Y396330D01*
X72398Y396272D01*
X72383Y396221D01*
X72369Y396170D01*
X72361Y396133D01*
X72354Y396104D01*
X72347Y396082D01*
X72339Y396068D01*
Y396061D01*
X72288Y395922D01*
X72230Y395798D01*
X72164Y395689D01*
X72106Y395594D01*
X72055Y395521D01*
X72011Y395470D01*
X71982Y395441D01*
X71975Y395426D01*
X71902Y395368D01*
X71829Y395317D01*
X71756Y395273D01*
X71683Y395230D01*
X71618Y395200D01*
X71567Y395179D01*
X71530Y395171D01*
X71516Y395164D01*
X71406Y395135D01*
X71275Y395113D01*
X71144Y395098D01*
X71020Y395091D01*
X70911Y395084D01*
X70860Y395076D01*
X69664D01*
Y398926D01*
X70830D01*
X70925Y398918D01*
D02*
G37*
G36*
X134392Y397701D02*
X134472Y397694D01*
X134625Y397650D01*
X134756Y397591D01*
X134866Y397526D01*
X134953Y397460D01*
X135019Y397402D01*
X135055Y397358D01*
X135070Y397351D01*
Y397344D01*
X135135Y397249D01*
X135194Y397140D01*
X135230Y397030D01*
X135267Y396914D01*
X135289Y396819D01*
X135303Y396731D01*
Y396702D01*
X135310Y396680D01*
Y396666D01*
Y396658D01*
X133262D01*
X133284Y396826D01*
X133328Y396979D01*
X133379Y397110D01*
X133437Y397213D01*
X133488Y397300D01*
X133539Y397365D01*
X133568Y397402D01*
X133583Y397417D01*
X133699Y397511D01*
X133816Y397584D01*
X133940Y397635D01*
X134057Y397672D01*
X134151Y397694D01*
X134231Y397701D01*
X134261Y397708D01*
X134304D01*
X134392Y397701D01*
D02*
G37*
G36*
X135967Y394398D02*
X134334D01*
X134560Y394413D01*
X134764Y394449D01*
X134946Y394493D01*
X135019Y394522D01*
X135092Y394552D01*
X135157Y394581D01*
X135216Y394610D01*
X135259Y394632D01*
X135303Y394654D01*
X135332Y394675D01*
X135354Y394690D01*
X135369Y394705D01*
X135376D01*
X135522Y394836D01*
X135638Y394974D01*
X135741Y395120D01*
X135813Y395259D01*
X135872Y395383D01*
X135894Y395441D01*
X135916Y395485D01*
X135930Y395529D01*
X135937Y395558D01*
X135945Y395572D01*
Y395580D01*
X135303Y395660D01*
X135245Y395521D01*
X135179Y395405D01*
X135114Y395303D01*
X135055Y395222D01*
X135004Y395164D01*
X134960Y395120D01*
X134924Y395091D01*
X134917Y395084D01*
X134822Y395025D01*
X134727Y394982D01*
X134625Y394953D01*
X134538Y394931D01*
X134458Y394916D01*
X134392Y394909D01*
X134334D01*
X134246Y394916D01*
X134166Y394923D01*
X134020Y394960D01*
X133889Y395011D01*
X133772Y395069D01*
X133685Y395120D01*
X133619Y395171D01*
X133575Y395208D01*
X133568Y395222D01*
X133561D01*
X133459Y395354D01*
X133379Y395499D01*
X133320Y395660D01*
X133276Y395806D01*
X133255Y395937D01*
X133240Y395995D01*
X133233Y396046D01*
Y396090D01*
X133226Y396119D01*
Y396141D01*
Y396148D01*
X135959D01*
X135967Y396221D01*
Y394398D01*
D02*
G37*
G36*
X92453Y397701D02*
X92533Y397694D01*
X92686Y397650D01*
X92817Y397591D01*
X92926Y397526D01*
X93014Y397460D01*
X93080Y397402D01*
X93116Y397358D01*
X93130Y397351D01*
Y397344D01*
X93196Y397249D01*
X93254Y397140D01*
X93291Y397030D01*
X93327Y396914D01*
X93349Y396819D01*
X93364Y396731D01*
Y396702D01*
X93371Y396680D01*
Y396666D01*
Y396658D01*
X91323D01*
X91344Y396826D01*
X91388Y396979D01*
X91439Y397110D01*
X91497Y397212D01*
X91549Y397300D01*
X91600Y397365D01*
X91629Y397402D01*
X91643Y397417D01*
X91760Y397511D01*
X91877Y397584D01*
X92001Y397635D01*
X92117Y397672D01*
X92212Y397694D01*
X92292Y397701D01*
X92321Y397708D01*
X92365D01*
X92453Y397701D01*
D02*
G37*
G36*
X94027Y394398D02*
X92394D01*
X92620Y394413D01*
X92824Y394449D01*
X93007Y394493D01*
X93080Y394522D01*
X93152Y394552D01*
X93218Y394581D01*
X93276Y394610D01*
X93320Y394632D01*
X93364Y394654D01*
X93393Y394675D01*
X93415Y394690D01*
X93429Y394705D01*
X93437D01*
X93582Y394836D01*
X93699Y394974D01*
X93801Y395120D01*
X93874Y395259D01*
X93932Y395383D01*
X93954Y395441D01*
X93976Y395485D01*
X93991Y395529D01*
X93998Y395558D01*
X94005Y395572D01*
Y395580D01*
X93364Y395660D01*
X93305Y395521D01*
X93240Y395405D01*
X93174Y395303D01*
X93116Y395222D01*
X93065Y395164D01*
X93021Y395120D01*
X92985Y395091D01*
X92977Y395084D01*
X92883Y395025D01*
X92788Y394982D01*
X92686Y394953D01*
X92598Y394931D01*
X92518Y394916D01*
X92453Y394909D01*
X92394D01*
X92307Y394916D01*
X92226Y394923D01*
X92081Y394960D01*
X91949Y395011D01*
X91833Y395069D01*
X91745Y395120D01*
X91680Y395171D01*
X91636Y395208D01*
X91629Y395222D01*
X91622D01*
X91519Y395354D01*
X91439Y395499D01*
X91381Y395660D01*
X91337Y395806D01*
X91315Y395937D01*
X91301Y395995D01*
X91293Y396046D01*
Y396090D01*
X91286Y396119D01*
Y396141D01*
Y396148D01*
X94020D01*
X94027Y396221D01*
Y394398D01*
D02*
G37*
G36*
X75591Y397701D02*
X75671Y397694D01*
X75824Y397650D01*
X75955Y397591D01*
X76065Y397526D01*
X76152Y397460D01*
X76218Y397402D01*
X76254Y397358D01*
X76269Y397351D01*
Y397344D01*
X76334Y397249D01*
X76393Y397140D01*
X76429Y397030D01*
X76466Y396914D01*
X76487Y396819D01*
X76502Y396731D01*
Y396702D01*
X76509Y396680D01*
Y396666D01*
Y396658D01*
X74461D01*
X74483Y396826D01*
X74526Y396979D01*
X74577Y397110D01*
X74636Y397212D01*
X74687Y397300D01*
X74738Y397365D01*
X74767Y397402D01*
X74782Y397417D01*
X74898Y397511D01*
X75015Y397584D01*
X75139Y397635D01*
X75255Y397672D01*
X75350Y397694D01*
X75430Y397701D01*
X75459Y397708D01*
X75503D01*
X75591Y397701D01*
D02*
G37*
G36*
X77165Y394398D02*
X75532D01*
X75758Y394413D01*
X75963Y394449D01*
X76145Y394493D01*
X76218Y394522D01*
X76291Y394552D01*
X76356Y394581D01*
X76415Y394610D01*
X76458Y394632D01*
X76502Y394654D01*
X76531Y394675D01*
X76553Y394690D01*
X76568Y394705D01*
X76575D01*
X76721Y394836D01*
X76837Y394974D01*
X76939Y395120D01*
X77012Y395259D01*
X77071Y395383D01*
X77092Y395441D01*
X77114Y395485D01*
X77129Y395529D01*
X77136Y395558D01*
X77144Y395572D01*
Y395580D01*
X76502Y395660D01*
X76444Y395521D01*
X76378Y395405D01*
X76313Y395303D01*
X76254Y395222D01*
X76203Y395164D01*
X76159Y395120D01*
X76123Y395091D01*
X76116Y395084D01*
X76021Y395025D01*
X75926Y394982D01*
X75824Y394953D01*
X75737Y394931D01*
X75656Y394916D01*
X75591Y394909D01*
X75532D01*
X75445Y394916D01*
X75365Y394923D01*
X75219Y394960D01*
X75088Y395011D01*
X74971Y395069D01*
X74884Y395120D01*
X74818Y395171D01*
X74774Y395208D01*
X74767Y395222D01*
X74760D01*
X74658Y395354D01*
X74577Y395499D01*
X74519Y395660D01*
X74475Y395806D01*
X74454Y395937D01*
X74439Y395995D01*
X74432Y396046D01*
Y396090D01*
X74424Y396119D01*
Y396141D01*
Y396148D01*
X77158D01*
X77165Y396221D01*
Y394398D01*
D02*
G37*
G36*
X142411Y394479D02*
X140953D01*
Y398773D01*
X142411Y394479D01*
D02*
G37*
G36*
X117552D02*
X118106D01*
Y394398D01*
X116386D01*
X116517Y394406D01*
X116648Y394428D01*
X116765Y394457D01*
X116881Y394493D01*
X116983Y394544D01*
X117078Y394595D01*
X117166Y394646D01*
X117246Y394705D01*
X117319Y394763D01*
X117377Y394814D01*
X117428Y394872D01*
X117472Y394916D01*
X117508Y394953D01*
X117530Y394982D01*
X117545Y395004D01*
X117552Y395011D01*
Y394479D01*
D02*
G37*
G36*
X127291Y396082D02*
X127284Y395937D01*
X127277Y395813D01*
X127262Y395711D01*
X127240Y395623D01*
X127218Y395558D01*
X127204Y395507D01*
X127197Y395477D01*
X127189Y395470D01*
X127131Y395375D01*
X127073Y395288D01*
X127000Y395215D01*
X126934Y395157D01*
X126876Y395106D01*
X126825Y395069D01*
X126796Y395047D01*
X126781Y395040D01*
X126672Y394989D01*
X126562Y394953D01*
X126460Y394923D01*
X126358Y394909D01*
X126278Y394894D01*
X126205Y394887D01*
X126147D01*
X126016Y394894D01*
X125906Y394909D01*
X125812Y394938D01*
X125731Y394967D01*
X125673Y394996D01*
X125629Y395025D01*
X125600Y395040D01*
X125593Y395047D01*
X125534Y395113D01*
X125491Y395186D01*
X125454Y395251D01*
X125433Y395317D01*
X125418Y395375D01*
X125411Y395419D01*
Y395456D01*
Y395463D01*
X125418Y395521D01*
X125425Y395580D01*
X125440Y395623D01*
X125454Y395667D01*
X125469Y395703D01*
X125476Y395733D01*
X125491Y395747D01*
Y395755D01*
X125564Y395842D01*
X125651Y395900D01*
X125680Y395922D01*
X125709Y395937D01*
X125731Y395951D01*
X125739D01*
X125812Y395981D01*
X125892Y396002D01*
X125979Y396024D01*
X126067Y396039D01*
X126147Y396053D01*
X126220Y396068D01*
X126264Y396075D01*
X126278D01*
X126402Y396097D01*
X126519Y396112D01*
X126621Y396133D01*
X126723Y396155D01*
X126818Y396177D01*
X126898Y396199D01*
X126978Y396214D01*
X127044Y396236D01*
X127102Y396250D01*
X127153Y396265D01*
X127197Y396279D01*
X127233Y396294D01*
X127262Y396301D01*
X127284Y396308D01*
X127291Y396316D01*
X127299D01*
X127291Y396082D01*
D02*
G37*
G36*
X106752Y390458D02*
X106869Y390428D01*
X106963Y390392D01*
X107051Y390348D01*
X107116Y390304D01*
X107167Y390268D01*
X107204Y390239D01*
X107211Y390231D01*
X107291Y390137D01*
X107350Y390042D01*
X107393Y389947D01*
X107422Y389860D01*
X107437Y389779D01*
X107452Y389714D01*
Y389670D01*
Y389663D01*
Y389656D01*
X107444Y389539D01*
X107415Y389430D01*
X107379Y389335D01*
X107335Y389255D01*
X107291Y389189D01*
X107255Y389145D01*
X107226Y389109D01*
X107218Y389102D01*
X107131Y389029D01*
X107029Y388970D01*
X106934Y388934D01*
X106839Y388905D01*
X106752Y388890D01*
X106686Y388883D01*
X106642Y388876D01*
X106628D01*
X106497Y388883D01*
X106380Y388912D01*
X106278Y388948D01*
X106191Y388992D01*
X106125Y389029D01*
X106074Y389065D01*
X106037Y389094D01*
X106030Y389102D01*
X105957Y389189D01*
X105899Y389291D01*
X105862Y389386D01*
X105833Y389481D01*
X105819Y389561D01*
X105811Y389626D01*
X105804Y389670D01*
Y389677D01*
Y389685D01*
X105811Y389801D01*
X105841Y389903D01*
X105877Y389998D01*
X105921Y390078D01*
X105957Y390144D01*
X105994Y390195D01*
X106023Y390224D01*
X106030Y390231D01*
X106125Y390312D01*
X106220Y390370D01*
X106322Y390406D01*
X106416Y390436D01*
X106504Y390450D01*
X106570Y390465D01*
X106628D01*
X106752Y390458D01*
D02*
G37*
G36*
X106497Y390968D02*
X106380Y390961D01*
X106176Y390917D01*
X106081Y390888D01*
X105994Y390858D01*
X105913Y390822D01*
X105841Y390786D01*
X105782Y390749D01*
X105724Y390713D01*
X105673Y390683D01*
X105637Y390654D01*
X105607Y390632D01*
X105586Y390611D01*
X105571Y390603D01*
X105564Y390596D01*
X105498Y390523D01*
X105432Y390450D01*
X105381Y390370D01*
X105338Y390290D01*
X105265Y390137D01*
X105221Y389991D01*
X105192Y389867D01*
X105184Y389809D01*
X105177Y389765D01*
X105170Y389721D01*
Y389692D01*
Y389677D01*
Y389670D01*
X105177Y389539D01*
X105199Y389415D01*
X105228Y389306D01*
X105265Y389211D01*
X105294Y389138D01*
X105323Y389080D01*
X105345Y389051D01*
X105352Y389036D01*
X105432Y388948D01*
X105520Y388868D01*
X105615Y388795D01*
X105709Y388737D01*
X105797Y388693D01*
X105862Y388664D01*
X105892Y388650D01*
X105913Y388642D01*
X105921Y388635D01*
X105928D01*
X105760Y388584D01*
X105622Y388518D01*
X105498Y388438D01*
X105396Y388365D01*
X105316Y388292D01*
X105257Y388234D01*
X105228Y388198D01*
X105214Y388190D01*
Y388183D01*
X105133Y388052D01*
X105068Y387913D01*
X105024Y387782D01*
X104995Y387651D01*
X104980Y387534D01*
X104973Y387483D01*
Y387439D01*
X104966Y387410D01*
Y390975D01*
X106613D01*
X106497Y390968D01*
D02*
G37*
G36*
X106766Y388358D02*
X106912Y388329D01*
X107044Y388278D01*
X107153Y388227D01*
X107240Y388168D01*
X107306Y388117D01*
X107342Y388088D01*
X107357Y388074D01*
X107459Y387957D01*
X107532Y387833D01*
X107583Y387709D01*
X107619Y387600D01*
X107641Y387490D01*
X107649Y387410D01*
X107656Y387381D01*
Y387359D01*
Y387345D01*
Y387337D01*
X107641Y387184D01*
X107612Y387038D01*
X107561Y386914D01*
X107510Y386812D01*
X107459Y386732D01*
X107408Y386667D01*
X107379Y386630D01*
X107364Y386616D01*
X107248Y386521D01*
X107131Y386448D01*
X107007Y386404D01*
X106890Y386368D01*
X106788Y386346D01*
X106701Y386339D01*
X106672Y386331D01*
X106628D01*
X106526Y386339D01*
X106424Y386353D01*
X106329Y386375D01*
X106249Y386397D01*
X106183Y386419D01*
X106132Y386441D01*
X106103Y386455D01*
X106088Y386462D01*
X106001Y386521D01*
X105928Y386579D01*
X105862Y386645D01*
X105811Y386710D01*
X105768Y386761D01*
X105739Y386805D01*
X105724Y386842D01*
X105717Y386849D01*
X105680Y386944D01*
X105651Y387031D01*
X105629Y387119D01*
X105615Y387199D01*
X105607Y387264D01*
X105600Y387316D01*
Y387345D01*
Y387359D01*
X105615Y387512D01*
X105644Y387651D01*
X105687Y387775D01*
X105746Y387884D01*
X105797Y387964D01*
X105841Y388030D01*
X105870Y388066D01*
X105884Y388081D01*
X105994Y388176D01*
X106118Y388249D01*
X106234Y388300D01*
X106351Y388336D01*
X106453Y388358D01*
X106533Y388365D01*
X106562Y388372D01*
X106606D01*
X106766Y388358D01*
D02*
G37*
G36*
X102771Y390458D02*
X102852Y390450D01*
X102925Y390428D01*
X102990Y390399D01*
X103114Y390334D01*
X103224Y390261D01*
X103304Y390180D01*
X103369Y390115D01*
X103391Y390086D01*
X103406Y390064D01*
X103420Y390056D01*
Y390049D01*
X103471Y389962D01*
X103515Y389860D01*
X103559Y389743D01*
X103588Y389619D01*
X103617Y389488D01*
X103639Y389349D01*
X103675Y389072D01*
X103690Y388934D01*
X103697Y388810D01*
X103705Y388693D01*
Y388598D01*
X103712Y388511D01*
Y388445D01*
Y388409D01*
Y388402D01*
Y388394D01*
Y388168D01*
X103697Y387964D01*
X103683Y387782D01*
X103668Y387607D01*
X103646Y387461D01*
X103617Y387323D01*
X103588Y387206D01*
X103566Y387097D01*
X103537Y387009D01*
X103508Y386936D01*
X103486Y386871D01*
X103457Y386820D01*
X103442Y386783D01*
X103428Y386761D01*
X103413Y386747D01*
Y386740D01*
X103355Y386667D01*
X103296Y386608D01*
X103238Y386550D01*
X103180Y386506D01*
X103056Y386433D01*
X102946Y386382D01*
X102844Y386353D01*
X102771Y386339D01*
X102742Y386331D01*
X102699D01*
X102618Y386339D01*
X102545Y386346D01*
X102407Y386397D01*
X102283Y386462D01*
X102174Y386535D01*
X102094Y386608D01*
X102028Y386674D01*
X101991Y386725D01*
X101977Y386732D01*
Y386740D01*
X101926Y386827D01*
X101882Y386929D01*
X101838Y387046D01*
X101809Y387170D01*
X101780Y387301D01*
X101758Y387439D01*
X101722Y387724D01*
X101707Y387855D01*
X101700Y387979D01*
X101693Y388095D01*
Y388190D01*
X101685Y388278D01*
Y388343D01*
Y388380D01*
Y388394D01*
X101693Y388620D01*
X101700Y388825D01*
X101715Y389014D01*
X101736Y389189D01*
X101758Y389342D01*
X101787Y389481D01*
X101816Y389604D01*
X101846Y389714D01*
X101875Y389809D01*
X101897Y389889D01*
X101926Y389954D01*
X101948Y390013D01*
X101970Y390049D01*
X101984Y390078D01*
X101999Y390093D01*
Y390100D01*
X102050Y390166D01*
X102101Y390224D01*
X102159Y390268D01*
X102217Y390312D01*
X102334Y390377D01*
X102444Y390421D01*
X102538Y390443D01*
X102618Y390458D01*
X102648Y390465D01*
X102691D01*
X102771Y390458D01*
D02*
G37*
%LPC*%
G36*
X90543Y405429D02*
X88946D01*
D01*
X90543D01*
D02*
G37*
G36*
X99189Y405429D02*
D01*
Y402761D01*
X99181Y402878D01*
X99167Y402980D01*
X99138Y403067D01*
X99116Y403147D01*
X99086Y403213D01*
X99057Y403257D01*
X99043Y403286D01*
X99035Y403293D01*
X98977Y403366D01*
X98911Y403432D01*
X98846Y403490D01*
X98780Y403534D01*
X98715Y403570D01*
X98671Y403592D01*
X98642Y403607D01*
X98627Y403614D01*
X98576Y403636D01*
X98518Y403658D01*
X98379Y403709D01*
X98226Y403760D01*
X98073Y403803D01*
X97935Y403847D01*
X97869Y403862D01*
X97818Y403876D01*
X97774Y403891D01*
X97738Y403898D01*
X97716Y403905D01*
X97709D01*
X97628Y403927D01*
X97556Y403949D01*
X97490Y403964D01*
X97432Y403986D01*
X97337Y404008D01*
X97264Y404029D01*
X97213Y404051D01*
X97184Y404059D01*
X97169Y404066D01*
X97162D01*
X97104Y404095D01*
X97053Y404117D01*
X97009Y404146D01*
X96980Y404168D01*
X96951Y404190D01*
X96936Y404212D01*
X96929Y404219D01*
X96921Y404226D01*
X96878Y404299D01*
X96856Y404372D01*
Y404401D01*
X96848Y404423D01*
Y404438D01*
Y404445D01*
X96856Y404511D01*
X96878Y404576D01*
X96907Y404635D01*
X96943Y404678D01*
X96972Y404722D01*
X97001Y404751D01*
X97023Y404766D01*
X97031Y404773D01*
X97111Y404824D01*
X97206Y404860D01*
X97308Y404882D01*
X97402Y404904D01*
X97497Y404912D01*
X97570Y404919D01*
X97643D01*
X97767Y404912D01*
X97884Y404897D01*
X97978Y404868D01*
X98051Y404839D01*
X98117Y404810D01*
X98161Y404780D01*
X98190Y404766D01*
X98197Y404758D01*
X98270Y404693D01*
X98321Y404620D01*
X98365Y404547D01*
X98401Y404481D01*
X98423Y404416D01*
X98438Y404365D01*
X98445Y404336D01*
Y404321D01*
X99050Y404401D01*
X99021Y404525D01*
X98992Y404635D01*
X98955Y404729D01*
X98919Y404817D01*
X98882Y404875D01*
X98853Y404926D01*
X98839Y404955D01*
X98831Y404963D01*
X98766Y405035D01*
X98693Y405101D01*
X98613Y405159D01*
X98532Y405210D01*
X98460Y405247D01*
X98401Y405276D01*
X98365Y405291D01*
X98357Y405298D01*
X98350D01*
X98226Y405342D01*
X98095Y405371D01*
X97971Y405400D01*
X97854Y405414D01*
X97745Y405422D01*
X97665Y405429D01*
X99189D01*
X96149Y405429D01*
D01*
X97490Y405429D01*
X97388Y405414D01*
X97300Y405407D01*
X97220Y405393D01*
X97155Y405378D01*
X97104Y405364D01*
X97074Y405356D01*
X97060Y405349D01*
X96972Y405320D01*
X96892Y405291D01*
X96826Y405261D01*
X96768Y405232D01*
X96724Y405210D01*
X96695Y405189D01*
X96673Y405181D01*
X96666Y405174D01*
X96593Y405123D01*
X96535Y405065D01*
X96484Y404999D01*
X96440Y404948D01*
X96404Y404897D01*
X96382Y404860D01*
X96367Y404831D01*
X96360Y404824D01*
X96324Y404744D01*
X96294Y404671D01*
X96280Y404591D01*
X96265Y404525D01*
X96258Y404459D01*
X96251Y404416D01*
Y404387D01*
Y404372D01*
X96258Y404270D01*
X96272Y404182D01*
X96294Y404095D01*
X96316Y404022D01*
X96338Y403964D01*
X96360Y403913D01*
X96374Y403884D01*
X96382Y403876D01*
X96440Y403796D01*
X96506Y403730D01*
X96571Y403672D01*
X96637Y403621D01*
X96695Y403585D01*
X96739Y403556D01*
X96768Y403541D01*
X96783Y403534D01*
X96834Y403512D01*
X96899Y403483D01*
X97045Y403432D01*
X97198Y403388D01*
X97359Y403337D01*
X97497Y403300D01*
X97563Y403279D01*
X97621Y403264D01*
X97665Y403249D01*
X97701Y403242D01*
X97723Y403235D01*
X97730D01*
X97825Y403213D01*
X97905Y403191D01*
X97978Y403169D01*
X98044Y403147D01*
X98102Y403133D01*
X98153Y403111D01*
X98241Y403082D01*
X98299Y403060D01*
X98336Y403038D01*
X98357Y403031D01*
X98365Y403023D01*
X98430Y402980D01*
X98474Y402921D01*
X98510Y402870D01*
X98532Y402819D01*
X98547Y402768D01*
X98554Y402732D01*
Y402703D01*
Y402695D01*
X98547Y402608D01*
X98525Y402535D01*
X98489Y402462D01*
X98452Y402404D01*
X98409Y402353D01*
X98379Y402316D01*
X98350Y402294D01*
X98343Y402287D01*
X98255Y402229D01*
X98161Y402192D01*
X98051Y402163D01*
X97949Y402141D01*
X97854Y402127D01*
X97781Y402119D01*
X97709D01*
X97556Y402127D01*
X97424Y402149D01*
X97315Y402178D01*
X97220Y402214D01*
X97147Y402251D01*
X97089Y402280D01*
X97060Y402302D01*
X97045Y402309D01*
X96965Y402389D01*
X96899Y402484D01*
X96856Y402579D01*
X96819Y402666D01*
X96790Y402746D01*
X96776Y402819D01*
X96761Y402863D01*
Y402870D01*
Y402878D01*
X96149Y402783D01*
X96200Y402579D01*
X96265Y402396D01*
X96345Y402251D01*
X96426Y402127D01*
X96499Y402025D01*
X96564Y401959D01*
X96608Y401915D01*
X96615Y401908D01*
X96622Y401901D01*
X96695Y401850D01*
X96776Y401806D01*
X96951Y401733D01*
X97133Y401682D01*
X97308Y401646D01*
X97388Y401631D01*
X97461Y401624D01*
X97534Y401616D01*
X97592D01*
X97643Y401609D01*
X97709D01*
X97869Y401616D01*
X98008Y401631D01*
X98139Y401653D01*
X98255Y401682D01*
X98350Y401711D01*
X98423Y401733D01*
X98467Y401748D01*
X98474Y401755D01*
X98481D01*
X98605Y401821D01*
X98707Y401886D01*
X98795Y401959D01*
X98875Y402025D01*
X98933Y402083D01*
X98970Y402134D01*
X98999Y402163D01*
X99006Y402178D01*
X99065Y402280D01*
X99108Y402389D01*
X99145Y402484D01*
X99167Y402571D01*
X99181Y402652D01*
X99189Y402710D01*
Y401821D01*
Y405429D01*
D02*
G37*
G36*
X128917Y406756D02*
D01*
Y404314D01*
X128910Y404445D01*
Y404562D01*
X128902Y404678D01*
X128888Y404780D01*
X128881Y404882D01*
X128873Y404970D01*
X128859Y405050D01*
X128851Y405123D01*
X128837Y405189D01*
X128830Y405240D01*
X128822Y405283D01*
X128815Y405320D01*
X128808Y405342D01*
X128800Y405356D01*
Y405364D01*
X128757Y405524D01*
X128706Y405670D01*
X128647Y405794D01*
X128604Y405903D01*
X128553Y405998D01*
X128524Y406063D01*
X128494Y406100D01*
X128487Y406114D01*
X128407Y406224D01*
X128327Y406319D01*
X128239Y406399D01*
X128159Y406472D01*
X128086Y406523D01*
X128028Y406559D01*
X127991Y406581D01*
X127984Y406588D01*
X127977D01*
X127860Y406646D01*
X127736Y406683D01*
X127620Y406712D01*
X127510Y406734D01*
X127415Y406749D01*
X127335Y406756D01*
X125622D01*
X127270D01*
X127073Y406741D01*
X126891Y406712D01*
X126737Y406661D01*
X126606Y406610D01*
X126497Y406552D01*
X126453Y406530D01*
X126417Y406501D01*
X126388Y406486D01*
X126366Y406472D01*
X126358Y406457D01*
X126351D01*
X126220Y406340D01*
X126110Y406202D01*
X126016Y406063D01*
X125943Y405932D01*
X125884Y405808D01*
X125855Y405757D01*
X125841Y405706D01*
X125826Y405670D01*
X125812Y405641D01*
X125804Y405626D01*
Y405619D01*
X125775Y405509D01*
X125746Y405400D01*
X125702Y405159D01*
X125666Y404919D01*
X125644Y404693D01*
X125637Y404584D01*
X125629Y404489D01*
Y404401D01*
X125622Y404321D01*
Y404175D01*
X125629Y403920D01*
X125644Y403680D01*
X125666Y403461D01*
X125702Y403257D01*
X125739Y403067D01*
X125782Y402900D01*
X125826Y402746D01*
X125870Y402615D01*
X125914Y402498D01*
X125965Y402396D01*
X126001Y402309D01*
X126038Y402243D01*
X126074Y402185D01*
X126096Y402149D01*
X126110Y402127D01*
X126118Y402119D01*
X126198Y402032D01*
X126285Y401952D01*
X126380Y401879D01*
X126475Y401821D01*
X126570Y401769D01*
X126664Y401726D01*
X126759Y401697D01*
X126847Y401667D01*
X126934Y401646D01*
X127014Y401631D01*
X127087Y401616D01*
X127146Y401609D01*
X127197Y401602D01*
X127270D01*
X127466Y401616D01*
X127649Y401646D01*
X127802Y401697D01*
X127933Y401748D01*
X128042Y401799D01*
X128079Y401828D01*
X128115Y401850D01*
X128144Y401864D01*
X128166Y401879D01*
X128173Y401894D01*
X128181D01*
X128312Y402017D01*
X128421Y402149D01*
X128516Y402294D01*
X128589Y402426D01*
X128647Y402550D01*
X128676Y402601D01*
X128691Y402652D01*
X128706Y402688D01*
X128720Y402717D01*
X128728Y402732D01*
Y402739D01*
X128764Y402848D01*
X128793Y402958D01*
X128837Y403191D01*
X128873Y403432D01*
X128895Y403665D01*
X128902Y403767D01*
X128910Y403862D01*
Y403949D01*
X128917Y404029D01*
Y402046D01*
Y406756D01*
D02*
G37*
G36*
X108381Y405429D02*
D01*
Y404088D01*
X108374Y404212D01*
X108367Y404314D01*
Y404401D01*
X108359Y404459D01*
X108352Y404503D01*
X108345Y404532D01*
Y404540D01*
X108323Y404635D01*
X108286Y404722D01*
X108257Y404795D01*
X108228Y404868D01*
X108192Y404919D01*
X108170Y404955D01*
X108155Y404984D01*
X108148Y404992D01*
X108090Y405065D01*
X108024Y405123D01*
X107958Y405181D01*
X107886Y405225D01*
X107827Y405261D01*
X107776Y405283D01*
X107747Y405298D01*
X107732Y405305D01*
X107630Y405349D01*
X107521Y405378D01*
X107419Y405400D01*
X107324Y405414D01*
X107244Y405422D01*
X107186Y405429D01*
X107127D01*
X106989Y405422D01*
X106858Y405400D01*
X106741Y405371D01*
X106624Y405334D01*
X106522Y405291D01*
X106428Y405240D01*
X106340Y405181D01*
X106267Y405130D01*
X106194Y405072D01*
X106136Y405014D01*
X106085Y404963D01*
X106041Y404919D01*
X106012Y404882D01*
X105990Y404853D01*
X105975Y404831D01*
X105968Y404824D01*
Y405349D01*
X105414D01*
Y401689D01*
X108381D01*
Y405429D01*
D02*
G37*
G36*
X110211Y405349D02*
X109504D01*
Y404642D01*
X110211D01*
Y403898D01*
Y405349D01*
D02*
G37*
G36*
X104685Y405429D02*
D01*
Y403570D01*
X104678Y403730D01*
X104663Y403876D01*
X104641Y404015D01*
X104612Y404146D01*
X104576Y404270D01*
X104532Y404379D01*
X104488Y404489D01*
X104445Y404576D01*
X104401Y404656D01*
X104357Y404729D01*
X104313Y404795D01*
X104277Y404846D01*
X104248Y404882D01*
X104226Y404912D01*
X104211Y404926D01*
X104204Y404933D01*
X104109Y405021D01*
X104015Y405094D01*
X103912Y405167D01*
X103810Y405218D01*
X103708Y405269D01*
X103606Y405305D01*
X103409Y405371D01*
X103315Y405385D01*
X103234Y405400D01*
X103162Y405414D01*
X103096Y405422D01*
X103045Y405429D01*
X104685D01*
X102972D01*
X102848Y405422D01*
X102731Y405414D01*
X102505Y405364D01*
X102309Y405298D01*
X102221Y405261D01*
X102141Y405225D01*
X102068Y405189D01*
X102010Y405152D01*
X101951Y405116D01*
X101908Y405087D01*
X101871Y405057D01*
X101842Y405035D01*
X101828Y405028D01*
X101820Y405021D01*
X101718Y404926D01*
X101638Y404817D01*
X101558Y404700D01*
X101499Y404584D01*
X101441Y404459D01*
X101397Y404328D01*
X101361Y404204D01*
X101332Y404088D01*
X101303Y403971D01*
X101288Y403869D01*
X101273Y403767D01*
X101266Y403687D01*
Y403614D01*
X101259Y403563D01*
Y403519D01*
X101266Y403351D01*
X101281Y403191D01*
X101303Y403045D01*
X101332Y402907D01*
X101368Y402783D01*
X101405Y402666D01*
X101448Y402557D01*
X101492Y402462D01*
X101536Y402375D01*
X101580Y402302D01*
X101616Y402243D01*
X101653Y402192D01*
X101682Y402149D01*
X101704Y402119D01*
X101718Y402105D01*
X101725Y402098D01*
X101820Y402010D01*
X101915Y401937D01*
X102017Y401872D01*
X102119Y401813D01*
X102221Y401769D01*
X102331Y401726D01*
X102527Y401667D01*
X102615Y401653D01*
X102702Y401638D01*
X102775Y401624D01*
X102841Y401616D01*
X102899Y401609D01*
X101259D01*
X102972D01*
X103147Y401616D01*
X103307Y401646D01*
X103460Y401682D01*
X103584Y401719D01*
X103694Y401762D01*
X103737Y401777D01*
X103774Y401791D01*
X103810Y401806D01*
X103832Y401821D01*
X103840Y401828D01*
X103847D01*
X103993Y401923D01*
X104116Y402025D01*
X104226Y402127D01*
X104313Y402229D01*
X104379Y402316D01*
X104430Y402389D01*
X104445Y402418D01*
X104459Y402440D01*
X104466Y402448D01*
Y402455D01*
X104539Y402623D01*
X104590Y402805D01*
X104634Y402987D01*
X104656Y403169D01*
X104671Y403249D01*
Y403322D01*
X104678Y403395D01*
X104685Y403453D01*
Y401682D01*
Y405429D01*
D02*
G37*
G36*
X121511D02*
D01*
Y403519D01*
X121503Y403687D01*
X121489Y403840D01*
X121467Y403986D01*
X121438Y404124D01*
X121401Y404248D01*
X121365Y404365D01*
X121321Y404467D01*
X121277Y404562D01*
X121233Y404649D01*
X121190Y404722D01*
X121153Y404780D01*
X121117Y404831D01*
X121088Y404875D01*
X121066Y404904D01*
X121051Y404919D01*
X121044Y404926D01*
X120956Y405014D01*
X120862Y405094D01*
X120760Y405159D01*
X120658Y405218D01*
X120555Y405269D01*
X120461Y405305D01*
X120359Y405342D01*
X120271Y405364D01*
X120176Y405385D01*
X120096Y405400D01*
X120023Y405414D01*
X119965Y405422D01*
X119914Y405429D01*
X119841D01*
X119702Y405422D01*
X119571Y405407D01*
X119447Y405385D01*
X119331Y405349D01*
X119221Y405312D01*
X119119Y405269D01*
X119025Y405225D01*
X118944Y405174D01*
X118864Y405130D01*
X118799Y405079D01*
X118740Y405035D01*
X118696Y404999D01*
X118660Y404963D01*
X118631Y404941D01*
X118616Y404926D01*
X118609Y404919D01*
X118529Y404817D01*
X118456Y404707D01*
X118390Y404598D01*
X118332Y404481D01*
X118288Y404357D01*
X118252Y404241D01*
X118193Y404008D01*
X118172Y403905D01*
X118157Y403803D01*
X118150Y403716D01*
X118142Y403636D01*
X118135Y403570D01*
Y403483D01*
X118142Y403322D01*
X118157Y403169D01*
X118179Y403023D01*
X118208Y402892D01*
X118245Y402768D01*
X118281Y402652D01*
X118325Y402550D01*
X118368Y402455D01*
X118412Y402375D01*
X118456Y402302D01*
X118492Y402243D01*
X118529Y402192D01*
X118558Y402149D01*
X118580Y402119D01*
X118595Y402105D01*
X118602Y402098D01*
X118696Y402010D01*
X118791Y401937D01*
X118893Y401872D01*
X119003Y401813D01*
X119105Y401769D01*
X119214Y401726D01*
X119418Y401667D01*
X119513Y401653D01*
X119600Y401638D01*
X119681Y401624D01*
X119746Y401616D01*
X119797Y401609D01*
X118135D01*
X121511D01*
Y405429D01*
D02*
G37*
G36*
X90543Y405429D02*
D01*
Y403519D01*
X90535Y403687D01*
X90521Y403840D01*
X90499Y403986D01*
X90470Y404124D01*
X90433Y404248D01*
X90397Y404365D01*
X90353Y404467D01*
X90309Y404562D01*
X90266Y404649D01*
X90222Y404722D01*
X90185Y404780D01*
X90149Y404831D01*
X90120Y404875D01*
X90098Y404904D01*
X90083Y404919D01*
X90076Y404926D01*
X89988Y405014D01*
X89894Y405094D01*
X89792Y405159D01*
X89690Y405218D01*
X89588Y405269D01*
X89493Y405305D01*
X89391Y405342D01*
X89303Y405364D01*
X89209Y405385D01*
X89128Y405400D01*
X89055Y405414D01*
X88997Y405422D01*
X88946Y405429D01*
X88873D01*
D01*
X87167D01*
X88873D01*
X88735Y405422D01*
X88603Y405407D01*
X88480Y405385D01*
X88363Y405349D01*
X88253Y405312D01*
X88151Y405269D01*
X88057Y405225D01*
X87976Y405174D01*
X87896Y405130D01*
X87831Y405079D01*
X87772Y405035D01*
X87729Y404999D01*
X87692Y404962D01*
X87663Y404941D01*
X87648Y404926D01*
X87641Y404919D01*
X87561Y404817D01*
X87488Y404707D01*
X87422Y404598D01*
X87364Y404481D01*
X87320Y404357D01*
X87284Y404241D01*
X87226Y404007D01*
X87204Y403905D01*
X87189Y403803D01*
X87182Y403716D01*
X87175Y403636D01*
X87167Y403570D01*
Y403483D01*
X87175Y403322D01*
X87189Y403169D01*
X87211Y403023D01*
X87240Y402892D01*
X87277Y402768D01*
X87313Y402652D01*
X87357Y402550D01*
X87401Y402455D01*
X87444Y402375D01*
X87488Y402302D01*
X87524Y402243D01*
X87561Y402192D01*
X87590Y402149D01*
X87612Y402119D01*
X87626Y402105D01*
X87634Y402098D01*
X87729Y402010D01*
X87823Y401937D01*
X87925Y401872D01*
X88035Y401813D01*
X88137Y401769D01*
X88246Y401726D01*
X88450Y401667D01*
X88545Y401653D01*
X88633Y401638D01*
X88713Y401624D01*
X88778Y401616D01*
X88829Y401609D01*
X87167D01*
X90543D01*
Y405429D01*
D02*
G37*
G36*
X94275Y405349D02*
X93634D01*
X92824Y403111D01*
X92773Y402965D01*
X92722Y402834D01*
X92686Y402710D01*
X92649Y402615D01*
X92628Y402528D01*
X92606Y402469D01*
X92598Y402433D01*
X92591Y402418D01*
X92547Y402557D01*
X92511Y402695D01*
X92467Y402819D01*
X92431Y402929D01*
X92401Y403023D01*
X92380Y403096D01*
X92372Y403118D01*
X92365Y403140D01*
X92358Y403147D01*
Y403155D01*
X91570Y405349D01*
X90914D01*
X92292Y401689D01*
X90914D01*
D01*
X94275D01*
X92883D01*
X94275Y405349D01*
D02*
G37*
G36*
X132803Y406756D02*
D01*
Y402287D01*
X130317D01*
X130404Y402411D01*
X130448Y402462D01*
X130484Y402513D01*
X130521Y402557D01*
X130550Y402586D01*
X130572Y402608D01*
X130579Y402615D01*
X130616Y402652D01*
X130659Y402688D01*
X130762Y402783D01*
X130878Y402892D01*
X131002Y403001D01*
X131119Y403096D01*
X131170Y403140D01*
X131213Y403184D01*
X131250Y403213D01*
X131279Y403235D01*
X131294Y403249D01*
X131301Y403257D01*
X131418Y403359D01*
X131534Y403453D01*
X131636Y403548D01*
X131731Y403628D01*
X131818Y403709D01*
X131891Y403782D01*
X131964Y403847D01*
X132023Y403905D01*
X132081Y403964D01*
X132125Y404008D01*
X132161Y404044D01*
X132198Y404080D01*
X132234Y404124D01*
X132249Y404139D01*
X132351Y404263D01*
X132438Y404372D01*
X132511Y404481D01*
X132569Y404569D01*
X132613Y404649D01*
X132642Y404707D01*
X132657Y404744D01*
X132664Y404758D01*
X132708Y404868D01*
X132737Y404977D01*
X132766Y405079D01*
X132781Y405167D01*
X132788Y405247D01*
X132795Y405305D01*
Y405342D01*
Y405356D01*
X132788Y405466D01*
X132773Y405568D01*
X132759Y405670D01*
X132730Y405757D01*
X132657Y405932D01*
X132584Y406071D01*
X132540Y406136D01*
X132504Y406187D01*
X132467Y406238D01*
X132431Y406275D01*
X132402Y406304D01*
X132387Y406333D01*
X132373Y406340D01*
X132365Y406348D01*
X132285Y406421D01*
X132198Y406486D01*
X132103Y406537D01*
X132008Y406581D01*
X131818Y406654D01*
X131629Y406705D01*
X131549Y406719D01*
X131469Y406734D01*
X131396Y406741D01*
X131337Y406749D01*
X131286Y406756D01*
X132803D01*
X131213D01*
D01*
D01*
D01*
X129457D01*
X131213D01*
X131082Y406749D01*
X130958Y406741D01*
X130842Y406719D01*
X130732Y406698D01*
X130630Y406668D01*
X130535Y406639D01*
X130448Y406603D01*
X130368Y406566D01*
X130295Y406530D01*
X130237Y406493D01*
X130186Y406464D01*
X130142Y406435D01*
X130105Y406413D01*
X130084Y406391D01*
X130069Y406384D01*
X130062Y406377D01*
X129989Y406304D01*
X129923Y406224D01*
X129858Y406136D01*
X129806Y406049D01*
X129719Y405874D01*
X129661Y405699D01*
X129639Y405619D01*
X129617Y405539D01*
X129602Y405473D01*
X129588Y405414D01*
X129580Y405364D01*
Y405327D01*
X129573Y405305D01*
Y405298D01*
X130207Y405232D01*
X130222Y405400D01*
X130251Y405546D01*
X130295Y405677D01*
X130346Y405779D01*
X130390Y405866D01*
X130433Y405925D01*
X130463Y405961D01*
X130477Y405976D01*
X130587Y406063D01*
X130703Y406129D01*
X130827Y406180D01*
X130936Y406209D01*
X131038Y406231D01*
X131126Y406238D01*
X131155Y406246D01*
X131199D01*
X131352Y406238D01*
X131491Y406209D01*
X131607Y406165D01*
X131709Y406122D01*
X131789Y406071D01*
X131840Y406034D01*
X131877Y406005D01*
X131891Y405990D01*
X131979Y405888D01*
X132044Y405786D01*
X132096Y405684D01*
X132125Y405582D01*
X132147Y405502D01*
X132154Y405429D01*
X132161Y405385D01*
Y405378D01*
Y405371D01*
X132147Y405240D01*
X132117Y405101D01*
X132066Y404977D01*
X132015Y404860D01*
X131957Y404766D01*
X131906Y404685D01*
X131891Y404656D01*
X131877Y404635D01*
X131862Y404627D01*
Y404620D01*
X131804Y404540D01*
X131731Y404459D01*
X131651Y404372D01*
X131563Y404285D01*
X131381Y404110D01*
X131199Y403935D01*
X131104Y403855D01*
X131024Y403782D01*
X130944Y403716D01*
X130878Y403658D01*
X130827Y403614D01*
X130783Y403577D01*
X130754Y403556D01*
X130747Y403548D01*
X130565Y403395D01*
X130397Y403249D01*
X130259Y403118D01*
X130149Y403009D01*
X130054Y402914D01*
X129989Y402848D01*
X129952Y402805D01*
X129938Y402797D01*
Y402790D01*
X129836Y402666D01*
X129755Y402550D01*
X129683Y402433D01*
X129624Y402331D01*
X129580Y402243D01*
X129551Y402178D01*
X129537Y402134D01*
X129530Y402127D01*
Y402119D01*
X129500Y402039D01*
X129486Y401966D01*
X129471Y401894D01*
X129464Y401828D01*
X129457Y401769D01*
Y401689D01*
X132803D01*
Y406756D01*
D02*
G37*
G36*
X125243Y405349D02*
X121882D01*
X123260Y401689D01*
X123851D01*
X125243Y405349D01*
D01*
D02*
G37*
G36*
X117778Y406734D02*
D01*
Y401689D01*
X116911Y403060D01*
X116808Y403206D01*
X116714Y403337D01*
X116619Y403446D01*
X116539Y403548D01*
X116466Y403621D01*
X116408Y403680D01*
X116371Y403716D01*
X116356Y403730D01*
X116298Y403774D01*
X116233Y403825D01*
X116101Y403905D01*
X116043Y403935D01*
X115999Y403964D01*
X115970Y403978D01*
X115955Y403986D01*
X116087Y404008D01*
X116211Y404029D01*
X116320Y404066D01*
X116429Y404095D01*
X116524Y404132D01*
X116612Y404175D01*
X116692Y404212D01*
X116765Y404248D01*
X116823Y404292D01*
X116881Y404328D01*
X116925Y404357D01*
X116962Y404387D01*
X116991Y404409D01*
X117013Y404430D01*
X117020Y404438D01*
X117027Y404445D01*
X117085Y404518D01*
X117144Y404591D01*
X117231Y404744D01*
X117290Y404897D01*
X117333Y405043D01*
X117362Y405167D01*
X117370Y405218D01*
Y405269D01*
X117377Y405305D01*
Y405334D01*
Y405349D01*
Y405356D01*
X117370Y405509D01*
X117348Y405648D01*
X117311Y405779D01*
X117275Y405888D01*
X117231Y405983D01*
X117202Y406056D01*
X117173Y406100D01*
X117166Y406107D01*
Y406114D01*
X117078Y406231D01*
X116991Y406333D01*
X116896Y406421D01*
X116808Y406486D01*
X116728Y406537D01*
X116663Y406566D01*
X116619Y406588D01*
X116612Y406596D01*
X116604D01*
X116539Y406617D01*
X116458Y406639D01*
X116298Y406676D01*
X116123Y406698D01*
X115963Y406719D01*
X115810Y406727D01*
X115744D01*
X115686Y406734D01*
X113346D01*
Y401689D01*
X114863D01*
X114016D01*
Y403927D01*
X114877D01*
X114957Y403920D01*
X115015D01*
X115066Y403913D01*
X115103Y403905D01*
X115132D01*
X115146Y403898D01*
X115154D01*
X115270Y403862D01*
X115321Y403840D01*
X115365Y403818D01*
X115409Y403796D01*
X115438Y403782D01*
X115453Y403774D01*
X115460Y403767D01*
X115518Y403723D01*
X115576Y403672D01*
X115686Y403563D01*
X115737Y403512D01*
X115773Y403468D01*
X115795Y403439D01*
X115802Y403432D01*
X115875Y403330D01*
X115955Y403220D01*
X116036Y403104D01*
X116116Y402994D01*
X116182Y402892D01*
X116233Y402812D01*
X116254Y402783D01*
X116269Y402761D01*
X116284Y402746D01*
Y402739D01*
X116947Y401689D01*
X117778D01*
Y406734D01*
D02*
G37*
G36*
X110211Y402396D02*
X109504D01*
Y401689D01*
X110211D01*
Y402396D01*
D02*
G37*
G36*
X100544Y406734D02*
X99925D01*
Y406027D01*
X100544D01*
Y405349D01*
X99925D01*
Y401689D01*
X100544D01*
Y406734D01*
D02*
G37*
G36*
X95449Y406734D02*
X94829D01*
Y406027D01*
X95449D01*
Y405349D01*
X94829D01*
Y401689D01*
X95449D01*
Y406734D01*
D02*
G37*
G36*
X86810D02*
D01*
Y401689D01*
X85943Y403060D01*
X85840Y403206D01*
X85746Y403337D01*
X85651Y403446D01*
X85571Y403548D01*
X85498Y403621D01*
X85439Y403680D01*
X85403Y403716D01*
X85388Y403730D01*
X85330Y403774D01*
X85265Y403825D01*
X85133Y403905D01*
X85075Y403935D01*
X85031Y403964D01*
X85002Y403978D01*
X84988Y403986D01*
X85119Y404007D01*
X85243Y404029D01*
X85352Y404066D01*
X85461Y404095D01*
X85556Y404132D01*
X85644Y404175D01*
X85724Y404212D01*
X85797Y404248D01*
X85855Y404292D01*
X85913Y404328D01*
X85957Y404357D01*
X85994Y404387D01*
X86023Y404409D01*
X86045Y404430D01*
X86052Y404438D01*
X86059Y404445D01*
X86118Y404518D01*
X86176Y404591D01*
X86263Y404744D01*
X86322Y404897D01*
X86365Y405043D01*
X86395Y405167D01*
X86402Y405218D01*
Y405269D01*
X86409Y405305D01*
Y405334D01*
Y405349D01*
Y405356D01*
X86402Y405509D01*
X86380Y405648D01*
X86343Y405779D01*
X86307Y405888D01*
X86263Y405983D01*
X86234Y406056D01*
X86205Y406100D01*
X86198Y406107D01*
Y406114D01*
X86110Y406231D01*
X86023Y406333D01*
X85928Y406421D01*
X85840Y406486D01*
X85760Y406537D01*
X85695Y406566D01*
X85651Y406588D01*
X85644Y406596D01*
X85636D01*
X85571Y406617D01*
X85491Y406639D01*
X85330Y406676D01*
X85155Y406698D01*
X84995Y406719D01*
X84842Y406727D01*
X84776D01*
X84718Y406734D01*
X82378D01*
Y401689D01*
X83895D01*
X83048D01*
Y403927D01*
X83909D01*
X83989Y403920D01*
X84047D01*
X84098Y403913D01*
X84135Y403905D01*
X84164D01*
X84178Y403898D01*
X84186D01*
X84302Y403862D01*
X84353Y403840D01*
X84397Y403818D01*
X84441Y403796D01*
X84470Y403782D01*
X84485Y403774D01*
X84492Y403767D01*
X84550Y403723D01*
X84609Y403672D01*
X84718Y403563D01*
X84769Y403512D01*
X84805Y403468D01*
X84827Y403439D01*
X84834Y403432D01*
X84907Y403330D01*
X84988Y403220D01*
X85068Y403104D01*
X85148Y402994D01*
X85214Y402892D01*
X85265Y402812D01*
X85286Y402783D01*
X85301Y402761D01*
X85316Y402746D01*
Y402739D01*
X85979Y401689D01*
X86810D01*
Y406734D01*
D02*
G37*
G36*
X136798Y406734D02*
X133626D01*
Y401689D01*
X134202D01*
Y402149D01*
X134275Y402054D01*
X134348Y401974D01*
X134428Y401901D01*
X134516Y401835D01*
X134596Y401784D01*
X134684Y401740D01*
X134764Y401704D01*
X134844Y401675D01*
X134990Y401638D01*
X135055Y401624D01*
X135106Y401616D01*
X135150D01*
X135187Y401609D01*
X135216D01*
X135332Y401616D01*
X135449Y401631D01*
X135558Y401653D01*
X135660Y401689D01*
X135857Y401769D01*
X135937Y401821D01*
X136018Y401864D01*
X136091Y401915D01*
X136149Y401959D01*
X136200Y402003D01*
X136251Y402039D01*
X136287Y402076D01*
X136309Y402098D01*
X136324Y402112D01*
X136331Y402119D01*
X136411Y402221D01*
X136484Y402331D01*
X136550Y402440D01*
X136601Y402564D01*
X136644Y402681D01*
X136681Y402805D01*
X136739Y403038D01*
X136761Y403147D01*
X136776Y403249D01*
X136783Y403337D01*
X136790Y403417D01*
X136798Y403483D01*
Y403570D01*
X136790Y403716D01*
X136783Y403855D01*
X136761Y403978D01*
X136739Y404088D01*
X136717Y404182D01*
X136703Y404255D01*
X136696Y404277D01*
X136688Y404299D01*
X136681Y404306D01*
Y404314D01*
X136637Y404438D01*
X136586Y404554D01*
X136535Y404656D01*
X136484Y404744D01*
X136440Y404810D01*
X136404Y404860D01*
X136382Y404897D01*
X136375Y404904D01*
X136302Y404992D01*
X136214Y405072D01*
X136134Y405137D01*
X136054Y405189D01*
X135988Y405232D01*
X135930Y405269D01*
X135894Y405283D01*
X135879Y405291D01*
X135770Y405334D01*
X135653Y405371D01*
X135544Y405393D01*
X135449Y405414D01*
X135369Y405422D01*
X135303Y405429D01*
X135245D01*
X135135Y405422D01*
X135026Y405407D01*
X134924Y405385D01*
X134829Y405349D01*
X134662Y405276D01*
X134516Y405181D01*
X134458Y405137D01*
X134399Y405094D01*
X134355Y405050D01*
X134319Y405014D01*
X134283Y404977D01*
X134261Y404955D01*
X134253Y404941D01*
X134246Y404933D01*
Y406734D01*
X136798D01*
D01*
D02*
G37*
%LPD*%
G36*
X127342Y406238D02*
X127423Y406231D01*
X127496Y406209D01*
X127561Y406180D01*
X127685Y406114D01*
X127795Y406041D01*
X127875Y405961D01*
X127940Y405896D01*
X127962Y405866D01*
X127977Y405845D01*
X127991Y405837D01*
Y405830D01*
X128042Y405743D01*
X128086Y405641D01*
X128130Y405524D01*
X128159Y405400D01*
X128188Y405269D01*
X128210Y405130D01*
X128246Y404853D01*
X128261Y404715D01*
X128268Y404591D01*
X128276Y404474D01*
Y404379D01*
X128283Y404292D01*
Y404226D01*
Y404190D01*
Y404182D01*
Y404175D01*
Y403949D01*
X128268Y403745D01*
X128254Y403563D01*
X128239Y403388D01*
X128217Y403242D01*
X128188Y403104D01*
X128159Y402987D01*
X128137Y402878D01*
X128108Y402790D01*
X128079Y402717D01*
X128057Y402652D01*
X128028Y402601D01*
X128013Y402564D01*
X127999Y402542D01*
X127984Y402528D01*
Y402520D01*
X127926Y402448D01*
X127867Y402389D01*
X127809Y402331D01*
X127751Y402287D01*
X127627Y402214D01*
X127517Y402163D01*
X127415Y402134D01*
X127342Y402119D01*
X127313Y402112D01*
X127270D01*
X127189Y402119D01*
X127117Y402127D01*
X126978Y402178D01*
X126854Y402243D01*
X126745Y402316D01*
X126664Y402389D01*
X126599Y402455D01*
X126562Y402506D01*
X126548Y402513D01*
Y402520D01*
X126497Y402608D01*
X126453Y402710D01*
X126409Y402827D01*
X126380Y402950D01*
X126351Y403082D01*
X126329Y403220D01*
X126293Y403505D01*
X126278Y403636D01*
X126271Y403760D01*
X126264Y403876D01*
Y403971D01*
X126256Y404059D01*
Y404124D01*
Y404161D01*
Y404175D01*
X126264Y404401D01*
X126271Y404605D01*
X126285Y404795D01*
X126307Y404970D01*
X126329Y405123D01*
X126358Y405261D01*
X126388Y405385D01*
X126417Y405495D01*
X126446Y405589D01*
X126468Y405670D01*
X126497Y405735D01*
X126519Y405794D01*
X126541Y405830D01*
X126555Y405859D01*
X126570Y405874D01*
Y405881D01*
X126621Y405947D01*
X126672Y406005D01*
X126730Y406049D01*
X126788Y406093D01*
X126905Y406158D01*
X127014Y406202D01*
X127109Y406224D01*
X127189Y406238D01*
X127218Y406246D01*
X127262D01*
X127342Y406238D01*
D02*
G37*
G36*
X107084Y404882D02*
X107171Y404875D01*
X107244Y404853D01*
X107302Y404831D01*
X107353Y404810D01*
X107397Y404795D01*
X107419Y404780D01*
X107426Y404773D01*
X107492Y404729D01*
X107550Y404678D01*
X107594Y404627D01*
X107630Y404584D01*
X107652Y404540D01*
X107674Y404503D01*
X107689Y404481D01*
Y404474D01*
X107711Y404394D01*
X107732Y404306D01*
X107747Y404212D01*
X107754Y404117D01*
X107762Y404037D01*
Y403971D01*
Y403920D01*
Y403913D01*
Y403905D01*
Y401689D01*
X106034D01*
Y403680D01*
Y403803D01*
X106048Y403927D01*
X106063Y404029D01*
X106078Y404124D01*
X106099Y404212D01*
X106121Y404292D01*
X106150Y404365D01*
X106180Y404423D01*
X106202Y404474D01*
X106231Y404518D01*
X106253Y404554D01*
X106274Y404584D01*
X106304Y404620D01*
X106318Y404635D01*
X106428Y404722D01*
X106544Y404780D01*
X106661Y404824D01*
X106763Y404860D01*
X106858Y404875D01*
X106930Y404882D01*
X106960Y404890D01*
X106996D01*
X107084Y404882D01*
D02*
G37*
G36*
X103059Y404912D02*
X103140Y404904D01*
X103286Y404868D01*
X103417Y404810D01*
X103526Y404744D01*
X103613Y404678D01*
X103679Y404627D01*
X103723Y404584D01*
X103737Y404576D01*
Y404569D01*
X103796Y404503D01*
X103840Y404423D01*
X103920Y404263D01*
X103978Y404088D01*
X104015Y403927D01*
X104036Y403774D01*
X104044Y403709D01*
Y403650D01*
X104051Y403607D01*
Y403570D01*
Y403548D01*
Y403541D01*
Y403410D01*
X104036Y403286D01*
X104022Y403176D01*
X104000Y403067D01*
X103978Y402972D01*
X103949Y402885D01*
X103927Y402805D01*
X103898Y402732D01*
X103869Y402673D01*
X103840Y402615D01*
X103810Y402571D01*
X103788Y402535D01*
X103767Y402506D01*
X103752Y402484D01*
X103745Y402477D01*
X103737Y402469D01*
X103679Y402411D01*
X103613Y402353D01*
X103490Y402265D01*
X103358Y402207D01*
X103242Y402163D01*
X103132Y402141D01*
X103052Y402127D01*
X103016Y402119D01*
X102972D01*
X102884Y402127D01*
X102804Y402134D01*
X102651Y402171D01*
X102520Y402229D01*
X102411Y402294D01*
X102323Y402353D01*
X102258Y402411D01*
X102214Y402448D01*
X102207Y402462D01*
X102199D01*
X102148Y402535D01*
X102097Y402608D01*
X102024Y402776D01*
X101966Y402950D01*
X101929Y403125D01*
X101908Y403279D01*
X101900Y403344D01*
Y403403D01*
X101893Y403453D01*
Y403490D01*
Y403512D01*
Y403519D01*
X101900Y403643D01*
X101908Y403767D01*
X101922Y403876D01*
X101944Y403978D01*
X101966Y404073D01*
X101988Y404161D01*
X102017Y404234D01*
X102046Y404306D01*
X102075Y404365D01*
X102104Y404423D01*
X102126Y404467D01*
X102148Y404503D01*
X102170Y404532D01*
X102185Y404554D01*
X102199Y404562D01*
Y404569D01*
X102258Y404627D01*
X102323Y404685D01*
X102447Y404773D01*
X102578Y404831D01*
X102702Y404875D01*
X102812Y404904D01*
X102892Y404912D01*
X102928Y404919D01*
X102972D01*
X103059Y404912D01*
D02*
G37*
G36*
X119936D02*
X120016Y404904D01*
X120169Y404860D01*
X120300Y404802D01*
X120410Y404737D01*
X120497Y404671D01*
X120563Y404613D01*
X120599Y404569D01*
X120614Y404562D01*
Y404554D01*
X120679Y404459D01*
X120738Y404350D01*
X120774Y404241D01*
X120811Y404124D01*
X120833Y404029D01*
X120847Y403942D01*
Y403913D01*
X120854Y403891D01*
Y403876D01*
Y403869D01*
X118806D01*
X118828Y404037D01*
X118871Y404190D01*
X118922Y404321D01*
X118981Y404423D01*
X119032Y404511D01*
X119083Y404576D01*
X119112Y404613D01*
X119127Y404627D01*
X119243Y404722D01*
X119360Y404795D01*
X119484Y404846D01*
X119600Y404882D01*
X119695Y404904D01*
X119775Y404912D01*
X119805Y404919D01*
X119848D01*
X119936Y404912D01*
D02*
G37*
G36*
X121511Y401609D02*
X119878D01*
X120104Y401624D01*
X120308Y401660D01*
X120490Y401704D01*
X120563Y401733D01*
X120636Y401762D01*
X120701Y401791D01*
X120760Y401821D01*
X120803Y401842D01*
X120847Y401864D01*
X120876Y401886D01*
X120898Y401901D01*
X120913Y401915D01*
X120920D01*
X121066Y402046D01*
X121182Y402185D01*
X121284Y402331D01*
X121357Y402469D01*
X121416Y402593D01*
X121438Y402652D01*
X121459Y402695D01*
X121474Y402739D01*
X121481Y402768D01*
X121489Y402783D01*
Y402790D01*
X120847Y402870D01*
X120789Y402732D01*
X120723Y402615D01*
X120658Y402513D01*
X120599Y402433D01*
X120548Y402375D01*
X120504Y402331D01*
X120468Y402302D01*
X120461Y402294D01*
X120366Y402236D01*
X120271Y402192D01*
X120169Y402163D01*
X120082Y402141D01*
X120001Y402127D01*
X119936Y402119D01*
X119878D01*
X119790Y402127D01*
X119710Y402134D01*
X119564Y402171D01*
X119433Y402221D01*
X119316Y402280D01*
X119229Y402331D01*
X119163Y402382D01*
X119119Y402418D01*
X119112Y402433D01*
X119105D01*
X119003Y402564D01*
X118922Y402710D01*
X118864Y402870D01*
X118821Y403016D01*
X118799Y403147D01*
X118784Y403206D01*
X118777Y403257D01*
Y403300D01*
X118769Y403330D01*
Y403351D01*
Y403359D01*
X121503D01*
X121511Y403432D01*
Y401609D01*
D02*
G37*
G36*
X88968Y404912D02*
X89048Y404904D01*
X89201Y404860D01*
X89332Y404802D01*
X89442Y404737D01*
X89529Y404671D01*
X89595Y404613D01*
X89631Y404569D01*
X89646Y404562D01*
Y404554D01*
X89711Y404459D01*
X89770Y404350D01*
X89806Y404241D01*
X89843Y404124D01*
X89865Y404029D01*
X89879Y403942D01*
Y403913D01*
X89886Y403891D01*
Y403876D01*
Y403869D01*
X87838D01*
X87860Y404037D01*
X87904Y404190D01*
X87955Y404321D01*
X88013Y404423D01*
X88064Y404511D01*
X88115Y404576D01*
X88144Y404613D01*
X88159Y404627D01*
X88275Y404722D01*
X88392Y404795D01*
X88516Y404846D01*
X88633Y404882D01*
X88727Y404904D01*
X88807Y404912D01*
X88837Y404919D01*
X88880D01*
X88968Y404912D01*
D02*
G37*
G36*
X90543Y401609D02*
X88910D01*
X89136Y401624D01*
X89340Y401660D01*
X89522Y401704D01*
X89595Y401733D01*
X89668Y401762D01*
X89733Y401791D01*
X89792Y401821D01*
X89835Y401842D01*
X89879Y401864D01*
X89908Y401886D01*
X89930Y401901D01*
X89945Y401915D01*
X89952D01*
X90098Y402046D01*
X90215Y402185D01*
X90317Y402331D01*
X90390Y402469D01*
X90448Y402593D01*
X90470Y402652D01*
X90491Y402695D01*
X90506Y402739D01*
X90513Y402768D01*
X90521Y402783D01*
Y402790D01*
X89879Y402870D01*
X89821Y402732D01*
X89755Y402615D01*
X89690Y402513D01*
X89631Y402433D01*
X89580Y402375D01*
X89536Y402331D01*
X89500Y402302D01*
X89493Y402294D01*
X89398Y402236D01*
X89303Y402192D01*
X89201Y402163D01*
X89114Y402141D01*
X89034Y402127D01*
X88968Y402119D01*
X88910D01*
X88822Y402127D01*
X88742Y402134D01*
X88596Y402171D01*
X88465Y402221D01*
X88348Y402280D01*
X88261Y402331D01*
X88195Y402382D01*
X88151Y402418D01*
X88144Y402433D01*
X88137D01*
X88035Y402564D01*
X87955Y402710D01*
X87896Y402870D01*
X87853Y403016D01*
X87831Y403147D01*
X87816Y403206D01*
X87809Y403257D01*
Y403300D01*
X87801Y403330D01*
Y403351D01*
Y403359D01*
X90535D01*
X90543Y403432D01*
Y401609D01*
D02*
G37*
G36*
X123792Y403111D02*
X123741Y402965D01*
X123690Y402834D01*
X123654Y402710D01*
X123617Y402615D01*
X123595Y402528D01*
X123574Y402469D01*
X123566Y402433D01*
X123559Y402418D01*
X123515Y402557D01*
X123479Y402695D01*
X123435Y402819D01*
X123399Y402929D01*
X123369Y403023D01*
X123348Y403096D01*
X123340Y403118D01*
X123333Y403140D01*
X123326Y403147D01*
Y403155D01*
X122538Y405349D01*
X124601D01*
X123792Y403111D01*
D02*
G37*
G36*
X115802Y406165D02*
X115970Y406136D01*
X116116Y406100D01*
X116225Y406056D01*
X116320Y406012D01*
X116378Y405976D01*
X116415Y405947D01*
X116429Y405939D01*
X116517Y405845D01*
X116582Y405750D01*
X116626Y405648D01*
X116663Y405560D01*
X116677Y405473D01*
X116684Y405407D01*
X116692Y405364D01*
Y405356D01*
Y405349D01*
X116684Y405261D01*
X116670Y405174D01*
X116648Y405101D01*
X116626Y405035D01*
X116597Y404977D01*
X116575Y404933D01*
X116561Y404904D01*
X116553Y404897D01*
X116502Y404824D01*
X116437Y404758D01*
X116371Y404707D01*
X116305Y404664D01*
X116247Y404635D01*
X116203Y404613D01*
X116174Y404598D01*
X116160Y404591D01*
X116058Y404562D01*
X115941Y404540D01*
X115824Y404525D01*
X115708Y404518D01*
X115606Y404511D01*
X115518Y404503D01*
X114016D01*
Y406173D01*
X115606D01*
X115802Y406165D01*
D02*
G37*
G36*
X84834Y406165D02*
X85002Y406136D01*
X85148Y406100D01*
X85257Y406056D01*
X85352Y406012D01*
X85410Y405976D01*
X85447Y405947D01*
X85461Y405939D01*
X85549Y405845D01*
X85615Y405750D01*
X85658Y405648D01*
X85695Y405560D01*
X85709Y405473D01*
X85717Y405407D01*
X85724Y405364D01*
Y405356D01*
Y405349D01*
X85717Y405261D01*
X85702Y405174D01*
X85680Y405101D01*
X85658Y405035D01*
X85629Y404977D01*
X85607Y404933D01*
X85593Y404904D01*
X85585Y404897D01*
X85534Y404824D01*
X85469Y404758D01*
X85403Y404707D01*
X85338Y404664D01*
X85279Y404635D01*
X85235Y404613D01*
X85206Y404598D01*
X85192Y404591D01*
X85090Y404562D01*
X84973Y404540D01*
X84856Y404525D01*
X84740Y404518D01*
X84638Y404511D01*
X84550Y404503D01*
X83048D01*
Y406173D01*
X84638D01*
X84834Y406165D01*
D02*
G37*
G36*
X135332Y404904D02*
X135471Y404868D01*
X135588Y404810D01*
X135689Y404751D01*
X135770Y404685D01*
X135828Y404627D01*
X135864Y404591D01*
X135879Y404584D01*
Y404576D01*
X135930Y404511D01*
X135974Y404430D01*
X136047Y404270D01*
X136098Y404088D01*
X136127Y403920D01*
X136149Y403767D01*
X136156Y403694D01*
Y403636D01*
X136163Y403585D01*
Y403548D01*
Y403526D01*
Y403519D01*
Y403395D01*
X136149Y403271D01*
X136134Y403162D01*
X136120Y403060D01*
X136098Y402965D01*
X136069Y402878D01*
X136039Y402805D01*
X136018Y402732D01*
X135988Y402673D01*
X135959Y402615D01*
X135937Y402571D01*
X135908Y402535D01*
X135894Y402506D01*
X135879Y402484D01*
X135864Y402477D01*
Y402469D01*
X135806Y402411D01*
X135748Y402353D01*
X135631Y402265D01*
X135515Y402207D01*
X135405Y402163D01*
X135310Y402141D01*
X135230Y402127D01*
X135201Y402119D01*
X135165D01*
X135070Y402127D01*
X134990Y402141D01*
X134902Y402163D01*
X134829Y402192D01*
X134691Y402273D01*
X134581Y402360D01*
X134487Y402440D01*
X134421Y402520D01*
X134399Y402550D01*
X134385Y402571D01*
X134370Y402586D01*
Y402593D01*
X134341Y402652D01*
X134312Y402717D01*
X134268Y402863D01*
X134239Y403023D01*
X134217Y403176D01*
X134202Y403315D01*
Y403381D01*
X134195Y403432D01*
Y403475D01*
Y403512D01*
Y403534D01*
Y403541D01*
Y403665D01*
X134210Y403774D01*
X134224Y403884D01*
X134239Y403986D01*
X134261Y404073D01*
X134290Y404161D01*
X134312Y404234D01*
X134341Y404306D01*
X134370Y404365D01*
X134392Y404416D01*
X134421Y404459D01*
X134443Y404496D01*
X134458Y404525D01*
X134472Y404547D01*
X134487Y404554D01*
Y404562D01*
X134545Y404627D01*
X134603Y404678D01*
X134662Y404729D01*
X134720Y404766D01*
X134837Y404831D01*
X134946Y404875D01*
X135041Y404897D01*
X135121Y404912D01*
X135150Y404919D01*
X135259D01*
X135332Y404904D01*
D02*
G37*
D10*
X203169Y349429D02*
G03*
X205906Y346693I2736J0D01*
G01*
X226772Y343937D02*
G03*
X224035Y346673I-2736J0D01*
G01*
X205906Y276890D02*
G03*
X203169Y274153I0J-2736D01*
G01*
X224035Y276909D02*
G03*
X226772Y279646I0J2736D01*
G01*
X37205Y222373D02*
G03*
X37205Y222373I-197J0D01*
G01*
X191339Y251161D02*
Y372421D01*
X154331Y251161D02*
X203150D01*
X154331Y372421D02*
X203150D01*
X226772Y279646D02*
Y343937D01*
X154331Y251161D02*
Y372421D01*
X154331Y284232D02*
X191339D01*
X203150Y251161D02*
Y372421D01*
X154331Y339350D02*
X191339D01*
X205906Y346693D02*
X224016D01*
X205906Y276890D02*
X224016D01*
X31284Y349606D02*
Y375590D01*
Y349606D02*
X57268D01*
Y375590D01*
X31284D02*
X57268D01*
D11*
X46038Y39074D02*
G03*
X44072Y35519I2042J-3450D01*
G01*
X107006Y43723D02*
G03*
X105015Y41807I5681J-7897D01*
G01*
X115179Y43717D02*
G03*
X113143Y41801I4894J-7239D01*
G01*
X78343Y33501D02*
G03*
X80222Y33149I1810J4480D01*
G01*
X38473Y44710D02*
G03*
X37305Y43594I4338J-5714D01*
G01*
X10602Y33144D02*
G03*
X13111Y33423I99J10542D01*
G01*
X80222Y45775D02*
G03*
X77796Y45312I-73J-6206D01*
G01*
X82085Y44049D02*
G03*
X78343Y44049I-1871J-4807D01*
G01*
X77796Y32246D02*
G03*
X82706Y32246I2455J6225D01*
G01*
X10593Y31775D02*
G03*
X14140Y32332I290J9713D01*
G01*
X99426Y43402D02*
G03*
X97770Y45339I-3181J-1043D01*
G01*
X84591Y43923D02*
G03*
X82704Y45298I-3875J-3337D01*
G01*
X77796Y45312D02*
G03*
X75908Y43946I1987J-4733D01*
G01*
X16365Y33944D02*
G03*
X17508Y36531I-5077J3789D01*
G01*
X117337Y44394D02*
G03*
X115179Y43717I49J-3931D01*
G01*
X114130Y44531D02*
G03*
X113032Y43335I3985J-4762D01*
G01*
X109086Y44400D02*
G03*
X107006Y43723I30J-3625D01*
G01*
X98404Y40811D02*
G03*
X98240Y42417I-6970J97D01*
G01*
X95270Y44400D02*
G03*
X93079Y43731I25J-4004D01*
G01*
X92253Y44659D02*
G03*
X90965Y43455I5077J-6721D01*
G01*
X83532Y43000D02*
G03*
X82085Y44049I-2931J-2523D01*
G01*
X85799Y41729D02*
G03*
X84591Y43923I-5950J-1844D01*
G01*
X84597Y33621D02*
G03*
X85799Y35829I-4843J4067D01*
G01*
X82706Y32246D02*
G03*
X84597Y33621I-2008J4749D01*
G01*
X80222Y33149D02*
G03*
X82085Y33501I62J4787D01*
G01*
X75908Y43946D02*
G03*
X74704Y41754I4723J-4023D01*
G01*
X78343Y44049D02*
G03*
X76896Y43000I1484J-3571D01*
G01*
X74704Y35820D02*
G03*
X75917Y33612I6095J1911D01*
G01*
Y33612D02*
G03*
X77796Y32246I3811J3266D01*
G01*
X64231Y75986D02*
G03*
X64092Y76069I-137J-70D01*
G01*
X70721Y76776D02*
G03*
X70271Y75690I1086J-1086D01*
G01*
X47394Y39723D02*
G03*
X46903Y39532I2403J-6922D01*
G01*
X52682Y34686D02*
G03*
X53538Y35503I-6324J7484D01*
G01*
X48965Y33149D02*
G03*
X50343Y33364I19J4405D01*
G01*
X52144Y32815D02*
G03*
X53538Y33835I-4825J8054D01*
G01*
X45121Y43966D02*
G03*
X44823Y43404I3036J-1969D01*
G01*
X44393Y33983D02*
G03*
X45268Y32795I3210J1449D01*
G01*
X14140Y32332D02*
G03*
X16365Y33944I-1762J4774D01*
G01*
X3717Y36205D02*
G03*
X4428Y34488I6788J1804D01*
G01*
X8117Y33423D02*
G03*
X10602Y33144I2376J9967D01*
G01*
X116514Y45663D02*
G03*
X115310Y45278I972J-5120D01*
G01*
X117897Y44361D02*
G03*
X117625Y44386I-513J-4069D01*
G01*
X120821Y44031D02*
G03*
X119592Y45339I-2724J-1330D01*
G01*
X117691Y45775D02*
G03*
X116514Y45663I14J-6413D01*
G01*
X119824Y42716D02*
G03*
X119746Y42958I-3494J-984D01*
G01*
X107483Y45382D02*
G03*
X106323Y44684I2578J-5603D01*
G01*
X109465Y45775D02*
G03*
X108523Y45699I26J-6265D01*
G01*
X111696Y45175D02*
G03*
X109465Y45775I-2101J-3366D01*
G01*
X111621Y42443D02*
G03*
X111177Y43558I-2723J-437D01*
G01*
X90571Y76776D02*
G03*
X89485Y77226I-1086J-1086D01*
G01*
X89853Y75475D02*
G03*
X89270Y76061I-586J0D01*
G01*
X94629Y45688D02*
G03*
X93486Y45362I804J-4985D01*
G01*
X97149Y45581D02*
G03*
X95658Y45775I-1422J-5114D01*
G01*
X96734Y44185D02*
G03*
X95270Y44400I-1349J-4097D01*
G01*
X93079Y43731D02*
G03*
X90957Y41840I5620J-8444D01*
G01*
X82704Y45298D02*
G03*
X80222Y45775I-2401J-5799D01*
G01*
X82085Y33501D02*
G03*
X83532Y34566I-1460J3500D01*
G01*
X76896D02*
G03*
X78343Y33501I2907J2434D01*
G01*
X69905Y52826D02*
G03*
X70995Y53284I-6J1539D01*
G01*
X47198Y45446D02*
G03*
X46854Y45326I1521J-4929D01*
G01*
X49799Y44400D02*
G03*
X49083Y44377I-18J-10472D01*
G01*
X49291Y45766D02*
G03*
X48823Y45739I406J-11087D01*
G01*
X51826Y44091D02*
G03*
X49799Y44400I-1814J-5087D01*
G01*
X52166Y45432D02*
G03*
X49785Y45775I-2210J-6904D01*
G01*
X53761Y44445D02*
G03*
X52166Y45432I-2832J-2795D01*
G01*
X47168Y43928D02*
G03*
X46969Y43817I1201J-2386D01*
G01*
X53427Y41960D02*
G03*
X52942Y43240I-2861J-353D01*
G01*
X51938Y40346D02*
G03*
X51170Y40333I-10J-22573D01*
G01*
X49754Y40231D02*
G03*
X49105Y40143I1584J-13962D01*
G01*
X47258Y38276D02*
G03*
X46947Y38113I1790J-3795D01*
G01*
X49277Y38834D02*
G03*
X48811Y38757I1425J-10012D01*
G01*
X51444Y38971D02*
G03*
X50299Y38937I-29J-18137D01*
G01*
X46403Y33810D02*
G03*
X47026Y33473I1756J2500D01*
G01*
X50343Y33364D02*
G03*
X51600Y33922I-1937J6064D01*
G01*
X48229Y31775D02*
G03*
X49529Y31861I18J9536D01*
G01*
X50820Y32179D02*
G03*
X52144Y32815I-2493J6891D01*
G01*
X46584Y32040D02*
G03*
X48229Y31775I1606J4734D01*
G01*
X41186Y44400D02*
G03*
X40040Y44160I-5J-2836D01*
G01*
X40637Y45699D02*
G03*
X39588Y45382I724J-4275D01*
G01*
X38983Y43533D02*
G03*
X38049Y42657I4008J-5212D01*
G01*
X30027Y77112D02*
G03*
X29613Y76941I0J-586D01*
G01*
X29442Y54365D02*
G03*
X30978Y52826I1539J0D01*
G01*
X31497Y33384D02*
G03*
X32303Y33305I760J3647D01*
G01*
X29481Y32926D02*
G03*
X30318Y32179I1523J863D01*
G01*
X13111Y33423D02*
G03*
X14949Y34463I-858J3659D01*
G01*
X6280Y34454D02*
G03*
X8117Y33423I2759J2762D01*
G01*
X7693Y32126D02*
G03*
X10593Y31775I2693J10089D01*
G01*
X5691Y33080D02*
G03*
X7693Y32126I3606J4993D01*
G01*
X85799Y35829D02*
G03*
X85799Y41729I-10089J2950D01*
G01*
X84474Y36336D02*
G03*
X84474Y41249I-8699J2457D01*
G01*
X75962D02*
G03*
X75962Y36336I9006J-2457D01*
G01*
X74704Y41754D02*
G03*
X74704Y35820I10067J-2967D01*
G01*
X113032Y43335D02*
G03*
X111696Y45175I-3255J-958D01*
G01*
X46947Y38113D02*
G03*
X45466Y35656I1218J-2409D01*
G01*
X14949Y34463D02*
G03*
X16064Y36568I-3649J3281D01*
G01*
X5136Y36559D02*
G03*
X6280Y34454I4663J1169D01*
G01*
X3413Y38096D02*
G03*
X3717Y36205I9741J596D01*
G01*
X120015Y41532D02*
G03*
X119985Y41860I-7831J-547D01*
G01*
X121416Y40931D02*
G03*
X121379Y41852I-10813J29D01*
G01*
X121082Y43402D02*
G03*
X120821Y44031I-4170J-1357D01*
G01*
X119442Y43558D02*
G03*
X118998Y43985I-1379J-989D01*
G01*
X111749Y40811D02*
G03*
X111621Y42443I-8936J118D01*
G01*
X111177Y43558D02*
G03*
X110341Y44194I-1478J-1077D01*
G01*
X106323Y44684D02*
G03*
X105015Y43455I5427J-7082D01*
G01*
X99798Y40931D02*
G03*
X99757Y41852I-9743J23D01*
G01*
X97704Y43533D02*
G03*
X96734Y44185I-1698J-1477D01*
G01*
X91021Y75690D02*
G03*
X90571Y76776I-1536J0D01*
G01*
X84474Y41249D02*
G03*
X83532Y43000I-4665J-1382D01*
G01*
X83532Y34566D02*
G03*
X84474Y36336I-3870J3196D01*
G01*
X76896Y43000D02*
G03*
X75962Y41249I3650J-3072D01*
G01*
Y36336D02*
G03*
X76896Y34566I4736J1367D01*
G01*
X65812Y75999D02*
G03*
X65908Y76817I-572J481D01*
G01*
X53530Y40346D02*
G03*
X53427Y41960I-11532J74D01*
G01*
X54932Y40811D02*
G03*
X54654Y42880I-7188J85D01*
G01*
X54654D02*
G03*
X53761Y44445I-3666J-1054D01*
G01*
X52942Y43240D02*
G03*
X51826Y44091I-1997J-1463D01*
G01*
X48960Y76069D02*
G03*
X48546Y75898I0J-586D01*
G01*
X47656Y76776D02*
G03*
X47206Y75690I1086J-1086D01*
G01*
X47385Y44027D02*
G03*
X47168Y43928I1176J-2867D01*
G01*
X47774Y33255D02*
G03*
X48051Y33209I987J5062D01*
G01*
X45466Y35656D02*
G03*
X46403Y33810I2132J-79D01*
G01*
X44072Y35519D02*
G03*
X44393Y33983I3608J-49D01*
G01*
X40040Y44160D02*
G03*
X38983Y43533I1981J-4541D01*
G01*
X38049Y42657D02*
G03*
X37305Y41654I5033J-4511D01*
G01*
X30415Y35798D02*
G03*
X30538Y34482I5670J-135D01*
G01*
X29107Y34170D02*
G03*
X29481Y32926I3208J286D01*
G01*
X29021Y35915D02*
G03*
X29107Y34170I15187J-123D01*
G01*
X17508Y36531D02*
G03*
X17837Y40000I-16160J3283D01*
G01*
X16064Y36568D02*
G03*
X16443Y40056I-12721J3148D01*
G01*
X4746Y40056D02*
G03*
X5136Y36559I12920J-328D01*
G01*
X4428Y34488D02*
G03*
X5691Y33080I4074J2384D01*
G01*
X3353Y39817D02*
G03*
X3362Y39252I28637J209D01*
G01*
X119985Y41860D02*
G03*
X119943Y42166I-6473J-725D01*
G01*
X119889Y42452D02*
G03*
X119824Y42716I-4321J-934D01*
G01*
X121268Y42675D02*
G03*
X121082Y43402I-5741J-1082D01*
G01*
X119943Y42166D02*
G03*
X119889Y42452I-5308J-851D01*
G01*
X121379Y41852D02*
G03*
X121268Y42675I-7915J-651D01*
G01*
X120038Y40811D02*
G03*
X120015Y41532I-10268J20D01*
G01*
X118814Y44093D02*
G03*
X118611Y44185I-1006J-1948D01*
G01*
X118611D02*
G03*
X118391Y44261I-925J-2347D01*
G01*
Y44261D02*
G03*
X118152Y44319I-822J-2828D01*
G01*
D02*
G03*
X117897Y44361I-688J-3400D01*
G01*
X119592Y45339D02*
G03*
X119033Y45581I-1521J-2745D01*
G01*
X118998Y43985D02*
G03*
X118814Y44093I-1079J-1621D01*
G01*
X119033Y45581D02*
G03*
X117691Y45775I-1282J-4138D01*
G01*
X119746Y42958D02*
G03*
X119657Y43180I-2812J-1009D01*
G01*
X119657Y43180D02*
G03*
X119555Y43379I-2255J-1019D01*
G01*
D02*
G03*
X119442Y43558I-1809J-1024D01*
G01*
X117625Y44386D02*
G03*
X117337Y44394I-285J-4842D01*
G01*
X115310Y45278D02*
G03*
X114130Y44531I2437J-5152D01*
G01*
X110341Y44194D02*
G03*
X109086Y44400I-1156J-3113D01*
G01*
X108523Y45699D02*
G03*
X107483Y45382I732J-4254D01*
G01*
X99757Y41852D02*
G03*
X99633Y42675I-7168J-660D01*
G01*
X99633Y42675D02*
G03*
X99426Y43401I-5262J-1107D01*
G01*
X97646Y52826D02*
G03*
X98062Y53003I-3J586D01*
G01*
X98229Y53423D02*
G03*
X97646Y54008I-586J0D01*
G01*
X98062Y53003D02*
G03*
X98229Y53423I-419J409D01*
G01*
X97769Y45339D02*
G03*
X97148Y45581I-1649J-3312D01*
G01*
X98240Y42418D02*
G03*
X97704Y43533I-2626J-574D01*
G01*
X95658Y45775D02*
G03*
X94629Y45688I24J-6455D01*
G01*
X93486Y45362D02*
G03*
X92253Y44659I2172J-5242D01*
G01*
X91021Y54591D02*
G03*
X91193Y54178I583J-0D01*
G01*
X91193Y54178D02*
G03*
X91606Y54008I411J413D01*
G01*
X89853Y54365D02*
G03*
X91389Y52826I1539J0D01*
G01*
X71807Y77226D02*
G03*
X70721Y76776I0J-1536D01*
G01*
X72022Y76061D02*
G03*
X71439Y75475I3J-586D01*
G01*
X70995Y53284D02*
G03*
X71439Y54379I-1095J1081D01*
G01*
X69685Y53997D02*
G03*
X70099Y54167I3J583D01*
G01*
D02*
G03*
X70271Y54580I-411J413D01*
G01*
X65908Y76817D02*
G03*
X65193Y77226I-667J-337D01*
G01*
X64217Y75824D02*
G03*
X64231Y75986I-123J92D01*
G01*
X54610Y52998D02*
G03*
X55024Y52826I414J414D01*
G01*
X54610Y53826D02*
G03*
X54439Y53412I414J-414D01*
G01*
X55024Y53997D02*
G03*
X54610Y53826I0J-586D01*
G01*
X54439Y53412D02*
G03*
X54610Y52998I586J0D01*
G01*
X51600Y33922D02*
G03*
X52682Y34686I-3738J6441D01*
G01*
X49785Y45775D02*
G03*
X49291Y45766I-20J-12910D01*
G01*
X51170Y40333D02*
G03*
X50443Y40295I648J-19334D01*
G01*
X50443Y40295D02*
G03*
X49754Y40231I1174J-16472D01*
G01*
X50299Y38937D02*
G03*
X49772Y38894I893J-14199D01*
G01*
X49772Y38894D02*
G03*
X49277Y38834I1199J-11962D01*
G01*
X49529Y31861D02*
G03*
X50820Y32179I-812J6080D01*
G01*
X48742Y77226D02*
G03*
X47656Y76776I0J-1536D01*
G01*
X48546Y75898D02*
G03*
X48374Y75484I414J-414D01*
G01*
X47377Y60046D02*
G03*
X47792Y59875I414J414D01*
G01*
X47206Y60461D02*
G03*
X47377Y60046I586J0D01*
G01*
X48205Y60047D02*
G03*
X48374Y60461I-413J411D01*
G01*
X47791Y59875D02*
G03*
X48205Y60047I0J583D01*
G01*
X48045Y54011D02*
G03*
X48168Y54075I-77J297D01*
G01*
X48045Y52826D02*
G03*
X49102Y53384I-59J1393D01*
G01*
X48149Y44254D02*
G03*
X47875Y44190I1015J-4948D01*
G01*
X47875Y44190D02*
G03*
X47621Y44115I1091J-4135D01*
G01*
X47621Y44115D02*
G03*
X47385Y44027I1142J-3445D01*
G01*
X47566Y45547D02*
G03*
X47198Y45446I1395J-5819D01*
G01*
X47960Y45629D02*
G03*
X47566Y45547I1233J-6864D01*
G01*
X49083Y44377D02*
G03*
X48753Y44348I563J-8255D01*
G01*
Y44348D02*
G03*
X48442Y44307I759J-6996D01*
G01*
X48823Y45739D02*
G03*
X48379Y45693I750J-9482D01*
G01*
X48442Y44307D02*
G03*
X48149Y44254I907J-5898D01*
G01*
X48379Y45693D02*
G03*
X47960Y45629I1022J-8079D01*
G01*
X47925Y39888D02*
G03*
X47394Y39723I2288J-8284D01*
G01*
X49105Y40143D02*
G03*
X48496Y40028I1895J-11778D01*
G01*
X48496Y40028D02*
G03*
X47925Y39888I2124J-9894D01*
G01*
X47973Y38550D02*
G03*
X47600Y38422I1748J-5663D01*
G01*
D02*
G03*
X47258Y38276I1778J-4641D01*
G01*
X48811Y38757D02*
G03*
X48377Y38662I1583J-8327D01*
G01*
X48377D02*
G03*
X47973Y38550I1687J-6885D01*
G01*
X47026Y33473D02*
G03*
X47511Y33315I1439J3578D01*
G01*
X47511Y33315D02*
G03*
X47774Y33255I1138J4426D01*
G01*
X48342Y33176D02*
G03*
X48647Y33156I582J6599D01*
G01*
X48647Y33156D02*
G03*
X48965Y33149I315J7513D01*
G01*
X48051Y33209D02*
G03*
X48342Y33176I804J5783D01*
G01*
X46854Y45326D02*
G03*
X46536Y45188I1620J-4180D01*
G01*
X45974Y44857D02*
G03*
X45121Y43966I1931J-2701D01*
G01*
X46536Y45188D02*
G03*
X45974Y44857I1602J-3361D01*
G01*
X46969Y43817D02*
G03*
X45854Y42047I1239J-2017D01*
G01*
X46903Y39532D02*
G03*
X46038Y39074I2300J-5393D01*
G01*
X45268Y32795D02*
G03*
X46584Y32040I2573J2958D01*
G01*
X44706Y43094D02*
G03*
X44611Y42764I4305J-1424D01*
G01*
X44823Y43404D02*
G03*
X44706Y43094I3764J-1594D01*
G01*
X44611Y42764D02*
G03*
X44485Y42047I5270J-1299D01*
G01*
X41554Y45775D02*
G03*
X40637Y45699I50J-6234D01*
G01*
X42106Y44367D02*
G03*
X41691Y44400I-401J-2378D01*
G01*
X39588Y45382D02*
G03*
X38473Y44710I2545J-5486D01*
G01*
X32811Y33309D02*
G03*
X32844Y33311I-97J1717D01*
G01*
X32844Y33311D02*
G03*
X32910Y33318I-111J1493D01*
G01*
X32910D02*
G03*
X32944Y33322I-160J1335D01*
G01*
X32177Y31935D02*
G03*
X32353Y31945I-231J5771D01*
G01*
X30610Y76526D02*
G03*
X30027Y77112I-586J0D01*
G01*
X30610Y54594D02*
G03*
X30782Y54181I583J-0D01*
G01*
D02*
G03*
X31196Y54011I411J413D01*
G01*
X30538Y34482D02*
G03*
X30900Y33727I1662J333D01*
G01*
D02*
G03*
X31497Y33384I814J725D01*
G01*
X30317Y32179D02*
G03*
X31765Y31928I1307J3240D01*
G01*
X29613Y76941D02*
G03*
X29442Y76526I414J-414D01*
G01*
X3362Y39252D02*
G03*
X3383Y38678I32744J884D01*
G01*
X57520Y33938D02*
X70324Y49553D01*
X48168Y54075D02*
X64217Y75824D01*
X49102Y53384D02*
X65812Y75999D01*
X48960Y76069D02*
X64092D01*
X48742Y77226D02*
X65193D01*
X91389Y52826D02*
X97646D01*
X91606Y54008D02*
X97646D01*
X55024Y52826D02*
X69905D01*
X55024Y53997D02*
X69685D01*
X58646Y50930D02*
X71751D01*
X58646Y49553D02*
X70324D01*
X57520Y32118D02*
X72108D01*
X58925Y33492D02*
X71751Y49090D01*
X71807Y77226D02*
X89485D01*
X72022Y76061D02*
X89270D01*
X58925Y33492D02*
X72108D01*
X30978Y52826D02*
X48045D01*
X31196Y54011D02*
X48045D01*
X27306Y44057D02*
X29021D01*
X27306Y45432D02*
X29021D01*
X103621D02*
X105015D01*
X103621Y32118D02*
X105015D01*
X89563Y50930D02*
X90957D01*
X89563Y32118D02*
X90957D01*
X51938Y40346D02*
X53530D01*
X51444Y38971D02*
X53538D01*
X44485Y42047D02*
X45854D01*
X29021Y48923D02*
X30415D01*
X35911Y45432D02*
X37305D01*
X30415Y44060D02*
X32615D01*
X30415Y45434D02*
X32615D01*
X31941Y31929D02*
X32000Y31930D01*
X35911Y32118D02*
X37305D01*
X22678Y50930D02*
X24072D01*
X22678Y32118D02*
X24072D01*
X16443Y50930D02*
X17837D01*
X3352D02*
X4746D01*
X120038Y32118D02*
Y40811D01*
X121416Y40931D02*
X121433Y32118D01*
X111749Y32112D02*
Y40811D01*
X113143Y32112D02*
Y41801D01*
X105015Y32118D02*
Y41807D01*
X103621Y32118D02*
Y45432D01*
X98404Y32118D02*
Y40811D01*
X99798Y32118D02*
Y40931D01*
X90957Y32118D02*
Y41840D01*
X89853Y54365D02*
Y75475D01*
X91021Y54591D02*
Y75690D01*
X89563Y32118D02*
Y50930D01*
X71439Y54379D02*
Y75475D01*
X70271Y54580D02*
Y75690D01*
X54932Y32118D02*
Y40811D01*
X47206Y60461D02*
Y75690D01*
X48374Y60461D02*
Y75484D01*
X37305Y32118D02*
Y41654D01*
X35911Y32118D02*
Y45432D01*
X30415Y35798D02*
Y44060D01*
X30610Y54594D02*
Y76526D01*
X29021Y35915D02*
Y44057D01*
X29442Y54365D02*
Y76526D01*
X24072Y32118D02*
Y50930D01*
X22678Y32118D02*
Y50930D01*
X17837Y40000D02*
Y50930D01*
X16443Y40056D02*
Y50930D01*
X4746Y40056D02*
Y50930D01*
X3352Y40003D02*
Y50930D01*
X105015Y43455D02*
Y45432D01*
X90957Y50930D02*
X90965Y43455D01*
X53538Y35503D02*
Y38971D01*
X37305Y43594D02*
Y45432D01*
X71751Y49090D02*
Y50930D01*
X72108Y32118D02*
Y33492D01*
X58646Y49553D02*
Y50930D01*
X57520Y32118D02*
Y33938D01*
X53538Y32118D02*
Y33835D01*
X32941Y31998D02*
X32944Y33322D01*
X30415Y45434D02*
Y48923D01*
X29021Y45432D02*
Y48923D01*
X120038Y32118D02*
X121433D01*
X111749Y32112D02*
X113143D01*
X98404Y32118D02*
X99798D01*
X53538D02*
X54932D01*
X41186Y44400D02*
X41691D01*
X41813Y45775D02*
X42092Y45750D01*
X42106Y44367D01*
X41554Y45775D02*
X41813D01*
X32615Y44060D02*
Y45434D01*
X32303Y33305D02*
X32632D01*
X32689Y33306D01*
X32718Y33306D01*
X32748Y33307D01*
X32779Y33308D01*
X32811Y33309D01*
X32765Y31979D02*
X32941Y31998D01*
X32647Y31968D02*
X32765Y31979D01*
X32529Y31958D02*
X32647Y31968D01*
X32412Y31949D02*
X32529Y31958D01*
X32353Y31945D02*
X32412Y31949D01*
X32118Y31933D02*
X32177Y31935D01*
X32059Y31931D02*
X32118Y31933D01*
X32000Y31930D02*
X32059Y31931D01*
X31882Y31929D02*
X31941Y31929D01*
X31823Y31928D02*
X31882Y31929D01*
X31765Y31928D02*
X31823Y31928D01*
X27306Y44057D02*
Y45432D01*
X3352Y40003D02*
X3353Y39817D01*
X3383Y38678D02*
X3413Y38096D01*
D12*
X15748Y105905D02*
X188976D01*
X15748Y165748D02*
X188976D01*
D13*
X13780Y207992D02*
X59528D01*
X13780Y83346D02*
Y207992D01*
Y83346D02*
X59528D01*
Y207992D01*
X128431Y172047D02*
Y219291D01*
X128433Y219291D02*
X203254D01*
X128433Y172047D02*
X203254D01*
X258471Y173031D02*
Y218307D01*
X203254Y172048D02*
Y219290D01*
X203260Y218307D02*
X258465D01*
X203260Y173031D02*
X258467D01*
X128431Y112205D02*
Y159449D01*
X128433Y159449D02*
X203254D01*
X128433Y112205D02*
X203254D01*
X258471Y113189D02*
Y158465D01*
X203254Y112206D02*
Y159448D01*
X203260Y158465D02*
X258465D01*
X203260Y113189D02*
X258467D01*
X128431Y52362D02*
Y99606D01*
X128433Y99606D02*
X203254D01*
X128433Y52362D02*
X203254D01*
X258471Y53347D02*
Y98622D01*
X203254Y52363D02*
Y99605D01*
X203260Y98622D02*
X258465D01*
X203260Y53347D02*
X258467D01*
X20965Y225562D02*
X53051D01*
Y345562D01*
X20965D02*
X53051D01*
X20965Y225562D02*
Y345562D01*
D14*
X57988Y343421D02*
Y347357D01*
X59956D01*
X60612Y346701D01*
Y345389D01*
X59956Y344733D01*
X57988D01*
X59300D02*
X60612Y343421D01*
X63892D02*
X62580D01*
X61924Y344077D01*
Y345389D01*
X62580Y346045D01*
X63892D01*
X64548Y345389D01*
Y344733D01*
X61924D01*
X65860Y343421D02*
X67827D01*
X68484Y344077D01*
X67827Y344733D01*
X66516D01*
X65860Y345389D01*
X66516Y346045D01*
X68484D01*
X70451Y343421D02*
X71763D01*
X72419Y344077D01*
Y345389D01*
X71763Y346045D01*
X70451D01*
X69795Y345389D01*
Y344077D01*
X70451Y343421D01*
X73731D02*
X75043D01*
X74387D01*
Y347357D01*
X73731D01*
X77011Y346045D02*
X78323Y343421D01*
X79635Y346045D01*
X82915Y343421D02*
X81603D01*
X80947Y344077D01*
Y345389D01*
X81603Y346045D01*
X82915D01*
X83570Y345389D01*
Y344733D01*
X80947D01*
X84882Y346045D02*
Y343421D01*
Y344733D01*
X85538Y345389D01*
X86194Y346045D01*
X86850D01*
X95824Y343421D02*
Y346045D01*
X97136Y347357D01*
X98448Y346045D01*
Y343421D01*
Y345389D01*
X95824D01*
X99760Y347357D02*
Y343421D01*
X101728D01*
X102384Y344077D01*
Y344733D01*
Y345389D01*
X101728Y346045D01*
X99760D01*
X103696Y343421D02*
X105663D01*
X106319Y344077D01*
X105663Y344733D01*
X104351D01*
X103696Y345389D01*
X104351Y346045D01*
X106319D01*
X108287Y343421D02*
X109599D01*
X110255Y344077D01*
Y345389D01*
X109599Y346045D01*
X108287D01*
X107631Y345389D01*
Y344077D01*
X108287Y343421D01*
X111567D02*
X112879D01*
X112223D01*
Y347357D01*
X111567D01*
X114847Y346045D02*
Y344077D01*
X115503Y343421D01*
X117471D01*
Y346045D01*
X119439Y346701D02*
Y346045D01*
X118783D01*
X120095D01*
X119439D01*
Y344077D01*
X120095Y343421D01*
X124030D02*
X122718D01*
X122062Y344077D01*
Y345389D01*
X122718Y346045D01*
X124030D01*
X124686Y345389D01*
Y344733D01*
X122062D01*
X99823Y277624D02*
X98823Y278624D01*
X96824D01*
X95824Y277624D01*
Y273626D01*
X96824Y272626D01*
X98823D01*
X99823Y273626D01*
X101822Y278624D02*
Y272626D01*
X105821D01*
X107820Y278624D02*
Y272626D01*
Y274625D01*
X111819Y278624D01*
X108820Y275625D01*
X111819Y272626D01*
X113818Y275625D02*
X117817D01*
X95824Y298624D02*
Y292626D01*
X98823D01*
X99823Y293626D01*
Y297624D01*
X98823Y298624D01*
X95824D01*
X101822Y292626D02*
Y296625D01*
X103822Y298624D01*
X105821Y296625D01*
Y292626D01*
Y295625D01*
X101822D01*
X107820Y298624D02*
X111819D01*
X109820D01*
Y292626D01*
X113818D02*
Y296625D01*
X115818Y298624D01*
X117817Y296625D01*
Y292626D01*
Y295625D01*
X113818D01*
X119816D02*
X123815D01*
X95824Y318624D02*
Y312626D01*
X98823D01*
X99823Y313626D01*
Y317624D01*
X98823Y318624D01*
X95824D01*
X101822Y312626D02*
Y316625D01*
X103822Y318624D01*
X105821Y316625D01*
Y312626D01*
Y315625D01*
X101822D01*
X107820Y318624D02*
X111819D01*
X109820D01*
Y312626D01*
X113818D02*
Y316625D01*
X115818Y318624D01*
X117817Y316625D01*
Y312626D01*
Y315625D01*
X113818D01*
X119816D02*
X123815D01*
X121816Y317624D02*
Y313626D01*
X95824Y258624D02*
Y254625D01*
X97823Y252626D01*
X99823Y254625D01*
Y258624D01*
X101822Y255625D02*
X105821D01*
X103822Y257624D02*
Y253626D01*
X99823Y337624D02*
X98823Y338624D01*
X96824D01*
X95824Y337624D01*
Y333626D01*
X96824Y332626D01*
X98823D01*
X99823Y333626D01*
Y335625D01*
X97823D01*
X101822Y332626D02*
Y338624D01*
X105821Y332626D01*
Y338624D01*
X107820D02*
Y332626D01*
X110819D01*
X111819Y333626D01*
Y337624D01*
X110819Y338624D01*
X107820D01*
X99823Y237624D02*
X98823Y238624D01*
X96824D01*
X95824Y237624D01*
Y233626D01*
X96824Y232626D01*
X98823D01*
X99823Y233626D01*
X101822Y238624D02*
Y232626D01*
X105821D01*
X107820Y238624D02*
Y232626D01*
Y234625D01*
X111819Y238624D01*
X108820Y235625D01*
X111819Y232626D01*
X113818Y235625D02*
X117817D01*
X115818Y237624D02*
Y233626D01*
X61987Y238624D02*
X57988D01*
Y232626D01*
X61987D01*
X57988Y235625D02*
X59987D01*
X63986Y238624D02*
X67985Y232626D01*
Y238624D02*
X63986Y232626D01*
X73983Y237624D02*
X72983Y238624D01*
X70984D01*
X69984Y237624D01*
Y233626D01*
X70984Y232626D01*
X72983D01*
X73983Y233626D01*
X61987Y337624D02*
X60987Y338624D01*
X58988D01*
X57988Y337624D01*
Y333626D01*
X58988Y332626D01*
X60987D01*
X61987Y333626D01*
X66985Y338624D02*
X64986D01*
X63986Y337624D01*
Y333626D01*
X64986Y332626D01*
X66985D01*
X67985Y333626D01*
Y337624D01*
X66985Y338624D01*
X73983Y337624D02*
X72983Y338624D01*
X70984D01*
X69984Y337624D01*
Y336625D01*
X70984Y335625D01*
X72983D01*
X73983Y334625D01*
Y333626D01*
X72983Y332626D01*
X70984D01*
X69984Y333626D01*
X75982Y335625D02*
X79981D01*
X65173Y152575D02*
Y158573D01*
X68172D01*
X69172Y157573D01*
Y155574D01*
X68172Y154574D01*
X65173D01*
X75170Y158573D02*
X71171D01*
Y152575D01*
X75170D01*
X71171Y155574D02*
X73171D01*
X69172Y197384D02*
X68172Y198384D01*
X66173D01*
X65173Y197384D01*
Y193386D01*
X66173Y192386D01*
X68172D01*
X69172Y193386D01*
X65173Y138888D02*
Y132890D01*
X68172D01*
X69172Y133889D01*
Y134889D01*
X68172Y135889D01*
X65173D01*
X68172D01*
X69172Y136889D01*
Y137888D01*
X68172Y138888D01*
X65173D01*
X61987Y258624D02*
X57988D01*
Y252626D01*
X61987D01*
X57988Y255625D02*
X59987D01*
X63986Y258624D02*
X67985Y252626D01*
Y258624D02*
X63986Y252626D01*
X73983Y257624D02*
X72983Y258624D01*
X70984D01*
X69984Y257624D01*
Y253626D01*
X70984Y252626D01*
X72983D01*
X73983Y253626D01*
X75982Y255625D02*
X79981D01*
X65173Y92535D02*
Y96534D01*
X67173Y98533D01*
X69172Y96534D01*
Y92535D01*
Y95534D01*
X65173D01*
X61987Y317624D02*
X60987Y318624D01*
X58988D01*
X57988Y317624D01*
Y313626D01*
X58988Y312626D01*
X60987D01*
X61987Y313626D01*
X66985Y318624D02*
X64986D01*
X63986Y317624D01*
Y313626D01*
X64986Y312626D01*
X66985D01*
X67985Y313626D01*
Y317624D01*
X66985Y318624D01*
X73983Y317624D02*
X72983Y318624D01*
X70984D01*
X69984Y317624D01*
Y316625D01*
X70984Y315625D01*
X72983D01*
X73983Y314625D01*
Y313626D01*
X72983Y312626D01*
X70984D01*
X69984Y313626D01*
X61987Y297624D02*
X60987Y298624D01*
X58988D01*
X57988Y297624D01*
Y296625D01*
X58988Y295625D01*
X60987D01*
X61987Y294625D01*
Y293626D01*
X60987Y292626D01*
X58988D01*
X57988Y293626D01*
X63986Y298624D02*
X65986D01*
X64986D01*
Y292626D01*
X63986D01*
X65986D01*
X68985D02*
Y298624D01*
X72983Y292626D01*
Y298624D01*
X74983Y295625D02*
X78981D01*
X61987Y277624D02*
X60987Y278624D01*
X58988D01*
X57988Y277624D01*
Y276625D01*
X58988Y275625D01*
X60987D01*
X61987Y274625D01*
Y273626D01*
X60987Y272626D01*
X58988D01*
X57988Y273626D01*
X63986Y278624D02*
X65986D01*
X64986D01*
Y272626D01*
X63986D01*
X65986D01*
X68985D02*
Y278624D01*
X72983Y272626D01*
Y278624D01*
X14665Y221104D02*
X12665D01*
X13665D01*
Y216106D01*
X12665Y215106D01*
X11666D01*
X10666Y216106D01*
X16664Y221104D02*
X20663D01*
Y220105D01*
X16664Y216106D01*
Y215106D01*
X21965Y358601D02*
X19965D01*
X20965D01*
Y353603D01*
X19965Y352603D01*
X18966D01*
X17966Y353603D01*
X23964Y357601D02*
X24964Y358601D01*
X26963D01*
X27963Y357601D01*
Y356602D01*
X26963Y355602D01*
X27963Y354603D01*
Y353603D01*
X26963Y352603D01*
X24964D01*
X23964Y353603D01*
Y354603D01*
X24964Y355602D01*
X23964Y356602D01*
Y357601D01*
X24964Y355602D02*
X26963D01*
X177741Y383314D02*
X175741D01*
X176741D01*
Y378316D01*
X175741Y377316D01*
X174741D01*
X173742Y378316D01*
X183739Y383314D02*
X181739Y382314D01*
X179740Y380315D01*
Y378316D01*
X180739Y377316D01*
X182739D01*
X183739Y378316D01*
Y379315D01*
X182739Y380315D01*
X179740D01*
X117456Y213312D02*
Y211313D01*
Y212313D01*
X122454D01*
X123454Y211313D01*
Y210313D01*
X122454Y209313D01*
X118456Y215312D02*
X117456Y216311D01*
Y218310D01*
X118456Y219310D01*
X119455D01*
X120455Y218310D01*
Y217311D01*
Y218310D01*
X121455Y219310D01*
X122454D01*
X123454Y218310D01*
Y216311D01*
X122454Y215312D01*
X117456Y154143D02*
Y152144D01*
Y153143D01*
X122454D01*
X123454Y152144D01*
Y151144D01*
X122454Y150144D01*
X123454Y160141D02*
Y156142D01*
X119455Y160141D01*
X118456D01*
X117456Y159141D01*
Y157142D01*
X118456Y156142D01*
X117473Y95670D02*
Y93671D01*
Y94670D01*
X122472D01*
X123471Y93671D01*
Y92671D01*
X122472Y91671D01*
X123471Y97669D02*
Y99669D01*
Y98669D01*
X117473D01*
X118473Y97669D01*
X35365Y384505D02*
X34365Y385504D01*
X32366D01*
X31366Y384505D01*
Y383505D01*
X32366Y382505D01*
X34365D01*
X35365Y381506D01*
Y380506D01*
X34365Y379506D01*
X32366D01*
X31366Y380506D01*
X40363Y379506D02*
X38364D01*
X37364Y380506D01*
Y382505D01*
X38364Y383505D01*
X40363D01*
X41363Y382505D01*
Y381506D01*
X37364D01*
X43362Y383505D02*
Y379506D01*
Y381506D01*
X44362Y382505D01*
X45361Y383505D01*
X46361D01*
X49360Y379506D02*
X51359D01*
X50360D01*
Y383505D01*
X49360D01*
X55358D02*
X57358D01*
X58357Y382505D01*
Y379506D01*
X55358D01*
X54359Y380506D01*
X55358Y381506D01*
X58357D01*
X60357Y379506D02*
X62356D01*
X61356D01*
Y385504D01*
X60357D01*
D15*
X146555Y334587D02*
Y332619D01*
Y333603D01*
X152459D01*
X151475Y334587D01*
X152459Y288013D02*
Y291949D01*
X149507D01*
X150491Y289981D01*
Y288997D01*
X149507Y288013D01*
X147539D01*
X146555Y288997D01*
Y290965D01*
X147539Y291949D01*
X184547Y297402D02*
X183563Y296418D01*
Y294450D01*
X184547Y293466D01*
X188483D01*
X189467Y294450D01*
Y296418D01*
X188483Y297402D01*
X187499D01*
X186515Y296418D01*
Y293466D01*
X189467Y326182D02*
X188483Y328150D01*
X186515Y330118D01*
X184547D01*
X183563Y329134D01*
Y327166D01*
X184547Y326182D01*
X185531D01*
X186515Y327166D01*
Y330118D01*
D16*
X121060Y198422D02*
X119093Y200390D01*
X115157D01*
X113189Y198422D01*
Y190550D01*
X115157Y188583D01*
X119093D01*
X121060Y190550D01*
X113189Y141335D02*
Y129528D01*
X119093D01*
X121060Y131495D01*
Y133463D01*
X119093Y135431D01*
X113189D01*
X119093D01*
X121060Y137399D01*
Y139367D01*
X119093Y141335D01*
X113189D01*
Y70472D02*
Y78344D01*
X117125Y82280D01*
X121060Y78344D01*
Y70472D01*
Y76376D01*
X113189D01*
M02*
