G04*
G04 #@! TF.GenerationSoftware,Altium Limited,Altium Designer,25.8.1 (18)*
G04*
G04 Layer_Physical_Order=3*
G04 Layer_Color=16440176*
%FSLAX25Y25*%
%MOIN*%
G70*
G04*
G04 #@! TF.SameCoordinates,3E3247AC-293B-4C38-98CA-7CCBC5903F8F*
G04*
G04*
G04 #@! TF.FilePolarity,Positive*
G04*
G01*
G75*
%ADD29C,0.01968*%
%ADD30C,0.08268*%
%ADD31C,0.06653*%
%ADD35C,0.13287*%
%ADD37C,0.07677*%
%ADD38R,0.07677X0.07677*%
%ADD39C,0.01968*%
G36*
X188807Y172047D02*
X179235D01*
X179044Y172509D01*
X179130Y172596D01*
X179789Y173737D01*
X180130Y175010D01*
Y176328D01*
X179789Y177602D01*
X179130Y178743D01*
X178198Y179675D01*
X177056Y180334D01*
X175783Y180675D01*
X174465D01*
X173192Y180334D01*
X172050Y179675D01*
X171118Y178743D01*
X170459Y177602D01*
X170118Y176328D01*
Y175010D01*
X170459Y173737D01*
X171118Y172596D01*
X171204Y172509D01*
X171013Y172047D01*
X139235D01*
X139044Y172509D01*
X139130Y172596D01*
X139789Y173737D01*
X140130Y175010D01*
Y176328D01*
X139789Y177602D01*
X139130Y178743D01*
X138198Y179675D01*
X137056Y180334D01*
X135783Y180675D01*
X134465D01*
X133192Y180334D01*
X132050Y179675D01*
X131118Y178743D01*
X130459Y177602D01*
X130118Y176328D01*
Y175010D01*
X130459Y173737D01*
X131118Y172596D01*
X131204Y172509D01*
X131013Y172047D01*
X41552D01*
X41342Y172547D01*
X41961Y173618D01*
X42323Y174970D01*
Y176369D01*
X41961Y177721D01*
X41261Y178933D01*
X40271Y179922D01*
X39059Y180622D01*
X37708Y180984D01*
X36308D01*
X34956Y180622D01*
X33744Y179922D01*
X32755Y178933D01*
X32055Y177721D01*
X31693Y176369D01*
Y174970D01*
X32055Y173618D01*
X32673Y172547D01*
X32463Y172047D01*
X13780D01*
Y219291D01*
X131013D01*
X131204Y218829D01*
X131118Y218743D01*
X130459Y217602D01*
X130118Y216328D01*
Y215010D01*
X130459Y213737D01*
X131118Y212596D01*
X132050Y211663D01*
X133192Y211004D01*
X134465Y210663D01*
X135783D01*
X137056Y211004D01*
X138198Y211663D01*
X139130Y212596D01*
X139789Y213737D01*
X140130Y215010D01*
Y216328D01*
X139789Y217602D01*
X139130Y218743D01*
X139044Y218829D01*
X139235Y219291D01*
X171013D01*
X171204Y218829D01*
X171118Y218743D01*
X170459Y217602D01*
X170118Y216328D01*
Y215010D01*
X170459Y213737D01*
X171118Y212596D01*
X172050Y211663D01*
X173192Y211004D01*
X174465Y210663D01*
X175783D01*
X177056Y211004D01*
X178198Y211663D01*
X179130Y212596D01*
X179789Y213737D01*
X180130Y215010D01*
Y216328D01*
X179789Y217602D01*
X179130Y218743D01*
X179044Y218829D01*
X179235Y219291D01*
X188807D01*
Y172047D01*
D02*
G37*
G36*
Y112205D02*
X179235D01*
X179044Y112667D01*
X179130Y112753D01*
X179789Y113894D01*
X180130Y115168D01*
Y116486D01*
X179789Y117759D01*
X179130Y118901D01*
X178198Y119833D01*
X177056Y120492D01*
X175783Y120833D01*
X174465D01*
X173192Y120492D01*
X172050Y119833D01*
X171118Y118901D01*
X170459Y117759D01*
X170118Y116486D01*
Y115168D01*
X170459Y113894D01*
X171118Y112753D01*
X171204Y112667D01*
X171013Y112205D01*
X139235D01*
X139044Y112667D01*
X139130Y112753D01*
X139789Y113894D01*
X140130Y115168D01*
Y116486D01*
X139789Y117759D01*
X139130Y118901D01*
X138198Y119833D01*
X137056Y120492D01*
X135783Y120833D01*
X134465D01*
X133192Y120492D01*
X132050Y119833D01*
X131118Y118901D01*
X130459Y117759D01*
X130118Y116486D01*
Y115168D01*
X130459Y113894D01*
X131118Y112753D01*
X131204Y112667D01*
X131013Y112205D01*
X41722D01*
X41434Y112705D01*
X41961Y113618D01*
X42323Y114970D01*
Y116369D01*
X41961Y117721D01*
X41261Y118933D01*
X40271Y119922D01*
X39059Y120622D01*
X37708Y120984D01*
X36308D01*
X34956Y120622D01*
X33744Y119922D01*
X32755Y118933D01*
X32055Y117721D01*
X31693Y116369D01*
Y114970D01*
X32055Y113618D01*
X32582Y112705D01*
X32294Y112205D01*
X13780D01*
X13780Y159449D01*
X25185D01*
X25479Y159044D01*
X25296Y158481D01*
X25000Y156614D01*
Y154724D01*
X25296Y152857D01*
X25880Y151060D01*
X26738Y149376D01*
X27849Y147847D01*
X29185Y146510D01*
X30714Y145399D01*
X32399Y144541D01*
X34196Y143957D01*
X36063Y143661D01*
X37953D01*
X39820Y143957D01*
X41617Y144541D01*
X43301Y145399D01*
X44831Y146510D01*
X46167Y147847D01*
X47278Y149376D01*
X48136Y151060D01*
X48720Y152857D01*
X49016Y154724D01*
Y156614D01*
X48720Y158481D01*
X48537Y159044D01*
X48831Y159449D01*
X131013D01*
X131204Y158987D01*
X131118Y158901D01*
X130459Y157759D01*
X130118Y156486D01*
Y155168D01*
X130459Y153894D01*
X131118Y152753D01*
X132050Y151821D01*
X133192Y151162D01*
X134465Y150821D01*
X135783D01*
X137056Y151162D01*
X138198Y151821D01*
X139130Y152753D01*
X139789Y153894D01*
X140130Y155168D01*
Y156486D01*
X139789Y157759D01*
X139130Y158901D01*
X139044Y158987D01*
X139235Y159449D01*
X171013D01*
X171204Y158987D01*
X171118Y158901D01*
X170459Y157759D01*
X170118Y156486D01*
Y155168D01*
X170459Y153894D01*
X171118Y152753D01*
X172050Y151821D01*
X173192Y151162D01*
X174465Y150821D01*
X175783D01*
X177056Y151162D01*
X178198Y151821D01*
X179130Y152753D01*
X179789Y153894D01*
X180130Y155168D01*
Y156486D01*
X179789Y157759D01*
X179130Y158901D01*
X179044Y158987D01*
X179235Y159449D01*
X188807D01*
Y112205D01*
D02*
G37*
G36*
Y52362D02*
X179235D01*
X179044Y52824D01*
X179130Y52910D01*
X179789Y54052D01*
X180130Y55325D01*
Y56643D01*
X179789Y57916D01*
X179130Y59058D01*
X178198Y59990D01*
X177056Y60649D01*
X175783Y60990D01*
X174465D01*
X173192Y60649D01*
X172050Y59990D01*
X171118Y59058D01*
X170459Y57916D01*
X170118Y56643D01*
Y55325D01*
X170459Y54052D01*
X171118Y52910D01*
X171204Y52824D01*
X171013Y52362D01*
X139235D01*
X139044Y52824D01*
X139130Y52910D01*
X139789Y54052D01*
X140130Y55325D01*
Y56643D01*
X139789Y57916D01*
X139130Y59058D01*
X138198Y59990D01*
X137056Y60649D01*
X135783Y60990D01*
X134465D01*
X133192Y60649D01*
X132050Y59990D01*
X131118Y59058D01*
X130459Y57916D01*
X130118Y56643D01*
Y55325D01*
X130459Y54052D01*
X131118Y52910D01*
X131204Y52824D01*
X131013Y52362D01*
X13780D01*
Y99606D01*
X131013D01*
X131204Y99144D01*
X131118Y99058D01*
X130459Y97917D01*
X130118Y96643D01*
Y95325D01*
X130459Y94052D01*
X131118Y92910D01*
X132050Y91978D01*
X133192Y91319D01*
X134465Y90978D01*
X135783D01*
X137056Y91319D01*
X138198Y91978D01*
X139130Y92910D01*
X139789Y94052D01*
X140130Y95325D01*
Y96643D01*
X139789Y97917D01*
X139130Y99058D01*
X139044Y99144D01*
X139235Y99606D01*
X171013D01*
X171204Y99144D01*
X171118Y99058D01*
X170459Y97917D01*
X170118Y96643D01*
Y95325D01*
X170459Y94052D01*
X171118Y92910D01*
X172050Y91978D01*
X173192Y91319D01*
X174465Y90978D01*
X175783D01*
X177056Y91319D01*
X178198Y91978D01*
X179130Y92910D01*
X179789Y94052D01*
X180130Y95325D01*
Y96643D01*
X179789Y97917D01*
X179130Y99058D01*
X179044Y99144D01*
X179235Y99606D01*
X188807D01*
Y52362D01*
D02*
G37*
D29*
X56587Y255562D02*
X97047Y296023D01*
X37008Y255562D02*
X56587D01*
X97047Y296023D02*
X135614D01*
X37008Y295562D02*
X58291Y316846D01*
X135616D01*
X73237Y311791D02*
X160158D01*
X37008Y275562D02*
X73237Y311791D01*
X80807Y300886D02*
X160158D01*
X42913Y262992D02*
X80807Y300886D01*
X32283Y262992D02*
X42913D01*
X29921Y260630D02*
X32283Y262992D01*
X29921Y252433D02*
Y260630D01*
Y252433D02*
X37008Y245346D01*
Y235562D02*
Y245346D01*
Y315562D02*
X44142Y322697D01*
X160158D01*
X44420Y328150D02*
X171339D01*
X37008Y335562D02*
X44420Y328150D01*
D30*
X37008Y95669D02*
D03*
Y135669D02*
D03*
Y195669D02*
D03*
D31*
X160158Y300886D02*
D03*
Y311791D02*
D03*
Y322697D02*
D03*
X171339Y328150D02*
D03*
D35*
X150085Y195669D02*
D03*
Y135827D02*
D03*
Y75984D02*
D03*
D37*
X37008Y335562D02*
D03*
Y315562D02*
D03*
Y295562D02*
D03*
Y275562D02*
D03*
Y255562D02*
D03*
D38*
Y235562D02*
D03*
D39*
X135614Y296023D02*
D03*
X135616Y316846D02*
D03*
M02*
