G04*
G04 #@! TF.GenerationSoftware,Altium Limited,Altium Designer,25.8.1 (18)*
G04*
G04 Layer_Physical_Order=1*
G04 Layer_Color=255*
%FSLAX25Y25*%
%MOIN*%
G70*
G04*
G04 #@! TF.SameCoordinates,74FB8F21-3F6C-4FD0-A36C-1E4C98033481*
G04*
G04*
G04 #@! TF.FilePolarity,Positive*
G04*
G01*
G75*
%ADD26C,0.01968*%
%ADD27C,0.08268*%
%ADD28C,0.06653*%
%ADD29R,0.06653X0.06653*%
%ADD30C,0.18740*%
%ADD31C,0.21654*%
%ADD32C,0.13287*%
%ADD33C,0.07650*%
%ADD34C,0.07677*%
%ADD35R,0.07677X0.07677*%
G36*
X188807Y112205D02*
X182475D01*
X182198Y112620D01*
X182588Y113563D01*
X182886Y115062D01*
Y116591D01*
X182588Y118091D01*
X182003Y119503D01*
X181153Y120775D01*
X180072Y121856D01*
X178801Y122705D01*
X177388Y123291D01*
X175889Y123589D01*
X174360D01*
X172860Y123291D01*
X171447Y122705D01*
X170176Y121856D01*
X169095Y120775D01*
X168245Y119503D01*
X167660Y118091D01*
X167362Y116591D01*
Y115062D01*
X167660Y113563D01*
X168051Y112620D01*
X167773Y112205D01*
X142475D01*
X142198Y112620D01*
X142588Y113563D01*
X142886Y115062D01*
Y116591D01*
X142588Y118091D01*
X142003Y119503D01*
X141153Y120775D01*
X140072Y121856D01*
X138801Y122705D01*
X137388Y123291D01*
X135889Y123589D01*
X134360D01*
X132860Y123291D01*
X131447Y122705D01*
X130176Y121856D01*
X129095Y120775D01*
X128245Y119503D01*
X127660Y118091D01*
X127362Y116591D01*
Y115062D01*
X127660Y113563D01*
X128051Y112620D01*
X127773Y112205D01*
X44759D01*
X44481Y112620D01*
X44769Y113315D01*
X45079Y114874D01*
Y116464D01*
X44769Y118024D01*
X44160Y119492D01*
X43277Y120814D01*
X42153Y121938D01*
X40831Y122822D01*
X39362Y123430D01*
X37803Y123740D01*
X36213D01*
X34654Y123430D01*
X33185Y122822D01*
X31863Y121938D01*
X30739Y120814D01*
X29856Y119492D01*
X29247Y118024D01*
X28937Y116464D01*
Y114874D01*
X29247Y113315D01*
X29535Y112620D01*
X29257Y112205D01*
X23386D01*
Y142834D01*
X25197D01*
X25197Y142834D01*
X37008D01*
X39016Y142992D01*
X40974Y143463D01*
X42835Y144233D01*
X44552Y145286D01*
X46084Y146594D01*
X47392Y148125D01*
X48444Y149842D01*
X49215Y151703D01*
X49685Y153662D01*
X49843Y155669D01*
X49685Y157677D01*
X49354Y159056D01*
X49663Y159449D01*
X127773D01*
X128051Y159033D01*
X127660Y158091D01*
X127362Y156591D01*
Y155062D01*
X127660Y153563D01*
X128245Y152150D01*
X129095Y150879D01*
X130176Y149798D01*
X131447Y148948D01*
X132860Y148363D01*
X134360Y148065D01*
X135889D01*
X137388Y148363D01*
X138801Y148948D01*
X140072Y149798D01*
X141153Y150879D01*
X142003Y152150D01*
X142588Y153563D01*
X142886Y155062D01*
Y156591D01*
X142588Y158091D01*
X142198Y159033D01*
X142475Y159449D01*
X167773D01*
X168051Y159033D01*
X167660Y158091D01*
X167362Y156591D01*
Y155062D01*
X167660Y153563D01*
X168245Y152150D01*
X169095Y150879D01*
X170176Y149798D01*
X171447Y148948D01*
X172860Y148363D01*
X174360Y148065D01*
X175889D01*
X177388Y148363D01*
X178801Y148948D01*
X180072Y149798D01*
X181153Y150879D01*
X182003Y152150D01*
X182588Y153563D01*
X182886Y155062D01*
Y156591D01*
X182588Y158091D01*
X182198Y159033D01*
X182475Y159449D01*
X188807D01*
Y112205D01*
D02*
G37*
G36*
X188869Y52362D02*
X182475D01*
X182198Y52778D01*
X182588Y53720D01*
X182886Y55220D01*
Y56749D01*
X182588Y58248D01*
X182003Y59661D01*
X181153Y60932D01*
X180072Y62013D01*
X178801Y62863D01*
X177388Y63448D01*
X175889Y63746D01*
X174360D01*
X172860Y63448D01*
X171447Y62863D01*
X170176Y62013D01*
X169095Y60932D01*
X168245Y59661D01*
X167660Y58248D01*
X167362Y56749D01*
Y55220D01*
X167660Y53720D01*
X168051Y52778D01*
X167773Y52362D01*
X142475D01*
X142198Y52778D01*
X142588Y53720D01*
X142886Y55220D01*
Y56749D01*
X142588Y58248D01*
X142003Y59661D01*
X141153Y60932D01*
X140072Y62013D01*
X138801Y62863D01*
X137388Y63448D01*
X135889Y63746D01*
X134360D01*
X132860Y63448D01*
X131447Y62863D01*
X130176Y62013D01*
X129095Y60932D01*
X128245Y59661D01*
X127660Y58248D01*
X127362Y56749D01*
Y55220D01*
X127660Y53720D01*
X128051Y52778D01*
X127773Y52362D01*
X23386D01*
Y99606D01*
X127773D01*
X128051Y99191D01*
X127660Y98248D01*
X127362Y96749D01*
Y95220D01*
X127660Y93720D01*
X128245Y92308D01*
X129095Y91036D01*
X130176Y89955D01*
X131447Y89106D01*
X132860Y88520D01*
X134360Y88222D01*
X135889D01*
X137388Y88520D01*
X138801Y89106D01*
X140072Y89955D01*
X141153Y91036D01*
X142003Y92308D01*
X142588Y93720D01*
X142886Y95220D01*
Y96749D01*
X142588Y98248D01*
X142198Y99191D01*
X142475Y99606D01*
X167773D01*
X168051Y99191D01*
X167660Y98248D01*
X167362Y96749D01*
Y95220D01*
X167660Y93720D01*
X168245Y92308D01*
X169095Y91036D01*
X170176Y89955D01*
X171447Y89106D01*
X172860Y88520D01*
X174360Y88222D01*
X175889D01*
X177388Y88520D01*
X178801Y89106D01*
X180072Y89955D01*
X181153Y91036D01*
X182003Y92308D01*
X182588Y93720D01*
X182886Y95220D01*
Y96749D01*
X182588Y98248D01*
X182198Y99191D01*
X182475Y99606D01*
X188869D01*
Y52362D01*
D02*
G37*
G36*
X188807Y172047D02*
X182475D01*
X182198Y172463D01*
X182588Y173405D01*
X182886Y174905D01*
Y176434D01*
X182588Y177933D01*
X182003Y179346D01*
X181153Y180617D01*
X180072Y181698D01*
X178801Y182548D01*
X177388Y183133D01*
X175889Y183431D01*
X174360D01*
X172860Y183133D01*
X171447Y182548D01*
X170176Y181698D01*
X169095Y180617D01*
X168245Y179346D01*
X167660Y177933D01*
X167362Y176434D01*
Y174905D01*
X167660Y173405D01*
X168051Y172463D01*
X167773Y172047D01*
X142475D01*
X142198Y172463D01*
X142588Y173405D01*
X142886Y174905D01*
Y176434D01*
X142588Y177933D01*
X142003Y179346D01*
X141153Y180617D01*
X140072Y181698D01*
X138801Y182548D01*
X137388Y183133D01*
X135889Y183431D01*
X134360D01*
X132860Y183133D01*
X131447Y182548D01*
X130176Y181698D01*
X129095Y180617D01*
X128245Y179346D01*
X127660Y177933D01*
X127362Y176434D01*
Y174905D01*
X127660Y173405D01*
X128051Y172463D01*
X127773Y172047D01*
X44693D01*
X44416Y172463D01*
X44769Y173315D01*
X45079Y174874D01*
Y176464D01*
X44769Y178024D01*
X44160Y179492D01*
X43277Y180814D01*
X42153Y181938D01*
X40831Y182822D01*
X39362Y183430D01*
X37803Y183740D01*
X36213D01*
X34654Y183430D01*
X33185Y182822D01*
X31863Y181938D01*
X30739Y180814D01*
X29856Y179492D01*
X29247Y178024D01*
X28937Y176464D01*
Y174874D01*
X29247Y173315D01*
X29600Y172463D01*
X29322Y172047D01*
X22677D01*
Y219291D01*
X127773D01*
X128051Y218876D01*
X127660Y217933D01*
X127362Y216434D01*
Y214905D01*
X127660Y213405D01*
X128245Y211993D01*
X129095Y210721D01*
X130176Y209640D01*
X131447Y208791D01*
X132860Y208206D01*
X134360Y207907D01*
X135889D01*
X137388Y208206D01*
X138801Y208791D01*
X140072Y209640D01*
X141153Y210721D01*
X142003Y211993D01*
X142588Y213405D01*
X142886Y214905D01*
Y216434D01*
X142588Y217933D01*
X142198Y218876D01*
X142475Y219291D01*
X167773D01*
X168051Y218876D01*
X167660Y217933D01*
X167362Y216434D01*
Y214905D01*
X167660Y213405D01*
X168245Y211993D01*
X169095Y210721D01*
X170176Y209640D01*
X171447Y208791D01*
X172860Y208206D01*
X174360Y207907D01*
X175889D01*
X177388Y208206D01*
X178801Y208791D01*
X180072Y209640D01*
X181153Y210721D01*
X182003Y211993D01*
X182588Y213405D01*
X182886Y214905D01*
Y216434D01*
X182588Y217933D01*
X182198Y218876D01*
X182475Y219291D01*
X188807D01*
Y172047D01*
D02*
G37*
G36*
X188976Y225760D02*
X5472Y225544D01*
X5118Y225897D01*
Y373622D01*
X188976D01*
Y225760D01*
D02*
G37*
%LPC*%
G36*
X166710Y370748D02*
X164786D01*
X162900Y370373D01*
X161123Y369637D01*
X159524Y368568D01*
X158164Y367208D01*
X157096Y365609D01*
X156360Y363832D01*
X155984Y361946D01*
Y360023D01*
X156360Y358136D01*
X157096Y356359D01*
X158164Y354760D01*
X159524Y353400D01*
X161123Y352332D01*
X162900Y351596D01*
X164786Y351220D01*
X166710D01*
X168596Y351596D01*
X170373Y352332D01*
X171972Y353400D01*
X173332Y354760D01*
X174401Y356359D01*
X175137Y358136D01*
X175512Y360023D01*
Y361946D01*
X175137Y363832D01*
X174401Y365609D01*
X173332Y367208D01*
X171972Y368568D01*
X170373Y369637D01*
X168596Y370373D01*
X166710Y370748D01*
D02*
G37*
G36*
X37565Y339794D02*
X36451D01*
X35374Y339506D01*
X34409Y338949D01*
X33621Y338161D01*
X33064Y337196D01*
X32776Y336119D01*
Y335005D01*
X33064Y333929D01*
X33621Y332963D01*
X34409Y332175D01*
X35374Y331618D01*
X36451Y331330D01*
X37565D01*
X38642Y331618D01*
X39607Y332175D01*
X40394Y332963D01*
X40952Y333929D01*
X41240Y335005D01*
Y336119D01*
X40952Y337196D01*
X40394Y338161D01*
X39607Y338949D01*
X38642Y339506D01*
X37565Y339794D01*
D02*
G37*
G36*
X163878Y337323D02*
X156437D01*
Y329882D01*
X163878D01*
Y337323D01*
D02*
G37*
G36*
X171828Y331870D02*
X170849D01*
X169903Y331616D01*
X169054Y331127D01*
X168361Y330434D01*
X167872Y329586D01*
X167618Y328639D01*
Y327660D01*
X167872Y326714D01*
X168361Y325865D01*
X169054Y325172D01*
X169903Y324683D01*
X170849Y324429D01*
X171828D01*
X172775Y324683D01*
X173623Y325172D01*
X174316Y325865D01*
X174805Y326714D01*
X175059Y327660D01*
Y328639D01*
X174805Y329586D01*
X174316Y330434D01*
X173623Y331127D01*
X172775Y331616D01*
X171828Y331870D01*
D02*
G37*
G36*
X160647Y326417D02*
X159668D01*
X158721Y326164D01*
X157873Y325674D01*
X157180Y324981D01*
X156691Y324133D01*
X156437Y323187D01*
Y322207D01*
X156691Y321261D01*
X157180Y320412D01*
X157873Y319720D01*
X158721Y319230D01*
X159668Y318976D01*
X160647D01*
X161593Y319230D01*
X162442Y319720D01*
X163135Y320412D01*
X163624Y321261D01*
X163878Y322207D01*
Y323187D01*
X163624Y324133D01*
X163135Y324981D01*
X162442Y325674D01*
X161593Y326164D01*
X160647Y326417D01*
D02*
G37*
G36*
X171828Y320965D02*
X170849D01*
X169903Y320711D01*
X169054Y320221D01*
X168361Y319529D01*
X167872Y318680D01*
X167618Y317734D01*
Y316754D01*
X167872Y315808D01*
X168361Y314960D01*
X169054Y314267D01*
X169903Y313777D01*
X170849Y313524D01*
X171828D01*
X172775Y313777D01*
X173623Y314267D01*
X174316Y314960D01*
X174805Y315808D01*
X175059Y316754D01*
Y317734D01*
X174805Y318680D01*
X174316Y319529D01*
X173623Y320221D01*
X172775Y320711D01*
X171828Y320965D01*
D02*
G37*
G36*
X37565Y319795D02*
X36451D01*
X35374Y319506D01*
X34409Y318949D01*
X33621Y318161D01*
X33064Y317196D01*
X32776Y316119D01*
Y315005D01*
X33064Y313929D01*
X33621Y312964D01*
X34409Y312175D01*
X35374Y311618D01*
X36451Y311330D01*
X37565D01*
X38642Y311618D01*
X39607Y312175D01*
X40394Y312964D01*
X40952Y313929D01*
X41240Y315005D01*
Y316119D01*
X40952Y317196D01*
X40394Y318161D01*
X39607Y318949D01*
X38642Y319506D01*
X37565Y319795D01*
D02*
G37*
G36*
X160647Y315512D02*
X159668D01*
X158721Y315258D01*
X157873Y314769D01*
X157180Y314076D01*
X156691Y313227D01*
X156437Y312281D01*
Y311301D01*
X156691Y310355D01*
X157180Y309507D01*
X157873Y308814D01*
X158721Y308324D01*
X159668Y308071D01*
X160647D01*
X161593Y308324D01*
X162442Y308814D01*
X163135Y309507D01*
X163624Y310355D01*
X163878Y311301D01*
Y312281D01*
X163624Y313227D01*
X163135Y314076D01*
X162442Y314769D01*
X161593Y315258D01*
X160647Y315512D01*
D02*
G37*
G36*
X171828Y310059D02*
X170849D01*
X169903Y309805D01*
X169054Y309316D01*
X168361Y308623D01*
X167872Y307775D01*
X167618Y306828D01*
Y305849D01*
X167872Y304903D01*
X168361Y304054D01*
X169054Y303362D01*
X169903Y302872D01*
X170849Y302618D01*
X171828D01*
X172775Y302872D01*
X173623Y303362D01*
X174316Y304054D01*
X174805Y304903D01*
X175059Y305849D01*
Y306828D01*
X174805Y307775D01*
X174316Y308623D01*
X173623Y309316D01*
X172775Y309805D01*
X171828Y310059D01*
D02*
G37*
G36*
X160647Y304606D02*
X159668D01*
X158721Y304353D01*
X157873Y303863D01*
X157180Y303170D01*
X156691Y302322D01*
X156437Y301376D01*
Y300396D01*
X156691Y299450D01*
X157180Y298601D01*
X157873Y297909D01*
X158721Y297419D01*
X159668Y297165D01*
X160647D01*
X161593Y297419D01*
X162442Y297909D01*
X163135Y298601D01*
X163624Y299450D01*
X163878Y300396D01*
Y301376D01*
X163624Y302322D01*
X163135Y303170D01*
X162442Y303863D01*
X161593Y304353D01*
X160647Y304606D01*
D02*
G37*
G36*
X171828Y299153D02*
X170849D01*
X169903Y298900D01*
X169054Y298410D01*
X168361Y297717D01*
X167872Y296869D01*
X167618Y295923D01*
Y294943D01*
X167872Y293997D01*
X168361Y293149D01*
X169054Y292456D01*
X169903Y291966D01*
X170849Y291713D01*
X171828D01*
X172775Y291966D01*
X173623Y292456D01*
X174316Y293149D01*
X174805Y293997D01*
X175059Y294943D01*
Y295923D01*
X174805Y296869D01*
X174316Y297717D01*
X173623Y298410D01*
X172775Y298900D01*
X171828Y299153D01*
D02*
G37*
G36*
X37565Y299795D02*
X36451D01*
X35374Y299506D01*
X34409Y298949D01*
X33621Y298161D01*
X33064Y297196D01*
X32776Y296119D01*
Y295005D01*
X33064Y293929D01*
X33621Y292964D01*
X34409Y292176D01*
X35374Y291618D01*
X36451Y291330D01*
X37565D01*
X38642Y291618D01*
X39607Y292176D01*
X40394Y292964D01*
X40952Y293929D01*
X41240Y295005D01*
Y296119D01*
X40952Y297196D01*
X40394Y298161D01*
X39607Y298949D01*
X38642Y299506D01*
X37565Y299795D01*
D02*
G37*
G36*
X160647Y293701D02*
X159668D01*
X158721Y293447D01*
X157873Y292957D01*
X157180Y292265D01*
X156691Y291416D01*
X156437Y290470D01*
Y289491D01*
X156691Y288544D01*
X157180Y287696D01*
X157873Y287003D01*
X158721Y286513D01*
X159668Y286260D01*
X160647D01*
X161593Y286513D01*
X162442Y287003D01*
X163135Y287696D01*
X163624Y288544D01*
X163878Y289491D01*
Y290470D01*
X163624Y291416D01*
X163135Y292265D01*
X162442Y292957D01*
X161593Y293447D01*
X160647Y293701D01*
D02*
G37*
G36*
X37565Y279795D02*
X36451D01*
X35374Y279506D01*
X34409Y278949D01*
X33621Y278161D01*
X33064Y277196D01*
X32776Y276119D01*
Y275005D01*
X33064Y273929D01*
X33621Y272964D01*
X34409Y272176D01*
X35374Y271618D01*
X36451Y271330D01*
X37565D01*
X38642Y271618D01*
X39607Y272176D01*
X40394Y272964D01*
X40952Y273929D01*
X41240Y275005D01*
Y276119D01*
X40952Y277196D01*
X40394Y278161D01*
X39607Y278949D01*
X38642Y279506D01*
X37565Y279795D01*
D02*
G37*
G36*
X166710Y272362D02*
X164786D01*
X162900Y271987D01*
X161123Y271251D01*
X159524Y270182D01*
X158164Y268823D01*
X157096Y267223D01*
X156360Y265446D01*
X155984Y263560D01*
Y261637D01*
X156360Y259750D01*
X157096Y257974D01*
X158164Y256374D01*
X159524Y255014D01*
X161123Y253946D01*
X162900Y253210D01*
X164786Y252835D01*
X166710D01*
X168596Y253210D01*
X170373Y253946D01*
X171972Y255014D01*
X173332Y256374D01*
X174401Y257974D01*
X175137Y259750D01*
X175512Y261637D01*
Y263560D01*
X175137Y265446D01*
X174401Y267223D01*
X173332Y268823D01*
X171972Y270182D01*
X170373Y271251D01*
X168596Y271987D01*
X166710Y272362D01*
D02*
G37*
G36*
X37565Y259794D02*
X36451D01*
X35374Y259506D01*
X34409Y258949D01*
X33621Y258161D01*
X33064Y257196D01*
X32776Y256119D01*
Y255005D01*
X33064Y253929D01*
X33621Y252963D01*
X34409Y252175D01*
X35374Y251618D01*
X36451Y251330D01*
X37565D01*
X38642Y251618D01*
X39607Y252175D01*
X40394Y252963D01*
X40952Y253929D01*
X41240Y255005D01*
Y256119D01*
X40952Y257196D01*
X40394Y258161D01*
X39607Y258949D01*
X38642Y259506D01*
X37565Y259794D01*
D02*
G37*
G36*
X41240Y239794D02*
X32776D01*
Y231330D01*
X41240D01*
Y239794D01*
D02*
G37*
%LPD*%
D26*
X15807Y155453D02*
X16024Y155669D01*
X25197D01*
X25197Y155669D01*
X37008D01*
X10551Y150197D02*
X15807Y155453D01*
X9843Y161417D02*
Y376575D01*
Y161417D02*
X15807Y155453D01*
X10551Y45158D02*
Y150197D01*
X35433Y20276D02*
X185039D01*
X10551Y45158D02*
X35433Y20276D01*
X9843Y376575D02*
X35433Y402165D01*
X185039D01*
X37008Y295562D02*
X37758D01*
D27*
X37008Y95669D02*
D03*
Y115669D02*
D03*
Y135669D02*
D03*
Y155669D02*
D03*
Y175669D02*
D03*
Y195669D02*
D03*
D28*
X160158Y289980D02*
D03*
X171339Y295433D02*
D03*
X160158Y300886D02*
D03*
X171339Y306339D02*
D03*
X160158Y311791D02*
D03*
X171339Y317244D02*
D03*
X160158Y322697D02*
D03*
X171339Y328150D02*
D03*
D29*
X160158Y333602D02*
D03*
D30*
X165748Y360984D02*
D03*
Y262598D02*
D03*
D31*
X35433Y402165D02*
D03*
X185039Y20276D02*
D03*
X35433D02*
D03*
X185039Y402165D02*
D03*
D32*
X150085Y195669D02*
D03*
Y135827D02*
D03*
Y75984D02*
D03*
D33*
X175124Y175669D02*
D03*
X135124D02*
D03*
Y215669D02*
D03*
X175124D02*
D03*
Y115827D02*
D03*
X135124D02*
D03*
Y155827D02*
D03*
X175124D02*
D03*
Y55984D02*
D03*
X135124D02*
D03*
Y95984D02*
D03*
X175124D02*
D03*
D34*
X37008Y335562D02*
D03*
Y315562D02*
D03*
Y295562D02*
D03*
Y275562D02*
D03*
Y255562D02*
D03*
D35*
Y235562D02*
D03*
M02*
