M48
;Layer_Color=9474304
;FILE_FORMAT=2:5
INCH,TZ
;TYPE=PLATED
T1F00S00C0.04291
T2F00S00C0.05118
T3F00S00C0.05315
T4F00S00C0.05512
T5F00S00C0.08858
T6F00S00C0.12598
T7F00S00C0.12835
%
T01
X160158Y364784
Y375689
Y386595
Y397500
Y408405
X171339Y402953
Y392047
Y381142
Y370236
T02
X37008Y310365
Y330365
Y350365
Y370365
Y390365
Y410365
T03
X135124Y43987
X175124
Y83987
Y100287
X135124
Y83987
Y140287
X175124
Y156586
X135124
Y196586
Y212885
X175124
Y196586
Y252885
Y269184
X135124
Y252885
Y309184
X175124
T04
X37008Y135914
Y155914
Y175914
Y195914
Y215914
Y235914
T05
X150085Y63987
Y120287
Y176586
Y232885
Y289184
T06
X35433Y20276
X185039
Y476968
X35433
T07
X165748Y337402
Y435787
M30
