M48
;Layer_Color=9474304
;FILE_FORMAT=2:5
INCH,TZ
;TYPE=PLATED
T1F00S00C0.04291
T2F00S00C0.05118
T3F00S00C0.05315
T4F00S00C0.05512
T5F00S00C0.08858
T6F00S00C0.12598
T7F00S00C0.12835
%
T01
X160158Y289980
Y300886
Y311791
X171339Y306339
Y295433
Y317244
Y328150
X160158Y333602
Y322697
T02
X37008Y235562
Y255562
Y275562
Y295562
Y315562
Y335562
T03
X135124Y55984
X175124
Y95984
Y115827
X135124
Y95984
Y155827
X175124
Y175669
X135124
Y215669
X175124
T04
X37008Y95669
Y115669
Y135669
Y155669
Y175669
Y195669
T05
X150085Y75984
Y135827
Y195669
T06
X35433Y20276
X185039
X35433Y402165
X185039
T07
X165748Y262598
Y360984
M30
