ISO-10303-21;
HEADER;
FILE_DESCRIPTION (( 'STEP AP203' ),
    '1' );
FILE_NAME ('housing_cover_Rev01b.STEP',
    '2023-08-18T10:43:44',
    ( '' ),
    ( '' ),
    'SwSTEP 2.0',
    'SolidWorks 2022',
    '' );
FILE_SCHEMA (( 'CONFIG_CONTROL_DESIGN' ));
ENDSEC;

DATA;
#1 = DIRECTION ( 'NONE',  ( 0.000000000000000000, -1.000000000000000000, 0.000000000000000000 ) ) ;
#2 = CARTESIAN_POINT ( 'NONE',  ( -3.000000000000000000, 4.000000000000000000, -1.000000000000000000 ) ) ;
#3 = ORIENTED_EDGE ( 'NONE', *, *, #910, .T. ) ;
#4 = CARTESIAN_POINT ( 'NONE',  ( -2.000000000000000000, 2.549999999999999378, -79.00000000000000000 ) ) ;
#5 = ADVANCED_FACE ( 'NONE', ( #858 ), #801, .F. ) ;
#6 = CARTESIAN_POINT ( 'NONE',  ( -3.000000000000000000, 4.000000000000000000, -80.00000000000000000 ) ) ;
#7 = VERTEX_POINT ( 'NONE', #465 ) ;
#8 = DIRECTION ( 'NONE',  ( 0.000000000000000000, 0.000000000000000000, -1.000000000000000000 ) ) ;
#9 = ORIENTED_EDGE ( 'NONE', *, *, #920, .F. ) ;
#10 = CC_DESIGN_PERSON_AND_ORGANIZATION_ASSIGNMENT ( #1076, #1180, ( #518 ) ) ;
#11 = DIRECTION ( 'NONE',  ( 0.000000000000000000, -1.000000000000000000, 0.000000000000000000 ) ) ;
#12 = FACE_OUTER_BOUND ( 'NONE', #1277, .T. ) ;
#13 = VERTEX_POINT ( 'NONE', #368 ) ;
#14 = DIRECTION ( 'NONE',  ( -1.000000000000000000, 0.000000000000000000, -0.000000000000000000 ) ) ;
#15 = AXIS2_PLACEMENT_3D ( 'NONE', #2, #979, #501 ) ;
#16 = ORIENTED_EDGE ( 'NONE', *, *, #779, .F. ) ;
#17 = CONICAL_SURFACE ( 'NONE', #697, 3.149999999999999911, 0.7853981633974503884 ) ;
#18 = CARTESIAN_POINT ( 'NONE',  ( 114.0000000000000000, 2.549999999999999378, -79.00000000000000000 ) ) ;
#19 = VECTOR ( 'NONE', #751, 1000.000000000000000 ) ;
#20 = AXIS2_PLACEMENT_3D ( 'NONE', #1003, #1258, #364 ) ;
#21 = PLANE ( 'NONE',  #1173 ) ;
#22 = FACE_OUTER_BOUND ( 'NONE', #71, .T. ) ;
#23 = ORIENTED_EDGE ( 'NONE', *, *, #804, .F. ) ;
#24 = CARTESIAN_POINT ( 'NONE',  ( 2.000000000000000000, 0.000000000000000000, -2.000000000000000000 ) ) ;
#25 = EDGE_LOOP ( 'NONE', ( #921, #962, #1087, #136 ) ) ;
#26 = CARTESIAN_POINT ( 'NONE',  ( 110.0000000000000000, 0.000000000000000000, -2.000000000000000000 ) ) ;
#27 = DIRECTION ( 'NONE',  ( -0.000000000000000000, 1.000000000000000000, -0.000000000000000000 ) ) ;
#28 = DIRECTION ( 'NONE',  ( -0.000000000000000000, 1.000000000000000000, -0.000000000000000000 ) ) ;
#29 = EDGE_CURVE ( 'NONE', #415, #545, #753, .T. ) ;
#30 = ORIENTED_EDGE ( 'NONE', *, *, #822, .F. ) ;
#31 = CARTESIAN_POINT ( 'NONE',  ( -3.000000000000000000, 4.000000000000000000, -80.00000000000000000 ) ) ;
#32 = ORIENTED_EDGE ( 'NONE', *, *, #488, .T. ) ;
#33 = DIRECTION ( 'NONE',  ( 0.000000000000000000, 0.000000000000000000, 1.000000000000000000 ) ) ;
#34 = EDGE_CURVE ( 'NONE', #517, #550, #414, .T. ) ;
#35 = ORIENTED_EDGE ( 'NONE', *, *, #963, .T. ) ;
#36 = FACE_OUTER_BOUND ( 'NONE', #111, .T. ) ;
#37 = ADVANCED_FACE ( 'NONE', ( #482 ), #636, .F. ) ;
#38 = EDGE_LOOP ( 'NONE', ( #268, #1218, #159, #175 ) ) ;
#39 = VECTOR ( 'NONE', #571, 1000.000000000000000 ) ;
#40 = CARTESIAN_POINT ( 'NONE',  ( 112.0000000000000000, 2.000000000000000000, -78.00000000000000000 ) ) ;
#41 = AXIS2_PLACEMENT_3D ( 'NONE', #1009, #702, #1209 ) ;
#42 = VECTOR ( 'NONE', #487, 1000.000000000000114 ) ;
#43 = DIRECTION ( 'NONE',  ( 0.000000000000000000, 0.7071067811865460184, 0.7071067811865489050 ) ) ;
#44 = AXIS2_PLACEMENT_3D ( 'NONE', #631, #658, #775 ) ;
#45 = ORIENTED_EDGE ( 'NONE', *, *, #1182, .T. ) ;
#46 = CARTESIAN_POINT ( 'NONE',  ( 0.000000000000000000, 2.000000000000000000, 0.000000000000000000 ) ) ;
#47 = ORIENTED_EDGE ( 'NONE', *, *, #609, .F. ) ;
#48 = EDGE_CURVE ( 'NONE', #7, #918, #288, .T. ) ;
#49 = DIRECTION ( 'NONE',  ( 0.000000000000000000, 0.000000000000000000, 1.000000000000000000 ) ) ;
#50 = FACE_OUTER_BOUND ( 'NONE', #439, .T. ) ;
#51 = CARTESIAN_POINT ( 'NONE',  ( 114.0000000000000000, 4.000000000000000000, -79.00000000000000000 ) ) ;
#52 = ORIENTED_EDGE ( 'NONE', *, *, #1008, .F. ) ;
#53 = DIRECTION ( 'NONE',  ( -0.000000000000000000, -0.000000000000000000, 1.000000000000000000 ) ) ;
#54 = VERTEX_POINT ( 'NONE', #100 ) ;
#55 = CARTESIAN_POINT ( 'NONE',  ( 114.0000000000000000, 4.000000000000000000, -3.699999999999993072 ) ) ;
#56 = EDGE_CURVE ( 'NONE', #109, #486, #1293, .T. ) ;
#57 = PERSON ( 'UNSPECIFIED', 'UNSPECIFIED', 'UNSPECIFIED', ('UNSPECIFIED'), ('UNSPECIFIED'), ('UNSPECIFIED') ) ;
#58 = CARTESIAN_POINT ( 'NONE',  ( 3.000000000000000000, 0.000000000000000000, -81.00000000000000000 ) ) ;
#59 = ORIENTED_EDGE ( 'NONE', *, *, #194, .T. ) ;
#60 = DIRECTION ( 'NONE',  ( 0.000000000000000000, -1.000000000000000000, 0.000000000000000000 ) ) ;
#61 = ORIENTED_EDGE ( 'NONE', *, *, #779, .T. ) ;
#62 = DIRECTION ( 'NONE',  ( 0.000000000000000000, 0.000000000000000000, 1.000000000000000000 ) ) ;
#63 = AXIS2_PLACEMENT_3D ( 'NONE', #878, #107, #1181 ) ;
#64 = AXIS2_PLACEMENT_3D ( 'NONE', #125, #234, #248 ) ;
#65 = DIRECTION ( 'NONE',  ( -0.000000000000000000, -0.000000000000000000, 1.000000000000000000 ) ) ;
#66 = VECTOR ( 'NONE', #943, 999.9999999999998863 ) ;
#67 = ADVANCED_FACE ( 'NONE', ( #984 ), #383, .T. ) ;
#68 = AXIS2_PLACEMENT_3D ( 'NONE', #1010, #1204, #996 ) ;
#69 = DIRECTION ( 'NONE',  ( 0.000000000000000000, 0.000000000000000000, 1.000000000000000000 ) ) ;
#70 = DIRECTION ( 'NONE',  ( -0.000000000000000000, -1.000000000000000000, -0.000000000000000000 ) ) ;
#71 = EDGE_LOOP ( 'NONE', ( #297, #1006, #163, #1283 ) ) ;
#72 = CARTESIAN_POINT ( 'NONE',  ( 0.000000000000000000, 2.000000000000000000, -81.00000000000000000 ) ) ;
#73 =( LENGTH_UNIT ( ) NAMED_UNIT ( * ) SI_UNIT ( .MILLI., .METRE. ) );
#74 = VERTEX_POINT ( 'NONE', #881 ) ;
#75 = EDGE_CURVE ( 'NONE', #444, #553, #974, .T. ) ;
#76 = CARTESIAN_POINT ( 'NONE',  ( -2.000000000000000000, 4.000000000000000000, -2.000000000000000000 ) ) ;
#77 = EDGE_LOOP ( 'NONE', ( #320, #723, #675, #88 ) ) ;
#78 = DIRECTION ( 'NONE',  ( 0.000000000000000000, -1.000000000000000000, 0.000000000000000000 ) ) ;
#79 = APPROVAL_DATE_TIME ( #877, #738 ) ;
#80 = VERTEX_POINT ( 'NONE', #284 ) ;
#81 = ORIENTED_EDGE ( 'NONE', *, *, #319, .T. ) ;
#82 = CARTESIAN_POINT ( 'NONE',  ( -2.000000000000000000, 2.549999999999999378, -79.00000000000000000 ) ) ;
#83 = COORDINATED_UNIVERSAL_TIME_OFFSET ( 1, 0, .AHEAD. ) ;
#84 = CIRCLE ( 'NONE', #591, 3.000000000000000000 ) ;
#85 = CARTESIAN_POINT ( 'NONE',  ( 3.000000000000000000, 2.000000000000000000, -78.00000000000000000 ) ) ;
#86 = VECTOR ( 'NONE', #715, 1000.000000000000000 ) ;
#87 = VECTOR ( 'NONE', #917, 1000.000000000000000 ) ;
#88 = ORIENTED_EDGE ( 'NONE', *, *, #819, .T. ) ;
#89 = APPROVAL_PERSON_ORGANIZATION ( #161, #343, #770 ) ;
#90 = CARTESIAN_POINT ( 'NONE',  ( 112.0000000000000000, 0.000000000000000000, -3.000000000000000000 ) ) ;
#91 = EDGE_CURVE ( 'NONE', #486, #888, #398, .T. ) ;
#92 = PLANE ( 'NONE',  #1234 ) ;
#93 = LINE ( 'NONE', #1098, #1207 ) ;
#94 = ORIENTED_EDGE ( 'NONE', *, *, #217, .F. ) ;
#95 = DIRECTION ( 'NONE',  ( -0.000000000000000000, 1.000000000000000000, -0.000000000000000000 ) ) ;
#96 = DIRECTION ( 'NONE',  ( -0.000000000000000000, 1.000000000000000000, -0.000000000000000000 ) ) ;
#97 = ORIENTED_EDGE ( 'NONE', *, *, #1059, .F. ) ;
#98 = CARTESIAN_POINT ( 'NONE',  ( 114.0000000000000000, 2.000000000000000000, -2.000000000000000000 ) ) ;
#99 = CARTESIAN_POINT ( 'NONE',  ( 0.000000000000000000, 2.000000000000000000, 0.000000000000000000 ) ) ;
#100 = CARTESIAN_POINT ( 'NONE',  ( 118.0000000000000142, 2.000000000000000000, -80.00000000000000000 ) ) ;
#101 = ADVANCED_FACE ( 'NONE', ( #198 ), #1287, .F. ) ;
#102 = CONICAL_SURFACE ( 'NONE', #976, 3.149999999999999911, 0.7853981633974503884 ) ;
#103 = ORIENTED_EDGE ( 'NONE', *, *, #560, .F. ) ;
#104 = AXIS2_PLACEMENT_3D ( 'NONE', #808, #230, #137 ) ;
#105 = FACE_OUTER_BOUND ( 'NONE', #1196, .T. ) ;
#106 = VECTOR ( 'NONE', #903, 1000.000000000000000 ) ;
#107 = DIRECTION ( 'NONE',  ( -0.000000000000000000, 1.000000000000000000, -0.000000000000000000 ) ) ;
#108 = ADVANCED_FACE ( 'NONE', ( #189 ), #1038, .F. ) ;
#109 = VERTEX_POINT ( 'NONE', #973 ) ;
#110 = DIRECTION ( 'NONE',  ( 0.000000000000000000, -1.000000000000000000, 0.000000000000000000 ) ) ;
#111 = EDGE_LOOP ( 'NONE', ( #1045, #1099, #1243, #232 ) ) ;
#112 = CARTESIAN_POINT ( 'NONE',  ( 3.000000000000000000, 2.000000000000000000, -3.000000000000000000 ) ) ;
#113 = CARTESIAN_POINT ( 'NONE',  ( 2.000000000000000000, 2.000000000000000000, -79.00000000000000000 ) ) ;
#114 = ORIENTED_EDGE ( 'NONE', *, *, #153, .T. ) ;
#115 = CARTESIAN_POINT ( 'NONE',  ( 114.0000000000000000, 2.549999999999999378, -0.3000000000000068723 ) ) ;
#116 = EDGE_CURVE ( 'NONE', #389, #192, #395, .T. ) ;
#117 = CARTESIAN_POINT ( 'NONE',  ( -2.000000000000000000, 4.000000000000000000, 1.149999999999999911 ) ) ;
#118 = PLANE ( 'NONE',  #235 ) ;
#119 = DIRECTION ( 'NONE',  ( 0.000000000000000000, 0.000000000000000000, 1.000000000000000000 ) ) ;
#120 = ORIENTED_EDGE ( 'NONE', *, *, #529, .F. ) ;
#121 = FACE_OUTER_BOUND ( 'NONE', #768, .T. ) ;
#122 = AXIS2_PLACEMENT_3D ( 'NONE', #323, #432, #1030 ) ;
#123 = EDGE_LOOP ( 'NONE', ( #589, #1178 ) ) ;
#124 = AXIS2_PLACEMENT_3D ( 'NONE', #949, #558, #62 ) ;
#125 = CARTESIAN_POINT ( 'NONE',  ( -2.000000000000000000, 2.000000000000000000, -2.000000000000000000 ) ) ;
#126 = AXIS2_PLACEMENT_3D ( 'NONE', #76, #1185, #1063 ) ;
#127 = EDGE_CURVE ( 'NONE', #226, #1132, #93, .T. ) ;
#128 = DIRECTION ( 'NONE',  ( -0.000000000000000000, 1.000000000000000000, -0.000000000000000000 ) ) ;
#129 = DIRECTION ( 'NONE',  ( 0.000000000000000000, 0.000000000000000000, 1.000000000000000000 ) ) ;
#130 = ORIENTED_EDGE ( 'NONE', *, *, #771, .T. ) ;
#131 = DIRECTION ( 'NONE',  ( -1.000000000000000000, -0.000000000000000000, -0.000000000000000000 ) ) ;
#132 = VERTEX_POINT ( 'NONE', #182 ) ;
#133 = CARTESIAN_POINT ( 'NONE',  ( 109.0000000000000000, 0.000000000000000000, -81.00000000000000000 ) ) ;
#134 = CC_DESIGN_DATE_AND_TIME_ASSIGNMENT ( #672, #656, ( #552 ) ) ;
#135 = EDGE_CURVE ( 'NONE', #888, #334, #1168, .T. ) ;
#136 = ORIENTED_EDGE ( 'NONE', *, *, #813, .T. ) ;
#137 = DIRECTION ( 'NONE',  ( 0.000000000000000000, 0.000000000000000000, -1.000000000000000000 ) ) ;
#138 = ORIENTED_EDGE ( 'NONE', *, *, #585, .T. ) ;
#139 = DIRECTION ( 'NONE',  ( 0.000000000000000000, 0.000000000000000000, 1.000000000000000000 ) ) ;
#140 = CARTESIAN_POINT ( 'NONE',  ( 114.0000000000000000, 4.000000000000000000, -2.000000000000000000 ) ) ;
#141 = ORIENTED_EDGE ( 'NONE', *, *, #406, .F. ) ;
#142 = EDGE_CURVE ( 'NONE', #1070, #226, #1195, .T. ) ;
#143 = CARTESIAN_POINT ( 'NONE',  ( 2.000000000000000000, 2.000000000000000000, -2.000000000000000000 ) ) ;
#144 = ORIENTED_EDGE ( 'NONE', *, *, #327, .T. ) ;
#145 = DIRECTION ( 'NONE',  ( -0.000000000000000000, 1.000000000000000000, -0.000000000000000000 ) ) ;
#146 = CIRCLE ( 'NONE', #41, 3.000000000000002665 ) ;
#147 = AXIS2_PLACEMENT_3D ( 'NONE', #1114, #1106, #321 ) ;
#148 = LINE ( 'NONE', #825, #1084 ) ;
#149 = CARTESIAN_POINT ( 'NONE',  ( -6.000000000000000000, 4.000000000000000000, -80.00000000000000000 ) ) ;
#150 = CC_DESIGN_APPROVAL ( #343, ( #552 ) ) ;
#151 = ORIENTED_EDGE ( 'NONE', *, *, #627, .F. ) ;
#152 = CARTESIAN_POINT ( 'NONE',  ( 115.0000000000000000, 4.000000000000000000, 2.000000000000000000 ) ) ;
#153 = EDGE_CURVE ( 'NONE', #708, #648, #84, .T. ) ;
#154 = ORIENTED_EDGE ( 'NONE', *, *, #546, .F. ) ;
#155 = FACE_OUTER_BOUND ( 'NONE', #435, .T. ) ;
#156 = DIRECTION ( 'NONE',  ( 0.000000000000000000, -1.000000000000000000, 0.000000000000000000 ) ) ;
#157 = ORIENTED_EDGE ( 'NONE', *, *, #580, .T. ) ;
#158 = DIRECTION ( 'NONE',  ( 0.000000000000000000, 0.000000000000000000, -1.000000000000000000 ) ) ;
#159 = ORIENTED_EDGE ( 'NONE', *, *, #1255, .T. ) ;
#160 = DIRECTION ( 'NONE',  ( 0.000000000000000000, 0.000000000000000000, -1.000000000000000000 ) ) ;
#161 = PERSON_AND_ORGANIZATION ( #57, #934 ) ;
#162 = LINE ( 'NONE', #443, #276 ) ;
#163 = ORIENTED_EDGE ( 'NONE', *, *, #637, .T. ) ;
#164 = CARTESIAN_POINT ( 'NONE',  ( 3.000000000000000000, 2.000000000000000000, -78.00000000000000000 ) ) ;
#165 = ORIENTED_EDGE ( 'NONE', *, *, #910, .F. ) ;
#166 = DIRECTION ( 'NONE',  ( 0.000000000000000000, 0.000000000000000000, -1.000000000000000000 ) ) ;
#167 = AXIS2_PLACEMENT_3D ( 'NONE', #1221, #1019, #310 ) ;
#168 = DIRECTION ( 'NONE',  ( 0.000000000000000000, 0.000000000000000000, -1.000000000000000000 ) ) ;
#169 = EDGE_CURVE ( 'NONE', #1158, #1274, #208, .T. ) ;
#170 = VECTOR ( 'NONE', #131, 1000.000000000000000 ) ;
#171 = CIRCLE ( 'NONE', #893, 3.000000000000000000 ) ;
#172 = CARTESIAN_POINT ( 'NONE',  ( 109.0000000000000000, 2.000000000000000000, -78.00000000000000000 ) ) ;
#173 = CC_DESIGN_APPROVAL ( #1176, ( #518 ) ) ;
#174 = FACE_OUTER_BOUND ( 'NONE', #916, .T. ) ;
#175 = ORIENTED_EDGE ( 'NONE', *, *, #706, .T. ) ;
#176 = CARTESIAN_POINT ( 'NONE',  ( -6.000000000000000000, 2.000000000000000000, 2.000000000000000000 ) ) ;
#177 = PERSON_AND_ORGANIZATION ( #57, #934 ) ;
#178 = ORIENTED_EDGE ( 'NONE', *, *, #819, .F. ) ;
#179 = ORIENTED_EDGE ( 'NONE', *, *, #848, .T. ) ;
#180 = CARTESIAN_POINT ( 'NONE',  ( 0.000000000000000000, 2.000000000000000000, 0.000000000000000000 ) ) ;
#181 = SECURITY_CLASSIFICATION_LEVEL ( 'unclassified' ) ;
#182 = CARTESIAN_POINT ( 'NONE',  ( -6.000000000000000000, 2.000000000000000000, -80.00000000000000000 ) ) ;
#183 = EDGE_CURVE ( 'NONE', #1069, #423, #899, .T. ) ;
#184 = ORIENTED_EDGE ( 'NONE', *, *, #1238, .T. ) ;
#185 = DIRECTION ( 'NONE',  ( 0.000000000000000000, 0.000000000000000000, 1.000000000000000000 ) ) ;
#186 = PERSON_AND_ORGANIZATION ( #57, #934 ) ;
#187 = VECTOR ( 'NONE', #1077, 1000.000000000000000 ) ;
#188 = AXIS2_PLACEMENT_3D ( 'NONE', #634, #258, #945 ) ;
#189 = FACE_OUTER_BOUND ( 'NONE', #1230, .T. ) ;
#190 = VECTOR ( 'NONE', #447, 1000.000000000000000 ) ;
#191 = CIRCLE ( 'NONE', #1254, 3.149999999999999911 ) ;
#192 = VERTEX_POINT ( 'NONE', #301 ) ;
#193 = CIRCLE ( 'NONE', #419, 1.699999999999993072 ) ;
#194 = EDGE_CURVE ( 'NONE', #842, #1023, #989, .T. ) ;
#195 = DIRECTION ( 'NONE',  ( -0.000000000000000000, 1.000000000000000000, -0.000000000000000000 ) ) ;
#196 = ORIENTED_EDGE ( 'NONE', *, *, #1255, .F. ) ;
#197 = DIRECTION ( 'NONE',  ( 0.000000000000000000, -1.000000000000000000, 0.000000000000000000 ) ) ;
#198 = FACE_OUTER_BOUND ( 'NONE', #457, .T. ) ;
#199 = ORIENTED_EDGE ( 'NONE', *, *, #637, .F. ) ;
#200 = FACE_OUTER_BOUND ( 'NONE', #670, .T. ) ;
#201 = ADVANCED_FACE ( 'NONE', ( #612 ), #408, .T. ) ;
#202 = DIRECTION ( 'NONE',  ( 0.000000000000000000, 0.000000000000000000, -1.000000000000000000 ) ) ;
#203 = DIRECTION ( 'NONE',  ( -0.000000000000000000, 1.000000000000000000, -0.000000000000000000 ) ) ;
#204 = VERTEX_POINT ( 'NONE', #324 ) ;
#205 = CARTESIAN_POINT ( 'NONE',  ( 114.0000000000000000, 4.000000000000000000, -2.000000000000000000 ) ) ;
#206 = ADVANCED_FACE ( 'NONE', ( #413 ), #237, .T. ) ;
#207 = CARTESIAN_POINT ( 'NONE',  ( 2.000000000000000000, -0.000000000000000000, -79.00000000000000000 ) ) ;
#208 = LINE ( 'NONE', #1200, #39 ) ;
#209 = VECTOR ( 'NONE', #203, 1000.000000000000000 ) ;
#210 = ORIENTED_EDGE ( 'NONE', *, *, #1122, .T. ) ;
#211 = CIRCLE ( 'NONE', #1125, 1.699999999999993072 ) ;
#212 = CARTESIAN_POINT ( 'NONE',  ( 114.0000000000000000, 4.000000000000000000, 1.149999999999999911 ) ) ;
#213 = VECTOR ( 'NONE', #628, 1000.000000000000114 ) ;
#214 = CARTESIAN_POINT ( 'NONE',  ( 114.0000000000000000, 4.000000000000000000, -5.150000000000000355 ) ) ;
#215 = CARTESIAN_POINT ( 'NONE',  ( 109.0000000000000000, 2.000000000000000000, -81.00000000000000000 ) ) ;
#216 = EDGE_LOOP ( 'NONE', ( #331, #120, #455, #838 ) ) ;
#217 = EDGE_CURVE ( 'NONE', #550, #468, #717, .T. ) ;
#218 = PRODUCT ( 'housing_cover_Rev01b', 'housing_cover_Rev01b', '', ( #1267 ) ) ;
#219 = LINE ( 'NONE', #1223, #170 ) ;
#220 = CARTESIAN_POINT ( 'NONE',  ( 114.0000000000000000, 4.000000000000000000, -2.000000000000000000 ) ) ;
#221 = DIRECTION ( 'NONE',  ( -1.000000000000000000, 0.000000000000000000, 0.000000000000000000 ) ) ;
#222 = CARTESIAN_POINT ( 'NONE',  ( 114.0000000000000000, 4.000000000000000000, -2.000000000000000000 ) ) ;
#223 = ORIENTED_EDGE ( 'NONE', *, *, #627, .T. ) ;
#224 = LINE ( 'NONE', #424, #1211 ) ;
#225 = EDGE_CURVE ( 'NONE', #870, #446, #826, .T. ) ;
#226 = VERTEX_POINT ( 'NONE', #113 ) ;
#227 = CARTESIAN_POINT ( 'NONE',  ( 114.0000000000000000, 4.000000000000000000, -82.15000000000000568 ) ) ;
#228 = FACE_OUTER_BOUND ( 'NONE', #653, .T. ) ;
#229 = ORIENTED_EDGE ( 'NONE', *, *, #601, .T. ) ;
#230 = DIRECTION ( 'NONE',  ( 1.000000000000000000, -0.000000000000000000, 0.000000000000000000 ) ) ;
#231 = AXIS2_PLACEMENT_3D ( 'NONE', #140, #28, #1233 ) ;
#232 = ORIENTED_EDGE ( 'NONE', *, *, #1271, .F. ) ;
#233 = VECTOR ( 'NONE', #1184, 1000.000000000000000 ) ;
#234 = DIRECTION ( 'NONE',  ( 0.000000000000000000, -1.000000000000000000, 0.000000000000000000 ) ) ;
#235 = AXIS2_PLACEMENT_3D ( 'NONE', #898, #221, #1214 ) ;
#236 = EDGE_CURVE ( 'NONE', #1141, #871, #802, .T. ) ;
#237 = PLANE ( 'NONE',  #167 ) ;
#238 = VERTEX_POINT ( 'NONE', #528 ) ;
#239 = CARTESIAN_POINT ( 'NONE',  ( 2.000000000000000000, 2.000000000000000000, -2.000000000000000000 ) ) ;
#240 = ORIENTED_EDGE ( 'NONE', *, *, #127, .F. ) ;
#241 = DIRECTION ( 'NONE',  ( 0.000000000000000000, -1.000000000000000000, 0.000000000000000000 ) ) ;
#242 = DIRECTION ( 'NONE',  ( 0.000000000000000000, 0.000000000000000000, 1.000000000000000000 ) ) ;
#243 = ADVANCED_FACE ( 'NONE', ( #22 ), #506, .F. ) ;
#244 = CARTESIAN_POINT ( 'NONE',  ( 112.0000000000000000, 2.000000000000000000, 0.000000000000000000 ) ) ;
#245 = ORIENTED_EDGE ( 'NONE', *, *, #1051, .T. ) ;
#246 = CARTESIAN_POINT ( 'NONE',  ( -2.000000000000000000, 2.000000000000000000, -3.699999999999998401 ) ) ;
#247 = ORIENTED_EDGE ( 'NONE', *, *, #48, .F. ) ;
#248 = DIRECTION ( 'NONE',  ( 0.000000000000000000, 0.000000000000000000, -1.000000000000000000 ) ) ;
#249 = DIRECTION ( 'NONE',  ( 0.000000000000000000, 0.000000000000000000, -1.000000000000000000 ) ) ;
#250 = DIRECTION ( 'NONE',  ( 0.000000000000000000, 0.000000000000000000, -1.000000000000000000 ) ) ;
#251 = EDGE_CURVE ( 'NONE', #1158, #470, #704, .T. ) ;
#252 = ORIENTED_EDGE ( 'NONE', *, *, #1151, .T. ) ;
#253 = LINE ( 'NONE', #1249, #1256 ) ;
#254 = ORIENTED_EDGE ( 'NONE', *, *, #902, .T. ) ;
#255 = AXIS2_PLACEMENT_3D ( 'NONE', #796, #33, #726 ) ;
#256 = DIRECTION ( 'NONE',  ( 0.000000000000000000, -1.000000000000000000, 0.000000000000000000 ) ) ;
#257 = CIRCLE ( 'NONE', #20, 1.699999999999993072 ) ;
#258 = DIRECTION ( 'NONE',  ( -0.000000000000000000, 1.000000000000000000, -0.000000000000000000 ) ) ;
#259 = AXIS2_PLACEMENT_3D ( 'NONE', #1145, #1175, #863 ) ;
#260 = ORIENTED_EDGE ( 'NONE', *, *, #29, .T. ) ;
#261 = FACE_OUTER_BOUND ( 'NONE', #1034, .T. ) ;
#262 = ORIENTED_EDGE ( 'NONE', *, *, #1134, .T. ) ;
#263 = DIRECTION ( 'NONE',  ( 1.000000000000000000, 0.000000000000000000, 0.000000000000000000 ) ) ;
#264 = CALENDAR_DATE ( 2023, 18, 8 ) ;
#265 = LINE ( 'NONE', #931, #1208 ) ;
#266 = ORIENTED_EDGE ( 'NONE', *, *, #1002, .T. ) ;
#267 = LINE ( 'NONE', #638, #829 ) ;
#268 = ORIENTED_EDGE ( 'NONE', *, *, #169, .F. ) ;
#269 = EDGE_CURVE ( 'NONE', #477, #786, #1103, .T. ) ;
#270 = DIRECTION ( 'NONE',  ( 0.000000000000000000, 0.000000000000000000, -1.000000000000000000 ) ) ;
#271 = DATE_AND_TIME ( #264, #382 ) ;
#272 = VERTEX_POINT ( 'NONE', #904 ) ;
#273 = FACE_BOUND ( 'NONE', #630, .T. ) ;
#274 = EDGE_LOOP ( 'NONE', ( #750, #733 ) ) ;
#275 = DIRECTION ( 'NONE',  ( 0.000000000000000000, 1.000000000000000000, -0.000000000000000000 ) ) ;
#276 = VECTOR ( 'NONE', #835, 1000.000000000000000 ) ;
#277 = ADVANCED_FACE ( 'NONE', ( #812 ), #522, .F. ) ;
#278 = VECTOR ( 'NONE', #369, 1000.000000000000000 ) ;
#279 = EDGE_LOOP ( 'NONE', ( #502, #1036, #836, #154 ) ) ;
#280 = ORIENTED_EDGE ( 'NONE', *, *, #1033, .F. ) ;
#281 = LINE ( 'NONE', #55, #190 ) ;
#282 =( NAMED_UNIT ( * ) PLANE_ANGLE_UNIT ( ) SI_UNIT ( $, .RADIAN. ) );
#283 = ADVANCED_FACE ( 'NONE', ( #12 ), #600, .F. ) ;
#284 = CARTESIAN_POINT ( 'NONE',  ( 114.0000000000000000, 4.000000000000000000, -75.84999999999999432 ) ) ;
#285 = ORIENTED_EDGE ( 'NONE', *, *, #153, .F. ) ;
#286 = DIRECTION ( 'NONE',  ( 0.000000000000000000, 0.000000000000000000, 1.000000000000000000 ) ) ;
#287 = APPROVAL_STATUS ( 'not_yet_approved' ) ;
#288 = LINE ( 'NONE', #673, #739 ) ;
#289 = ADVANCED_FACE ( 'NONE', ( #228 ), #1117, .F. ) ;
#290 = ORIENTED_EDGE ( 'NONE', *, *, #1140, .T. ) ;
#291 = CARTESIAN_POINT ( 'NONE',  ( 110.0000000000000000, 2.000000000000000000, -2.000000000000000000 ) ) ;
#292 = VECTOR ( 'NONE', #657, 1000.000000000000000 ) ;
#293 = VECTOR ( 'NONE', #349, 1000.000000000000000 ) ;
#294 = FACE_BOUND ( 'NONE', #384, .T. ) ;
#295 = DIRECTION ( 'NONE',  ( -0.000000000000000000, 1.000000000000000000, -0.000000000000000000 ) ) ;
#296 = AXIS2_PLACEMENT_3D ( 'NONE', #1296, #1279, #298 ) ;
#297 = ORIENTED_EDGE ( 'NONE', *, *, #674, .F. ) ;
#298 = DIRECTION ( 'NONE',  ( 0.000000000000000000, 0.000000000000000000, -1.000000000000000000 ) ) ;
#299 = ADVANCED_FACE ( 'NONE', ( #1135 ), #511, .T. ) ;
#300 = LINE ( 'NONE', #586, #783 ) ;
#301 = CARTESIAN_POINT ( 'NONE',  ( -3.000000000000000000, 4.000000000000000000, 2.000000000000000000 ) ) ;
#302 = ORIENTED_EDGE ( 'NONE', *, *, #34, .F. ) ;
#303 = CARTESIAN_POINT ( 'NONE',  ( -6.000000000000000000, 4.000000000000000000, 2.000000000000000000 ) ) ;
#304 = ADVANCED_FACE ( 'NONE', ( #330 ), #102, .F. ) ;
#305 = DIRECTION ( 'NONE',  ( 0.000000000000000000, -0.000000000000000000, -1.000000000000000000 ) ) ;
#306 = EDGE_LOOP ( 'NONE', ( #61, #252, #714, #362 ) ) ;
#307 = DIRECTION ( 'NONE',  ( -1.000000000000000000, 0.000000000000000000, 0.000000000000000000 ) ) ;
#308 = PLANE ( 'NONE',  #854 ) ;
#309 = EDGE_CURVE ( 'NONE', #888, #635, #737, .T. ) ;
#310 = DIRECTION ( 'NONE',  ( 0.000000000000000000, 0.000000000000000000, -1.000000000000000000 ) ) ;
#311 = VECTOR ( 'NONE', #474, 999.9999999999998863 ) ;
#312 = ORIENTED_EDGE ( 'NONE', *, *, #1140, .F. ) ;
#313 = AXIS2_PLACEMENT_3D ( 'NONE', #205, #671, #394 ) ;
#314 = CARTESIAN_POINT ( 'NONE',  ( 114.0000000000000000, 2.549999999999999378, -3.699999999999993072 ) ) ;
#315 = PRODUCT_DEFINITION_FORMATION_WITH_SPECIFIED_SOURCE ( 'ANY', '', #218, .NOT_KNOWN. ) ;
#316 = FACE_OUTER_BOUND ( 'NONE', #409, .T. ) ;
#317 = CARTESIAN_POINT ( 'NONE',  ( -6.000000000000000000, 4.000000000000000000, 2.000000000000000000 ) ) ;
#318 = DIRECTION ( 'NONE',  ( -1.000000000000000000, 0.000000000000000000, 0.000000000000000000 ) ) ;
#319 = EDGE_CURVE ( 'NONE', #132, #786, #661, .T. ) ;
#320 = ORIENTED_EDGE ( 'NONE', *, *, #392, .F. ) ;
#321 = DIRECTION ( 'NONE',  ( 0.000000000000000000, 0.000000000000000000, -1.000000000000000000 ) ) ;
#322 = ORIENTED_EDGE ( 'NONE', *, *, #832, .T. ) ;
#323 = CARTESIAN_POINT ( 'NONE',  ( 114.0000000000000000, 2.000000000000000000, -79.00000000000000000 ) ) ;
#324 = CARTESIAN_POINT ( 'NONE',  ( 0.000000000000000000, 2.000000000000000000, -3.000000000000000000 ) ) ;
#325 = VERTEX_POINT ( 'NONE', #1147 ) ;
#326 = LINE ( 'NONE', #623, #1232 ) ;
#327 = EDGE_CURVE ( 'NONE', #1057, #602, #891, .T. ) ;
#328 = ORIENTED_EDGE ( 'NONE', *, *, #236, .T. ) ;
#329 = DIRECTION ( 'NONE',  ( 0.000000000000000000, -1.000000000000000000, 0.000000000000000000 ) ) ;
#330 = FACE_OUTER_BOUND ( 'NONE', #216, .T. ) ;
#331 = ORIENTED_EDGE ( 'NONE', *, *, #183, .F. ) ;
#332 = DIRECTION ( 'NONE',  ( 0.000000000000000000, 0.000000000000000000, -1.000000000000000000 ) ) ;
#333 = CIRCLE ( 'NONE', #64, 1.699999999999998401 ) ;
#334 = VERTEX_POINT ( 'NONE', #58 ) ;
#335 = AXIS2_PLACEMENT_3D ( 'NONE', #603, #524, #1131 ) ;
#336 = ADVANCED_FACE ( 'NONE', ( #454 ), #463, .F. ) ;
#337 = LINE ( 'NONE', #725, #380 ) ;
#338 = DIRECTION ( 'NONE',  ( 0.000000000000000000, 0.000000000000000000, 1.000000000000000000 ) ) ;
#339 = VERTEX_POINT ( 'NONE', #1247 ) ;
#340 = CARTESIAN_POINT ( 'NONE',  ( 114.0000000000000000, 4.000000000000000000, -79.00000000000000000 ) ) ;
#341 = EDGE_LOOP ( 'NONE', ( #933, #694, #130, #262 ) ) ;
#342 = DIRECTION ( 'NONE',  ( 1.000000000000000000, 0.000000000000000000, -0.000000000000000000 ) ) ;
#343 = APPROVAL ( #287, 'UNSPECIFIED' ) ;
#344 = CARTESIAN_POINT ( 'NONE',  ( 118.0000000000000142, 4.000000000000000000, -80.00000000000000000 ) ) ;
#345 = CARTESIAN_POINT ( 'NONE',  ( -3.000000000000000000, 2.000000000000000000, -80.00000000000000000 ) ) ;
#346 = VERTEX_POINT ( 'NONE', #543 ) ;
#347 = CYLINDRICAL_SURFACE ( 'NONE', #515, 3.000000000000002665 ) ;
#348 = ORIENTED_EDGE ( 'NONE', *, *, #813, .F. ) ;
#349 = DIRECTION ( 'NONE',  ( -0.000000000000000000, 1.000000000000000000, -0.000000000000000000 ) ) ;
#350 = PLANE ( 'NONE',  #259 ) ;
#351 = DIRECTION ( 'NONE',  ( -0.000000000000000000, 1.000000000000000000, -0.000000000000000000 ) ) ;
#352 = ORIENTED_EDGE ( 'NONE', *, *, #529, .T. ) ;
#353 = CARTESIAN_POINT ( 'NONE',  ( 110.0000000000000000, 2.000000000000000000, -79.00000000000000000 ) ) ;
#354 = AXIS2_PLACEMENT_3D ( 'NONE', #1055, #953, #69 ) ;
#355 = VERTEX_POINT ( 'NONE', #149 ) ;
#356 = CIRCLE ( 'NONE', #512, 1.699999999999993072 ) ;
#357 = LINE ( 'NONE', #72, #513 ) ;
#358 = VECTOR ( 'NONE', #579, 1000.000000000000000 ) ;
#359 = AXIS2_PLACEMENT_3D ( 'NONE', #584, #307, #573 ) ;
#360 = CYLINDRICAL_SURFACE ( 'NONE', #1101, 3.000000000000002665 ) ;
#361 = CIRCLE ( 'NONE', #461, 1.699999999999993072 ) ;
#362 = ORIENTED_EDGE ( 'NONE', *, *, #217, .T. ) ;
#363 = EDGE_CURVE ( 'NONE', #553, #444, #954, .T. ) ;
#364 = DIRECTION ( 'NONE',  ( 0.000000000000000000, 0.000000000000000000, -1.000000000000000000 ) ) ;
#365 = ORIENTED_EDGE ( 'NONE', *, *, #56, .T. ) ;
#366 = CARTESIAN_POINT ( 'NONE',  ( 114.0000000000000000, 2.000000000000000000, -2.000000000000000000 ) ) ;
#367 = COORDINATED_UNIVERSAL_TIME_OFFSET ( 1, 0, .AHEAD. ) ;
#368 = CARTESIAN_POINT ( 'NONE',  ( -2.000000000000000000, 2.000000000000000000, -80.69999999999998863 ) ) ;
#369 = DIRECTION ( 'NONE',  ( 1.000000000000000000, 0.000000000000000000, 0.000000000000000000 ) ) ;
#370 = VERTEX_POINT ( 'NONE', #1240 ) ;
#371 = LINE ( 'NONE', #1058, #311 ) ;
#372 = ADVANCED_FACE ( 'NONE', ( #1253 ), #360, .T. ) ;
#373 = ORIENTED_EDGE ( 'NONE', *, *, #777, .F. ) ;
#374 = DIRECTION ( 'NONE',  ( -1.000000000000000000, 0.000000000000000000, -0.000000000000000000 ) ) ;
#375 = ORIENTED_EDGE ( 'NONE', *, *, #34, .T. ) ;
#376 = LINE ( 'NONE', #654, #1041 ) ;
#377 = AXIS2_PLACEMENT_3D ( 'NONE', #172, #561, #693 ) ;
#378 = EDGE_CURVE ( 'NONE', #339, #1061, #265, .T. ) ;
#379 = PERSON_AND_ORGANIZATION ( #57, #934 ) ;
#380 = VECTOR ( 'NONE', #1133, 1000.000000000000000 ) ;
#381 = CIRCLE ( 'NONE', #782, 1.699999999999993072 ) ;
#382 = LOCAL_TIME ( 12, 43, 44.00000000000000000, #367 ) ;
#383 = PLANE ( 'NONE',  #659 ) ;
#384 = EDGE_LOOP ( 'NONE', ( #52, #566 ) ) ;
#385 = CARTESIAN_POINT ( 'NONE',  ( 118.0000000000000142, 4.000000000000000000, -80.00000000000000000 ) ) ;
#386 = DIRECTION ( 'NONE',  ( -1.000000000000000000, 0.000000000000000000, -0.000000000000000000 ) ) ;
#387 = EDGE_CURVE ( 'NONE', #735, #238, #162, .T. ) ;
#388 = CARTESIAN_POINT ( 'NONE',  ( 114.0000000000000000, 4.000000000000000000, -82.15000000000000568 ) ) ;
#389 = VERTEX_POINT ( 'NONE', #732 ) ;
#390 = DIRECTION ( 'NONE',  ( -1.000000000000000000, -0.000000000000000000, -0.000000000000000000 ) ) ;
#391 = DIRECTION ( 'NONE',  ( 0.000000000000000000, -0.000000000000000000, -1.000000000000000000 ) ) ;
#392 = EDGE_CURVE ( 'NONE', #985, #900, #1231, .T. ) ;
#393 = EDGE_LOOP ( 'NONE', ( #1112, #632, #210, #1027 ) ) ;
#394 = DIRECTION ( 'NONE',  ( 0.000000000000000000, 0.000000000000000000, 1.000000000000000000 ) ) ;
#395 = CIRCLE ( 'NONE', #15, 3.000000000000000000 ) ;
#396 = AXIS2_PLACEMENT_3D ( 'NONE', #1011, #919, #119 ) ;
#397 = CYLINDRICAL_SURFACE ( 'NONE', #596, 3.000000000000000000 ) ;
#398 = LINE ( 'NONE', #1282, #187 ) ;
#399 = AXIS2_PLACEMENT_3D ( 'NONE', #966, #78, #897 ) ;
#400 = ADVANCED_FACE ( 'NONE', ( #316 ), #730, .F. ) ;
#401 = EDGE_LOOP ( 'NONE', ( #1164, #572, #645, #980, #807, #925, #322, #867 ) ) ;
#402 = CARTESIAN_POINT ( 'NONE',  ( 114.0000000000000000, 2.549999999999999378, -2.000000000000000000 ) ) ;
#403 = PERSON_AND_ORGANIZATION ( #57, #934 ) ;
#404 = ORIENTED_EDGE ( 'NONE', *, *, #225, .F. ) ;
#405 = CARTESIAN_POINT ( 'NONE',  ( -3.000000000000000000, 4.000000000000000000, -83.00000000000000000 ) ) ;
#406 = EDGE_CURVE ( 'NONE', #468, #325, #146, .T. ) ;
#407 = DIRECTION ( 'NONE',  ( -0.000000000000000000, -1.000000000000000000, 0.000000000000000000 ) ) ;
#408 = PLANE ( 'NONE',  #255 ) ;
#409 = EDGE_LOOP ( 'NONE', ( #583, #290, #928, #700 ) ) ;
#410 = DIRECTION ( 'NONE',  ( -0.000000000000000000, 1.000000000000000000, -0.000000000000000000 ) ) ;
#411 = EDGE_CURVE ( 'NONE', #238, #1183, #1139, .T. ) ;
#412 = DIRECTION ( 'NONE',  ( -0.000000000000000000, 1.000000000000000000, -0.000000000000000000 ) ) ;
#413 = FACE_OUTER_BOUND ( 'NONE', #1262, .T. ) ;
#414 = CIRCLE ( 'NONE', #377, 3.000000000000002665 ) ;
#415 = VERTEX_POINT ( 'NONE', #1123 ) ;
#416 = CONICAL_SURFACE ( 'NONE', #594, 3.149999999999999911, 0.7853981633974485010 ) ;
#417 = PLANE ( 'NONE',  #104 ) ;
#418 = ORIENTED_EDGE ( 'NONE', *, *, #951, .F. ) ;
#419 = AXIS2_PLACEMENT_3D ( 'NONE', #1044, #60, #1152 ) ;
#420 = PRODUCT_RELATED_PRODUCT_CATEGORY ( 'detail', '', ( #218 ) ) ;
#421 = DIRECTION ( 'NONE',  ( 0.000000000000000000, 0.000000000000000000, -1.000000000000000000 ) ) ;
#422 = DIRECTION ( 'NONE',  ( 0.000000000000000000, -1.000000000000000000, 0.000000000000000000 ) ) ;
#423 = VERTEX_POINT ( 'NONE', #227 ) ;
#424 = CARTESIAN_POINT ( 'NONE',  ( 110.0000000000000000, 2.000000000000000000, -2.000000000000000000 ) ) ;
#425 = ORIENTED_EDGE ( 'NONE', *, *, #309, .F. ) ;
#426 = CARTESIAN_POINT ( 'NONE',  ( 115.0000000000000000, 2.000000000000000000, -80.00000000000000000 ) ) ;
#427 = CARTESIAN_POINT ( 'NONE',  ( -3.000000000000000000, 4.000000000000000000, -1.000000000000000000 ) ) ;
#428 = ORIENTED_EDGE ( 'NONE', *, *, #601, .F. ) ;
#429 = ADVANCED_FACE ( 'NONE', ( #1116 ), #810, .F. ) ;
#430 = CARTESIAN_POINT ( 'NONE',  ( -3.000000000000000000, 4.000000000000000000, 2.000000000000000000 ) ) ;
#431 = ORIENTED_EDGE ( 'NONE', *, *, #686, .T. ) ;
#432 = DIRECTION ( 'NONE',  ( 0.000000000000000000, -1.000000000000000000, 0.000000000000000000 ) ) ;
#433 = DIRECTION ( 'NONE',  ( 0.000000000000000000, 0.000000000000000000, -1.000000000000000000 ) ) ;
#434 = CARTESIAN_POINT ( 'NONE',  ( -2.000000000000000000, 4.000000000000000000, -77.30000000000001137 ) ) ;
#435 = EDGE_LOOP ( 'NONE', ( #418, #178, #451, #879 ) ) ;
#436 = CARTESIAN_POINT ( 'NONE',  ( 115.0000000000000000, 2.000000000000000000, 2.000000000000000000 ) ) ;
#437 = CIRCLE ( 'NONE', #762, 3.149999999999999911 ) ;
#438 = EDGE_CURVE ( 'NONE', #339, #985, #333, .T. ) ;
#439 = EDGE_LOOP ( 'NONE', ( #199, #114, #280, #45, #425, #923, #16, #727 ) ) ;
#440 = AXIS2_PLACEMENT_3D ( 'NONE', #516, #110, #8 ) ;
#441 = LINE ( 'NONE', #799, #909 ) ;
#442 = CIRCLE ( 'NONE', #68, 3.149999999999999911 ) ;
#443 = CARTESIAN_POINT ( 'NONE',  ( 110.0000000000000000, 2.000000000000000000, -2.000000000000000000 ) ) ;
#444 = VERTEX_POINT ( 'NONE', #117 ) ;
#445 = FACE_BOUND ( 'NONE', #677, .T. ) ;
#446 = VERTEX_POINT ( 'NONE', #619 ) ;
#447 = DIRECTION ( 'NONE',  ( -0.000000000000000000, 1.000000000000000000, -0.000000000000000000 ) ) ;
#448 = EDGE_CURVE ( 'NONE', #192, #1023, #519, .T. ) ;
#449 = FACE_BOUND ( 'NONE', #615, .T. ) ;
#450 = ORIENTED_EDGE ( 'NONE', *, *, #378, .F. ) ;
#451 = ORIENTED_EDGE ( 'NONE', *, *, #546, .T. ) ;
#452 = DIRECTION ( 'NONE',  ( 0.000000000000000000, -1.000000000000000000, 0.000000000000000000 ) ) ;
#453 = EDGE_CURVE ( 'NONE', #477, #54, #1079, .T. ) ;
#454 = FACE_OUTER_BOUND ( 'NONE', #393, .T. ) ;
#455 = ORIENTED_EDGE ( 'NONE', *, *, #1271, .T. ) ;
#456 = DIRECTION ( 'NONE',  ( 0.000000000000000000, 0.000000000000000000, -1.000000000000000000 ) ) ;
#457 = EDGE_LOOP ( 'NONE', ( #1241, #809, #578, #905 ) ) ;
#458 = VECTOR ( 'NONE', #275, 1000.000000000000000 ) ;
#459 = CARTESIAN_POINT ( 'NONE',  ( 0.000000000000000000, 0.000000000000000000, -3.000000000000000000 ) ) ;
#460 = CIRCLE ( 'NONE', #1018, 1.699999999999993072 ) ;
#461 = AXIS2_PLACEMENT_3D ( 'NONE', #1109, #412, #811 ) ;
#462 =( NAMED_UNIT ( * ) SI_UNIT ( $, .STERADIAN. ) SOLID_ANGLE_UNIT ( ) );
#463 = CYLINDRICAL_SURFACE ( 'NONE', #639, 1.699999999999993072 ) ;
#464 = CC_DESIGN_PERSON_AND_ORGANIZATION_ASSIGNMENT ( #475, #1161, ( #552 ) ) ;
#465 = CARTESIAN_POINT ( 'NONE',  ( 2.000000000000000000, 2.000000000000000000, -2.000000000000000000 ) ) ;
#466 = EDGE_CURVE ( 'NONE', #346, #74, #537, .T. ) ;
#467 = DIRECTION ( 'NONE',  ( 0.000000000000000000, 0.000000000000000000, -1.000000000000000000 ) ) ;
#468 = VERTEX_POINT ( 'NONE', #133 ) ;
#469 = DIRECTION ( 'NONE',  ( 0.000000000000000000, 0.000000000000000000, -1.000000000000000000 ) ) ;
#470 = VERTEX_POINT ( 'NONE', #1219 ) ;
#471 = DIRECTION ( 'NONE',  ( -0.000000000000000000, -1.000000000000000000, 0.000000000000000000 ) ) ;
#472 = EDGE_CURVE ( 'NONE', #80, #423, #437, .T. ) ;
#473 = ORIENTED_EDGE ( 'NONE', *, *, #1229, .F. ) ;
#474 = DIRECTION ( 'NONE',  ( 0.000000000000000000, 0.7071067811865473507, 0.7071067811865477948 ) ) ;
#475 = PERSON_AND_ORGANIZATION ( #57, #934 ) ;
#476 = ORIENTED_EDGE ( 'NONE', *, *, #319, .F. ) ;
#477 = VERTEX_POINT ( 'NONE', #625 ) ;
#478 = FACE_OUTER_BOUND ( 'NONE', #957, .T. ) ;
#479 = APPROVAL_STATUS ( 'not_yet_approved' ) ;
#480 = CIRCLE ( 'NONE', #559, 3.000000000000002665 ) ;
#481 =( GEOMETRIC_REPRESENTATION_CONTEXT ( 3 ) GLOBAL_UNCERTAINTY_ASSIGNED_CONTEXT ( ( #527 ) ) GLOBAL_UNIT_ASSIGNED_CONTEXT ( ( #73, #282, #462 ) ) REPRESENTATION_CONTEXT ( 'NONE', 'WORKASPACE' ) );
#482 = FACE_OUTER_BOUND ( 'NONE', #279, .T. ) ;
#483 = ORIENTED_EDGE ( 'NONE', *, *, #771, .F. ) ;
#484 = CYLINDRICAL_SURFACE ( 'NONE', #852, 1.699999999999993072 ) ;
#485 = CARTESIAN_POINT ( 'NONE',  ( 3.000000000000000000, 0.000000000000000000, -78.00000000000000000 ) ) ;
#486 = VERTEX_POINT ( 'NONE', #924 ) ;
#487 = DIRECTION ( 'NONE',  ( 0.000000000000000000, 0.7071067811865460184, 0.7071067811865489050 ) ) ;
#488 = EDGE_CURVE ( 'NONE', #370, #415, #592, .T. ) ;
#489 = DIRECTION ( 'NONE',  ( 0.000000000000000000, -0.000000000000000000, -1.000000000000000000 ) ) ;
#490 = DIRECTION ( 'NONE',  ( 0.000000000000000000, -1.000000000000000000, 0.000000000000000000 ) ) ;
#491 = EDGE_LOOP ( 'NONE', ( #1138, #622, #828, #948 ) ) ;
#492 = DIRECTION ( 'NONE',  ( 0.000000000000000000, 0.000000000000000000, 1.000000000000000000 ) ) ;
#493 = AXIS2_PLACEMENT_3D ( 'NONE', #998, #295, #1091 ) ;
#494 = AXIS2_PLACEMENT_3D ( 'NONE', #426, #241, #509 ) ;
#495 = CARTESIAN_POINT ( 'NONE',  ( 3.000000000000000000, 2.000000000000000000, -81.00000000000000000 ) ) ;
#496 = CIRCLE ( 'NONE', #1149, 3.000000000000000000 ) ;
#497 = VECTOR ( 'NONE', #562, 1000.000000000000000 ) ;
#498 = ORIENTED_EDGE ( 'NONE', *, *, #1264, .T. ) ;
#499 = DIRECTION ( 'NONE',  ( 0.000000000000000000, 0.000000000000000000, 1.000000000000000000 ) ) ;
#500 = CARTESIAN_POINT ( 'NONE',  ( 115.0000000000000000, 4.000000000000000000, -83.00000000000000000 ) ) ;
#501 = DIRECTION ( 'NONE',  ( 0.000000000000000000, 0.000000000000000000, -1.000000000000000000 ) ) ;
#502 = ORIENTED_EDGE ( 'NONE', *, *, #567, .F. ) ;
#503 = DIRECTION ( 'NONE',  ( 0.000000000000000000, -1.000000000000000000, 0.000000000000000000 ) ) ;
#504 = EDGE_CURVE ( 'NONE', #1132, #918, #337, .T. ) ;
#505 = CYLINDRICAL_SURFACE ( 'NONE', #1020, 3.000000000000002665 ) ;
#506 = PLANE ( 'NONE',  #557 ) ;
#507 = ORIENTED_EDGE ( 'NONE', *, *, #944, .F. ) ;
#508 = DIRECTION ( 'NONE',  ( 0.000000000000000000, 0.000000000000000000, -1.000000000000000000 ) ) ;
#509 = DIRECTION ( 'NONE',  ( 0.000000000000000000, 0.000000000000000000, -1.000000000000000000 ) ) ;
#510 = FACE_OUTER_BOUND ( 'NONE', #747, .T. ) ;
#511 = CYLINDRICAL_SURFACE ( 'NONE', #1170, 3.000000000000000000 ) ;
#512 = AXIS2_PLACEMENT_3D ( 'NONE', #366, #452, #166 ) ;
#513 = VECTOR ( 'NONE', #649, 1000.000000000000000 ) ;
#514 = ORIENTED_EDGE ( 'NONE', *, *, #116, .F. ) ;
#515 = AXIS2_PLACEMENT_3D ( 'NONE', #646, #549, #456 ) ;
#516 = CARTESIAN_POINT ( 'NONE',  ( 115.0000000000000000, 2.000000000000000000, -1.000000000000000000 ) ) ;
#517 = VERTEX_POINT ( 'NONE', #40 ) ;
#518 = SECURITY_CLASSIFICATION ( '', '', #181 ) ;
#519 = LINE ( 'NONE', #1037, #1062 ) ;
#520 = DIRECTION ( 'NONE',  ( -0.000000000000000000, 1.000000000000000000, -0.000000000000000000 ) ) ;
#521 = ADVANCED_FACE ( 'NONE', ( #929 ), #17, .F. ) ;
#522 = PLANE ( 'NONE',  #1252 ) ;
#523 = ORIENTED_EDGE ( 'NONE', *, *, #840, .T. ) ;
#524 = DIRECTION ( 'NONE',  ( -0.000000000000000000, 1.000000000000000000, -0.000000000000000000 ) ) ;
#525 = ORIENTED_EDGE ( 'NONE', *, *, #585, .F. ) ;
#526 = DIRECTION ( 'NONE',  ( 0.000000000000000000, 0.000000000000000000, 1.000000000000000000 ) ) ;
#527 = UNCERTAINTY_MEASURE_WITH_UNIT (LENGTH_MEASURE( 1.000000000000000082E-05 ), #73, 'distance_accuracy_value', 'NONE');
#528 = CARTESIAN_POINT ( 'NONE',  ( 110.0000000000000000, 0.000000000000000000, -2.000000000000000000 ) ) ;
#529 = EDGE_CURVE ( 'NONE', #545, #1069, #850, .T. ) ;
#530 = EDGE_LOOP ( 'NONE', ( #797, #1012, #285, #103 ) ) ;
#531 = LINE ( 'NONE', #607, #87 ) ;
#532 = ORIENTED_EDGE ( 'NONE', *, *, #848, .F. ) ;
#533 = DIRECTION ( 'NONE',  ( -0.000000000000000000, 1.000000000000000000, -0.000000000000000000 ) ) ;
#534 = DIRECTION ( 'NONE',  ( -1.000000000000000000, -0.000000000000000000, -0.000000000000000000 ) ) ;
#535 = ORIENTED_EDGE ( 'NONE', *, *, #804, .T. ) ;
#536 = CARTESIAN_POINT ( 'NONE',  ( 3.000000000000000000, 2.000000000000000000, 0.000000000000000000 ) ) ;
#537 = CIRCLE ( 'NONE', #678, 3.000000000000000000 ) ;
#538 = EDGE_CURVE ( 'NONE', #370, #1069, #441, .T. ) ;
#539 = ORIENTED_EDGE ( 'NONE', *, *, #1246, .F. ) ;
#540 = CIRCLE ( 'NONE', #1171, 1.699999999999993072 ) ;
#541 = DIRECTION ( 'NONE',  ( -0.000000000000000000, 1.000000000000000000, -0.000000000000000000 ) ) ;
#542 = VECTOR ( 'NONE', #1126, 1000.000000000000000 ) ;
#543 = CARTESIAN_POINT ( 'NONE',  ( -3.000000000000000000, 2.000000000000000000, 2.000000000000000000 ) ) ;
#544 = ORIENTED_EDGE ( 'NONE', *, *, #387, .T. ) ;
#545 = VERTEX_POINT ( 'NONE', #1239 ) ;
#546 = EDGE_CURVE ( 'NONE', #1061, #444, #371, .T. ) ;
#547 = DIRECTION ( 'NONE',  ( -0.000000000000000000, 1.000000000000000000, -0.000000000000000000 ) ) ;
#548 = VERTEX_POINT ( 'NONE', #1266 ) ;
#549 = DIRECTION ( 'NONE',  ( 0.000000000000000000, -1.000000000000000000, 0.000000000000000000 ) ) ;
#550 = VERTEX_POINT ( 'NONE', #1174 ) ;
#551 = LINE ( 'NONE', #862, #19 ) ;
#552 = PRODUCT_DEFINITION ( 'UNKNOWN', '', #315, #626 ) ;
#553 = VERTEX_POINT ( 'NONE', #1260 ) ;
#554 = CARTESIAN_POINT ( 'NONE',  ( -3.000000000000000000, 4.000000000000000000, -83.00000000000000000 ) ) ;
#555 = VECTOR ( 'NONE', #785, 1000.000000000000114 ) ;
#556 = ORIENTED_EDGE ( 'NONE', *, *, #142, .F. ) ;
#557 = AXIS2_PLACEMENT_3D ( 'NONE', #244, #318, #710 ) ;
#558 = DIRECTION ( 'NONE',  ( -0.000000000000000000, 1.000000000000000000, -0.000000000000000000 ) ) ;
#559 = AXIS2_PLACEMENT_3D ( 'NONE', #31, #410, #1206 ) ;
#560 = EDGE_CURVE ( 'NONE', #602, #708, #1052, .T. ) ;
#561 = DIRECTION ( 'NONE',  ( -0.000000000000000000, 1.000000000000000000, -0.000000000000000000 ) ) ;
#562 = DIRECTION ( 'NONE',  ( 0.000000000000000000, -1.000000000000000000, 0.000000000000000000 ) ) ;
#563 = ORIENTED_EDGE ( 'NONE', *, *, #1229, .T. ) ;
#564 = FACE_OUTER_BOUND ( 'NONE', #530, .T. ) ;
#565 = APPROVAL_ROLE ( '' ) ;
#566 = ORIENTED_EDGE ( 'NONE', *, *, #869, .F. ) ;
#567 = EDGE_CURVE ( 'NONE', #900, #1061, #1148, .T. ) ;
#568 = EDGE_LOOP ( 'NONE', ( #1237, #375, #1248, #365, #618, #498, #740, #144 ) ) ;
#569 = DIRECTION ( 'NONE',  ( -0.000000000000000000, -0.000000000000000000, 1.000000000000000000 ) ) ;
#570 = CALENDAR_DATE ( 2023, 18, 8 ) ;
#571 = DIRECTION ( 'NONE',  ( 0.000000000000000000, 0.000000000000000000, -1.000000000000000000 ) ) ;
#572 = ORIENTED_EDGE ( 'NONE', *, *, #647, .T. ) ;
#573 = DIRECTION ( 'NONE',  ( 0.000000000000000000, 0.000000000000000000, 1.000000000000000000 ) ) ;
#574 = COORDINATED_UNIVERSAL_TIME_OFFSET ( 1, 0, .AHEAD. ) ;
#575 = VECTOR ( 'NONE', #1032, 1000.000000000000000 ) ;
#576 = CIRCLE ( 'NONE', #1128, 3.000000000000000000 ) ;
#577 = DIRECTION ( 'NONE',  ( 0.000000000000000000, 0.000000000000000000, 1.000000000000000000 ) ) ;
#578 = ORIENTED_EDGE ( 'NONE', *, *, #225, .T. ) ;
#579 = DIRECTION ( 'NONE',  ( -0.000000000000000000, 1.000000000000000000, -0.000000000000000000 ) ) ;
#580 = EDGE_CURVE ( 'NONE', #272, #896, #281, .T. ) ;
#581 = FACE_BOUND ( 'NONE', #274, .T. ) ;
#582 = DIRECTION ( 'NONE',  ( 0.000000000000000000, 0.000000000000000000, -1.000000000000000000 ) ) ;
#583 = ORIENTED_EDGE ( 'NONE', *, *, #926, .F. ) ;
#584 = CARTESIAN_POINT ( 'NONE',  ( 110.0000000000000000, 2.000000000000000000, -2.000000000000000000 ) ) ;
#585 = EDGE_CURVE ( 'NONE', #742, #272, #356, .T. ) ;
#586 = CARTESIAN_POINT ( 'NONE',  ( 115.0000000000000000, 4.000000000000000000, -83.00000000000000000 ) ) ;
#587 = EDGE_CURVE ( 'NONE', #648, #1057, #757, .T. ) ;
#588 = DIRECTION ( 'NONE',  ( 0.000000000000000000, 0.000000000000000000, -1.000000000000000000 ) ) ;
#589 = ORIENTED_EDGE ( 'NONE', *, *, #1134, .F. ) ;
#590 = CYLINDRICAL_SURFACE ( 'NONE', #313, 1.699999999999993072 ) ;
#591 = AXIS2_PLACEMENT_3D ( 'NONE', #1186, #683, #582 ) ;
#592 = CIRCLE ( 'NONE', #122, 1.699999999999993072 ) ;
#593 = DIRECTION ( 'NONE',  ( -0.000000000000000000, 1.000000000000000000, -0.000000000000000000 ) ) ;
#594 = AXIS2_PLACEMENT_3D ( 'NONE', #991, #883, #492 ) ;
#595 = ADVANCED_FACE ( 'NONE', ( #155 ), #1188, .F. ) ;
#596 = AXIS2_PLACEMENT_3D ( 'NONE', #112, #1090, #421 ) ;
#597 = ORIENTED_EDGE ( 'NONE', *, *, #655, .T. ) ;
#598 = DIRECTION ( 'NONE',  ( -0.000000000000000000, 1.000000000000000000, -0.000000000000000000 ) ) ;
#599 = CARTESIAN_POINT ( 'NONE',  ( 0.000000000000000000, 4.000000000000000000, 0.000000000000000000 ) ) ;
#600 = CYLINDRICAL_SURFACE ( 'NONE', #932, 1.699999999999993072 ) ;
#601 = EDGE_CURVE ( 'NONE', #74, #389, #736, .T. ) ;
#602 = VERTEX_POINT ( 'NONE', #868 ) ;
#603 = CARTESIAN_POINT ( 'NONE',  ( 115.0000000000000000, 4.000000000000000000, -80.00000000000000000 ) ) ;
#604 = DIRECTION ( 'NONE',  ( 1.000000000000000000, 0.000000000000000000, 0.000000000000000000 ) ) ;
#605 = DIRECTION ( 'NONE',  ( -0.000000000000000000, 1.000000000000000000, -0.000000000000000000 ) ) ;
#606 = ORIENTED_EDGE ( 'NONE', *, *, #587, .T. ) ;
#607 = CARTESIAN_POINT ( 'NONE',  ( -6.000000000000000000, 2.000000000000000000, 2.000000000000000000 ) ) ;
#608 = ORIENTED_EDGE ( 'NONE', *, *, #567, .T. ) ;
#609 = EDGE_CURVE ( 'NONE', #325, #517, #551, .T. ) ;
#610 = CARTESIAN_POINT ( 'NONE',  ( -2.000000000000000000, 4.000000000000000000, -2.000000000000000000 ) ) ;
#611 = CARTESIAN_POINT ( 'NONE',  ( -2.000000000000000000, 4.000000000000000000, -79.00000000000000000 ) ) ;
#612 = FACE_OUTER_BOUND ( 'NONE', #491, .T. ) ;
#613 = AXIS2_PLACEMENT_3D ( 'NONE', #939, #351, #847 ) ;
#614 = VECTOR ( 'NONE', #569, 1000.000000000000000 ) ;
#615 = EDGE_LOOP ( 'NONE', ( #35, #778, #254, #1092 ) ) ;
#616 = VECTOR ( 'NONE', #249, 1000.000000000000000 ) ;
#617 = LINE ( 'NONE', #430, #764 ) ;
#618 = ORIENTED_EDGE ( 'NONE', *, *, #1246, .T. ) ;
#619 = CARTESIAN_POINT ( 'NONE',  ( -2.000000000000000000, 2.549999999999999378, -77.30000000000001137 ) ) ;
#620 = EDGE_CURVE ( 'NONE', #624, #1057, #1071, .T. ) ;
#621 = DIRECTION ( 'NONE',  ( -0.000000000000000000, 1.000000000000000000, -0.000000000000000000 ) ) ;
#622 = ORIENTED_EDGE ( 'NONE', *, *, #1060, .F. ) ;
#623 = CARTESIAN_POINT ( 'NONE',  ( 2.000000000000000000, 0.000000000000000000, -79.00000000000000000 ) ) ;
#624 = VERTEX_POINT ( 'NONE', #1144 ) ;
#625 = CARTESIAN_POINT ( 'NONE',  ( 115.0000000000000000, 2.000000000000000000, -83.00000000000000000 ) ) ;
#626 = DESIGN_CONTEXT ( 'detailed design', #668, 'design' ) ;
#627 = EDGE_CURVE ( 'NONE', #132, #74, #1159, .T. ) ;
#628 = DIRECTION ( 'NONE',  ( 8.659560562354951347E-17, 0.7071067811865460184, -0.7071067811865489050 ) ) ;
#629 = CARTESIAN_POINT ( 'NONE',  ( 118.0000000000000142, 4.000000000000000000, -1.000000000000000000 ) ) ;
#630 = EDGE_LOOP ( 'NONE', ( #1268, #9 ) ) ;
#631 = CARTESIAN_POINT ( 'NONE',  ( 115.0000000000000000, 4.000000000000000000, -1.000000000000000000 ) ) ;
#632 = ORIENTED_EDGE ( 'NONE', *, *, #538, .T. ) ;
#633 = DIRECTION ( 'NONE',  ( -0.000000000000000000, 1.000000000000000000, -0.000000000000000000 ) ) ;
#634 = CARTESIAN_POINT ( 'NONE',  ( 109.0000000000000000, 2.000000000000000000, -3.000000000000000000 ) ) ;
#635 = VERTEX_POINT ( 'NONE', #459 ) ;
#636 = CONICAL_SURFACE ( 'NONE', #1187, 3.149999999999999911, 0.7853981633974485010 ) ;
#637 = EDGE_CURVE ( 'NONE', #708, #325, #971, .T. ) ;
#638 = CARTESIAN_POINT ( 'NONE',  ( -2.000000000000000000, 4.000000000000000000, -75.84999999999999432 ) ) ;
#639 = AXIS2_PLACEMENT_3D ( 'NONE', #51, #1039, #1054 ) ;
#640 = ORIENTED_EDGE ( 'NONE', *, *, #363, .F. ) ;
#641 = CIRCLE ( 'NONE', #1295, 3.149999999999999911 ) ;
#642 = CARTESIAN_POINT ( 'NONE',  ( 112.0000000000000000, 0.000000000000000000, 0.000000000000000000 ) ) ;
#643 = LOCAL_TIME ( 12, 43, 44.00000000000000000, #83 ) ;
#644 = DIRECTION ( 'NONE',  ( -0.000000000000000000, 1.000000000000000000, -0.000000000000000000 ) ) ;
#645 = ORIENTED_EDGE ( 'NONE', *, *, #169, .T. ) ;
#646 = CARTESIAN_POINT ( 'NONE',  ( 109.0000000000000000, 2.000000000000000000, -78.00000000000000000 ) ) ;
#647 = EDGE_CURVE ( 'NONE', #1023, #1158, #496, .T. ) ;
#648 = VERTEX_POINT ( 'NONE', #959 ) ;
#649 = DIRECTION ( 'NONE',  ( -1.000000000000000000, -0.000000000000000000, -0.000000000000000000 ) ) ;
#650 = DIRECTION ( 'NONE',  ( -0.000000000000000000, 1.000000000000000000, -0.000000000000000000 ) ) ;
#651 = ORIENTED_EDGE ( 'NONE', *, *, #902, .F. ) ;
#652 = CYLINDRICAL_SURFACE ( 'NONE', #765, 3.000000000000002665 ) ;
#653 = EDGE_LOOP ( 'NONE', ( #689, #32, #260, #352 ) ) ;
#654 = CARTESIAN_POINT ( 'NONE',  ( 112.0000000000000000, 2.000000000000000000, 0.000000000000000000 ) ) ;
#655 = EDGE_CURVE ( 'NONE', #705, #660, #1046, .T. ) ;
#656 = DATE_TIME_ROLE ( 'creation_date' ) ;
#657 = DIRECTION ( 'NONE',  ( -0.000000000000000000, 1.000000000000000000, -0.000000000000000000 ) ) ;
#658 = DIRECTION ( 'NONE',  ( 0.000000000000000000, -1.000000000000000000, 0.000000000000000000 ) ) ;
#659 = AXIS2_PLACEMENT_3D ( 'NONE', #1177, #791, #391 ) ;
#660 = VERTEX_POINT ( 'NONE', #1251 ) ;
#661 = CIRCLE ( 'NONE', #1124, 3.000000000000002665 ) ;
#662 = CARTESIAN_POINT ( 'NONE',  ( 0.000000000000000000, 2.000000000000000000, -3.000000000000000000 ) ) ;
#663 = VECTOR ( 'NONE', #941, 1000.000000000000000 ) ;
#664 = EDGE_CURVE ( 'NONE', #550, #109, #357, .T. ) ;
#665 = ORIENTED_EDGE ( 'NONE', *, *, #504, .F. ) ;
#666 = ORIENTED_EDGE ( 'NONE', *, *, #466, .T. ) ;
#667 = CARTESIAN_POINT ( 'NONE',  ( 112.0000000000000000, 2.000000000000000000, -3.000000000000000000 ) ) ;
#668 = APPLICATION_CONTEXT ( 'configuration controlled 3d designs of mechanical parts and assemblies' ) ;
#669 = CARTESIAN_POINT ( 'NONE',  ( 2.000000000000000000, 2.000000000000000000, -79.00000000000000000 ) ) ;
#670 = EDGE_LOOP ( 'NONE', ( #1257, #1169, #1080, #755 ) ) ;
#671 = DIRECTION ( 'NONE',  ( -0.000000000000000000, 1.000000000000000000, -0.000000000000000000 ) ) ;
#672 = DATE_AND_TIME ( #570, #876 ) ;
#673 = CARTESIAN_POINT ( 'NONE',  ( 2.000000000000000000, 2.000000000000000000, -2.000000000000000000 ) ) ;
#674 = EDGE_CURVE ( 'NONE', #602, #517, #376, .T. ) ;
#675 = ORIENTED_EDGE ( 'NONE', *, *, #378, .T. ) ;
#676 = DIRECTION ( 'NONE',  ( -0.000000000000000000, 1.000000000000000000, -0.000000000000000000 ) ) ;
#677 = EDGE_LOOP ( 'NONE', ( #348, #473 ) ) ;
#678 = AXIS2_PLACEMENT_3D ( 'NONE', #908, #329, #1024 ) ;
#679 = VECTOR ( 'NONE', #270, 1000.000000000000000 ) ;
#680 = AXIS2_PLACEMENT_3D ( 'NONE', #46, #158, #374 ) ;
#681 = FACE_BOUND ( 'NONE', #982, .T. ) ;
#682 = CC_DESIGN_SECURITY_CLASSIFICATION ( #518, ( #315 ) ) ;
#683 = DIRECTION ( 'NONE',  ( 0.000000000000000000, -1.000000000000000000, 0.000000000000000000 ) ) ;
#684 = ORIENTED_EDGE ( 'NONE', *, *, #580, .F. ) ;
#685 = LINE ( 'NONE', #212, #42 ) ;
#686 = EDGE_CURVE ( 'NONE', #635, #204, #1165, .T. ) ;
#687 = LINE ( 'NONE', #495, #106 ) ;
#688 = DIRECTION ( 'NONE',  ( -0.000000000000000000, -1.000000000000000000, -0.000000000000000000 ) ) ;
#689 = ORIENTED_EDGE ( 'NONE', *, *, #538, .F. ) ;
#690 = DIRECTION ( 'NONE',  ( 0.000000000000000000, 0.000000000000000000, 1.000000000000000000 ) ) ;
#691 = ADVANCED_FACE ( 'NONE', ( #564 ), #763, .T. ) ;
#692 = FACE_OUTER_BOUND ( 'NONE', #401, .T. ) ;
#693 = DIRECTION ( 'NONE',  ( 0.000000000000000000, 0.000000000000000000, -1.000000000000000000 ) ) ;
#694 = ORIENTED_EDGE ( 'NONE', *, *, #713, .F. ) ;
#695 = DIRECTION ( 'NONE',  ( 0.000000000000000000, -1.000000000000000000, 0.000000000000000000 ) ) ;
#696 = CALENDAR_DATE ( 2023, 18, 8 ) ;
#697 = AXIS2_PLACEMENT_3D ( 'NONE', #220, #541, #139 ) ;
#698 = ADVANCED_FACE ( 'NONE', ( #105 ), #590, .F. ) ;
#699 = CIRCLE ( 'NONE', #296, 1.699999999999998401 ) ;
#700 = ORIENTED_EDGE ( 'NONE', *, *, #777, .T. ) ;
#701 = CARTESIAN_POINT ( 'NONE',  ( 114.0000000000000000, 4.000000000000000000, -79.00000000000000000 ) ) ;
#702 = DIRECTION ( 'NONE',  ( 0.000000000000000000, -1.000000000000000000, 0.000000000000000000 ) ) ;
#703 = DIRECTION ( 'NONE',  ( 1.000000000000000000, -0.000000000000000000, 0.000000000000000000 ) ) ;
#704 = LINE ( 'NONE', #629, #575 ) ;
#705 = VERTEX_POINT ( 'NONE', #873 ) ;
#706 = EDGE_CURVE ( 'NONE', #54, #1274, #1088, .T. ) ;
#707 = PLANE ( 'NONE',  #805 ) ;
#708 = VERTEX_POINT ( 'NONE', #90 ) ;
#709 = CARTESIAN_POINT ( 'NONE',  ( -2.000000000000000000, 4.000000000000000000, -3.699999999999998401 ) ) ;
#710 = DIRECTION ( 'NONE',  ( 0.000000000000000000, 0.000000000000000000, 1.000000000000000000 ) ) ;
#711 = ORIENTED_EDGE ( 'NONE', *, *, #466, .F. ) ;
#712 = CARTESIAN_POINT ( 'NONE',  ( -2.000000000000000000, 2.549999999999999378, -3.699999999999998845 ) ) ;
#713 = EDGE_CURVE ( 'NONE', #861, #896, #994, .T. ) ;
#714 = ORIENTED_EDGE ( 'NONE', *, *, #664, .F. ) ;
#715 = DIRECTION ( 'NONE',  ( 0.000000000000000000, 0.000000000000000000, -1.000000000000000000 ) ) ;
#716 = AXIS2_PLACEMENT_3D ( 'NONE', #1086, #96, #776 ) ;
#717 = LINE ( 'NONE', #215, #1146 ) ;
#718 = AXIS2_PLACEMENT_3D ( 'NONE', #937, #824, #342 ) ;
#719 = CIRCLE ( 'NONE', #1191, 1.699999999999998845 ) ;
#720 = EDGE_LOOP ( 'NONE', ( #1065, #266, #223, #229 ) ) ;
#721 = VECTOR ( 'NONE', #520, 1000.000000000000000 ) ;
#722 = DIRECTION ( 'NONE',  ( 1.000000000000000000, 0.000000000000000000, 0.000000000000000000 ) ) ;
#723 = ORIENTED_EDGE ( 'NONE', *, *, #766, .T. ) ;
#724 = CC_DESIGN_PERSON_AND_ORGANIZATION_ASSIGNMENT ( #846, #1072, ( #315 ) ) ;
#725 = CARTESIAN_POINT ( 'NONE',  ( 2.000000000000000000, 0.000000000000000000, -2.000000000000000000 ) ) ;
#726 = DIRECTION ( 'NONE',  ( 1.000000000000000000, 0.000000000000000000, -0.000000000000000000 ) ) ;
#727 = ORIENTED_EDGE ( 'NONE', *, *, #406, .T. ) ;
#728 = DIRECTION ( 'NONE',  ( -0.000000000000000000, 1.000000000000000000, -0.000000000000000000 ) ) ;
#729 = ORIENTED_EDGE ( 'NONE', *, *, #1008, .T. ) ;
#730 = PLANE ( 'NONE',  #718 ) ;
#731 = ADVANCED_FACE ( 'NONE', ( #1093 ), #416, .F. ) ;
#732 = CARTESIAN_POINT ( 'NONE',  ( -6.000000000000000000, 4.000000000000000000, -1.000000000000000000 ) ) ;
#733 = ORIENTED_EDGE ( 'NONE', *, *, #488, .F. ) ;
#734 = CARTESIAN_POINT ( 'NONE',  ( 109.0000000000000000, 2.000000000000000000, 0.000000000000000000 ) ) ;
#735 = VERTEX_POINT ( 'NONE', #291 ) ;
#736 = LINE ( 'NONE', #845, #458 ) ;
#737 = LINE ( 'NONE', #841, #781 ) ;
#738 = APPROVAL ( #479, 'UNSPECIFIED' ) ;
#739 = VECTOR ( 'NONE', #688, 1000.000000000000000 ) ;
#740 = ORIENTED_EDGE ( 'NONE', *, *, #620, .T. ) ;
#741 = AXIS2_PLACEMENT_3D ( 'NONE', #1244, #744, #1154 ) ;
#742 = VERTEX_POINT ( 'NONE', #1192 ) ;
#743 = VECTOR ( 'NONE', #1067, 1000.000000000000000 ) ;
#744 = DIRECTION ( 'NONE',  ( -0.000000000000000000, 1.000000000000000000, -0.000000000000000000 ) ) ;
#745 = APPLICATION_PROTOCOL_DEFINITION ( 'international standard', 'config_control_design', 1994, #1113 ) ;
#746 = DIRECTION ( 'NONE',  ( 0.000000000000000000, -1.000000000000000000, 0.000000000000000000 ) ) ;
#747 = EDGE_LOOP ( 'NONE', ( #196, #523, #165, #666, #151, #81, #1190, #946 ) ) ;
#748 = LINE ( 'NONE', #860, #958 ) ;
#749 = EDGE_CURVE ( 'NONE', #446, #705, #381, .T. ) ;
#750 = ORIENTED_EDGE ( 'NONE', *, *, #987, .F. ) ;
#751 = DIRECTION ( 'NONE',  ( -0.000000000000000000, 1.000000000000000000, -0.000000000000000000 ) ) ;
#752 = APPROVAL_DATE_TIME ( #271, #343 ) ;
#753 = LINE ( 'NONE', #1162, #292 ) ;
#754 = CARTESIAN_POINT ( 'NONE',  ( 114.0000000000000000, 2.549999999999999378, -80.69999999999998863 ) ) ;
#755 = ORIENTED_EDGE ( 'NONE', *, *, #1060, .T. ) ;
#756 = ADVANCED_FACE ( 'NONE', ( #478 ), #484, .F. ) ;
#757 = LINE ( 'NONE', #839, #293 ) ;
#758 = DIRECTION ( 'NONE',  ( 0.000000000000000000, 0.000000000000000000, 1.000000000000000000 ) ) ;
#759 = MANIFOLD_SOLID_BREP ( 'Formsenkung für M3 Linsensenkschraube mit Schlitz1', #952 ) ;
#760 = ORIENTED_EDGE ( 'NONE', *, *, #620, .F. ) ;
#761 = ORIENTED_EDGE ( 'NONE', *, *, #251, .F. ) ;
#762 = AXIS2_PLACEMENT_3D ( 'NONE', #1107, #633, #526 ) ;
#763 = CYLINDRICAL_SURFACE ( 'NONE', #399, 3.000000000000000000 ) ;
#764 = VECTOR ( 'NONE', #503, 1000.000000000000000 ) ;
#765 = AXIS2_PLACEMENT_3D ( 'NONE', #164, #471, #467 ) ;
#766 = EDGE_CURVE ( 'NONE', #985, #339, #699, .T. ) ;
#767 = DIRECTION ( 'NONE',  ( -0.000000000000000000, 1.000000000000000000, -0.000000000000000000 ) ) ;
#768 = EDGE_LOOP ( 'NONE', ( #651, #247, #245, #544 ) ) ;
#769 = DIRECTION ( 'NONE',  ( -0.000000000000000000, 1.000000000000000000, -0.000000000000000000 ) ) ;
#770 = APPROVAL_ROLE ( '' ) ;
#771 = EDGE_CURVE ( 'NONE', #861, #871, #685, .T. ) ;
#772 = DIRECTION ( 'NONE',  ( 0.000000000000000000, 0.000000000000000000, -1.000000000000000000 ) ) ;
#773 = EDGE_LOOP ( 'NONE', ( #814, #640 ) ) ;
#774 = CARTESIAN_POINT ( 'NONE',  ( -2.000000000000000000, 4.000000000000000000, -79.00000000000000000 ) ) ;
#775 = DIRECTION ( 'NONE',  ( 0.000000000000000000, 0.000000000000000000, -1.000000000000000000 ) ) ;
#776 = DIRECTION ( 'NONE',  ( 0.000000000000000000, 0.000000000000000000, 1.000000000000000000 ) ) ;
#777 = EDGE_CURVE ( 'NONE', #786, #990, #1075, .T. ) ;
#778 = ORIENTED_EDGE ( 'NONE', *, *, #504, .T. ) ;
#779 = EDGE_CURVE ( 'NONE', #468, #334, #1202, .T. ) ;
#780 = CARTESIAN_POINT ( 'NONE',  ( -2.000000000000000000, 4.000000000000000000, -79.00000000000000000 ) ) ;
#781 = VECTOR ( 'NONE', #65, 1000.000000000000000 ) ;
#782 = AXIS2_PLACEMENT_3D ( 'NONE', #4, #676, #690 ) ;
#783 = VECTOR ( 'NONE', #11, 1000.000000000000000 ) ;
#784 = FACE_OUTER_BOUND ( 'NONE', #720, .T. ) ;
#785 = DIRECTION ( 'NONE',  ( 8.659560562354951347E-17, 0.7071067811865460184, -0.7071067811865489050 ) ) ;
#786 = VERTEX_POINT ( 'NONE', #986 ) ;
#787 = DIRECTION ( 'NONE',  ( -0.000000000000000000, 1.000000000000000000, -0.000000000000000000 ) ) ;
#788 = EDGE_CURVE ( 'NONE', #13, #705, #977, .T. ) ;
#789 = PRODUCT_DEFINITION_SHAPE ( 'NONE', 'NONE',  #552 ) ;
#790 = FACE_OUTER_BOUND ( 'NONE', #38, .T. ) ;
#791 = DIRECTION ( 'NONE',  ( 0.000000000000000000, -1.000000000000000000, 0.000000000000000000 ) ) ;
#792 = ORIENTED_EDGE ( 'NONE', *, *, #859, .F. ) ;
#793 = DIRECTION ( 'NONE',  ( -0.000000000000000000, 1.000000000000000000, -0.000000000000000000 ) ) ;
#794 = ADVANCED_FACE ( 'NONE', ( #200 ), #981, .T. ) ;
#795 = CARTESIAN_POINT ( 'NONE',  ( 3.000000000000000000, 0.000000000000000000, -3.000000000000000000 ) ) ;
#796 = CARTESIAN_POINT ( 'NONE',  ( 2.000000000000000000, 2.000000000000000000, -79.00000000000000000 ) ) ;
#797 = ORIENTED_EDGE ( 'NONE', *, *, #327, .F. ) ;
#798 = CARTESIAN_POINT ( 'NONE',  ( -2.000000000000000000, 2.000000000000000000, -77.30000000000001137 ) ) ;
#799 = CARTESIAN_POINT ( 'NONE',  ( 114.0000000000000000, 4.000000000000000000, -80.69999999999998863 ) ) ;
#800 = DATE_AND_TIME ( #696, #1280 ) ;
#801 = CONICAL_SURFACE ( 'NONE', #354, 3.149999999999999911, 0.7853981633974485010 ) ;
#802 = CIRCLE ( 'NONE', #231, 3.149999999999999911 ) ;
#803 = CARTESIAN_POINT ( 'NONE',  ( 118.0000000000000142, 4.000000000000000000, -1.000000000000000000 ) ) ;
#804 = EDGE_CURVE ( 'NONE', #272, #742, #460, .T. ) ;
#805 = AXIS2_PLACEMENT_3D ( 'NONE', #239, #508, #14 ) ;
#806 = CC_DESIGN_APPROVAL ( #738, ( #315 ) ) ;
#807 = ORIENTED_EDGE ( 'NONE', *, *, #926, .T. ) ;
#808 = CARTESIAN_POINT ( 'NONE',  ( 0.000000000000000000, 2.000000000000000000, 0.000000000000000000 ) ) ;
#809 = ORIENTED_EDGE ( 'NONE', *, *, #869, .T. ) ;
#810 = CYLINDRICAL_SURFACE ( 'NONE', #872, 1.699999999999998401 ) ;
#811 = DIRECTION ( 'NONE',  ( 0.000000000000000000, 0.000000000000000000, 1.000000000000000000 ) ) ;
#812 = FACE_OUTER_BOUND ( 'NONE', #306, .T. ) ;
#813 = EDGE_CURVE ( 'NONE', #548, #660, #191, .T. ) ;
#814 = ORIENTED_EDGE ( 'NONE', *, *, #75, .F. ) ;
#815 = DIRECTION ( 'NONE',  ( -0.000000000000000000, 1.000000000000000000, -0.000000000000000000 ) ) ;
#816 = ORIENTED_EDGE ( 'NONE', *, *, #1213, .T. ) ;
#817 = DIRECTION ( 'NONE',  ( 0.000000000000000000, 0.000000000000000000, 1.000000000000000000 ) ) ;
#818 = CARTESIAN_POINT ( 'NONE',  ( 114.0000000000000000, 4.000000000000000000, -5.150000000000000355 ) ) ;
#819 = EDGE_CURVE ( 'NONE', #1061, #900, #719, .T. ) ;
#820 = ORIENTED_EDGE ( 'NONE', *, *, #438, .T. ) ;
#821 = CARTESIAN_POINT ( 'NONE',  ( 2.000000000000000000, 0.000000000000000000, -2.000000000000000000 ) ) ;
#822 = EDGE_CURVE ( 'NONE', #705, #446, #540, .T. ) ;
#823 = ORIENTED_EDGE ( 'NONE', *, *, #859, .T. ) ;
#824 = DIRECTION ( 'NONE',  ( 0.000000000000000000, 0.000000000000000000, 1.000000000000000000 ) ) ;
#825 = CARTESIAN_POINT ( 'NONE',  ( 114.0000000000000000, 4.000000000000000000, -75.84999999999999432 ) ) ;
#826 = LINE ( 'NONE', #434, #890 ) ;
#827 = VECTOR ( 'NONE', #534, 1000.000000000000000 ) ;
#828 = ORIENTED_EDGE ( 'NONE', *, *, #142, .T. ) ;
#829 = VECTOR ( 'NONE', #1049, 999.9999999999998863 ) ;
#830 = LINE ( 'NONE', #821, #911 ) ;
#831 = ORIENTED_EDGE ( 'NONE', *, *, #194, .F. ) ;
#832 = EDGE_CURVE ( 'NONE', #355, #389, #1197, .T. ) ;
#833 = DIRECTION ( 'NONE',  ( -0.000000000000000000, 1.000000000000000000, -0.000000000000000000 ) ) ;
#834 = LINE ( 'NONE', #818, #213 ) ;
#835 = DIRECTION ( 'NONE',  ( -0.000000000000000000, -1.000000000000000000, -0.000000000000000000 ) ) ;
#836 = ORIENTED_EDGE ( 'NONE', *, *, #363, .T. ) ;
#837 = FACE_BOUND ( 'NONE', #123, .T. ) ;
#838 = ORIENTED_EDGE ( 'NONE', *, *, #472, .T. ) ;
#839 = CARTESIAN_POINT ( 'NONE',  ( 109.0000000000000000, 2.000000000000000000, 0.000000000000000000 ) ) ;
#840 = EDGE_CURVE ( 'NONE', #470, #842, #956, .T. ) ;
#841 = CARTESIAN_POINT ( 'NONE',  ( 0.000000000000000000, 0.000000000000000000, 0.000000000000000000 ) ) ;
#842 = VERTEX_POINT ( 'NONE', #436 ) ;
#843 = CARTESIAN_POINT ( 'NONE',  ( 0.000000000000000000, 0.000000000000000000, 0.000000000000000000 ) ) ;
#844 = ORIENTED_EDGE ( 'NONE', *, *, #91, .F. ) ;
#845 = CARTESIAN_POINT ( 'NONE',  ( -6.000000000000000000, 4.000000000000000000, -1.000000000000000000 ) ) ;
#846 = PERSON_AND_ORGANIZATION ( #57, #934 ) ;
#847 = DIRECTION ( 'NONE',  ( 0.000000000000000000, 0.000000000000000000, 1.000000000000000000 ) ) ;
#848 = EDGE_CURVE ( 'NONE', #192, #346, #617, .T. ) ;
#849 = ORIENTED_EDGE ( 'NONE', *, *, #1015, .F. ) ;
#850 = CIRCLE ( 'NONE', #1275, 1.699999999999993072 ) ;
#851 = LINE ( 'NONE', #143, #278 ) ;
#852 = AXIS2_PLACEMENT_3D ( 'NONE', #780, #195, #499 ) ;
#853 = EDGE_LOOP ( 'NONE', ( #1115, #373, #476, #1224 ) ) ;
#854 = AXIS2_PLACEMENT_3D ( 'NONE', #599, #1085, #489 ) ;
#855 = CARTESIAN_POINT ( 'NONE',  ( -1.999999999999999556, 4.000000000000000000, -82.15000000000000568 ) ) ;
#856 = APPLICATION_PROTOCOL_DEFINITION ( 'international standard', 'config_control_design', 1994, #668 ) ;
#857 = CARTESIAN_POINT ( 'NONE',  ( 115.0000000000000000, 4.000000000000000000, -80.00000000000000000 ) ) ;
#858 = FACE_OUTER_BOUND ( 'NONE', #25, .T. ) ;
#859 = EDGE_CURVE ( 'NONE', #896, #861, #211, .T. ) ;
#860 = CARTESIAN_POINT ( 'NONE',  ( 2.000000000000000000, 2.000000000000000000, -2.000000000000000000 ) ) ;
#861 = VERTEX_POINT ( 'NONE', #115 ) ;
#862 = CARTESIAN_POINT ( 'NONE',  ( 112.0000000000000000, 2.000000000000000000, -78.00000000000000000 ) ) ;
#863 = DIRECTION ( 'NONE',  ( 0.000000000000000000, -0.000000000000000000, -1.000000000000000000 ) ) ;
#864 = ORIENTED_EDGE ( 'NONE', *, *, #1213, .F. ) ;
#865 = FACE_BOUND ( 'NONE', #773, .T. ) ;
#866 = CC_DESIGN_DATE_AND_TIME_ASSIGNMENT ( #1108, #1285, ( #518 ) ) ;
#867 = ORIENTED_EDGE ( 'NONE', *, *, #116, .T. ) ;
#868 = CARTESIAN_POINT ( 'NONE',  ( 112.0000000000000000, 2.000000000000000000, -3.000000000000000000 ) ) ;
#869 = EDGE_CURVE ( 'NONE', #13, #870, #1276, .T. ) ;
#870 = VERTEX_POINT ( 'NONE', #798 ) ;
#871 = VERTEX_POINT ( 'NONE', #1013 ) ;
#872 = AXIS2_PLACEMENT_3D ( 'NONE', #610, #1017, #817 ) ;
#873 = CARTESIAN_POINT ( 'NONE',  ( -2.000000000000000000, 2.549999999999999378, -80.69999999999998863 ) ) ;
#874 = VECTOR ( 'NONE', #793, 1000.000000000000000 ) ;
#875 = EDGE_CURVE ( 'NONE', #990, #355, #480, .T. ) ;
#876 = LOCAL_TIME ( 12, 43, 44.00000000000000000, #967 ) ;
#877 = DATE_AND_TIME ( #972, #643 ) ;
#878 = CARTESIAN_POINT ( 'NONE',  ( -2.000000000000000000, 4.000000000000000000, -79.00000000000000000 ) ) ;
#879 = ORIENTED_EDGE ( 'NONE', *, *, #75, .T. ) ;
#880 = DIRECTION ( 'NONE',  ( 0.000000000000000000, 0.000000000000000000, 1.000000000000000000 ) ) ;
#881 = CARTESIAN_POINT ( 'NONE',  ( -6.000000000000000000, 2.000000000000000000, -1.000000000000000000 ) ) ;
#882 = EDGE_LOOP ( 'NONE', ( #514, #428, #711, #532 ) ) ;
#883 = DIRECTION ( 'NONE',  ( -0.000000000000000000, 1.000000000000000000, -0.000000000000000000 ) ) ;
#884 = APPROVAL_ROLE ( '' ) ;
#885 = FACE_OUTER_BOUND ( 'NONE', #853, .T. ) ;
#886 = CARTESIAN_POINT ( 'NONE',  ( -2.000000000000000000, 4.000000000000000000, -2.000000000000000000 ) ) ;
#887 = EDGE_CURVE ( 'NONE', #735, #1070, #224, .T. ) ;
#888 = VERTEX_POINT ( 'NONE', #1228 ) ;
#889 = CARTESIAN_POINT ( 'NONE',  ( -2.000000000000000000, 2.549999999999999378, -2.000000000000000000 ) ) ;
#890 = VECTOR ( 'NONE', #621, 1000.000000000000000 ) ;
#891 = CIRCLE ( 'NONE', #188, 3.000000000000000000 ) ;
#892 = CIRCLE ( 'NONE', #335, 3.000000000000002665 ) ;
#893 = AXIS2_PLACEMENT_3D ( 'NONE', #1245, #27, #433 ) ;
#894 = FACE_BOUND ( 'NONE', #568, .T. ) ;
#895 = CARTESIAN_POINT ( 'NONE',  ( 115.0000000000000000, 4.000000000000000000, 2.000000000000000000 ) ) ;
#896 = VERTEX_POINT ( 'NONE', #314 ) ;
#897 = DIRECTION ( 'NONE',  ( 0.000000000000000000, 0.000000000000000000, -1.000000000000000000 ) ) ;
#898 = CARTESIAN_POINT ( 'NONE',  ( 118.0000000000000142, 4.000000000000000000, 2.000000000000000000 ) ) ;
#899 = LINE ( 'NONE', #388, #555 ) ;
#900 = VERTEX_POINT ( 'NONE', #712 ) ;
#901 = DIRECTION ( 'NONE',  ( -0.000000000000000000, 1.000000000000000000, -0.000000000000000000 ) ) ;
#902 = EDGE_CURVE ( 'NONE', #918, #238, #830, .T. ) ;
#903 = DIRECTION ( 'NONE',  ( -0.000000000000000000, 1.000000000000000000, -0.000000000000000000 ) ) ;
#904 = CARTESIAN_POINT ( 'NONE',  ( 114.0000000000000000, 2.000000000000000000, -3.699999999999993072 ) ) ;
#905 = ORIENTED_EDGE ( 'NONE', *, *, #749, .T. ) ;
#906 = CARTESIAN_POINT ( 'NONE',  ( 114.0000000000000000, 2.549999999999999378, -2.000000000000000000 ) ) ;
#907 = ORIENTED_EDGE ( 'NONE', *, *, #1182, .F. ) ;
#908 = CARTESIAN_POINT ( 'NONE',  ( -3.000000000000000000, 2.000000000000000000, -1.000000000000000000 ) ) ;
#909 = VECTOR ( 'NONE', #833, 1000.000000000000000 ) ;
#910 = EDGE_CURVE ( 'NONE', #346, #842, #531, .T. ) ;
#911 = VECTOR ( 'NONE', #722, 1000.000000000000000 ) ;
#912 = FACE_OUTER_BOUND ( 'NONE', #936, .T. ) ;
#913 = CARTESIAN_POINT ( 'NONE',  ( -6.000000000000000000, 2.000000000000000000, -83.00000000000000000 ) ) ;
#914 = AXIS2_PLACEMENT_3D ( 'NONE', #402, #95, #1284 ) ;
#915 = VECTOR ( 'NONE', #70, 1000.000000000000000 ) ;
#916 = EDGE_LOOP ( 'NONE', ( #1074, #831, #1250, #761 ) ) ;
#917 = DIRECTION ( 'NONE',  ( 1.000000000000000000, 0.000000000000000000, 0.000000000000000000 ) ) ;
#918 = VERTEX_POINT ( 'NONE', #24 ) ;
#919 = DIRECTION ( 'NONE',  ( -0.000000000000000000, 1.000000000000000000, -0.000000000000000000 ) ) ;
#920 = EDGE_CURVE ( 'NONE', #423, #80, #641, .T. ) ;
#921 = ORIENTED_EDGE ( 'NONE', *, *, #655, .F. ) ;
#922 = DIRECTION ( 'NONE',  ( -1.000000000000000000, -0.000000000000000000, -0.000000000000000000 ) ) ;
#923 = ORIENTED_EDGE ( 'NONE', *, *, #135, .T. ) ;
#924 = CARTESIAN_POINT ( 'NONE',  ( 0.000000000000000000, 2.000000000000000000, -78.00000000000000000 ) ) ;
#925 = ORIENTED_EDGE ( 'NONE', *, *, #875, .T. ) ;
#926 = EDGE_CURVE ( 'NONE', #1150, #990, #219, .T. ) ;
#927 = DIRECTION ( 'NONE',  ( 0.000000000000000000, 0.000000000000000000, 1.000000000000000000 ) ) ;
#928 = ORIENTED_EDGE ( 'NONE', *, *, #269, .T. ) ;
#929 = FACE_OUTER_BOUND ( 'NONE', #341, .T. ) ;
#930 = LINE ( 'NONE', #938, #616 ) ;
#931 = CARTESIAN_POINT ( 'NONE',  ( -2.000000000000000000, 4.000000000000000000, -0.3000000000000016542 ) ) ;
#932 = AXIS2_PLACEMENT_3D ( 'NONE', #222, #605, #338 ) ;
#933 = ORIENTED_EDGE ( 'NONE', *, *, #1238, .F. ) ;
#934 = ORGANIZATION ( 'UNSPECIFIED', 'UNSPECIFIED', '' ) ;
#935 = LINE ( 'NONE', #353, #915 ) ;
#936 = EDGE_LOOP ( 'NONE', ( #1270, #1118, #907, #1029 ) ) ;
#937 = CARTESIAN_POINT ( 'NONE',  ( -6.000000000000000000, 4.000000000000000000, -83.00000000000000000 ) ) ;
#938 = CARTESIAN_POINT ( 'NONE',  ( 118.0000000000000142, 2.000000000000000000, 2.000000000000000000 ) ) ;
#939 = CARTESIAN_POINT ( 'NONE',  ( -2.000000000000000000, 4.000000000000000000, -2.000000000000000000 ) ) ;
#940 = EDGE_LOOP ( 'NONE', ( #1235, #1153 ) ) ;
#941 = DIRECTION ( 'NONE',  ( 1.000000000000000000, 0.000000000000000000, 0.000000000000000000 ) ) ;
#942 = EDGE_LOOP ( 'NONE', ( #97, #556, #1120, #1021 ) ) ;
#943 = DIRECTION ( 'NONE',  ( 8.659560562354936556E-17, 0.7071067811865473507, -0.7071067811865477948 ) ) ;
#944 = EDGE_CURVE ( 'NONE', #1274, #1150, #892, .T. ) ;
#945 = DIRECTION ( 'NONE',  ( 0.000000000000000000, 0.000000000000000000, -1.000000000000000000 ) ) ;
#946 = ORIENTED_EDGE ( 'NONE', *, *, #453, .T. ) ;
#947 = CARTESIAN_POINT ( 'NONE',  ( 110.0000000000000000, 2.000000000000000000, -79.00000000000000000 ) ) ;
#948 = ORIENTED_EDGE ( 'NONE', *, *, #127, .T. ) ;
#949 = CARTESIAN_POINT ( 'NONE',  ( -2.000000000000000000, 4.000000000000000000, -2.000000000000000000 ) ) ;
#950 = CARTESIAN_POINT ( 'NONE',  ( -6.000000000000000000, 4.000000000000000000, 2.000000000000000000 ) ) ;
#951 = EDGE_CURVE ( 'NONE', #900, #553, #1007, .T. ) ;
#952 = CLOSED_SHELL ( 'NONE', ( #37, #1097, #983, #336, #731, #756, #108, #283, #1281, #969, #1083, #243, #277, #206, #961, #794, #201, #67, #1203, #1286, #1160, #400, #1111, #1166, #691, #1025, #372, #1189, #299, #1198, #1104, #1089, #698, #521, #101, #5, #289, #304, #429, #595 ) ) ;
#953 = DIRECTION ( 'NONE',  ( -0.000000000000000000, 1.000000000000000000, -0.000000000000000000 ) ) ;
#954 = CIRCLE ( 'NONE', #613, 3.149999999999999911 ) ;
#955 = CYLINDRICAL_SURFACE ( 'NONE', #44, 3.000000000000000000 ) ;
#956 = CIRCLE ( 'NONE', #440, 3.000000000000000000 ) ;
#957 = EDGE_LOOP ( 'NONE', ( #729, #1050, #1265, #404 ) ) ;
#958 = VECTOR ( 'NONE', #53, 1000.000000000000000 ) ;
#959 = CARTESIAN_POINT ( 'NONE',  ( 109.0000000000000000, 0.000000000000000000, 0.000000000000000000 ) ) ;
#960 = CARTESIAN_POINT ( 'NONE',  ( 0.000000000000000000, 0.000000000000000000, 0.000000000000000000 ) ) ;
#961 = ADVANCED_FACE ( 'NONE', ( #121 ), #707, .T. ) ;
#962 = ORIENTED_EDGE ( 'NONE', *, *, #749, .F. ) ;
#963 = EDGE_CURVE ( 'NONE', #1183, #1132, #326, .T. ) ;
#964 = PLANE ( 'NONE',  #680 ) ;
#965 = VERTEX_POINT ( 'NONE', #1028 ) ;
#966 = CARTESIAN_POINT ( 'NONE',  ( 109.0000000000000000, 2.000000000000000000, -3.000000000000000000 ) ) ;
#967 = COORDINATED_UNIVERSAL_TIME_OFFSET ( 1, 0, .AHEAD. ) ;
#968 = EDGE_LOOP ( 'NONE', ( #1201, #431, #539, #1105 ) ) ;
#969 = ADVANCED_FACE ( 'NONE', ( #1119 ), #417, .F. ) ;
#970 = EDGE_LOOP ( 'NONE', ( #820, #1000, #608, #450 ) ) ;
#971 = LINE ( 'NONE', #642, #679 ) ;
#972 = CALENDAR_DATE ( 2023, 18, 8 ) ;
#973 = CARTESIAN_POINT ( 'NONE',  ( 3.000000000000000000, 2.000000000000000000, -81.00000000000000000 ) ) ;
#974 = CIRCLE ( 'NONE', #493, 3.149999999999999911 ) ;
#975 = ORIENTED_EDGE ( 'NONE', *, *, #706, .F. ) ;
#976 = AXIS2_PLACEMENT_3D ( 'NONE', #1127, #644, #1047 ) ;
#977 = LINE ( 'NONE', #1082, #1081 ) ;
#978 = VECTOR ( 'NONE', #263, 1000.000000000000000 ) ;
#979 = DIRECTION ( 'NONE',  ( -0.000000000000000000, 1.000000000000000000, -0.000000000000000000 ) ) ;
#980 = ORIENTED_EDGE ( 'NONE', *, *, #944, .T. ) ;
#981 = PLANE ( 'NONE',  #359 ) ;
#982 = EDGE_LOOP ( 'NONE', ( #525, #23 ) ) ;
#983 = ADVANCED_FACE ( 'NONE', ( #36 ), #1043, .F. ) ;
#984 = FACE_OUTER_BOUND ( 'NONE', #942, .T. ) ;
#985 = VERTEX_POINT ( 'NONE', #246 ) ;
#986 = CARTESIAN_POINT ( 'NONE',  ( -3.000000000000000000, 2.000000000000000000, -83.00000000000000000 ) ) ;
#987 = EDGE_CURVE ( 'NONE', #415, #370, #257, .T. ) ;
#988 = LINE ( 'NONE', #1220, #721 ) ;
#989 = LINE ( 'NONE', #895, #209 ) ;
#990 = VERTEX_POINT ( 'NONE', #554 ) ;
#991 = CARTESIAN_POINT ( 'NONE',  ( -2.000000000000000000, 4.000000000000000000, -79.00000000000000000 ) ) ;
#992 = VECTOR ( 'NONE', #145, 1000.000000000000000 ) ;
#993 = APPROVAL_STATUS ( 'not_yet_approved' ) ;
#994 = CIRCLE ( 'NONE', #914, 1.699999999999993072 ) ;
#995 = AXIS2_PLACEMENT_3D ( 'NONE', #340, #728, #1137 ) ;
#996 = DIRECTION ( 'NONE',  ( 0.000000000000000000, 0.000000000000000000, 1.000000000000000000 ) ) ;
#997 = APPROVAL_PERSON_ORGANIZATION ( #403, #1176, #884 ) ;
#998 = CARTESIAN_POINT ( 'NONE',  ( -2.000000000000000000, 4.000000000000000000, -2.000000000000000000 ) ) ;
#999 = CC_DESIGN_PERSON_AND_ORGANIZATION_ASSIGNMENT ( #177, #1053, ( #218 ) ) ;
#1000 = ORIENTED_EDGE ( 'NONE', *, *, #392, .T. ) ;
#1001 = ADVANCED_BREP_SHAPE_REPRESENTATION ( 'housing_cover_Rev01b', ( #759, #1066 ), #481 ) ;
#1002 = EDGE_CURVE ( 'NONE', #355, #132, #253, .T. ) ;
#1003 = CARTESIAN_POINT ( 'NONE',  ( 114.0000000000000000, 2.000000000000000000, -79.00000000000000000 ) ) ;
#1004 = CALENDAR_DATE ( 2023, 18, 8 ) ;
#1005 = FACE_BOUND ( 'NONE', #940, .T. ) ;
#1006 = ORIENTED_EDGE ( 'NONE', *, *, #560, .T. ) ;
#1007 = LINE ( 'NONE', #1236, #1064 ) ;
#1008 = EDGE_CURVE ( 'NONE', #870, #13, #193, .T. ) ;
#1009 = CARTESIAN_POINT ( 'NONE',  ( 109.0000000000000000, 0.000000000000000000, -78.00000000000000000 ) ) ;
#1010 = CARTESIAN_POINT ( 'NONE',  ( 114.0000000000000000, 4.000000000000000000, -2.000000000000000000 ) ) ;
#1011 = CARTESIAN_POINT ( 'NONE',  ( 114.0000000000000000, 4.000000000000000000, -79.00000000000000000 ) ) ;
#1012 = ORIENTED_EDGE ( 'NONE', *, *, #587, .F. ) ;
#1013 = CARTESIAN_POINT ( 'NONE',  ( 114.0000000000000000, 4.000000000000000000, 1.149999999999999911 ) ) ;
#1014 = ORIENTED_EDGE ( 'NONE', *, *, #1151, .F. ) ;
#1015 = EDGE_CURVE ( 'NONE', #446, #548, #267, .T. ) ;
#1016 = AXIS2_PLACEMENT_3D ( 'NONE', #85, #593, #772 ) ;
#1017 = DIRECTION ( 'NONE',  ( -0.000000000000000000, 1.000000000000000000, -0.000000000000000000 ) ) ;
#1018 = AXIS2_PLACEMENT_3D ( 'NONE', #98, #695, #1179 ) ;
#1019 = DIRECTION ( 'NONE',  ( 1.000000000000000000, -0.000000000000000000, 0.000000000000000000 ) ) ;
#1020 = AXIS2_PLACEMENT_3D ( 'NONE', #6, #407, #1291 ) ;
#1021 = ORIENTED_EDGE ( 'NONE', *, *, #1051, .F. ) ;
#1022 = DIRECTION ( 'NONE',  ( 0.000000000000000000, 0.000000000000000000, 1.000000000000000000 ) ) ;
#1023 = VERTEX_POINT ( 'NONE', #152 ) ;
#1024 = DIRECTION ( 'NONE',  ( 0.000000000000000000, 0.000000000000000000, -1.000000000000000000 ) ) ;
#1025 = ADVANCED_FACE ( 'NONE', ( #174 ), #955, .T. ) ;
#1026 = DIRECTION ( 'NONE',  ( 1.000000000000000000, 0.000000000000000000, -0.000000000000000000 ) ) ;
#1027 = ORIENTED_EDGE ( 'NONE', *, *, #29, .F. ) ;
#1028 = CARTESIAN_POINT ( 'NONE',  ( 3.000000000000000000, 0.000000000000000000, 0.000000000000000000 ) ) ;
#1029 = ORIENTED_EDGE ( 'NONE', *, *, #1068, .F. ) ;
#1030 = DIRECTION ( 'NONE',  ( 0.000000000000000000, 0.000000000000000000, -1.000000000000000000 ) ) ;
#1031 = LINE ( 'NONE', #1225, #542 ) ;
#1032 = DIRECTION ( 'NONE',  ( 0.000000000000000000, -1.000000000000000000, 0.000000000000000000 ) ) ;
#1033 = EDGE_CURVE ( 'NONE', #965, #648, #1242, .T. ) ;
#1034 = EDGE_LOOP ( 'NONE', ( #302, #47, #141, #94 ) ) ;
#1035 = DIRECTION ( 'NONE',  ( -0.000000000000000000, -1.000000000000000000, 0.000000000000000000 ) ) ;
#1036 = ORIENTED_EDGE ( 'NONE', *, *, #951, .T. ) ;
#1037 = CARTESIAN_POINT ( 'NONE',  ( -6.000000000000000000, 4.000000000000000000, 2.000000000000000000 ) ) ;
#1038 = CONICAL_SURFACE ( 'NONE', #716, 3.149999999999999911, 0.7853981633974503884 ) ;
#1039 = DIRECTION ( 'NONE',  ( -0.000000000000000000, 1.000000000000000000, -0.000000000000000000 ) ) ;
#1040 = VECTOR ( 'NONE', #256, 1000.000000000000000 ) ;
#1041 = VECTOR ( 'NONE', #469, 1000.000000000000000 ) ;
#1042 = ORIENTED_EDGE ( 'NONE', *, *, #1068, .T. ) ;
#1043 = CONICAL_SURFACE ( 'NONE', #995, 3.149999999999999911, 0.7853981633974503884 ) ;
#1044 = CARTESIAN_POINT ( 'NONE',  ( -2.000000000000000000, 2.000000000000000000, -79.00000000000000000 ) ) ;
#1045 = ORIENTED_EDGE ( 'NONE', *, *, #1122, .F. ) ;
#1046 = LINE ( 'NONE', #855, #66 ) ;
#1047 = DIRECTION ( 'NONE',  ( 0.000000000000000000, 0.000000000000000000, 1.000000000000000000 ) ) ;
#1048 = ORIENTED_EDGE ( 'NONE', *, *, #453, .F. ) ;
#1049 = DIRECTION ( 'NONE',  ( 0.000000000000000000, 0.7071067811865473507, 0.7071067811865477948 ) ) ;
#1050 = ORIENTED_EDGE ( 'NONE', *, *, #788, .T. ) ;
#1051 = EDGE_CURVE ( 'NONE', #7, #735, #851, .T. ) ;
#1052 = LINE ( 'NONE', #667, #1040 ) ;
#1053 = PERSON_AND_ORGANIZATION_ROLE ( 'design_owner' ) ;
#1054 = DIRECTION ( 'NONE',  ( 0.000000000000000000, 0.000000000000000000, 1.000000000000000000 ) ) ;
#1055 = CARTESIAN_POINT ( 'NONE',  ( -2.000000000000000000, 4.000000000000000000, -79.00000000000000000 ) ) ;
#1056 = FACE_OUTER_BOUND ( 'NONE', #1259, .T. ) ;
#1057 = VERTEX_POINT ( 'NONE', #734 ) ;
#1058 = CARTESIAN_POINT ( 'NONE',  ( -2.000000000000000000, 4.000000000000000000, 1.149999999999999911 ) ) ;
#1059 = EDGE_CURVE ( 'NONE', #226, #7, #748, .T. ) ;
#1060 = EDGE_CURVE ( 'NONE', #1070, #1183, #935, .T. ) ;
#1061 = VERTEX_POINT ( 'NONE', #1263 ) ;
#1062 = VECTOR ( 'NONE', #604, 1000.000000000000000 ) ;
#1063 = DIRECTION ( 'NONE',  ( 0.000000000000000000, 0.000000000000000000, 1.000000000000000000 ) ) ;
#1064 = VECTOR ( 'NONE', #1217, 999.9999999999998863 ) ;
#1065 = ORIENTED_EDGE ( 'NONE', *, *, #832, .F. ) ;
#1066 = AXIS2_PLACEMENT_3D ( 'NONE', #960, #758, #1167 ) ;
#1067 = DIRECTION ( 'NONE',  ( 0.000000000000000000, 1.000000000000000000, -0.000000000000000000 ) ) ;
#1068 = EDGE_CURVE ( 'NONE', #624, #965, #1269, .T. ) ;
#1069 = VERTEX_POINT ( 'NONE', #754 ) ;
#1070 = VERTEX_POINT ( 'NONE', #947 ) ;
#1071 = LINE ( 'NONE', #180, #978 ) ;
#1072 = PERSON_AND_ORGANIZATION_ROLE ( 'design_supplier' ) ;
#1073 = DIRECTION ( 'NONE',  ( -1.000000000000000000, -0.000000000000000000, -0.000000000000000000 ) ) ;
#1074 = ORIENTED_EDGE ( 'NONE', *, *, #647, .F. ) ;
#1075 = LINE ( 'NONE', #405, #874 ) ;
#1076 = PERSON_AND_ORGANIZATION ( #57, #934 ) ;
#1077 = DIRECTION ( 'NONE',  ( -0.000000000000000000, -1.000000000000000000, 0.000000000000000000 ) ) ;
#1078 = AXIS2_PLACEMENT_3D ( 'NONE', #485, #490, #588 ) ;
#1079 = CIRCLE ( 'NONE', #494, 3.000000000000002665 ) ;
#1080 = ORIENTED_EDGE ( 'NONE', *, *, #887, .T. ) ;
#1081 = VECTOR ( 'NONE', #769, 1000.000000000000000 ) ;
#1082 = CARTESIAN_POINT ( 'NONE',  ( -2.000000000000000000, 4.000000000000000000, -80.69999999999998863 ) ) ;
#1083 = ADVANCED_FACE ( 'NONE', ( #1056 ), #964, .F. ) ;
#1084 = VECTOR ( 'NONE', #43, 1000.000000000000114 ) ;
#1085 = DIRECTION ( 'NONE',  ( 0.000000000000000000, -1.000000000000000000, 0.000000000000000000 ) ) ;
#1086 = CARTESIAN_POINT ( 'NONE',  ( 114.0000000000000000, 4.000000000000000000, -2.000000000000000000 ) ) ;
#1087 = ORIENTED_EDGE ( 'NONE', *, *, #1015, .T. ) ;
#1088 = LINE ( 'NONE', #385, #358 ) ;
#1089 = ADVANCED_FACE ( 'NONE', ( #261 ), #347, .T. ) ;
#1090 = DIRECTION ( 'NONE',  ( 0.000000000000000000, -1.000000000000000000, 0.000000000000000000 ) ) ;
#1091 = DIRECTION ( 'NONE',  ( 0.000000000000000000, 0.000000000000000000, 1.000000000000000000 ) ) ;
#1092 = ORIENTED_EDGE ( 'NONE', *, *, #411, .T. ) ;
#1093 = FACE_OUTER_BOUND ( 'NONE', #1172, .T. ) ;
#1094 = COORDINATED_UNIVERSAL_TIME_OFFSET ( 1, 0, .AHEAD. ) ;
#1095 = CC_DESIGN_PERSON_AND_ORGANIZATION_ASSIGNMENT ( #186, #1273, ( #315 ) ) ;
#1096 = CARTESIAN_POINT ( 'NONE',  ( 110.0000000000000000, 0.000000000000000000, -79.00000000000000000 ) ) ;
#1097 = ADVANCED_FACE ( 'NONE', ( #1142 ), #1163, .F. ) ;
#1098 = CARTESIAN_POINT ( 'NONE',  ( 2.000000000000000000, 2.000000000000000000, -79.00000000000000000 ) ) ;
#1099 = ORIENTED_EDGE ( 'NONE', *, *, #183, .T. ) ;
#1100 = DIRECTION ( 'NONE',  ( -0.000000000000000000, 1.000000000000000000, -0.000000000000000000 ) ) ;
#1101 = AXIS2_PLACEMENT_3D ( 'NONE', #857, #746, #1155 ) ;
#1102 = VECTOR ( 'NONE', #390, 1000.000000000000000 ) ;
#1103 = LINE ( 'NONE', #913, #827 ) ;
#1104 = ADVANCED_FACE ( 'NONE', ( #1157 ), #652, .T. ) ;
#1105 = ORIENTED_EDGE ( 'NONE', *, *, #91, .T. ) ;
#1106 = DIRECTION ( 'NONE',  ( 0.000000000000000000, -1.000000000000000000, 0.000000000000000000 ) ) ;
#1107 = CARTESIAN_POINT ( 'NONE',  ( 114.0000000000000000, 4.000000000000000000, -79.00000000000000000 ) ) ;
#1108 = DATE_AND_TIME ( #1004, #1129 ) ;
#1109 = CARTESIAN_POINT ( 'NONE',  ( 114.0000000000000000, 2.549999999999999378, -79.00000000000000000 ) ) ;
#1110 = CARTESIAN_POINT ( 'NONE',  ( 0.000000000000000000, 2.000000000000000000, -81.00000000000000000 ) ) ;
#1111 = ADVANCED_FACE ( 'NONE', ( #865, #273, #445, #837, #692 ), #308, .F. ) ;
#1112 = ORIENTED_EDGE ( 'NONE', *, *, #987, .T. ) ;
#1113 = APPLICATION_CONTEXT ( 'configuration controlled 3d designs of mechanical parts and assemblies' ) ;
#1114 = CARTESIAN_POINT ( 'NONE',  ( -2.000000000000000000, 2.000000000000000000, -79.00000000000000000 ) ) ;
#1115 = ORIENTED_EDGE ( 'NONE', *, *, #875, .F. ) ;
#1116 = FACE_OUTER_BOUND ( 'NONE', #77, .T. ) ;
#1117 = CYLINDRICAL_SURFACE ( 'NONE', #396, 1.699999999999993072 ) ;
#1118 = ORIENTED_EDGE ( 'NONE', *, *, #686, .F. ) ;
#1119 = FACE_OUTER_BOUND ( 'NONE', #968, .T. ) ;
#1120 = ORIENTED_EDGE ( 'NONE', *, *, #887, .F. ) ;
#1121 = VECTOR ( 'NONE', #1073, 1000.000000000000000 ) ;
#1122 = EDGE_CURVE ( 'NONE', #1069, #545, #361, .T. ) ;
#1123 = CARTESIAN_POINT ( 'NONE',  ( 114.0000000000000000, 2.000000000000000000, -77.30000000000001137 ) ) ;
#1124 = AXIS2_PLACEMENT_3D ( 'NONE', #345, #156, #250 ) ;
#1125 = AXIS2_PLACEMENT_3D ( 'NONE', #906, #901, #927 ) ;
#1126 = DIRECTION ( 'NONE',  ( -0.000000000000000000, -0.000000000000000000, 1.000000000000000000 ) ) ;
#1127 = CARTESIAN_POINT ( 'NONE',  ( 114.0000000000000000, 4.000000000000000000, -79.00000000000000000 ) ) ;
#1128 = AXIS2_PLACEMENT_3D ( 'NONE', #795, #197, #1199 ) ;
#1129 = LOCAL_TIME ( 12, 43, 44.00000000000000000, #574 ) ;
#1130 = ORIENTED_EDGE ( 'NONE', *, *, #135, .F. ) ;
#1131 = DIRECTION ( 'NONE',  ( 0.000000000000000000, 0.000000000000000000, -1.000000000000000000 ) ) ;
#1132 = VERTEX_POINT ( 'NONE', #207 ) ;
#1133 = DIRECTION ( 'NONE',  ( -0.000000000000000000, -0.000000000000000000, 1.000000000000000000 ) ) ;
#1134 = EDGE_CURVE ( 'NONE', #871, #1141, #442, .T. ) ;
#1135 = FACE_OUTER_BOUND ( 'NONE', #882, .T. ) ;
#1136 = ORIENTED_EDGE ( 'NONE', *, *, #1033, .T. ) ;
#1137 = DIRECTION ( 'NONE',  ( 0.000000000000000000, 0.000000000000000000, 1.000000000000000000 ) ) ;
#1138 = ORIENTED_EDGE ( 'NONE', *, *, #963, .F. ) ;
#1139 = LINE ( 'NONE', #26, #86 ) ;
#1140 = EDGE_CURVE ( 'NONE', #1150, #477, #300, .T. ) ;
#1141 = VERTEX_POINT ( 'NONE', #214 ) ;
#1142 = FACE_OUTER_BOUND ( 'NONE', #970, .T. ) ;
#1143 = ORIENTED_EDGE ( 'NONE', *, *, #448, .F. ) ;
#1144 = CARTESIAN_POINT ( 'NONE',  ( 3.000000000000000000, 2.000000000000000000, 0.000000000000000000 ) ) ;
#1145 = CARTESIAN_POINT ( 'NONE',  ( 0.000000000000000000, 0.000000000000000000, 0.000000000000000000 ) ) ;
#1146 = VECTOR ( 'NONE', #1215, 1000.000000000000000 ) ;
#1147 = CARTESIAN_POINT ( 'NONE',  ( 112.0000000000000000, 0.000000000000000000, -78.00000000000000000 ) ) ;
#1148 = CIRCLE ( 'NONE', #741, 1.699999999999998845 ) ;
#1149 = AXIS2_PLACEMENT_3D ( 'NONE', #1272, #547, #160 ) ;
#1150 = VERTEX_POINT ( 'NONE', #500 ) ;
#1151 = EDGE_CURVE ( 'NONE', #334, #109, #687, .T. ) ;
#1152 = DIRECTION ( 'NONE',  ( 0.000000000000000000, 0.000000000000000000, -1.000000000000000000 ) ) ;
#1153 = ORIENTED_EDGE ( 'NONE', *, *, #766, .F. ) ;
#1154 = DIRECTION ( 'NONE',  ( 0.000000000000000000, 0.000000000000000000, 1.000000000000000000 ) ) ;
#1155 = DIRECTION ( 'NONE',  ( 0.000000000000000000, 0.000000000000000000, -1.000000000000000000 ) ) ;
#1156 = EDGE_LOOP ( 'NONE', ( #1227, #1014, #1130, #844 ) ) ;
#1157 = FACE_OUTER_BOUND ( 'NONE', #1156, .T. ) ;
#1158 = VERTEX_POINT ( 'NONE', #803 ) ;
#1159 = LINE ( 'NONE', #176, #614 ) ;
#1160 = ADVANCED_FACE ( 'NONE', ( #790 ), #118, .F. ) ;
#1161 = PERSON_AND_ORGANIZATION_ROLE ( 'creator' ) ;
#1162 = CARTESIAN_POINT ( 'NONE',  ( 114.0000000000000000, 4.000000000000000000, -77.30000000000001137 ) ) ;
#1163 = CYLINDRICAL_SURFACE ( 'NONE', #126, 1.699999999999998401 ) ;
#1164 = ORIENTED_EDGE ( 'NONE', *, *, #448, .T. ) ;
#1165 = LINE ( 'NONE', #662, #743 ) ;
#1166 = ADVANCED_FACE ( 'NONE', ( #1005, #581, #294, #681, #894, #510 ), #21, .T. ) ;
#1167 = DIRECTION ( 'NONE',  ( 1.000000000000000000, 0.000000000000000000, 0.000000000000000000 ) ) ;
#1168 = CIRCLE ( 'NONE', #1078, 3.000000000000002665 ) ;
#1169 = ORIENTED_EDGE ( 'NONE', *, *, #387, .F. ) ;
#1170 = AXIS2_PLACEMENT_3D ( 'NONE', #427, #422, #1226 ) ;
#1171 = AXIS2_PLACEMENT_3D ( 'NONE', #82, #598, #880 ) ;
#1172 = EDGE_LOOP ( 'NONE', ( #30, #597, #563, #849 ) ) ;
#1173 = AXIS2_PLACEMENT_3D ( 'NONE', #99, #1, #305 ) ;
#1174 = CARTESIAN_POINT ( 'NONE',  ( 109.0000000000000000, 2.000000000000000000, -81.00000000000000000 ) ) ;
#1175 = DIRECTION ( 'NONE',  ( 0.000000000000000000, -1.000000000000000000, 0.000000000000000000 ) ) ;
#1176 = APPROVAL ( #993, 'UNSPECIFIED' ) ;
#1177 = CARTESIAN_POINT ( 'NONE',  ( 0.000000000000000000, 2.000000000000000000, 0.000000000000000000 ) ) ;
#1178 = ORIENTED_EDGE ( 'NONE', *, *, #236, .F. ) ;
#1179 = DIRECTION ( 'NONE',  ( 0.000000000000000000, 0.000000000000000000, -1.000000000000000000 ) ) ;
#1180 = PERSON_AND_ORGANIZATION_ROLE ( 'classification_officer' ) ;
#1181 = DIRECTION ( 'NONE',  ( 0.000000000000000000, 0.000000000000000000, 1.000000000000000000 ) ) ;
#1182 = EDGE_CURVE ( 'NONE', #965, #635, #576, .T. ) ;
#1183 = VERTEX_POINT ( 'NONE', #1096 ) ;
#1184 = DIRECTION ( 'NONE',  ( -0.000000000000000000, -0.000000000000000000, 1.000000000000000000 ) ) ;
#1185 = DIRECTION ( 'NONE',  ( -0.000000000000000000, 1.000000000000000000, -0.000000000000000000 ) ) ;
#1186 = CARTESIAN_POINT ( 'NONE',  ( 109.0000000000000000, 0.000000000000000000, -3.000000000000000000 ) ) ;
#1187 = AXIS2_PLACEMENT_3D ( 'NONE', #886, #767, #577 ) ;
#1188 = CONICAL_SURFACE ( 'NONE', #124, 3.149999999999999911, 0.7853981633974485010 ) ;
#1189 = ADVANCED_FACE ( 'NONE', ( #885 ), #505, .T. ) ;
#1190 = ORIENTED_EDGE ( 'NONE', *, *, #269, .F. ) ;
#1191 = AXIS2_PLACEMENT_3D ( 'NONE', #889, #787, #185 ) ;
#1192 = CARTESIAN_POINT ( 'NONE',  ( 114.0000000000000000, 2.000000000000000000, -0.3000000000000068723 ) ) ;
#1193 = CIRCLE ( 'NONE', #1278, 3.149999999999999911 ) ;
#1194 = PLANE ( 'NONE',  #1297 ) ;
#1195 = LINE ( 'NONE', #669, #1121 ) ;
#1196 = EDGE_LOOP ( 'NONE', ( #684, #535, #816, #1294 ) ) ;
#1197 = LINE ( 'NONE', #303, #233 ) ;
#1198 = ADVANCED_FACE ( 'NONE', ( #912 ), #397, .T. ) ;
#1199 = DIRECTION ( 'NONE',  ( 0.000000000000000000, 0.000000000000000000, -1.000000000000000000 ) ) ;
#1200 = CARTESIAN_POINT ( 'NONE',  ( 118.0000000000000142, 4.000000000000000000, 2.000000000000000000 ) ) ;
#1201 = ORIENTED_EDGE ( 'NONE', *, *, #309, .T. ) ;
#1202 = LINE ( 'NONE', #1289, #1102 ) ;
#1203 = ADVANCED_FACE ( 'NONE', ( #784 ), #1194, .F. ) ;
#1204 = DIRECTION ( 'NONE',  ( -0.000000000000000000, 1.000000000000000000, -0.000000000000000000 ) ) ;
#1205 = EDGE_LOOP ( 'NONE', ( #507, #975, #1048, #312 ) ) ;
#1206 = DIRECTION ( 'NONE',  ( 0.000000000000000000, 0.000000000000000000, -1.000000000000000000 ) ) ;
#1207 = VECTOR ( 'NONE', #1292, 1000.000000000000000 ) ;
#1208 = VECTOR ( 'NONE', #650, 1000.000000000000000 ) ;
#1209 = DIRECTION ( 'NONE',  ( 0.000000000000000000, 0.000000000000000000, -1.000000000000000000 ) ) ;
#1210 = SHAPE_DEFINITION_REPRESENTATION ( #789, #1001 ) ;
#1211 = VECTOR ( 'NONE', #332, 1000.000000000000000 ) ;
#1212 = APPROVAL_PERSON_ORGANIZATION ( #379, #738, #565 ) ;
#1213 = EDGE_CURVE ( 'NONE', #742, #861, #988, .T. ) ;
#1214 = DIRECTION ( 'NONE',  ( 0.000000000000000000, 0.000000000000000000, 1.000000000000000000 ) ) ;
#1215 = DIRECTION ( 'NONE',  ( 0.000000000000000000, -1.000000000000000000, 0.000000000000000000 ) ) ;
#1216 = ORIENTED_EDGE ( 'NONE', *, *, #1059, .T. ) ;
#1217 = DIRECTION ( 'NONE',  ( 8.659560562354936556E-17, 0.7071067811865473507, -0.7071067811865477948 ) ) ;
#1218 = ORIENTED_EDGE ( 'NONE', *, *, #251, .T. ) ;
#1219 = CARTESIAN_POINT ( 'NONE',  ( 118.0000000000000142, 2.000000000000000000, -1.000000000000000000 ) ) ;
#1220 = CARTESIAN_POINT ( 'NONE',  ( 114.0000000000000000, 4.000000000000000000, -0.3000000000000068723 ) ) ;
#1221 = CARTESIAN_POINT ( 'NONE',  ( 2.000000000000000000, 2.000000000000000000, -2.000000000000000000 ) ) ;
#1222 = EDGE_LOOP ( 'NONE', ( #3, #59, #1143, #179 ) ) ;
#1223 = CARTESIAN_POINT ( 'NONE',  ( -6.000000000000000000, 4.000000000000000000, -83.00000000000000000 ) ) ;
#1224 = ORIENTED_EDGE ( 'NONE', *, *, #1002, .F. ) ;
#1225 = CARTESIAN_POINT ( 'NONE',  ( 0.000000000000000000, 2.000000000000000000, 0.000000000000000000 ) ) ;
#1226 = DIRECTION ( 'NONE',  ( 0.000000000000000000, 0.000000000000000000, -1.000000000000000000 ) ) ;
#1227 = ORIENTED_EDGE ( 'NONE', *, *, #56, .F. ) ;
#1228 = CARTESIAN_POINT ( 'NONE',  ( 0.000000000000000000, 0.000000000000000000, -78.00000000000000000 ) ) ;
#1229 = EDGE_CURVE ( 'NONE', #660, #548, #1193, .T. ) ;
#1230 = EDGE_LOOP ( 'NONE', ( #792, #184, #328, #483 ) ) ;
#1231 = LINE ( 'NONE', #709, #992 ) ;
#1232 = VECTOR ( 'NONE', #922, 1000.000000000000000 ) ;
#1233 = DIRECTION ( 'NONE',  ( 0.000000000000000000, 0.000000000000000000, 1.000000000000000000 ) ) ;
#1234 = AXIS2_PLACEMENT_3D ( 'NONE', #950, #168, #386 ) ;
#1235 = ORIENTED_EDGE ( 'NONE', *, *, #438, .F. ) ;
#1236 = CARTESIAN_POINT ( 'NONE',  ( -1.999999999999999556, 4.000000000000000000, -5.150000000000000355 ) ) ;
#1237 = ORIENTED_EDGE ( 'NONE', *, *, #674, .T. ) ;
#1238 = EDGE_CURVE ( 'NONE', #896, #1141, #834, .T. ) ;
#1239 = CARTESIAN_POINT ( 'NONE',  ( 114.0000000000000000, 2.549999999999999378, -77.30000000000001137 ) ) ;
#1240 = CARTESIAN_POINT ( 'NONE',  ( 114.0000000000000000, 2.000000000000000000, -80.69999999999998863 ) ) ;
#1241 = ORIENTED_EDGE ( 'NONE', *, *, #788, .F. ) ;
#1242 = LINE ( 'NONE', #843, #663 ) ;
#1243 = ORIENTED_EDGE ( 'NONE', *, *, #920, .T. ) ;
#1244 = CARTESIAN_POINT ( 'NONE',  ( -2.000000000000000000, 2.549999999999999378, -2.000000000000000000 ) ) ;
#1245 = CARTESIAN_POINT ( 'NONE',  ( 3.000000000000000000, 2.000000000000000000, -3.000000000000000000 ) ) ;
#1246 = EDGE_CURVE ( 'NONE', #486, #204, #1031, .T. ) ;
#1247 = CARTESIAN_POINT ( 'NONE',  ( -2.000000000000000000, 2.000000000000000000, -0.3000000000000016542 ) ) ;
#1248 = ORIENTED_EDGE ( 'NONE', *, *, #664, .T. ) ;
#1249 = CARTESIAN_POINT ( 'NONE',  ( -6.000000000000000000, 4.000000000000000000, -80.00000000000000000 ) ) ;
#1250 = ORIENTED_EDGE ( 'NONE', *, *, #840, .F. ) ;
#1251 = CARTESIAN_POINT ( 'NONE',  ( -1.999999999999999556, 4.000000000000000000, -82.15000000000000568 ) ) ;
#1252 = AXIS2_PLACEMENT_3D ( 'NONE', #1110, #129, #1026 ) ;
#1253 = FACE_OUTER_BOUND ( 'NONE', #1205, .T. ) ;
#1254 = AXIS2_PLACEMENT_3D ( 'NONE', #774, #1100, #286 ) ;
#1255 = EDGE_CURVE ( 'NONE', #470, #54, #930, .T. ) ;
#1256 = VECTOR ( 'NONE', #1035, 1000.000000000000000 ) ;
#1257 = ORIENTED_EDGE ( 'NONE', *, *, #411, .F. ) ;
#1258 = DIRECTION ( 'NONE',  ( 0.000000000000000000, -1.000000000000000000, 0.000000000000000000 ) ) ;
#1259 = EDGE_LOOP ( 'NONE', ( #1136, #606, #760, #1042 ) ) ;
#1260 = CARTESIAN_POINT ( 'NONE',  ( -1.999999999999999556, 4.000000000000000000, -5.150000000000000355 ) ) ;
#1261 = FACE_OUTER_BOUND ( 'NONE', #1222, .T. ) ;
#1262 = EDGE_LOOP ( 'NONE', ( #665, #240, #1216, #1288 ) ) ;
#1263 = CARTESIAN_POINT ( 'NONE',  ( -2.000000000000000000, 2.549999999999999378, -0.3000000000000012101 ) ) ;
#1264 = EDGE_CURVE ( 'NONE', #204, #624, #171, .T. ) ;
#1265 = ORIENTED_EDGE ( 'NONE', *, *, #822, .T. ) ;
#1266 = CARTESIAN_POINT ( 'NONE',  ( -2.000000000000000000, 4.000000000000000000, -75.84999999999999432 ) ) ;
#1267 = MECHANICAL_CONTEXT ( 'NONE', #1113, 'mechanical' ) ;
#1268 = ORIENTED_EDGE ( 'NONE', *, *, #472, .F. ) ;
#1269 = LINE ( 'NONE', #536, #497 ) ;
#1270 = ORIENTED_EDGE ( 'NONE', *, *, #1264, .F. ) ;
#1271 = EDGE_CURVE ( 'NONE', #545, #80, #148, .T. ) ;
#1272 = CARTESIAN_POINT ( 'NONE',  ( 115.0000000000000000, 4.000000000000000000, -1.000000000000000000 ) ) ;
#1273 = PERSON_AND_ORGANIZATION_ROLE ( 'creator' ) ;
#1274 = VERTEX_POINT ( 'NONE', #344 ) ;
#1275 = AXIS2_PLACEMENT_3D ( 'NONE', #18, #533, #49 ) ;
#1276 = CIRCLE ( 'NONE', #147, 1.699999999999993072 ) ;
#1277 = EDGE_LOOP ( 'NONE', ( #138, #157, #823, #864 ) ) ;
#1278 = AXIS2_PLACEMENT_3D ( 'NONE', #611, #128, #242 ) ;
#1279 = DIRECTION ( 'NONE',  ( 0.000000000000000000, -1.000000000000000000, 0.000000000000000000 ) ) ;
#1280 = LOCAL_TIME ( 12, 43, 44.00000000000000000, #1094 ) ;
#1281 = ADVANCED_FACE ( 'NONE', ( #50, #449 ), #350, .T. ) ;
#1282 = CARTESIAN_POINT ( 'NONE',  ( 0.000000000000000000, 2.000000000000000000, -78.00000000000000000 ) ) ;
#1283 = ORIENTED_EDGE ( 'NONE', *, *, #609, .T. ) ;
#1284 = DIRECTION ( 'NONE',  ( 0.000000000000000000, 0.000000000000000000, 1.000000000000000000 ) ) ;
#1285 = DATE_TIME_ROLE ( 'classification_date' ) ;
#1286 = ADVANCED_FACE ( 'NONE', ( #1261 ), #92, .F. ) ;
#1287 = CYLINDRICAL_SURFACE ( 'NONE', #63, 1.699999999999993072 ) ;
#1288 = ORIENTED_EDGE ( 'NONE', *, *, #48, .T. ) ;
#1289 = CARTESIAN_POINT ( 'NONE',  ( 0.000000000000000000, 0.000000000000000000, -81.00000000000000000 ) ) ;
#1290 = APPROVAL_DATE_TIME ( #800, #1176 ) ;
#1291 = DIRECTION ( 'NONE',  ( 0.000000000000000000, 0.000000000000000000, -1.000000000000000000 ) ) ;
#1292 = DIRECTION ( 'NONE',  ( -0.000000000000000000, -1.000000000000000000, -0.000000000000000000 ) ) ;
#1293 = CIRCLE ( 'NONE', #1016, 3.000000000000002665 ) ;
#1294 = ORIENTED_EDGE ( 'NONE', *, *, #713, .T. ) ;
#1295 = AXIS2_PLACEMENT_3D ( 'NONE', #701, #815, #1022 ) ;
#1296 = CARTESIAN_POINT ( 'NONE',  ( -2.000000000000000000, 2.000000000000000000, -2.000000000000000000 ) ) ;
#1297 = AXIS2_PLACEMENT_3D ( 'NONE', #317, #703, #202 ) ;
ENDSEC;
END-ISO-10303-21;
