G04*
G04 #@! TF.GenerationSoftware,Altium Limited,Altium Designer,23.3.1 (30)*
G04*
G04 Layer_Color=65535*
%FSLAX25Y25*%
%MOIN*%
G70*
G04*
G04 #@! TF.SameCoordinates,D5E17B5D-E949-4171-A2EA-2CDC1E7426AC*
G04*
G04*
G04 #@! TF.FilePolarity,Positive*
G04*
G01*
G75*
%ADD10C,0.00787*%
%ADD11C,0.00013*%
%ADD12C,0.00394*%
%ADD13C,0.01000*%
%ADD14C,0.00591*%
%ADD15C,0.01575*%
G36*
X89880Y81104D02*
X90249Y80951D01*
X90566Y80709D01*
X90566Y80708D01*
X90566Y80708D01*
X90809Y80392D01*
X90962Y80023D01*
X90997Y79757D01*
X91014Y79627D01*
Y79494D01*
Y58657D01*
X91003Y58528D01*
X91003Y58528D01*
X91049Y58298D01*
X91179Y58103D01*
X91180Y58102D01*
X91374Y57973D01*
X91604Y57927D01*
X91607Y57928D01*
X91736Y57938D01*
X97644D01*
X97646Y57936D01*
Y57936D01*
X97646Y57936D01*
X97864Y57893D01*
X98051Y57768D01*
X98176Y57581D01*
X98195Y57485D01*
X98218Y57360D01*
X98219Y57354D01*
X98197Y57235D01*
X98176Y57128D01*
X98055Y56947D01*
X97951Y56874D01*
X97864Y56816D01*
X97646Y56773D01*
X97646D01*
X97644Y56770D01*
X91389D01*
Y56770D01*
X90995Y56822D01*
X90626Y56975D01*
X90308Y57219D01*
X90065Y57536D01*
X89912Y57906D01*
X89877Y58173D01*
X89860Y58302D01*
X89860Y58436D01*
Y79412D01*
X89871Y79412D01*
X89825Y79643D01*
X89694Y79839D01*
X89498Y79970D01*
X89270Y80016D01*
X89270Y80005D01*
X89270Y80005D01*
X72022D01*
X72022Y80005D01*
X72022Y80016D01*
X71793Y79970D01*
X71597Y79839D01*
X71467Y79643D01*
X71421Y79412D01*
X71421Y79412D01*
X71432Y79283D01*
Y58316D01*
X71432Y58316D01*
X71430Y58316D01*
X71432Y58302D01*
X71380Y57906D01*
X71227Y57536D01*
X70989Y57227D01*
X70889Y57146D01*
X70666Y56975D01*
X70296Y56822D01*
X69905Y56771D01*
X69905Y56770D01*
X55024D01*
Y56772D01*
X54804Y56816D01*
X54721Y56871D01*
X54617Y56941D01*
X54492Y57128D01*
X54448Y57349D01*
X54492Y57569D01*
X54547Y57652D01*
X54617Y57756D01*
X54804Y57881D01*
X55024Y57925D01*
Y57927D01*
X69555D01*
X69685Y57917D01*
X69688Y57916D01*
X69918Y57962D01*
X70113Y58092D01*
X70243Y58287D01*
X70289Y58517D01*
X70278D01*
Y79494D01*
X70278Y79627D01*
X70294Y79754D01*
X70330Y80023D01*
X70482Y80392D01*
X70725Y80708D01*
X70726Y80708D01*
X70726Y80709D01*
X71042Y80951D01*
X71411Y81104D01*
X71807Y81156D01*
X71807Y81156D01*
X89485D01*
X89485Y81156D01*
X89880Y81104D01*
D02*
G37*
G36*
X48742Y81156D02*
X65193D01*
X65194Y81145D01*
X65240Y81151D01*
X65430Y81126D01*
X65607Y81053D01*
X65759Y80936D01*
X65876Y80784D01*
X65949Y80607D01*
X65974Y80418D01*
X65949Y80228D01*
X65876Y80051D01*
X65797Y79949D01*
X65806Y79941D01*
X65806Y79941D01*
X49104Y57335D01*
X49086Y57333D01*
X49086D01*
X48966Y57176D01*
X48679Y56956D01*
X48344Y56817D01*
X48045Y56778D01*
X48045D01*
X48037Y56770D01*
X30978D01*
Y56770D01*
X30584Y56822D01*
X30215Y56975D01*
X29898Y57219D01*
X29654Y57536D01*
X29501Y57906D01*
X29466Y58173D01*
X29449Y58302D01*
X29449D01*
Y58436D01*
Y80463D01*
X29451D01*
X29495Y80684D01*
X29620Y80871D01*
X29725Y80941D01*
X29807Y80996D01*
X29898Y81014D01*
X30027Y81040D01*
Y81040D01*
X30245Y80996D01*
X30432Y80871D01*
X30557Y80684D01*
X30601Y80463D01*
X30603Y80463D01*
Y58660D01*
X30592Y58531D01*
Y58531D01*
X30638Y58301D01*
X30768Y58106D01*
X30769Y58105D01*
X30769D01*
X30963Y57976D01*
X31193Y57930D01*
X31196Y57930D01*
X31326Y57941D01*
X48045D01*
X48047Y57941D01*
X48090Y57950D01*
X48174Y58005D01*
X48174Y58005D01*
X48174Y58008D01*
X64144Y79650D01*
X64227Y79754D01*
X64267Y79852D01*
X64268Y79853D01*
X64217Y79975D01*
X64095Y80026D01*
X64094Y80026D01*
X64091Y80025D01*
X63961Y80014D01*
X48960D01*
Y80024D01*
X48729Y79979D01*
X48533Y79848D01*
X48402Y79652D01*
X48356Y79421D01*
X48367Y79410D01*
Y64398D01*
X48367Y64398D01*
X48365Y64397D01*
X48365Y64395D01*
X48322Y64175D01*
X48197Y63989D01*
X48011Y63865D01*
X47792Y63821D01*
Y63821D01*
X47665Y63846D01*
X47571Y63865D01*
X47384Y63990D01*
X47314Y64095D01*
X47259Y64177D01*
X47215Y64398D01*
X47213D01*
Y79627D01*
X47213Y79628D01*
X47265Y80023D01*
X47418Y80392D01*
X47661Y80708D01*
X47661Y80708D01*
X47661Y80709D01*
X47978Y80951D01*
X48346Y81104D01*
X48742Y81156D01*
X48742Y81156D01*
D02*
G37*
G36*
X50767Y49659D02*
X51568Y49523D01*
X52161Y49352D01*
X52172Y49357D01*
X52732Y49125D01*
X53263Y48800D01*
X53656Y48464D01*
X53750Y48371D01*
X54067Y48000D01*
X54379Y47491D01*
X54607Y46939D01*
X54638Y46813D01*
X54634Y46812D01*
X54744Y46431D01*
X54879Y45637D01*
X54924Y44833D01*
X54919Y44749D01*
X54925Y44749D01*
X54925Y44748D01*
Y36062D01*
X53545D01*
Y37501D01*
Y37624D01*
X53545Y37772D01*
X53543Y37777D01*
X53525Y37787D01*
X53412Y37684D01*
X53320Y37601D01*
X53270Y37555D01*
X52530Y37007D01*
X52134Y36769D01*
X52134D01*
X52020Y36698D01*
X51503Y36412D01*
X50939Y36179D01*
X50813Y36133D01*
X50690Y36092D01*
X50302Y35960D01*
X49659Y35832D01*
X49526Y35817D01*
X49181Y35766D01*
X48362Y35726D01*
X48229Y35724D01*
X48097Y35727D01*
X47539Y35764D01*
X46899Y35891D01*
X46591Y35996D01*
X46464Y36039D01*
X46065Y36204D01*
X45542Y36525D01*
X45281Y36747D01*
X45281Y36747D01*
X45119Y36886D01*
X44761Y37305D01*
X44473Y37775D01*
X44409Y37928D01*
X44409D01*
X44359Y38050D01*
X44257Y38296D01*
X44125Y38845D01*
X44087Y39323D01*
X44087Y39457D01*
X44087D01*
X44083Y39499D01*
X44081Y39590D01*
X44128Y40187D01*
X44274Y40798D01*
X44515Y41378D01*
X44843Y41913D01*
X45250Y42391D01*
X45728Y42799D01*
X46048Y42994D01*
X46156Y43068D01*
X46275Y43147D01*
X46787Y43400D01*
X46910Y43451D01*
X47273Y43602D01*
X47401Y43641D01*
X47721Y43756D01*
X47930Y43808D01*
Y43808D01*
X47930Y43809D01*
X48369Y43918D01*
X48500Y43946D01*
Y43946D01*
X48930Y44041D01*
X49108Y44064D01*
X49108Y44065D01*
X49624Y44133D01*
X49757Y44149D01*
X49889Y44164D01*
X50310Y44214D01*
X50311Y44214D01*
X50444Y44220D01*
X50577Y44229D01*
X51038Y44245D01*
X51171Y44250D01*
X51305Y44254D01*
X51928Y44275D01*
X51938Y44275D01*
Y44276D01*
X53530Y44276D01*
X53530D01*
X53530Y44276D01*
X53535Y44278D01*
X53535Y44278D01*
X53544Y44283D01*
X53548Y44356D01*
Y44357D01*
X53546Y44403D01*
X53504Y45363D01*
X53451Y45765D01*
X53436Y45899D01*
X53428Y45998D01*
X53420Y46031D01*
X53322Y46440D01*
X53148Y46860D01*
X52950Y47183D01*
X52868Y47283D01*
X52708Y47478D01*
X52330Y47788D01*
X51955Y47989D01*
X51899Y48019D01*
X51831Y48039D01*
X51831Y48039D01*
X51829Y48034D01*
X51415Y48175D01*
X50720Y48313D01*
X50012Y48360D01*
X49933Y48354D01*
X49799Y48355D01*
X49781Y48356D01*
X49667Y48351D01*
X49082Y48322D01*
X48949Y48314D01*
X48751Y48302D01*
Y48302D01*
X48722Y48299D01*
X48621Y48282D01*
X48445Y48252D01*
X48440Y48256D01*
X48271Y48223D01*
X48150Y48198D01*
X48149Y48199D01*
X48148Y48198D01*
X48024Y48173D01*
X47871Y48143D01*
X47865Y48133D01*
X47742Y48103D01*
X47638Y48078D01*
X47615Y48069D01*
X47616Y48067D01*
X47382Y47970D01*
Y47970D01*
X47161Y47879D01*
X47164Y47872D01*
X46963Y47764D01*
Y47764D01*
X46883Y47721D01*
X46852Y47695D01*
X46521Y47424D01*
X46225Y47063D01*
X46004Y46650D01*
X45869Y46203D01*
X45848Y45991D01*
X44598D01*
X44526Y46068D01*
X44511Y46125D01*
X44600Y46571D01*
X44626Y46698D01*
X44658Y46827D01*
X44725Y47024D01*
D01*
Y47024D01*
Y47024D01*
X44719Y47038D01*
X44791Y47210D01*
X44842Y47333D01*
X44842D01*
X44941Y47573D01*
X45227Y48039D01*
X45564Y48434D01*
X45878Y48703D01*
X45980Y48785D01*
X46089Y48852D01*
X46421Y49055D01*
X46544Y49108D01*
X46735Y49202D01*
X46843Y49243D01*
X46860Y49248D01*
X46985Y49291D01*
X47203Y49365D01*
X47203Y49366D01*
X47415Y49438D01*
X47570Y49469D01*
X47700Y49502D01*
X47964Y49547D01*
Y49547D01*
X47964Y49547D01*
X48248Y49595D01*
X48381Y49613D01*
X48641Y49651D01*
X48824Y49660D01*
X48825Y49661D01*
X49159Y49677D01*
X49292Y49683D01*
X49652Y49699D01*
X49786Y49695D01*
X49957Y49705D01*
X50767Y49659D01*
D02*
G37*
G36*
X42085Y49680D02*
X42098Y48417D01*
X41999Y48327D01*
X41824Y48344D01*
X41706Y48355D01*
X41691Y48354D01*
X41561Y48344D01*
X41317D01*
X41186Y48352D01*
X41181Y48353D01*
X41056Y48343D01*
X40735Y48317D01*
X40300Y48213D01*
X40037Y48104D01*
X40035Y48108D01*
X39535Y47862D01*
X39083Y47559D01*
X38995Y47501D01*
X38974Y47482D01*
X38881Y47412D01*
X38330Y46919D01*
X38133Y46699D01*
X38045Y46600D01*
X38044Y46600D01*
X38044Y46599D01*
X37955Y46499D01*
X37785Y46308D01*
X37361Y45712D01*
X37345Y45689D01*
X37294Y45597D01*
X37299Y45594D01*
X37298Y45591D01*
Y36062D01*
X35918D01*
Y49361D01*
X37298D01*
Y47824D01*
X37298Y47700D01*
Y47539D01*
X37297Y47538D01*
X37298Y47534D01*
Y47531D01*
X37300Y47526D01*
X37305Y47524D01*
X37305Y47524D01*
X37317Y47521D01*
X37431Y47649D01*
X37514Y47741D01*
X37745Y47999D01*
X38344Y48535D01*
X38483Y48634D01*
X38590Y48714D01*
X39113Y49064D01*
X39596Y49302D01*
X39596Y49302D01*
X40023Y49479D01*
X40634Y49625D01*
X40639Y49622D01*
X40791Y49652D01*
X41554Y49702D01*
X41554D01*
X41557Y49704D01*
X41813D01*
X42085Y49680D01*
D02*
G37*
G36*
X110215Y49657D02*
X110819Y49512D01*
X111393Y49274D01*
X111572Y49165D01*
X111685Y49095D01*
X111798Y49024D01*
X112169Y48707D01*
X112514Y48303D01*
X112791Y47850D01*
X112978Y47399D01*
X112982Y47388D01*
X112995Y47357D01*
X113016Y47267D01*
X113047Y47261D01*
X113194Y47482D01*
X113729Y48092D01*
X114142Y48454D01*
X114141Y48455D01*
X114282Y48579D01*
X114901Y48992D01*
X115318Y49198D01*
X115317Y49199D01*
X115495Y49287D01*
X116139Y49505D01*
X116518Y49581D01*
X116518Y49582D01*
X116988Y49661D01*
X117559Y49694D01*
X117691Y49701D01*
Y49701D01*
X117693Y49701D01*
X117824Y49700D01*
X118427Y49652D01*
X118905Y49537D01*
X119029Y49507D01*
X119151Y49459D01*
X119467Y49327D01*
X119583Y49260D01*
X119583D01*
X119872Y49082D01*
X120233Y48774D01*
X120541Y48414D01*
X120746Y48080D01*
X120804Y47959D01*
X120953Y47655D01*
X121063Y47332D01*
X121063Y47332D01*
X121063Y47332D01*
X121163Y47039D01*
X121222Y46739D01*
X121248Y46608D01*
X121272Y46477D01*
X121349Y46026D01*
X121362Y45787D01*
X121372Y45654D01*
X121409Y44897D01*
X121407Y44868D01*
X121409Y44868D01*
X121425Y36157D01*
X121331Y36062D01*
X120046D01*
Y44619D01*
X120057Y44748D01*
X120058Y44769D01*
X120052Y44880D01*
X120023Y45469D01*
X120015Y45603D01*
X120003Y45799D01*
X119980Y45927D01*
X119972Y45973D01*
X119953Y46105D01*
X119953D01*
X119897Y46390D01*
X119870Y46521D01*
X119854Y46603D01*
X119836Y46656D01*
X119804Y46775D01*
X119802Y46785D01*
X119802Y46785D01*
X119799Y46797D01*
X119756Y46899D01*
X119756Y46899D01*
X119664Y47120D01*
X119668Y47122D01*
X119562Y47320D01*
X119562D01*
X119562Y47320D01*
X119488Y47457D01*
X119451Y47502D01*
X119451Y47502D01*
X119450Y47501D01*
X119274Y47716D01*
X119111Y47850D01*
X119107Y47853D01*
X119104Y47856D01*
X119014Y47929D01*
X119007Y47935D01*
Y47935D01*
X118934Y47974D01*
X118819Y48035D01*
X118819Y48035D01*
X118817Y48037D01*
X118817D01*
X118653Y48124D01*
X118616Y48136D01*
X118518Y48166D01*
X118392Y48204D01*
X118393Y48207D01*
X118154Y48265D01*
X118154Y48265D01*
X118031Y48294D01*
X118009Y48300D01*
X117899Y48309D01*
Y48309D01*
X117626Y48331D01*
X117492Y48339D01*
X117341Y48349D01*
X117337Y48348D01*
Y48348D01*
X117210Y48337D01*
X116768Y48302D01*
X116165Y48157D01*
X115592Y47920D01*
X115173Y47663D01*
X115170Y47666D01*
X114518Y47183D01*
X113881Y46606D01*
X113304Y45969D01*
X113137Y45743D01*
X113138Y45743D01*
X113136Y45738D01*
Y36056D01*
X111756D01*
Y44616D01*
X111761Y44748D01*
X111767Y44866D01*
X111767Y44881D01*
X111724Y45744D01*
X111630Y46381D01*
X111632Y46382D01*
X111622Y46485D01*
X111614Y46513D01*
X111464Y47006D01*
X111259Y47389D01*
X111207Y47486D01*
X111192Y47505D01*
X111192Y47505D01*
X111185Y47501D01*
X111003Y47722D01*
X110724Y47952D01*
X110467Y48089D01*
X110405Y48122D01*
X110345Y48140D01*
X110222Y48190D01*
X110216Y48192D01*
X109707Y48314D01*
X109219Y48353D01*
X109185Y48355D01*
X109086Y48353D01*
Y48353D01*
X108547Y48310D01*
X107991Y48177D01*
X107463Y47958D01*
X106997Y47673D01*
X107002Y47666D01*
X106504Y47297D01*
X105796Y46654D01*
X105153Y45946D01*
X105008Y45750D01*
X105010Y45748D01*
X105008Y45744D01*
Y45744D01*
Y36062D01*
X103628D01*
Y49361D01*
X105008D01*
Y47680D01*
X105008Y47556D01*
Y47392D01*
X105010Y47387D01*
X105010Y47387D01*
X105015Y47385D01*
X105015Y47385D01*
X105016Y47385D01*
X105029Y47380D01*
X105142Y47504D01*
X105142D01*
X105225Y47596D01*
X105448Y47842D01*
X106096Y48429D01*
X106334Y48606D01*
Y48606D01*
X106337Y48621D01*
X106980Y49051D01*
X107490Y49302D01*
X107490Y49302D01*
X107490D01*
X107923Y49481D01*
X108516Y49624D01*
X108526Y49617D01*
D01*
X108526Y49617D01*
X108526Y49617D01*
X108791Y49662D01*
X109332Y49692D01*
X109466Y49696D01*
Y49696D01*
X109596Y49706D01*
X110215Y49657D01*
D02*
G37*
G36*
X80222Y49697D02*
X80356Y49699D01*
X81004Y49663D01*
X81697Y49545D01*
X82372Y49350D01*
X82696Y49216D01*
X82707Y49221D01*
X83269Y48944D01*
X83824Y48573D01*
X84326Y48132D01*
X84576Y47847D01*
X84576Y47848D01*
X84785Y47610D01*
X85237Y46933D01*
X85597Y46203D01*
X85781Y45661D01*
X85781Y45661D01*
X85781D01*
X85788Y45657D01*
X86012Y44765D01*
X86163Y43745D01*
X86213Y42716D01*
X86163Y41686D01*
X86012Y40667D01*
X85789Y39776D01*
X85780Y39772D01*
X85780D01*
X85713Y39539D01*
X85442Y38885D01*
X85100Y38265D01*
X84690Y37688D01*
X84584Y37569D01*
X84582Y37571D01*
X84338Y37292D01*
X83832Y36849D01*
X83272Y36474D01*
X82709Y36197D01*
X82699Y36201D01*
D01*
X82699D01*
X82699D01*
X82458Y36101D01*
X81738Y35893D01*
X80999Y35768D01*
X80251Y35726D01*
X79503Y35768D01*
X78764Y35893D01*
X78044Y36101D01*
X77803Y36201D01*
X77792Y36196D01*
X77223Y36477D01*
X76678Y36841D01*
X76185Y37273D01*
X75932Y37562D01*
X75930Y37561D01*
X75813Y37692D01*
X75399Y38275D01*
X75053Y38901D01*
X74779Y39562D01*
X74721Y39763D01*
X74713Y39768D01*
X74485Y40678D01*
X74334Y41696D01*
X74283Y42724D01*
X74334Y43752D01*
X74485Y44770D01*
X74713Y45681D01*
X74721Y45686D01*
Y45686D01*
X74906Y46231D01*
X75265Y46958D01*
X75715Y47633D01*
X75923Y47870D01*
X75924Y47869D01*
X76160Y48139D01*
X76664Y48581D01*
X77221Y48954D01*
X77800Y49239D01*
X77800Y49239D01*
Y49239D01*
X77802Y49242D01*
X78544Y49494D01*
X79340Y49652D01*
X80088Y49701D01*
X80222Y49697D01*
D02*
G37*
G36*
X17830Y43937D02*
X17830Y43937D01*
X17823Y43937D01*
X17831Y43751D01*
X17780Y42458D01*
X17628Y41173D01*
X17489Y40472D01*
X17490Y40472D01*
X17454Y40263D01*
X17258Y39581D01*
X16987Y38926D01*
X16644Y38305D01*
X16350Y37892D01*
X16350D01*
X16350Y37892D01*
X16351Y37886D01*
X15970Y37452D01*
X15470Y37014D01*
X14918Y36644D01*
X14322Y36351D01*
X14134Y36287D01*
X14133Y36288D01*
X13701Y36134D01*
X12777Y35902D01*
X11835Y35763D01*
X10883Y35716D01*
X10594Y35730D01*
X10593Y35727D01*
X10387Y35717D01*
X9364Y35767D01*
X8351Y35918D01*
X7698Y36081D01*
X7685Y36074D01*
X6943Y36326D01*
X6222Y36682D01*
X5810Y36956D01*
X5701Y37030D01*
X5701D01*
X5593Y37108D01*
X5172Y37478D01*
X4765Y37941D01*
X4442Y38425D01*
X4445Y38434D01*
Y38434D01*
X4444D01*
X4185Y38903D01*
X3884Y39630D01*
X3735Y40146D01*
X3736Y40147D01*
X3736D01*
X3736Y40147D01*
X3591Y40727D01*
X3450Y41673D01*
X3433Y42034D01*
X3420Y42045D01*
X3391Y42607D01*
X3399Y42616D01*
X3399D01*
X3399Y42616D01*
X3386Y43056D01*
X3382Y43190D01*
X3382D01*
X3365Y43754D01*
X3360Y43759D01*
X3359Y43940D01*
Y54860D01*
X4739D01*
Y43995D01*
X4737Y43993D01*
X4737D01*
X4737Y43993D01*
X4723Y43665D01*
X4772Y42537D01*
X4920Y41418D01*
X5125Y40493D01*
X5124Y40493D01*
X5140Y40417D01*
X5158Y40364D01*
X5342Y39819D01*
X5621Y39254D01*
X5972Y38729D01*
X6273Y38385D01*
X6267Y38378D01*
X6733Y37980D01*
X7258Y37658D01*
X7826Y37422D01*
X7986Y37384D01*
X8116Y37352D01*
X8491Y37258D01*
X9488Y37111D01*
X10494Y37061D01*
X10601Y37066D01*
X10700Y37061D01*
X10734Y37063D01*
X11736Y37112D01*
X12761Y37264D01*
X13113Y37352D01*
X13113Y37353D01*
X13113Y37353D01*
X13420Y37427D01*
X13968Y37654D01*
X14473Y37963D01*
X14863Y38296D01*
X14924Y38348D01*
X14959Y38390D01*
X14954Y38395D01*
X14954Y38395D01*
X14954Y38395D01*
X15040Y38493D01*
X15206Y38683D01*
X15564Y39219D01*
X15849Y39796D01*
X16045Y40372D01*
X16056Y40406D01*
X16075Y40502D01*
X16074Y40502D01*
X16267Y41374D01*
X16417Y42509D01*
X16467Y43652D01*
X16452Y43993D01*
Y43993D01*
X16450Y43995D01*
Y54860D01*
X17830D01*
Y43937D01*
D02*
G37*
G36*
X90958Y47679D02*
X90958Y47556D01*
Y47556D01*
X90958Y47392D01*
X90960Y47387D01*
X90965Y47385D01*
X90965Y47385D01*
X90980Y47379D01*
X91092Y47505D01*
X91174Y47597D01*
X91379Y47827D01*
X92083Y48456D01*
X92263Y48583D01*
X92264Y48590D01*
X92825Y48964D01*
X93371Y49233D01*
X93490Y49289D01*
X93615Y49334D01*
X94129Y49509D01*
X94501Y49583D01*
X94632Y49606D01*
X94960Y49661D01*
X95526Y49693D01*
X95658Y49699D01*
Y49699D01*
X95678Y49700D01*
X95791Y49699D01*
X96418Y49658D01*
X97015Y49539D01*
X97144Y49502D01*
X97272Y49470D01*
X97764Y49266D01*
Y49266D01*
X97764Y49266D01*
X97766Y49266D01*
X98207Y48996D01*
X98605Y48656D01*
X98945Y48257D01*
X99219Y47811D01*
X99365Y47459D01*
X99408Y47332D01*
X99556Y46895D01*
X99613Y46608D01*
X99641Y46477D01*
X99733Y45933D01*
X99742Y45787D01*
X99742D01*
X99753Y45654D01*
X99790Y44891D01*
X99789Y44868D01*
X99791Y44868D01*
X99791Y44868D01*
Y36062D01*
X98412D01*
Y44616D01*
X98417Y44748D01*
X98423Y44846D01*
X98421Y44881D01*
X98379Y45628D01*
X98255Y46358D01*
X98255Y46358D01*
X98115Y46817D01*
X97865Y47285D01*
X97794Y47371D01*
X97710Y47474D01*
X97710Y47475D01*
X97610Y47596D01*
X97267Y47879D01*
X96875Y48088D01*
X96865Y48091D01*
X96740Y48140D01*
X96725Y48147D01*
X96610Y48174D01*
X96063Y48305D01*
X95403Y48357D01*
X95385Y48359D01*
X95270Y48354D01*
Y48354D01*
X94665Y48307D01*
X94052Y48159D01*
X93468Y47918D01*
X93073Y47676D01*
X93069Y47683D01*
X93053Y47673D01*
X92960Y47605D01*
X92252Y47079D01*
X91513Y46410D01*
X90947Y45785D01*
X90951Y45782D01*
X90950Y45777D01*
Y36062D01*
X89570D01*
Y54860D01*
X90950D01*
X90958Y47679D01*
D02*
G37*
G36*
X71744Y53030D02*
X59099Y37652D01*
X59020Y37556D01*
Y37556D01*
X58920Y37434D01*
X58919Y37432D01*
X58918Y37429D01*
X58918Y37429D01*
X58918Y37429D01*
X58918Y37429D01*
X58919Y37426D01*
X58920Y37424D01*
X58920Y37424D01*
X58921Y37424D01*
X58921Y37424D01*
X58923Y37423D01*
X58925Y37422D01*
X59083D01*
X59207Y37422D01*
X72101D01*
Y36062D01*
X57527D01*
Y37873D01*
X70151Y53267D01*
X70229Y53363D01*
X70329Y53485D01*
X70330Y53487D01*
X70331Y53490D01*
X70331Y53490D01*
X70331Y53491D01*
X70330Y53493D01*
X70329Y53495D01*
X70328Y53495D01*
X70328Y53495D01*
X70328Y53495D01*
X70326Y53496D01*
X70324Y53497D01*
X58653D01*
Y54860D01*
X71744D01*
Y53030D01*
D02*
G37*
G36*
X24065Y36062D02*
X22685D01*
Y54860D01*
X24065D01*
Y36062D01*
D02*
G37*
G36*
X30408Y49371D02*
X30410Y49366D01*
X30415Y49364D01*
X32608D01*
Y48004D01*
X30415D01*
X30410Y48002D01*
X30408Y47997D01*
Y39740D01*
X30403Y39735D01*
X30403D01*
X30403Y39735D01*
X30395Y39600D01*
X30443Y38857D01*
X30531Y38418D01*
X30523Y38416D01*
X30620Y38097D01*
X30778Y37802D01*
X30895Y37660D01*
X30895Y37659D01*
X30895Y37659D01*
X30895Y37659D01*
X30893Y37657D01*
X30932Y37607D01*
X30987Y37565D01*
X31161Y37431D01*
X31368Y37345D01*
X31428Y37320D01*
X31495Y37311D01*
X31624Y37281D01*
X31671Y37270D01*
X32169Y37231D01*
X32257Y37224D01*
X32303Y37228D01*
X32434Y37235D01*
X32632D01*
X32689Y37235D01*
X32718Y37236D01*
X32719Y37236D01*
X32749Y37236D01*
X32749Y37236D01*
X32808Y37238D01*
X32813Y37237D01*
X32885Y37186D01*
X32936Y37121D01*
X32934Y35941D01*
X32764Y35923D01*
X32646Y35912D01*
X32529Y35902D01*
X32486Y35899D01*
X32351Y35902D01*
X32176Y35890D01*
X32176Y35890D01*
X32043Y35875D01*
X32000Y35874D01*
X32000D01*
X31941Y35873D01*
X31892Y35873D01*
X31764Y35883D01*
X31625Y35872D01*
X31080Y35914D01*
X30548Y36042D01*
X30325Y36134D01*
X30317Y36132D01*
X30038Y36281D01*
X29774Y36497D01*
X29558Y36760D01*
X29498Y36873D01*
X29498D01*
X29432Y36989D01*
X29262Y37401D01*
X29144Y37890D01*
X29127Y38109D01*
X29126Y38109D01*
X29076Y38539D01*
X29029Y39729D01*
X29034Y39852D01*
X29028Y39852D01*
X29028Y39852D01*
Y47994D01*
X29026Y47999D01*
X29021Y48001D01*
X27313D01*
Y49361D01*
X29021D01*
X29026Y49364D01*
X29028Y49369D01*
Y52852D01*
X30408D01*
Y49371D01*
D02*
G37*
G36*
X150926Y475045D02*
Y467171D01*
D01*
Y459297D01*
X68249D01*
Y467171D01*
Y475045D01*
X150926D01*
D02*
G37*
G36*
X62691Y486878D02*
X62698Y486747D01*
X62713Y486623D01*
X62727Y486513D01*
X62742Y486411D01*
X62764Y486317D01*
X62779Y486229D01*
X62793Y486149D01*
X62815Y486083D01*
X62830Y486025D01*
X62844Y485981D01*
X62859Y485945D01*
X62866Y485916D01*
X62873Y485901D01*
Y485894D01*
X62954Y485733D01*
X63056Y485588D01*
X63158Y485471D01*
X63267Y485369D01*
X63362Y485289D01*
X63442Y485230D01*
X63471Y485216D01*
X63493Y485201D01*
X63508Y485187D01*
X63515D01*
X63697Y485106D01*
X63887Y485048D01*
X64083Y485004D01*
X64266Y484975D01*
X64346Y484968D01*
X64426Y484961D01*
X64499Y484953D01*
X64557D01*
X64608Y484946D01*
X62684D01*
Y487016D01*
X62691Y486878D01*
D02*
G37*
G36*
X156491Y490793D02*
Y482919D01*
X150926D01*
Y475045D01*
X68249D01*
Y482919D01*
X62684D01*
Y484946D01*
X64674D01*
X64936Y484961D01*
X65053Y484975D01*
X65162Y484990D01*
X65272Y485012D01*
X65367Y485034D01*
X65454Y485055D01*
X65534Y485085D01*
X65607Y485114D01*
X65665Y485136D01*
X65724Y485157D01*
X65768Y485179D01*
X65804Y485201D01*
X65826Y485209D01*
X65840Y485223D01*
X65848D01*
X66008Y485332D01*
X66139Y485456D01*
X66241Y485573D01*
X66329Y485690D01*
X66394Y485792D01*
X66438Y485872D01*
X66453Y485901D01*
X66467Y485923D01*
X66475Y485938D01*
Y485945D01*
X66504Y486032D01*
X66533Y486127D01*
X66577Y486324D01*
X66606Y486528D01*
X66628Y486725D01*
X66635Y486812D01*
X66642Y486900D01*
Y486973D01*
X66650Y487038D01*
Y490078D01*
X65381D01*
X65979D01*
Y487162D01*
Y486995D01*
X65964Y486834D01*
X65950Y486696D01*
X65928Y486564D01*
X65906Y486448D01*
X65877Y486338D01*
X65855Y486244D01*
X65826Y486164D01*
X65797Y486098D01*
X65768Y486032D01*
X65738Y485989D01*
X65716Y485945D01*
X65695Y485916D01*
X65680Y485894D01*
X65673Y485886D01*
X65665Y485879D01*
X65600Y485821D01*
X65527Y485770D01*
X65367Y485690D01*
X65199Y485631D01*
X65024Y485595D01*
X64864Y485566D01*
X64798Y485558D01*
X64732D01*
X64689Y485551D01*
X64616D01*
X64463Y485558D01*
X64324Y485580D01*
X64193Y485602D01*
X64091Y485639D01*
X64003Y485668D01*
X63938Y485690D01*
X63901Y485711D01*
X63887Y485719D01*
X63785Y485784D01*
X63697Y485865D01*
X63624Y485945D01*
X63573Y486018D01*
X63529Y486091D01*
X63493Y486142D01*
X63478Y486178D01*
X63471Y486193D01*
X63449Y486258D01*
X63435Y486324D01*
X63406Y486477D01*
X63384Y486637D01*
X63369Y486798D01*
X63362Y486936D01*
Y487002D01*
X63354Y487053D01*
Y487097D01*
Y487133D01*
Y487155D01*
Y487162D01*
Y490078D01*
X62684D01*
Y490793D01*
X156491D01*
D02*
G37*
%LPC*%
G36*
X51415Y42926D02*
X51312Y42923D01*
X50298Y42887D01*
X50165Y42879D01*
X50074Y42876D01*
X49775Y42840D01*
X49771Y42843D01*
Y42843D01*
X49275Y42778D01*
X49275Y42778D01*
X49275Y42778D01*
X48809Y42708D01*
X48803Y42701D01*
X48504Y42650D01*
X48374Y42612D01*
X48374Y42611D01*
X47971Y42495D01*
X47971Y42496D01*
X47596Y42369D01*
X47596Y42368D01*
X47470Y42325D01*
X47375Y42279D01*
X47253Y42223D01*
X47134Y42174D01*
X46943Y42056D01*
X46942Y42056D01*
X46654Y41901D01*
X46242Y41563D01*
X45904Y41151D01*
X45653Y40681D01*
X45498Y40171D01*
X45454Y39726D01*
X45446Y39641D01*
X45451Y39593D01*
X45448Y39514D01*
X45489Y39095D01*
X45611Y38691D01*
X45810Y38320D01*
X46077Y37994D01*
X46394Y37734D01*
X46396Y37737D01*
X46764Y37511D01*
X47023Y37404D01*
Y37404D01*
X47023Y37404D01*
X47267Y37303D01*
X47502Y37246D01*
X47507Y37238D01*
X47642Y37211D01*
X47772Y37185D01*
X47773Y37185D01*
Y37185D01*
X47774Y37185D01*
X47774Y37185D01*
X47903Y37159D01*
X48049Y37130D01*
X48049Y37129D01*
X48090Y37121D01*
X48208Y37113D01*
X48341Y37103D01*
X48647Y37086D01*
Y37086D01*
X48779Y37078D01*
X48962Y37068D01*
X48965Y37068D01*
X48984Y37070D01*
X49561Y37108D01*
X50129Y37221D01*
X50343Y37294D01*
X50346Y37292D01*
X50346D01*
Y37292D01*
X50514Y37341D01*
X51175Y37615D01*
X51604Y37852D01*
X51604Y37852D01*
X51834Y37979D01*
X52517Y38463D01*
X52685Y38613D01*
X52690Y38613D01*
X53299Y39165D01*
X53544Y39435D01*
X53543Y39435D01*
X53545Y39440D01*
Y42908D01*
X53543Y42913D01*
X53538Y42915D01*
X51574D01*
X51444Y42926D01*
X51415Y42926D01*
D02*
G37*
G36*
X80214Y48355D02*
X79538Y48310D01*
X78874Y48178D01*
X78338Y47997D01*
X78340Y47992D01*
X78062Y47877D01*
X77543Y47558D01*
X77079Y47162D01*
X76977Y47043D01*
X76977Y47043D01*
X76890Y46942D01*
X76747Y46780D01*
X76399Y46259D01*
X76122Y45698D01*
X75950Y45190D01*
X75953Y45189D01*
X75794Y44554D01*
X75660Y43647D01*
X75615Y42730D01*
X75660Y41813D01*
X75794Y40905D01*
X75953Y40271D01*
X75950Y40270D01*
X76127Y39747D01*
X76414Y39167D01*
X76773Y38629D01*
X76889Y38497D01*
X76890Y38498D01*
X76890Y38498D01*
X76891Y38497D01*
X77109Y38243D01*
X77563Y37854D01*
X78073Y37542D01*
X78340Y37431D01*
X78337Y37424D01*
X78898Y37234D01*
X79520Y37110D01*
X80153Y37069D01*
X80222Y37073D01*
X80283Y37069D01*
X80355Y37074D01*
X80910Y37110D01*
X81527Y37233D01*
X82090Y37424D01*
X82087Y37431D01*
X82354Y37542D01*
X82864Y37854D01*
X83319Y38243D01*
X83536Y38497D01*
X83537Y38498D01*
X83539Y38497D01*
X83657Y38633D01*
X84023Y39180D01*
X84315Y39771D01*
X84442Y40146D01*
X84484Y40270D01*
X84658Y40963D01*
X84788Y41842D01*
X84832Y42730D01*
X84788Y43618D01*
X84658Y44497D01*
X84484Y45189D01*
X84484Y45189D01*
X84320Y45673D01*
X84037Y46246D01*
X83683Y46777D01*
X83538Y46942D01*
Y46942D01*
X83538D01*
X83450Y47043D01*
X83348Y47162D01*
X82885Y47558D01*
X82365Y47877D01*
X82087Y47992D01*
X82089Y47997D01*
X81553Y48178D01*
X80889Y48310D01*
X80214Y48355D01*
D02*
G37*
G36*
X77803Y36201D02*
X77803D01*
D01*
X77803D01*
D02*
G37*
G36*
X127237Y474414D02*
X125101D01*
X126661D01*
X126515Y474407D01*
X126391Y474392D01*
X126282Y474363D01*
X126194Y474341D01*
X126121Y474312D01*
X126070Y474283D01*
X126034Y474268D01*
X126027Y474261D01*
X125946Y474203D01*
X125881Y474137D01*
X125830Y474071D01*
X125786Y474013D01*
X125750Y473962D01*
X125728Y473918D01*
X125720Y473882D01*
X125713Y473875D01*
X125691Y473802D01*
X125677Y473714D01*
X125662Y473619D01*
X125655Y473532D01*
Y473452D01*
X125647Y473386D01*
Y473342D01*
Y473335D01*
Y473328D01*
Y472941D01*
X125101D01*
D01*
Y472460D01*
X125647D01*
Y469282D01*
X125101D01*
X127237D01*
X126267D01*
Y472460D01*
X126974D01*
Y472941D01*
X126267D01*
Y473277D01*
X126275Y473393D01*
X126289Y473488D01*
X126304Y473561D01*
X126326Y473619D01*
X126347Y473670D01*
X126369Y473700D01*
X126376Y473714D01*
X126384Y473722D01*
X126435Y473765D01*
X126493Y473794D01*
X126559Y473816D01*
X126624Y473831D01*
X126683Y473838D01*
X126734Y473845D01*
X126778D01*
X126909Y473838D01*
X126967Y473831D01*
X127025D01*
X127076Y473823D01*
X127113Y473816D01*
X127135Y473809D01*
X127142D01*
X127237Y474348D01*
X127120Y474370D01*
X127018Y474385D01*
X126916Y474399D01*
X126829Y474407D01*
X126763Y474414D01*
X127237D01*
D02*
G37*
G36*
X138288Y473022D02*
Y472941D01*
X137720D01*
Y472490D01*
X137640Y472584D01*
X137552Y472664D01*
X137465Y472737D01*
X137377Y472796D01*
X137282Y472847D01*
X137195Y472890D01*
X137107Y472927D01*
X137027Y472956D01*
X136947Y472978D01*
X136874Y472993D01*
X136809Y473007D01*
X136758Y473014D01*
X136714Y473022D01*
X138288D01*
X135066D01*
Y467802D01*
Y471126D01*
X135073Y470988D01*
X135081Y470849D01*
X135132Y470601D01*
X135161Y470485D01*
X135197Y470383D01*
X135234Y470281D01*
X135270Y470193D01*
X135307Y470106D01*
X135343Y470033D01*
X135380Y469974D01*
X135409Y469916D01*
X135438Y469880D01*
X135460Y469843D01*
X135467Y469829D01*
X135475Y469821D01*
X135555Y469727D01*
X135642Y469646D01*
X135737Y469573D01*
X135832Y469508D01*
X135934Y469457D01*
X136029Y469413D01*
X136123Y469377D01*
X136218Y469347D01*
X136305Y469326D01*
X136386Y469311D01*
X136459Y469296D01*
X136524Y469289D01*
X136575D01*
X136612Y469282D01*
X136648D01*
X136758Y469289D01*
X136867Y469304D01*
X136969Y469326D01*
X137064Y469355D01*
X137231Y469435D01*
X137384Y469522D01*
X137443Y469566D01*
X137501Y469610D01*
X137552Y469654D01*
X137589Y469690D01*
X137618Y469719D01*
X137640Y469741D01*
X137654Y469756D01*
X137662Y469763D01*
Y469654D01*
Y469559D01*
X137654Y469464D01*
Y469384D01*
Y469311D01*
X137647Y469245D01*
Y469187D01*
X137640Y469136D01*
X137632Y469063D01*
X137625Y469005D01*
X137618Y468976D01*
Y468968D01*
X137581Y468859D01*
X137530Y468764D01*
X137479Y468684D01*
X137428Y468611D01*
X137377Y468560D01*
X137333Y468516D01*
X137304Y468495D01*
X137297Y468487D01*
X137202Y468429D01*
X137093Y468385D01*
X136984Y468356D01*
X136881Y468334D01*
X136779Y468320D01*
X136706Y468312D01*
X136634D01*
X136495Y468320D01*
X136364Y468341D01*
X136255Y468371D01*
X136167Y468407D01*
X136094Y468436D01*
X136043Y468465D01*
X136014Y468487D01*
X135999Y468495D01*
X135941Y468546D01*
X135897Y468611D01*
X135861Y468677D01*
X135832Y468742D01*
X135817Y468808D01*
X135802Y468859D01*
X135795Y468888D01*
Y468903D01*
X135190Y468983D01*
Y468874D01*
X135205Y468779D01*
X135219Y468684D01*
X135241Y468597D01*
X135307Y468443D01*
X135380Y468320D01*
X135453Y468225D01*
X135511Y468159D01*
X135562Y468116D01*
X135569Y468108D01*
X135576Y468101D01*
X135737Y467999D01*
X135912Y467926D01*
X136087Y467875D01*
X136255Y467838D01*
X136335Y467824D01*
X136408Y467817D01*
X136466Y467809D01*
X136524D01*
X136568Y467802D01*
X136634D01*
X136830Y467809D01*
X137013Y467838D01*
X137173Y467868D01*
X137304Y467911D01*
X137414Y467948D01*
X137457Y467962D01*
X137494Y467984D01*
X137523Y467991D01*
X137545Y468006D01*
X137552Y468013D01*
X137559D01*
X137691Y468094D01*
X137807Y468188D01*
X137902Y468283D01*
X137982Y468371D01*
X138040Y468451D01*
X138077Y468516D01*
X138106Y468560D01*
X138113Y468567D01*
Y468575D01*
X138143Y468648D01*
X138172Y468728D01*
X138194Y468815D01*
X138215Y468910D01*
X138245Y469114D01*
X138267Y469311D01*
X138274Y469406D01*
X138281Y469493D01*
Y469573D01*
X138288Y469639D01*
Y469282D01*
Y473022D01*
D02*
G37*
G36*
X130430D02*
X127463D01*
X129176D01*
X129037Y473014D01*
X128906Y472993D01*
X128789Y472963D01*
X128673Y472927D01*
X128571Y472883D01*
X128476Y472832D01*
X128389Y472774D01*
X128316Y472723D01*
X128243Y472664D01*
X128184Y472606D01*
X128133Y472555D01*
X128090Y472511D01*
X128060Y472475D01*
X128039Y472446D01*
X128024Y472424D01*
X128017Y472417D01*
Y472941D01*
X127463D01*
Y469282D01*
X128946D01*
X128082D01*
Y471272D01*
Y471396D01*
X128097Y471520D01*
X128112Y471622D01*
X128126Y471717D01*
X128148Y471804D01*
X128170Y471884D01*
X128199Y471957D01*
X128228Y472016D01*
X128250Y472067D01*
X128279Y472110D01*
X128301Y472147D01*
X128323Y472176D01*
X128352Y472212D01*
X128367Y472227D01*
X128476Y472315D01*
X128593Y472373D01*
X128709Y472417D01*
X128811Y472453D01*
X128906Y472468D01*
X128979Y472475D01*
X129008Y472482D01*
X129045D01*
X129132Y472475D01*
X129220Y472468D01*
X129293Y472446D01*
X129351Y472424D01*
X129402Y472402D01*
X129446Y472387D01*
X129467Y472373D01*
X129475Y472366D01*
X129540Y472322D01*
X129599Y472271D01*
X129642Y472220D01*
X129679Y472176D01*
X129701Y472132D01*
X129723Y472096D01*
X129737Y472074D01*
Y472067D01*
X129759Y471986D01*
X129781Y471899D01*
X129796Y471804D01*
X129803Y471709D01*
X129810Y471629D01*
Y471564D01*
Y471513D01*
Y471505D01*
Y471498D01*
Y469282D01*
X130430D01*
Y471695D01*
Y471680D01*
X130422Y471804D01*
X130415Y471906D01*
Y471994D01*
X130408Y472052D01*
X130401Y472096D01*
X130393Y472125D01*
Y472132D01*
X130371Y472227D01*
X130335Y472315D01*
X130306Y472387D01*
X130277Y472460D01*
X130240Y472511D01*
X130218Y472548D01*
X130204Y472577D01*
X130196Y472584D01*
X130138Y472657D01*
X130073Y472715D01*
X130007Y472774D01*
X129934Y472818D01*
X129876Y472854D01*
X129825Y472876D01*
X129796Y472890D01*
X129781Y472898D01*
X129679Y472941D01*
X129570Y472971D01*
X129467Y472993D01*
X129373Y473007D01*
X129293Y473014D01*
X129234Y473022D01*
X130430D01*
D02*
G37*
G36*
X96334Y473022D02*
X93367D01*
X95081D01*
X94942Y473014D01*
X94811Y472993D01*
X94694Y472963D01*
X94578Y472927D01*
X94476Y472883D01*
X94381Y472832D01*
X94293Y472774D01*
X94220Y472723D01*
X94147Y472664D01*
X94089Y472606D01*
X94038Y472555D01*
X93994Y472511D01*
X93965Y472475D01*
X93943Y472446D01*
X93929Y472424D01*
X93922Y472417D01*
Y472941D01*
X93367D01*
Y469282D01*
X94851D01*
X93987D01*
Y471272D01*
Y471396D01*
X94002Y471520D01*
X94016Y471622D01*
X94031Y471717D01*
X94053Y471804D01*
X94074Y471884D01*
X94104Y471957D01*
X94133Y472016D01*
X94155Y472067D01*
X94184Y472110D01*
X94206Y472147D01*
X94228Y472176D01*
X94257Y472212D01*
X94271Y472227D01*
X94381Y472315D01*
X94497Y472373D01*
X94614Y472417D01*
X94716Y472453D01*
X94811Y472468D01*
X94884Y472475D01*
X94913Y472482D01*
X94949D01*
X95037Y472475D01*
X95124Y472468D01*
X95197Y472446D01*
X95256Y472424D01*
X95307Y472402D01*
X95350Y472387D01*
X95372Y472373D01*
X95380Y472366D01*
X95445Y472322D01*
X95503Y472271D01*
X95547Y472220D01*
X95584Y472176D01*
X95605Y472132D01*
X95627Y472096D01*
X95642Y472074D01*
Y472067D01*
X95664Y471986D01*
X95686Y471899D01*
X95700Y471804D01*
X95707Y471709D01*
X95715Y471629D01*
Y471564D01*
Y471513D01*
Y471505D01*
Y471498D01*
Y469282D01*
X96334D01*
Y471680D01*
X96327Y471804D01*
X96320Y471906D01*
Y471994D01*
X96313Y472052D01*
X96305Y472096D01*
X96298Y472125D01*
Y472132D01*
X96276Y472227D01*
X96240Y472315D01*
X96210Y472387D01*
X96181Y472460D01*
X96145Y472511D01*
X96123Y472548D01*
X96109Y472577D01*
X96101Y472584D01*
X96043Y472657D01*
X95977Y472715D01*
X95912Y472774D01*
X95839Y472818D01*
X95780Y472854D01*
X95729Y472876D01*
X95700Y472890D01*
X95686Y472898D01*
X95584Y472941D01*
X95474Y472971D01*
X95372Y472993D01*
X95277Y473007D01*
X95197Y473014D01*
X95139Y473022D01*
X96334D01*
D02*
G37*
G36*
X103187Y473022D02*
X101204D01*
X102553D01*
X102473Y473014D01*
X102400Y473000D01*
X102327Y472978D01*
X102269Y472956D01*
X102225Y472934D01*
X102181Y472912D01*
X102159Y472898D01*
X102152Y472890D01*
X102086Y472832D01*
X102021Y472759D01*
X101955Y472672D01*
X101897Y472591D01*
X101838Y472511D01*
X101802Y472446D01*
X101773Y472395D01*
X101766Y472387D01*
Y472941D01*
X101204D01*
Y469282D01*
X101824D01*
Y471192D01*
X101831Y471338D01*
X101838Y471469D01*
X101853Y471593D01*
X101875Y471702D01*
X101897Y471790D01*
X101911Y471855D01*
X101919Y471899D01*
X101926Y471914D01*
X101955Y471994D01*
X101991Y472059D01*
X102028Y472118D01*
X102064Y472169D01*
X102101Y472205D01*
X102123Y472234D01*
X102145Y472249D01*
X102152Y472256D01*
X102210Y472300D01*
X102276Y472329D01*
X102341Y472351D01*
X102392Y472366D01*
X102444Y472373D01*
X102480Y472380D01*
X102516D01*
X102597Y472373D01*
X102677Y472358D01*
X102757Y472336D01*
X102823Y472315D01*
X102881Y472293D01*
X102925Y472271D01*
X102954Y472256D01*
X102961Y472249D01*
X103187Y472818D01*
X103063Y472883D01*
X102946Y472934D01*
X102844Y472971D01*
X102750Y473000D01*
X102670Y473014D01*
X102604Y473022D01*
X103187D01*
D01*
D02*
G37*
G36*
X120545Y474327D02*
X117550D01*
X119874D01*
Y472256D01*
X117264D01*
Y474327D01*
X116593D01*
Y469282D01*
X117550D01*
X117264D01*
Y471658D01*
X119874D01*
Y469282D01*
X120545D01*
Y474327D01*
D02*
G37*
G36*
X85618Y473022D02*
X85443D01*
X85341Y473007D01*
X85254Y473000D01*
X85173Y472985D01*
X85108Y472971D01*
X85057Y472956D01*
X85028Y472949D01*
X85013Y472941D01*
X84926Y472912D01*
X84845Y472883D01*
X84780Y472854D01*
X84721Y472825D01*
X84678Y472803D01*
X84649Y472781D01*
X84627Y472774D01*
X84619Y472766D01*
X84547Y472715D01*
X84488Y472657D01*
X84437Y472591D01*
X84393Y472541D01*
X84357Y472490D01*
X84335Y472453D01*
X84320Y472424D01*
X84313Y472417D01*
X84277Y472336D01*
X84248Y472263D01*
X84233Y472183D01*
X84219Y472118D01*
X84211Y472052D01*
X84204Y472008D01*
Y471979D01*
Y471965D01*
X84211Y471863D01*
X84226Y471775D01*
X84248Y471688D01*
X84269Y471615D01*
X84291Y471556D01*
X84313Y471505D01*
X84328Y471476D01*
X84335Y471469D01*
X84393Y471389D01*
X84459Y471323D01*
X84525Y471265D01*
X84590Y471214D01*
X84649Y471177D01*
X84692Y471148D01*
X84721Y471134D01*
X84736Y471126D01*
X84787Y471104D01*
X84853Y471075D01*
X84999Y471024D01*
X85152Y470980D01*
X85312Y470929D01*
X85451Y470893D01*
X85516Y470871D01*
X85574Y470857D01*
X85618Y470842D01*
X85655Y470835D01*
X85676Y470827D01*
X85684D01*
X85778Y470806D01*
X85859Y470784D01*
X85932Y470762D01*
X85997Y470740D01*
X86056Y470725D01*
X86107Y470703D01*
X86194Y470674D01*
X86252Y470652D01*
X86289Y470631D01*
X86311Y470623D01*
X86318Y470616D01*
X86384Y470572D01*
X86427Y470514D01*
X86464Y470463D01*
X86486Y470412D01*
X86500Y470361D01*
X86507Y470324D01*
Y470295D01*
Y470288D01*
X86500Y470200D01*
X86478Y470127D01*
X86442Y470055D01*
X86405Y469996D01*
X86362Y469945D01*
X86333Y469909D01*
X86303Y469887D01*
X86296Y469880D01*
X86209Y469821D01*
X86114Y469785D01*
X86005Y469756D01*
X85903Y469734D01*
X85808Y469719D01*
X85735Y469712D01*
X85662D01*
X85509Y469719D01*
X85378Y469741D01*
X85268Y469770D01*
X85173Y469807D01*
X85101Y469843D01*
X85042Y469872D01*
X85013Y469894D01*
X84999Y469902D01*
X84918Y469982D01*
X84853Y470077D01*
X84809Y470171D01*
X84772Y470259D01*
X84743Y470339D01*
X84729Y470412D01*
X84714Y470456D01*
Y470463D01*
Y470470D01*
X84102Y470375D01*
X84153Y470171D01*
X84219Y469989D01*
X84299Y469843D01*
X84379Y469719D01*
X84452Y469617D01*
X84517Y469552D01*
X84561Y469508D01*
X84568Y469501D01*
X84576Y469493D01*
X84649Y469442D01*
X84729Y469398D01*
X84904Y469326D01*
X85086Y469275D01*
X85261Y469238D01*
X85341Y469223D01*
X85414Y469216D01*
X85487Y469209D01*
X85545D01*
X85596Y469202D01*
X84102D01*
X87142D01*
D01*
X85662D01*
X85822Y469209D01*
X85961Y469223D01*
X86092Y469245D01*
X86209Y469275D01*
X86303Y469304D01*
X86376Y469326D01*
X86420Y469340D01*
X86427Y469347D01*
X86435D01*
X86559Y469413D01*
X86661Y469479D01*
X86748Y469552D01*
X86828Y469617D01*
X86887Y469675D01*
X86923Y469727D01*
X86952Y469756D01*
X86959Y469770D01*
X87018Y469872D01*
X87062Y469982D01*
X87098Y470077D01*
X87120Y470164D01*
X87134Y470244D01*
X87142Y470302D01*
Y470354D01*
X87134Y470470D01*
X87120Y470572D01*
X87091Y470660D01*
X87069Y470740D01*
X87040Y470806D01*
X87011Y470849D01*
X86996Y470878D01*
X86989Y470886D01*
X86930Y470959D01*
X86865Y471024D01*
X86799Y471082D01*
X86734Y471126D01*
X86668Y471163D01*
X86624Y471184D01*
X86595Y471199D01*
X86580Y471206D01*
X86529Y471228D01*
X86471Y471250D01*
X86333Y471301D01*
X86180Y471352D01*
X86026Y471396D01*
X85888Y471440D01*
X85822Y471454D01*
X85771Y471469D01*
X85728Y471483D01*
X85691Y471491D01*
X85669Y471498D01*
X85662D01*
X85582Y471520D01*
X85509Y471542D01*
X85443Y471556D01*
X85385Y471578D01*
X85290Y471600D01*
X85217Y471622D01*
X85166Y471644D01*
X85137Y471651D01*
X85122Y471658D01*
X85115D01*
X85057Y471688D01*
X85006Y471709D01*
X84962Y471739D01*
X84933Y471761D01*
X84904Y471782D01*
X84889Y471804D01*
X84882Y471811D01*
X84875Y471819D01*
X84831Y471892D01*
X84809Y471965D01*
Y471994D01*
X84802Y472016D01*
Y472030D01*
Y472038D01*
X84809Y472103D01*
X84831Y472169D01*
X84860Y472227D01*
X84896Y472271D01*
X84926Y472315D01*
X84955Y472344D01*
X84977Y472358D01*
X84984Y472366D01*
X85064Y472417D01*
X85159Y472453D01*
X85261Y472475D01*
X85356Y472497D01*
X85451Y472504D01*
X85523Y472511D01*
X85596D01*
X85720Y472504D01*
X85837Y472490D01*
X85932Y472460D01*
X86005Y472431D01*
X86070Y472402D01*
X86114Y472373D01*
X86143Y472358D01*
X86150Y472351D01*
X86223Y472285D01*
X86274Y472212D01*
X86318Y472140D01*
X86354Y472074D01*
X86376Y472008D01*
X86391Y471957D01*
X86398Y471928D01*
Y471913D01*
X87003Y471994D01*
X86974Y472118D01*
X86945Y472227D01*
X86909Y472322D01*
X86872Y472409D01*
X86836Y472468D01*
X86806Y472519D01*
X86792Y472548D01*
X86785Y472555D01*
X86719Y472628D01*
X86646Y472694D01*
X86566Y472752D01*
X86486Y472803D01*
X86413Y472839D01*
X86354Y472868D01*
X86318Y472883D01*
X86311Y472890D01*
X86303D01*
X86180Y472934D01*
X86048Y472963D01*
X85924Y472993D01*
X85808Y473007D01*
X85698Y473014D01*
X85618Y473022D01*
D02*
G37*
G36*
X104434Y472941D02*
X103726D01*
Y472234D01*
X104434D01*
Y471338D01*
Y472941D01*
D02*
G37*
G36*
X98857Y473022D02*
X98784D01*
X98645Y473014D01*
X98514Y473000D01*
X98390Y472978D01*
X98274Y472941D01*
X98164Y472905D01*
X98062Y472861D01*
X97967Y472818D01*
X97887Y472766D01*
X97807Y472723D01*
X97741Y472672D01*
X97683Y472628D01*
X97639Y472591D01*
X97603Y472555D01*
X97574Y472533D01*
X97559Y472519D01*
X97552Y472511D01*
X97472Y472409D01*
X97399Y472300D01*
X97333Y472191D01*
X97275Y472074D01*
X97231Y471950D01*
X97195Y471833D01*
X97136Y471600D01*
X97114Y471498D01*
X97100Y471396D01*
X97093Y471309D01*
X97085Y471228D01*
X97078Y471163D01*
Y473022D01*
Y471075D01*
X97085Y470915D01*
X97100Y470762D01*
X97122Y470616D01*
X97151Y470485D01*
X97187Y470361D01*
X97224Y470244D01*
X97268Y470142D01*
X97311Y470047D01*
X97355Y469967D01*
X97399Y469894D01*
X97435Y469836D01*
X97472Y469785D01*
X97501Y469741D01*
X97523Y469712D01*
X97537Y469697D01*
X97545Y469690D01*
X97639Y469603D01*
X97734Y469530D01*
X97836Y469464D01*
X97945Y469406D01*
X98048Y469362D01*
X98157Y469318D01*
X98361Y469260D01*
X98456Y469245D01*
X98543Y469231D01*
X98624Y469216D01*
X98689Y469209D01*
X98740Y469202D01*
X97078D01*
X100453D01*
D01*
X98820D01*
X99046Y469216D01*
X99251Y469253D01*
X99433Y469296D01*
X99506Y469326D01*
X99578Y469355D01*
X99644Y469384D01*
X99702Y469413D01*
X99746Y469435D01*
X99790Y469457D01*
X99819Y469479D01*
X99841Y469493D01*
X99856Y469508D01*
X99863D01*
X100009Y469639D01*
X100125Y469778D01*
X100227Y469923D01*
X100300Y470062D01*
X100358Y470186D01*
X100380Y470244D01*
X100402Y470288D01*
X100417Y470332D01*
X100424Y470361D01*
X100431Y470375D01*
Y470383D01*
X99790Y470463D01*
X99732Y470324D01*
X99666Y470208D01*
X99600Y470106D01*
X99542Y470025D01*
X99491Y469967D01*
X99447Y469923D01*
X99411Y469894D01*
X99404Y469887D01*
X99309Y469829D01*
X99214Y469785D01*
X99112Y469756D01*
X99024Y469734D01*
X98944Y469719D01*
X98879Y469712D01*
X98820D01*
X98733Y469719D01*
X98653Y469727D01*
X98507Y469763D01*
X98376Y469814D01*
X98259Y469872D01*
X98172Y469923D01*
X98106Y469974D01*
X98062Y470011D01*
X98055Y470025D01*
X98048D01*
X97945Y470157D01*
X97865Y470302D01*
X97807Y470463D01*
X97763Y470609D01*
X97741Y470740D01*
X97727Y470798D01*
X97720Y470849D01*
Y470893D01*
X97712Y470922D01*
Y470944D01*
Y470951D01*
X100446D01*
X100453Y471024D01*
Y471112D01*
X100446Y471279D01*
X100431Y471432D01*
X100410Y471578D01*
X100380Y471717D01*
X100344Y471841D01*
X100308Y471957D01*
X100264Y472059D01*
X100220Y472154D01*
X100176Y472242D01*
X100133Y472315D01*
X100096Y472373D01*
X100060Y472424D01*
X100031Y472468D01*
X100009Y472497D01*
X99994Y472511D01*
X99987Y472519D01*
X99899Y472606D01*
X99805Y472686D01*
X99702Y472752D01*
X99600Y472810D01*
X99498Y472861D01*
X99404Y472898D01*
X99301Y472934D01*
X99214Y472956D01*
X99119Y472978D01*
X99039Y472993D01*
X98966Y473007D01*
X98908Y473014D01*
X98857Y473022D01*
D02*
G37*
G36*
X142393D02*
D01*
Y471112D01*
X142385Y471279D01*
X142371Y471432D01*
X142349Y471578D01*
X142320Y471717D01*
X142283Y471841D01*
X142247Y471957D01*
X142203Y472059D01*
X142159Y472154D01*
X142116Y472242D01*
X142072Y472315D01*
X142035Y472373D01*
X141999Y472424D01*
X141970Y472468D01*
X141948Y472497D01*
X141933Y472511D01*
X141926Y472519D01*
X141839Y472606D01*
X141744Y472686D01*
X141642Y472752D01*
X141540Y472810D01*
X141438Y472861D01*
X141343Y472898D01*
X141241Y472934D01*
X141153Y472956D01*
X141059Y472978D01*
X140978Y472993D01*
X140905Y473007D01*
X140847Y473014D01*
X140796Y473022D01*
X142393D01*
X139017D01*
X140723D01*
X140585Y473014D01*
X140454Y473000D01*
X140330Y472978D01*
X140213Y472941D01*
X140104Y472905D01*
X140001Y472861D01*
X139907Y472818D01*
X139827Y472766D01*
X139746Y472723D01*
X139681Y472672D01*
X139622Y472628D01*
X139579Y472591D01*
X139542Y472555D01*
X139513Y472533D01*
X139498Y472519D01*
X139491Y472511D01*
X139411Y472409D01*
X139338Y472300D01*
X139273Y472191D01*
X139214Y472074D01*
X139171Y471950D01*
X139134Y471833D01*
X139076Y471600D01*
X139054Y471498D01*
X139039Y471396D01*
X139032Y471309D01*
X139025Y471228D01*
X139017Y471163D01*
Y471075D01*
X139025Y470915D01*
X139039Y470762D01*
X139061Y470616D01*
X139090Y470485D01*
X139127Y470361D01*
X139163Y470244D01*
X139207Y470142D01*
X139251Y470047D01*
X139294Y469967D01*
X139338Y469894D01*
X139375Y469836D01*
X139411Y469785D01*
X139440Y469741D01*
X139462Y469712D01*
X139477Y469697D01*
X139484Y469690D01*
X139579Y469603D01*
X139673Y469530D01*
X139776Y469464D01*
X139885Y469406D01*
X139987Y469362D01*
X140096Y469318D01*
X140300Y469260D01*
X140395Y469245D01*
X140483Y469231D01*
X140563Y469216D01*
X140629Y469209D01*
X140680Y469202D01*
X139017D01*
X142393D01*
Y473022D01*
D02*
G37*
G36*
X143756Y474327D02*
X143136D01*
Y469282D01*
X143756D01*
Y474327D01*
D02*
G37*
G36*
X133010Y473022D02*
X131173D01*
X132930D01*
X132755Y473014D01*
X132602Y473000D01*
X132456Y472978D01*
X132340Y472956D01*
X132238Y472934D01*
X132165Y472912D01*
X132136Y472905D01*
X132114Y472898D01*
X132106Y472890D01*
X132099D01*
X131975Y472839D01*
X131866Y472774D01*
X131771Y472715D01*
X131691Y472657D01*
X131633Y472599D01*
X131589Y472555D01*
X131560Y472526D01*
X131552Y472519D01*
X131487Y472424D01*
X131429Y472322D01*
X131385Y472220D01*
X131348Y472125D01*
X131319Y472030D01*
X131297Y471965D01*
X131290Y471935D01*
Y471914D01*
X131283Y471906D01*
Y471899D01*
X131888Y471819D01*
X131931Y471950D01*
X131975Y472067D01*
X132026Y472161D01*
X132070Y472234D01*
X132114Y472293D01*
X132150Y472329D01*
X132179Y472351D01*
X132187Y472358D01*
X132274Y472409D01*
X132376Y472446D01*
X132486Y472475D01*
X132588Y472490D01*
X132690Y472504D01*
X132763Y472511D01*
X132835D01*
X133003Y472504D01*
X133149Y472482D01*
X133266Y472446D01*
X133368Y472409D01*
X133441Y472366D01*
X133499Y472336D01*
X133535Y472307D01*
X133543Y472300D01*
X133601Y472234D01*
X133645Y472154D01*
X133681Y472067D01*
X133703Y471979D01*
X133718Y471899D01*
X133725Y471826D01*
Y471782D01*
Y471775D01*
Y471768D01*
Y471753D01*
Y471724D01*
Y471673D01*
X133718Y471629D01*
Y471615D01*
Y471607D01*
X133645Y471586D01*
X133564Y471564D01*
X133397Y471520D01*
X133207Y471483D01*
X133032Y471447D01*
X132945Y471432D01*
X132865Y471425D01*
X132792Y471411D01*
X132733Y471403D01*
X132682Y471396D01*
X132646D01*
X132617Y471389D01*
X132609D01*
X132478Y471374D01*
X132369Y471352D01*
X132274Y471338D01*
X132201Y471323D01*
X132143Y471316D01*
X132099Y471301D01*
X132070Y471294D01*
X132063D01*
X131968Y471265D01*
X131888Y471236D01*
X131808Y471199D01*
X131742Y471170D01*
X131684Y471141D01*
X131647Y471112D01*
X131618Y471097D01*
X131611Y471090D01*
X131538Y471039D01*
X131480Y470980D01*
X131421Y470922D01*
X131377Y470864D01*
X131341Y470813D01*
X131312Y470769D01*
X131297Y470740D01*
X131290Y470733D01*
X131254Y470652D01*
X131224Y470565D01*
X131202Y470485D01*
X131188Y470404D01*
X131181Y470339D01*
X131173Y470288D01*
Y469202D01*
Y470244D01*
X131181Y470157D01*
X131188Y470084D01*
X131224Y469931D01*
X131275Y469807D01*
X131334Y469697D01*
X131392Y469610D01*
X131443Y469544D01*
X131480Y469508D01*
X131494Y469493D01*
X131625Y469398D01*
X131771Y469326D01*
X131931Y469275D01*
X132077Y469238D01*
X132209Y469216D01*
X132267Y469209D01*
X132318D01*
X132362Y469202D01*
X131173D01*
X132420D01*
X132551Y469209D01*
X132682Y469223D01*
X132799Y469238D01*
X132901Y469260D01*
X132981Y469282D01*
X133047Y469304D01*
X133091Y469311D01*
X133105Y469318D01*
X133229Y469369D01*
X133346Y469435D01*
X133455Y469508D01*
X133564Y469573D01*
X133652Y469639D01*
X133718Y469690D01*
X133761Y469727D01*
X133769Y469741D01*
X133776D01*
X133791Y469646D01*
X133805Y469559D01*
X133820Y469479D01*
X133842Y469413D01*
X133863Y469355D01*
X133878Y469318D01*
X133885Y469289D01*
X133893Y469282D01*
X134541D01*
X134505Y469362D01*
X134468Y469442D01*
X134439Y469515D01*
X134425Y469581D01*
X134403Y469639D01*
X134396Y469683D01*
X134388Y469712D01*
Y469719D01*
X134381Y469770D01*
X134374Y469836D01*
Y469909D01*
X134366Y469989D01*
X134359Y470171D01*
Y470354D01*
X134352Y470528D01*
Y470609D01*
Y470674D01*
Y470733D01*
Y470776D01*
Y470806D01*
Y470813D01*
Y471644D01*
Y471782D01*
X134344Y471906D01*
X134337Y472001D01*
Y472081D01*
X134330Y472140D01*
X134323Y472183D01*
X134315Y472205D01*
Y472212D01*
X134293Y472307D01*
X134264Y472387D01*
X134235Y472453D01*
X134199Y472519D01*
X134170Y472562D01*
X134148Y472599D01*
X134133Y472621D01*
X134126Y472628D01*
X134067Y472686D01*
X134002Y472745D01*
X133929Y472788D01*
X133856Y472832D01*
X133791Y472861D01*
X133739Y472883D01*
X133703Y472898D01*
X133688Y472905D01*
X133572Y472941D01*
X133448Y472971D01*
X133324Y472993D01*
X133200Y473007D01*
X133091Y473014D01*
X133010Y473022D01*
D02*
G37*
G36*
X124532Y472941D02*
X121565D01*
Y470536D01*
X121572Y470412D01*
X121580Y470317D01*
X121587Y470230D01*
Y470171D01*
X121594Y470127D01*
X121602Y470098D01*
Y470091D01*
X121624Y469996D01*
X121653Y469909D01*
X121682Y469829D01*
X121718Y469763D01*
X121747Y469705D01*
X121769Y469668D01*
X121784Y469639D01*
X121791Y469632D01*
X121850Y469566D01*
X121915Y469508D01*
X121981Y469457D01*
X122054Y469413D01*
X122112Y469377D01*
X122163Y469347D01*
X122192Y469333D01*
X122207Y469326D01*
X122316Y469282D01*
X122418Y469253D01*
X122520Y469231D01*
X122615Y469216D01*
X122695Y469209D01*
X122761Y469202D01*
X122812D01*
X122943Y469209D01*
X123074Y469231D01*
X123191Y469260D01*
X123307Y469296D01*
X123409Y469347D01*
X123504Y469398D01*
X123592Y469450D01*
X123672Y469508D01*
X123745Y469566D01*
X123803Y469617D01*
X123854Y469675D01*
X123898Y469719D01*
X123934Y469756D01*
X123956Y469785D01*
X123971Y469807D01*
X123978Y469814D01*
Y469282D01*
X124532D01*
Y472941D01*
D02*
G37*
G36*
X113451Y469989D02*
X112744D01*
Y469282D01*
X113451D01*
Y469989D01*
D02*
G37*
G36*
X109500Y474327D02*
X107561D01*
Y469282D01*
X111731D01*
D01*
X109376D01*
X109544Y469289D01*
X109697Y469296D01*
X109836Y469311D01*
X109952Y469326D01*
X110054Y469340D01*
X110127Y469347D01*
X110149Y469355D01*
X110171Y469362D01*
X110185D01*
X110317Y469398D01*
X110433Y469442D01*
X110535Y469479D01*
X110623Y469522D01*
X110696Y469559D01*
X110747Y469588D01*
X110776Y469610D01*
X110791Y469617D01*
X110885Y469683D01*
X110966Y469763D01*
X111046Y469836D01*
X111111Y469909D01*
X111170Y469974D01*
X111213Y470025D01*
X111242Y470062D01*
X111250Y470077D01*
X111323Y470193D01*
X111396Y470317D01*
X111454Y470434D01*
X111498Y470550D01*
X111541Y470652D01*
X111571Y470733D01*
X111578Y470762D01*
X111585Y470784D01*
X111592Y470798D01*
Y470806D01*
X111636Y470980D01*
X111673Y471155D01*
X111695Y471323D01*
X111716Y471483D01*
X111724Y471622D01*
Y471680D01*
X111731Y471731D01*
Y471826D01*
X111724Y472074D01*
X111702Y472300D01*
X111665Y472504D01*
X111651Y472599D01*
X111629Y472679D01*
X111607Y472759D01*
X111592Y472825D01*
X111578Y472883D01*
X111556Y472934D01*
X111549Y472978D01*
X111534Y473007D01*
X111527Y473022D01*
Y473029D01*
X111447Y473218D01*
X111352Y473386D01*
X111250Y473532D01*
X111155Y473656D01*
X111067Y473758D01*
X110995Y473831D01*
X110966Y473853D01*
X110944Y473875D01*
X110936Y473882D01*
X110929Y473889D01*
X110812Y473984D01*
X110688Y474057D01*
X110564Y474122D01*
X110448Y474173D01*
X110346Y474210D01*
X110266Y474232D01*
X110237Y474246D01*
X110215D01*
X110200Y474254D01*
X110193D01*
X110069Y474275D01*
X109923Y474297D01*
X109777Y474312D01*
X109631Y474319D01*
X109500Y474327D01*
D02*
G37*
G36*
X104434Y469989D02*
X103726D01*
Y469282D01*
X104434D01*
Y469989D01*
D02*
G37*
G36*
X88498Y474327D02*
X87878D01*
Y469282D01*
X88498D01*
Y472941D01*
Y472941D01*
X87878D01*
Y473619D01*
X88498D01*
Y474327D01*
D02*
G37*
G36*
X79589D02*
X75419D01*
Y469282D01*
X77235D01*
X77402Y469289D01*
X77555Y469296D01*
X77694Y469311D01*
X77811Y469326D01*
X77913Y469340D01*
X77986Y469347D01*
X78007Y469355D01*
X78029Y469362D01*
X78044D01*
X78175Y469398D01*
X78292Y469442D01*
X78394Y469479D01*
X78481Y469522D01*
X78554Y469559D01*
X78605Y469588D01*
X78634Y469610D01*
X78649Y469617D01*
X78744Y469683D01*
X78824Y469763D01*
X78904Y469836D01*
X78970Y469909D01*
X79028Y469974D01*
X79072Y470025D01*
X79101Y470062D01*
X79108Y470077D01*
X79181Y470193D01*
X79254Y470317D01*
X79312Y470434D01*
X79356Y470550D01*
X79400Y470652D01*
X79429Y470733D01*
X79436Y470762D01*
X79444Y470784D01*
X79451Y470798D01*
Y470806D01*
X79495Y470980D01*
X79531Y471155D01*
X79553Y471323D01*
X79575Y471483D01*
X79582Y471622D01*
Y471680D01*
X79589Y471731D01*
Y471826D01*
X79582Y472074D01*
X79560Y472300D01*
X79524Y472504D01*
X79509Y472599D01*
X79487Y472679D01*
X79465Y472759D01*
X79451Y472825D01*
X79436Y472883D01*
X79414Y472934D01*
X79407Y472978D01*
X79392Y473007D01*
X79385Y473022D01*
Y473029D01*
X79305Y473218D01*
X79210Y473386D01*
X79108Y473532D01*
X79013Y473656D01*
X78926Y473758D01*
X78853Y473831D01*
X78824Y473853D01*
X78802Y473875D01*
X78795Y473882D01*
X78787Y473889D01*
X78671Y473984D01*
X78547Y474057D01*
X78423Y474122D01*
X78306Y474173D01*
X78204Y474210D01*
X78124Y474232D01*
X78095Y474246D01*
X78073D01*
X78058Y474254D01*
X78051D01*
X77927Y474275D01*
X77781Y474297D01*
X77636Y474312D01*
X77490Y474319D01*
X77359Y474327D01*
X79589D01*
D01*
D02*
G37*
G36*
X83592Y473022D02*
X80216D01*
Y471075D01*
X80224Y470915D01*
X80238Y470762D01*
X80260Y470616D01*
X80289Y470485D01*
X80326Y470361D01*
X80362Y470244D01*
X80406Y470142D01*
X80449Y470047D01*
X80493Y469967D01*
X80537Y469894D01*
X80573Y469836D01*
X80610Y469785D01*
X80639Y469741D01*
X80661Y469712D01*
X80676Y469697D01*
X80683Y469690D01*
X80778Y469603D01*
X80872Y469530D01*
X80974Y469464D01*
X81084Y469406D01*
X81186Y469362D01*
X81295Y469318D01*
X81499Y469260D01*
X81594Y469245D01*
X81682Y469231D01*
X81762Y469216D01*
X81827Y469209D01*
X81878Y469202D01*
X80216D01*
X83592D01*
X81959D01*
X82185Y469216D01*
X82389Y469253D01*
X82571Y469296D01*
X82644Y469326D01*
X82717Y469355D01*
X82782Y469384D01*
X82841Y469413D01*
X82884Y469435D01*
X82928Y469457D01*
X82957Y469479D01*
X82979Y469493D01*
X82994Y469508D01*
X83001D01*
X83147Y469639D01*
X83263Y469778D01*
X83365Y469923D01*
X83438Y470062D01*
X83497Y470186D01*
X83519Y470244D01*
X83540Y470288D01*
X83555Y470332D01*
X83562Y470361D01*
X83570Y470375D01*
Y470383D01*
X82928Y470463D01*
X82870Y470324D01*
X82804Y470208D01*
X82739Y470106D01*
X82680Y470025D01*
X82629Y469967D01*
X82586Y469923D01*
X82549Y469894D01*
X82542Y469887D01*
X82447Y469829D01*
X82352Y469785D01*
X82250Y469756D01*
X82163Y469734D01*
X82082Y469719D01*
X82017Y469712D01*
X81959D01*
X81871Y469719D01*
X81791Y469727D01*
X81645Y469763D01*
X81514Y469814D01*
X81397Y469872D01*
X81310Y469923D01*
X81244Y469974D01*
X81200Y470011D01*
X81193Y470025D01*
X81186D01*
X81084Y470157D01*
X81004Y470302D01*
X80945Y470463D01*
X80901Y470609D01*
X80880Y470740D01*
X80865Y470798D01*
X80858Y470849D01*
Y470893D01*
X80850Y470922D01*
Y470944D01*
Y470951D01*
X83584D01*
X83592Y471024D01*
Y471112D01*
X83584Y471279D01*
X83570Y471432D01*
X83548Y471578D01*
X83519Y471717D01*
X83482Y471841D01*
X83446Y471957D01*
X83402Y472059D01*
X83358Y472154D01*
X83315Y472242D01*
X83271Y472315D01*
X83234Y472373D01*
X83198Y472424D01*
X83169Y472468D01*
X83147Y472497D01*
X83132Y472511D01*
X83125Y472519D01*
X83038Y472606D01*
X82943Y472686D01*
X82841Y472752D01*
X82739Y472810D01*
X82636Y472861D01*
X82542Y472898D01*
X82440Y472934D01*
X82352Y472956D01*
X82257Y472978D01*
X82177Y472993D01*
X82104Y473007D01*
X82046Y473014D01*
X81995Y473022D01*
X83592D01*
D02*
G37*
G36*
X90852D02*
X89205D01*
Y467802D01*
Y471126D01*
X89212Y470988D01*
X89219Y470849D01*
X89270Y470601D01*
X89300Y470485D01*
X89336Y470383D01*
X89372Y470281D01*
X89409Y470193D01*
X89445Y470106D01*
X89482Y470033D01*
X89518Y469974D01*
X89547Y469916D01*
X89577Y469880D01*
X89599Y469843D01*
X89606Y469829D01*
X89613Y469821D01*
X89693Y469727D01*
X89781Y469646D01*
X89876Y469573D01*
X89970Y469508D01*
X90072Y469457D01*
X90167Y469413D01*
X90262Y469377D01*
X90357Y469347D01*
X90444Y469326D01*
X90524Y469311D01*
X90597Y469296D01*
X90663Y469289D01*
X90714D01*
X90750Y469282D01*
X90787D01*
X90896Y469289D01*
X91005Y469304D01*
X91107Y469326D01*
X91202Y469355D01*
X91370Y469435D01*
X91523Y469522D01*
X91581Y469566D01*
X91640Y469610D01*
X91691Y469654D01*
X91727Y469690D01*
X91756Y469719D01*
X91778Y469741D01*
X91793Y469756D01*
X91800Y469763D01*
Y469654D01*
Y469559D01*
X91793Y469464D01*
Y469384D01*
Y469311D01*
X91786Y469245D01*
Y469187D01*
X91778Y469136D01*
X91771Y469063D01*
X91764Y469005D01*
X91756Y468976D01*
Y468968D01*
X91720Y468859D01*
X91669Y468764D01*
X91618Y468684D01*
X91567Y468611D01*
X91516Y468560D01*
X91472Y468516D01*
X91443Y468495D01*
X91436Y468487D01*
X91341Y468429D01*
X91231Y468385D01*
X91122Y468356D01*
X91020Y468334D01*
X90918Y468320D01*
X90845Y468312D01*
X90772D01*
X90634Y468320D01*
X90502Y468341D01*
X90393Y468371D01*
X90306Y468407D01*
X90233Y468436D01*
X90182Y468465D01*
X90153Y468487D01*
X90138Y468495D01*
X90080Y468546D01*
X90036Y468611D01*
X89999Y468677D01*
X89970Y468742D01*
X89956Y468808D01*
X89941Y468859D01*
X89934Y468888D01*
Y468903D01*
X89329Y468983D01*
Y468874D01*
X89343Y468779D01*
X89358Y468684D01*
X89380Y468597D01*
X89445Y468443D01*
X89518Y468320D01*
X89591Y468225D01*
X89649Y468159D01*
X89701Y468115D01*
X89708Y468108D01*
X89715Y468101D01*
X89876Y467999D01*
X90051Y467926D01*
X90225Y467875D01*
X90393Y467838D01*
X90473Y467824D01*
X90546Y467817D01*
X90605Y467809D01*
X90663D01*
X90707Y467802D01*
X92427D01*
X90772D01*
X90969Y467809D01*
X91151Y467838D01*
X91312Y467868D01*
X91443Y467911D01*
X91552Y467948D01*
X91596Y467962D01*
X91632Y467984D01*
X91662Y467991D01*
X91683Y468006D01*
X91691Y468013D01*
X91698D01*
X91829Y468094D01*
X91946Y468188D01*
X92041Y468283D01*
X92121Y468371D01*
X92179Y468451D01*
X92216Y468516D01*
X92245Y468560D01*
X92252Y468567D01*
Y468575D01*
X92281Y468648D01*
X92310Y468728D01*
X92332Y468815D01*
X92354Y468910D01*
X92383Y469114D01*
X92405Y469311D01*
X92412Y469406D01*
X92420Y469493D01*
Y469573D01*
X92427Y469639D01*
Y472941D01*
X91858D01*
Y472490D01*
X91778Y472584D01*
X91691Y472664D01*
X91603Y472737D01*
X91516Y472796D01*
X91421Y472847D01*
X91334Y472890D01*
X91246Y472927D01*
X91166Y472956D01*
X91086Y472978D01*
X91013Y472993D01*
X90947Y473007D01*
X90896Y473014D01*
X90852Y473022D01*
D02*
G37*
G36*
X104364Y465778D02*
D01*
Y463336D01*
X104357Y463467D01*
Y463584D01*
X104350Y463701D01*
X104335Y463803D01*
X104328Y463905D01*
X104321Y463992D01*
X104306Y464072D01*
X104299Y464145D01*
X104284Y464211D01*
X104277Y464262D01*
X104270Y464306D01*
X104262Y464342D01*
X104255Y464364D01*
X104248Y464378D01*
Y464386D01*
X104204Y464546D01*
X104153Y464692D01*
X104095Y464816D01*
X104051Y464925D01*
X104000Y465020D01*
X103971Y465086D01*
X103942Y465122D01*
X103934Y465137D01*
X103854Y465246D01*
X103774Y465341D01*
X103686Y465421D01*
X103606Y465494D01*
X103533Y465545D01*
X103475Y465581D01*
X103439Y465603D01*
X103431Y465611D01*
X103424D01*
X103307Y465669D01*
X103183Y465705D01*
X103067Y465734D01*
X102957Y465756D01*
X102863Y465771D01*
X102782Y465778D01*
X102717D01*
X102520Y465764D01*
X102338Y465734D01*
X102185Y465683D01*
X102053Y465632D01*
X101944Y465574D01*
X101900Y465552D01*
X101864Y465523D01*
X101835Y465509D01*
X101813Y465494D01*
X101806Y465479D01*
X101798D01*
X101667Y465363D01*
X101558Y465224D01*
X101463Y465086D01*
X101390Y464954D01*
X101332Y464830D01*
X101303Y464780D01*
X101288Y464728D01*
X101273Y464692D01*
X101259Y464663D01*
X101252Y464648D01*
Y464641D01*
X101222Y464532D01*
X101193Y464422D01*
X101149Y464182D01*
X101113Y463941D01*
X101091Y463715D01*
X101084Y463606D01*
X101077Y463511D01*
Y463423D01*
X101069Y463343D01*
Y463198D01*
X101077Y462942D01*
X101091Y462702D01*
X101113Y462483D01*
X101149Y462279D01*
X101186Y462089D01*
X101230Y461922D01*
X101273Y461769D01*
X101317Y461637D01*
X101361Y461521D01*
X101412Y461419D01*
X101448Y461331D01*
X101485Y461266D01*
X101521Y461207D01*
X101543Y461171D01*
X101558Y461149D01*
X101565Y461142D01*
X101645Y461054D01*
X101733Y460974D01*
X101828Y460901D01*
X101922Y460843D01*
X102017Y460792D01*
X102112Y460748D01*
X102207Y460719D01*
X102294Y460690D01*
X102382Y460668D01*
X102462Y460653D01*
X102535Y460639D01*
X102593Y460632D01*
X102644Y460624D01*
X101069D01*
D01*
X104364D01*
Y465778D01*
D02*
G37*
G36*
X108279Y465756D02*
D01*
Y462490D01*
X107594D01*
Y465756D01*
X104780D01*
X107091D01*
X104780Y462490D01*
Y461922D01*
X106974D01*
Y460712D01*
X108279D01*
Y465756D01*
D02*
G37*
G36*
X118106Y465778D02*
D01*
Y462199D01*
X118099Y462374D01*
X118070Y462534D01*
X118026Y462673D01*
X117982Y462789D01*
X117938Y462884D01*
X117895Y462957D01*
X117866Y463001D01*
X117858Y463015D01*
X117756Y463125D01*
X117647Y463219D01*
X117530Y463292D01*
X117413Y463351D01*
X117311Y463394D01*
X117231Y463423D01*
X117202Y463431D01*
X117180Y463438D01*
X117166Y463445D01*
X117158D01*
X117282Y463511D01*
X117384Y463577D01*
X117472Y463650D01*
X117545Y463715D01*
X117603Y463773D01*
X117647Y463825D01*
X117669Y463854D01*
X117676Y463868D01*
X117734Y463970D01*
X117778Y464072D01*
X117814Y464174D01*
X117836Y464269D01*
X117851Y464349D01*
X117858Y464408D01*
Y464451D01*
Y464466D01*
X117851Y464590D01*
X117829Y464714D01*
X117800Y464823D01*
X117763Y464918D01*
X117727Y464998D01*
X117698Y465064D01*
X117676Y465100D01*
X117669Y465115D01*
X117596Y465224D01*
X117508Y465319D01*
X117421Y465399D01*
X117333Y465472D01*
X117260Y465523D01*
X117195Y465567D01*
X117151Y465589D01*
X117144Y465596D01*
X117137D01*
X117005Y465654D01*
X116874Y465698D01*
X116743Y465734D01*
X116626Y465756D01*
X116531Y465771D01*
X116451Y465778D01*
X116269D01*
X116167Y465764D01*
X115970Y465727D01*
X115802Y465669D01*
X115657Y465611D01*
X115591Y465574D01*
X115540Y465545D01*
X115489Y465516D01*
X115453Y465487D01*
X115423Y465465D01*
X115401Y465450D01*
X115387Y465443D01*
X115380Y465436D01*
X115241Y465297D01*
X115132Y465144D01*
X115044Y464984D01*
X114971Y464823D01*
X114928Y464685D01*
X114906Y464626D01*
X114891Y464575D01*
X114884Y464532D01*
X114877Y464502D01*
X114869Y464481D01*
Y464473D01*
X115489Y464364D01*
X115518Y464524D01*
X115562Y464663D01*
X115613Y464780D01*
X115664Y464874D01*
X115715Y464947D01*
X115759Y464998D01*
X115788Y465035D01*
X115795Y465042D01*
X115890Y465115D01*
X115992Y465173D01*
X116087Y465210D01*
X116182Y465239D01*
X116269Y465253D01*
X116335Y465268D01*
X116393D01*
X116524Y465261D01*
X116641Y465232D01*
X116743Y465195D01*
X116830Y465159D01*
X116896Y465115D01*
X116947Y465078D01*
X116983Y465049D01*
X116991Y465042D01*
X117071Y464954D01*
X117129Y464860D01*
X117166Y464765D01*
X117195Y464677D01*
X117209Y464597D01*
X117224Y464539D01*
Y464495D01*
Y464488D01*
Y464481D01*
Y464400D01*
X117209Y464327D01*
X117173Y464204D01*
X117122Y464094D01*
X117064Y463999D01*
X117005Y463934D01*
X116954Y463883D01*
X116918Y463854D01*
X116911Y463846D01*
X116903D01*
X116779Y463781D01*
X116663Y463730D01*
X116539Y463693D01*
X116429Y463671D01*
X116335Y463657D01*
X116254Y463642D01*
X116160D01*
X116130Y463650D01*
X116094D01*
X116021Y463103D01*
X116116Y463125D01*
X116203Y463139D01*
X116276Y463154D01*
X116342Y463161D01*
X116393Y463168D01*
X116458D01*
X116612Y463154D01*
X116750Y463125D01*
X116874Y463081D01*
X116976Y463030D01*
X117056Y462979D01*
X117115Y462935D01*
X117151Y462906D01*
X117166Y462891D01*
X117260Y462782D01*
X117333Y462665D01*
X117384Y462549D01*
X117413Y462432D01*
X117435Y462337D01*
X117443Y462257D01*
X117450Y462228D01*
Y462206D01*
Y462191D01*
Y462184D01*
X117435Y462024D01*
X117399Y461878D01*
X117355Y461754D01*
X117297Y461645D01*
X117238Y461557D01*
X117195Y461492D01*
X117158Y461448D01*
X117144Y461433D01*
X117027Y461331D01*
X116903Y461258D01*
X116779Y461207D01*
X116663Y461171D01*
X116561Y461149D01*
X116480Y461142D01*
X116451Y461134D01*
X116408D01*
X116276Y461142D01*
X116152Y461171D01*
X116043Y461207D01*
X115955Y461251D01*
X115883Y461288D01*
X115824Y461324D01*
X115795Y461353D01*
X115780Y461361D01*
X115693Y461462D01*
X115620Y461579D01*
X115554Y461703D01*
X115504Y461834D01*
X115467Y461944D01*
X115453Y461995D01*
X115445Y462038D01*
X115438Y462075D01*
X115431Y462104D01*
X115423Y462119D01*
Y462126D01*
X114804Y462046D01*
D01*
X114818Y461929D01*
X114840Y461820D01*
X114906Y461616D01*
X114986Y461441D01*
X115030Y461368D01*
X115073Y461295D01*
X115117Y461229D01*
X115161Y461178D01*
X115197Y461127D01*
X115234Y461091D01*
X115256Y461062D01*
X115278Y461040D01*
X115292Y461025D01*
X115299Y461018D01*
X115387Y460952D01*
X115474Y460887D01*
X115562Y460836D01*
X115657Y460792D01*
X115839Y460719D01*
X116014Y460675D01*
X116094Y460661D01*
X116167Y460646D01*
X116233Y460639D01*
X116291Y460632D01*
X116335Y460624D01*
X118106D01*
Y465778D01*
D02*
G37*
G36*
X114133D02*
D01*
Y461309D01*
X111647D01*
X111735Y461433D01*
X111778Y461484D01*
X111815Y461535D01*
X111851Y461579D01*
X111880Y461608D01*
X111902Y461630D01*
X111909Y461637D01*
X111946Y461674D01*
X111990Y461710D01*
X112092Y461805D01*
X112208Y461914D01*
X112332Y462024D01*
X112449Y462119D01*
X112500Y462162D01*
X112544Y462206D01*
X112580Y462235D01*
X112609Y462257D01*
X112624Y462272D01*
X112631Y462279D01*
X112748Y462381D01*
X112864Y462476D01*
X112967Y462571D01*
X113061Y462651D01*
X113149Y462731D01*
X113222Y462804D01*
X113295Y462870D01*
X113353Y462928D01*
X113411Y462986D01*
X113455Y463030D01*
X113491Y463066D01*
X113528Y463103D01*
X113564Y463146D01*
X113579Y463161D01*
X113681Y463285D01*
X113768Y463394D01*
X113841Y463504D01*
X113900Y463591D01*
X113944Y463671D01*
X113973Y463730D01*
X113987Y463766D01*
X113995Y463781D01*
X114038Y463890D01*
X114067Y463999D01*
X114096Y464102D01*
X114111Y464189D01*
X114118Y464269D01*
X114126Y464327D01*
Y464364D01*
Y464378D01*
X114118Y464488D01*
X114104Y464590D01*
X114089Y464692D01*
X114060Y464780D01*
X113987Y464954D01*
X113914Y465093D01*
X113871Y465159D01*
X113834Y465210D01*
X113798Y465261D01*
X113761Y465297D01*
X113732Y465326D01*
X113717Y465355D01*
X113703Y465363D01*
X113696Y465370D01*
X113615Y465443D01*
X113528Y465509D01*
X113433Y465559D01*
X113338Y465603D01*
X113149Y465676D01*
X112959Y465727D01*
X112879Y465742D01*
X112799Y465756D01*
X112726Y465764D01*
X112668Y465771D01*
X112617Y465778D01*
X114133D01*
X112544D01*
D01*
X110787D01*
X112544D01*
X112413Y465771D01*
X112289Y465764D01*
X112172Y465742D01*
X112063Y465720D01*
X111961Y465691D01*
X111866Y465662D01*
X111778Y465625D01*
X111698Y465589D01*
X111625Y465552D01*
X111567Y465516D01*
X111516Y465487D01*
X111472Y465457D01*
X111436Y465436D01*
X111414Y465414D01*
X111399Y465406D01*
X111392Y465399D01*
X111319Y465326D01*
X111253Y465246D01*
X111188Y465159D01*
X111137Y465071D01*
X111049Y464896D01*
X110991Y464721D01*
X110969Y464641D01*
X110947Y464561D01*
X110933Y464495D01*
X110918Y464437D01*
X110911Y464386D01*
Y464349D01*
X110904Y464327D01*
Y464320D01*
X111538Y464255D01*
X111552Y464422D01*
X111582Y464568D01*
X111625Y464699D01*
X111676Y464801D01*
X111720Y464889D01*
X111764Y464947D01*
X111793Y464984D01*
X111808Y464998D01*
X111917Y465086D01*
X112033Y465151D01*
X112157Y465202D01*
X112267Y465232D01*
X112369Y465253D01*
X112456Y465261D01*
X112485Y465268D01*
X112529D01*
X112682Y465261D01*
X112821Y465232D01*
X112937Y465188D01*
X113040Y465144D01*
X113120Y465093D01*
X113171Y465057D01*
X113207Y465027D01*
X113222Y465013D01*
X113309Y464911D01*
X113375Y464809D01*
X113426Y464707D01*
X113455Y464605D01*
X113477Y464524D01*
X113484Y464451D01*
X113491Y464408D01*
Y464400D01*
Y464393D01*
X113477Y464262D01*
X113448Y464123D01*
X113397Y463999D01*
X113346Y463883D01*
X113287Y463788D01*
X113236Y463708D01*
X113222Y463679D01*
X113207Y463657D01*
X113193Y463650D01*
Y463642D01*
X113134Y463562D01*
X113061Y463482D01*
X112981Y463394D01*
X112894Y463307D01*
X112711Y463132D01*
X112529Y462957D01*
X112434Y462877D01*
X112354Y462804D01*
X112274Y462738D01*
X112208Y462680D01*
X112157Y462636D01*
X112114Y462600D01*
X112084Y462578D01*
X112077Y462571D01*
X111895Y462418D01*
X111727Y462272D01*
X111589Y462141D01*
X111479Y462031D01*
X111385Y461936D01*
X111319Y461871D01*
X111283Y461827D01*
X111268Y461820D01*
Y461812D01*
X111166Y461689D01*
X111086Y461572D01*
X111013Y461455D01*
X110954Y461353D01*
X110911Y461266D01*
X110882Y461200D01*
X110867Y461156D01*
X110860Y461149D01*
Y461142D01*
X110831Y461062D01*
X110816Y460989D01*
X110801Y460916D01*
X110794Y460850D01*
X110787Y460792D01*
Y460712D01*
X114133D01*
Y465778D01*
D02*
G37*
G36*
X110583Y465844D02*
X110087D01*
X108622Y460624D01*
X110583D01*
X109117D01*
X110583Y465844D01*
D02*
G37*
%LPD*%
G36*
X136473Y473014D02*
X136313Y472985D01*
X136167Y472941D01*
X136043Y472898D01*
X135941Y472854D01*
X135868Y472810D01*
X135839Y472796D01*
X135817Y472781D01*
X135810Y472774D01*
X135802D01*
X135679Y472679D01*
X135569Y472562D01*
X135475Y472453D01*
X135394Y472344D01*
X135336Y472242D01*
X135292Y472161D01*
X135278Y472132D01*
X135263Y472110D01*
X135256Y472096D01*
Y472088D01*
X135190Y471921D01*
X135146Y471753D01*
X135110Y471593D01*
X135088Y471447D01*
X135073Y471316D01*
Y471265D01*
X135066Y471214D01*
Y473022D01*
X136648D01*
X136473Y473014D01*
D02*
G37*
G36*
X136845Y472497D02*
X136984Y472460D01*
X137107Y472402D01*
X137209Y472344D01*
X137297Y472278D01*
X137363Y472220D01*
X137399Y472183D01*
X137414Y472176D01*
Y472169D01*
X137465Y472103D01*
X137516Y472030D01*
X137589Y471863D01*
X137640Y471695D01*
X137676Y471527D01*
X137698Y471381D01*
X137705Y471316D01*
Y471257D01*
X137713Y471214D01*
Y471177D01*
Y471155D01*
Y471148D01*
Y471024D01*
X137698Y470900D01*
X137683Y470791D01*
X137669Y470696D01*
X137647Y470601D01*
X137618Y470514D01*
X137596Y470441D01*
X137567Y470375D01*
X137538Y470310D01*
X137516Y470259D01*
X137487Y470215D01*
X137465Y470186D01*
X137450Y470157D01*
X137435Y470135D01*
X137421Y470127D01*
Y470120D01*
X137363Y470062D01*
X137304Y470011D01*
X137188Y469931D01*
X137064Y469872D01*
X136954Y469836D01*
X136852Y469807D01*
X136772Y469799D01*
X136743Y469792D01*
X136699D01*
X136619Y469799D01*
X136546Y469807D01*
X136408Y469843D01*
X136284Y469894D01*
X136182Y469960D01*
X136094Y470018D01*
X136036Y470069D01*
X135999Y470106D01*
X135985Y470120D01*
X135934Y470186D01*
X135890Y470259D01*
X135817Y470426D01*
X135773Y470594D01*
X135737Y470769D01*
X135715Y470922D01*
X135708Y470995D01*
Y471053D01*
X135701Y471104D01*
Y471141D01*
Y471163D01*
Y471170D01*
Y471294D01*
X135715Y471403D01*
X135730Y471505D01*
X135744Y471607D01*
X135766Y471695D01*
X135788Y471775D01*
X135817Y471855D01*
X135846Y471921D01*
X135868Y471979D01*
X135897Y472030D01*
X135919Y472074D01*
X135941Y472103D01*
X135956Y472132D01*
X135970Y472154D01*
X135985Y472161D01*
Y472169D01*
X136043Y472227D01*
X136101Y472285D01*
X136218Y472366D01*
X136335Y472431D01*
X136451Y472468D01*
X136546Y472497D01*
X136626Y472504D01*
X136655Y472511D01*
X136772D01*
X136845Y472497D01*
D02*
G37*
G36*
X98879Y472504D02*
X98959Y472497D01*
X99112Y472453D01*
X99243Y472395D01*
X99353Y472329D01*
X99440Y472263D01*
X99506Y472205D01*
X99542Y472161D01*
X99557Y472154D01*
Y472147D01*
X99622Y472052D01*
X99681Y471943D01*
X99717Y471833D01*
X99753Y471717D01*
X99775Y471622D01*
X99790Y471534D01*
Y471505D01*
X99797Y471483D01*
Y471469D01*
Y471462D01*
X97749D01*
X97771Y471629D01*
X97814Y471782D01*
X97865Y471914D01*
X97924Y472016D01*
X97975Y472103D01*
X98026Y472169D01*
X98055Y472205D01*
X98070Y472220D01*
X98186Y472315D01*
X98303Y472387D01*
X98427Y472438D01*
X98543Y472475D01*
X98638Y472497D01*
X98718Y472504D01*
X98747Y472511D01*
X98791D01*
X98879Y472504D01*
D02*
G37*
G36*
X140818D02*
X140898Y472497D01*
X141051Y472453D01*
X141182Y472395D01*
X141292Y472329D01*
X141379Y472263D01*
X141445Y472205D01*
X141481Y472161D01*
X141496Y472154D01*
Y472147D01*
X141562Y472052D01*
X141620Y471943D01*
X141656Y471833D01*
X141693Y471717D01*
X141715Y471622D01*
X141729Y471534D01*
Y471505D01*
X141737Y471483D01*
Y471469D01*
Y471462D01*
X139688D01*
X139710Y471629D01*
X139754Y471782D01*
X139805Y471914D01*
X139863Y472016D01*
X139914Y472103D01*
X139965Y472169D01*
X139994Y472205D01*
X140009Y472220D01*
X140126Y472315D01*
X140242Y472387D01*
X140366Y472438D01*
X140483Y472475D01*
X140577Y472497D01*
X140658Y472504D01*
X140687Y472511D01*
X140731D01*
X140818Y472504D01*
D02*
G37*
G36*
X142393Y469202D02*
X140760D01*
X140986Y469216D01*
X141190Y469253D01*
X141372Y469296D01*
X141445Y469326D01*
X141518Y469355D01*
X141584Y469384D01*
X141642Y469413D01*
X141685Y469435D01*
X141729Y469457D01*
X141758Y469479D01*
X141780Y469493D01*
X141795Y469508D01*
X141802D01*
X141948Y469639D01*
X142065Y469778D01*
X142167Y469923D01*
X142240Y470062D01*
X142298Y470186D01*
X142320Y470244D01*
X142342Y470288D01*
X142356Y470332D01*
X142364Y470361D01*
X142371Y470375D01*
Y470383D01*
X141729Y470463D01*
X141671Y470324D01*
X141605Y470208D01*
X141540Y470106D01*
X141481Y470025D01*
X141430Y469967D01*
X141387Y469923D01*
X141350Y469894D01*
X141343Y469887D01*
X141248Y469829D01*
X141153Y469785D01*
X141051Y469756D01*
X140964Y469734D01*
X140884Y469719D01*
X140818Y469712D01*
X140760D01*
X140672Y469719D01*
X140592Y469727D01*
X140446Y469763D01*
X140315Y469814D01*
X140198Y469872D01*
X140111Y469923D01*
X140045Y469974D01*
X140001Y470011D01*
X139994Y470025D01*
X139987D01*
X139885Y470157D01*
X139805Y470302D01*
X139746Y470463D01*
X139703Y470609D01*
X139681Y470740D01*
X139666Y470798D01*
X139659Y470849D01*
Y470893D01*
X139652Y470922D01*
Y470944D01*
Y470951D01*
X142385D01*
X142393Y471024D01*
Y469202D01*
D02*
G37*
G36*
X133718Y470886D02*
X133710Y470740D01*
X133703Y470616D01*
X133688Y470514D01*
X133667Y470426D01*
X133645Y470361D01*
X133630Y470310D01*
X133623Y470281D01*
X133616Y470273D01*
X133557Y470179D01*
X133499Y470091D01*
X133426Y470018D01*
X133360Y469960D01*
X133302Y469909D01*
X133251Y469872D01*
X133222Y469850D01*
X133207Y469843D01*
X133098Y469792D01*
X132989Y469756D01*
X132887Y469727D01*
X132784Y469712D01*
X132704Y469697D01*
X132631Y469690D01*
X132573D01*
X132442Y469697D01*
X132333Y469712D01*
X132238Y469741D01*
X132158Y469770D01*
X132099Y469799D01*
X132055Y469829D01*
X132026Y469843D01*
X132019Y469850D01*
X131961Y469916D01*
X131917Y469989D01*
X131880Y470055D01*
X131859Y470120D01*
X131844Y470179D01*
X131837Y470222D01*
Y470259D01*
Y470266D01*
X131844Y470324D01*
X131851Y470383D01*
X131866Y470426D01*
X131880Y470470D01*
X131895Y470507D01*
X131902Y470536D01*
X131917Y470550D01*
Y470558D01*
X131990Y470645D01*
X132077Y470703D01*
X132106Y470725D01*
X132136Y470740D01*
X132158Y470754D01*
X132165D01*
X132238Y470784D01*
X132318Y470806D01*
X132405Y470827D01*
X132493Y470842D01*
X132573Y470857D01*
X132646Y470871D01*
X132690Y470878D01*
X132704D01*
X132828Y470900D01*
X132945Y470915D01*
X133047Y470937D01*
X133149Y470959D01*
X133244Y470980D01*
X133324Y471002D01*
X133404Y471017D01*
X133470Y471039D01*
X133528Y471053D01*
X133579Y471068D01*
X133623Y471082D01*
X133659Y471097D01*
X133688Y471104D01*
X133710Y471112D01*
X133718Y471119D01*
X133725D01*
X133718Y470886D01*
D02*
G37*
G36*
X123913Y470980D02*
X123905Y470813D01*
X123898Y470667D01*
X123883Y470543D01*
X123862Y470441D01*
X123840Y470361D01*
X123825Y470302D01*
X123818Y470273D01*
X123811Y470259D01*
X123767Y470171D01*
X123716Y470098D01*
X123657Y470033D01*
X123599Y469974D01*
X123548Y469931D01*
X123504Y469902D01*
X123475Y469880D01*
X123460Y469872D01*
X123366Y469829D01*
X123271Y469792D01*
X123184Y469770D01*
X123103Y469748D01*
X123038Y469741D01*
X122987Y469734D01*
X122936D01*
X122834Y469741D01*
X122746Y469756D01*
X122666Y469778D01*
X122600Y469807D01*
X122542Y469829D01*
X122505Y469850D01*
X122476Y469865D01*
X122469Y469872D01*
X122404Y469931D01*
X122353Y469989D01*
X122309Y470055D01*
X122272Y470113D01*
X122250Y470171D01*
X122236Y470215D01*
X122221Y470244D01*
Y470251D01*
X122207Y470332D01*
X122199Y470426D01*
X122192Y470536D01*
Y470645D01*
X122185Y470747D01*
Y470827D01*
Y470864D01*
Y470886D01*
Y470900D01*
Y470907D01*
Y472941D01*
X123913D01*
Y470980D01*
D02*
G37*
G36*
X109493Y473722D02*
X109588D01*
X109675Y473714D01*
X109821Y473692D01*
X109938Y473678D01*
X110032Y473656D01*
X110098Y473634D01*
X110134Y473627D01*
X110149Y473619D01*
X110280Y473554D01*
X110404Y473474D01*
X110513Y473379D01*
X110608Y473284D01*
X110681Y473197D01*
X110740Y473124D01*
X110754Y473095D01*
X110769Y473073D01*
X110783Y473058D01*
Y473051D01*
X110827Y472971D01*
X110871Y472876D01*
X110936Y472686D01*
X110980Y472482D01*
X111016Y472285D01*
X111024Y472198D01*
X111031Y472110D01*
X111038Y472038D01*
Y471972D01*
X111046Y471914D01*
Y471877D01*
Y471848D01*
Y471841D01*
X111038Y471636D01*
X111024Y471447D01*
X111002Y471279D01*
X110980Y471134D01*
X110966Y471075D01*
X110951Y471024D01*
X110936Y470973D01*
X110929Y470937D01*
X110922Y470907D01*
X110915Y470886D01*
X110907Y470871D01*
Y470864D01*
X110856Y470725D01*
X110798Y470601D01*
X110732Y470492D01*
X110674Y470397D01*
X110623Y470324D01*
X110579Y470273D01*
X110550Y470244D01*
X110543Y470230D01*
X110470Y470171D01*
X110397Y470120D01*
X110324Y470077D01*
X110251Y470033D01*
X110185Y470004D01*
X110134Y469982D01*
X110098Y469974D01*
X110083Y469967D01*
X109974Y469938D01*
X109843Y469916D01*
X109712Y469902D01*
X109588Y469894D01*
X109478Y469887D01*
X109427Y469880D01*
X108232D01*
Y473729D01*
X109398D01*
X109493Y473722D01*
D02*
G37*
G36*
X77351Y473722D02*
X77446D01*
X77534Y473714D01*
X77679Y473692D01*
X77796Y473678D01*
X77891Y473656D01*
X77956Y473634D01*
X77993Y473627D01*
X78007Y473619D01*
X78139Y473554D01*
X78263Y473474D01*
X78372Y473379D01*
X78467Y473284D01*
X78540Y473197D01*
X78598Y473124D01*
X78613Y473095D01*
X78627Y473073D01*
X78642Y473058D01*
Y473051D01*
X78685Y472971D01*
X78729Y472876D01*
X78795Y472686D01*
X78838Y472482D01*
X78875Y472285D01*
X78882Y472198D01*
X78890Y472110D01*
X78897Y472038D01*
Y471972D01*
X78904Y471913D01*
Y471877D01*
Y471848D01*
Y471841D01*
X78897Y471636D01*
X78882Y471447D01*
X78860Y471279D01*
X78838Y471134D01*
X78824Y471075D01*
X78809Y471024D01*
X78795Y470973D01*
X78787Y470937D01*
X78780Y470907D01*
X78773Y470886D01*
X78765Y470871D01*
Y470864D01*
X78715Y470725D01*
X78656Y470601D01*
X78591Y470492D01*
X78532Y470397D01*
X78481Y470324D01*
X78438Y470273D01*
X78408Y470244D01*
X78401Y470230D01*
X78328Y470171D01*
X78255Y470120D01*
X78182Y470077D01*
X78110Y470033D01*
X78044Y470004D01*
X77993Y469982D01*
X77956Y469974D01*
X77942Y469967D01*
X77832Y469938D01*
X77701Y469916D01*
X77570Y469902D01*
X77446Y469894D01*
X77337Y469887D01*
X77286Y469880D01*
X76090D01*
Y473729D01*
X77257D01*
X77351Y473722D01*
D02*
G37*
G36*
X82017Y472504D02*
X82097Y472497D01*
X82250Y472453D01*
X82381Y472395D01*
X82491Y472329D01*
X82578Y472263D01*
X82644Y472205D01*
X82680Y472161D01*
X82695Y472154D01*
Y472147D01*
X82761Y472052D01*
X82819Y471943D01*
X82855Y471833D01*
X82892Y471717D01*
X82914Y471622D01*
X82928Y471534D01*
Y471505D01*
X82935Y471483D01*
Y471469D01*
Y471462D01*
X80887D01*
X80909Y471629D01*
X80953Y471782D01*
X81004Y471913D01*
X81062Y472016D01*
X81113Y472103D01*
X81164Y472169D01*
X81193Y472205D01*
X81208Y472220D01*
X81324Y472315D01*
X81441Y472387D01*
X81565Y472438D01*
X81682Y472475D01*
X81776Y472497D01*
X81857Y472504D01*
X81886Y472511D01*
X81929D01*
X82017Y472504D01*
D02*
G37*
G36*
X81784Y473014D02*
X81652Y473000D01*
X81529Y472978D01*
X81412Y472941D01*
X81302Y472905D01*
X81200Y472861D01*
X81106Y472818D01*
X81025Y472766D01*
X80945Y472723D01*
X80880Y472672D01*
X80821Y472628D01*
X80778Y472591D01*
X80741Y472555D01*
X80712Y472533D01*
X80697Y472519D01*
X80690Y472511D01*
X80610Y472409D01*
X80537Y472300D01*
X80471Y472191D01*
X80413Y472074D01*
X80369Y471950D01*
X80333Y471833D01*
X80275Y471600D01*
X80253Y471498D01*
X80238Y471396D01*
X80231Y471309D01*
X80224Y471228D01*
X80216Y471163D01*
Y473022D01*
X81922D01*
X81784Y473014D01*
D02*
G37*
G36*
X90612D02*
X90451Y472985D01*
X90306Y472941D01*
X90182Y472898D01*
X90080Y472854D01*
X90007Y472810D01*
X89978Y472796D01*
X89956Y472781D01*
X89948Y472774D01*
X89941D01*
X89817Y472679D01*
X89708Y472562D01*
X89613Y472453D01*
X89533Y472344D01*
X89475Y472242D01*
X89431Y472161D01*
X89416Y472132D01*
X89402Y472110D01*
X89394Y472096D01*
Y472088D01*
X89329Y471921D01*
X89285Y471753D01*
X89249Y471593D01*
X89227Y471447D01*
X89212Y471316D01*
Y471265D01*
X89205Y471214D01*
Y473022D01*
X90787D01*
X90612Y473014D01*
D02*
G37*
G36*
X90984Y472497D02*
X91122Y472460D01*
X91246Y472402D01*
X91348Y472344D01*
X91436Y472278D01*
X91501Y472220D01*
X91538Y472183D01*
X91552Y472176D01*
Y472169D01*
X91603Y472103D01*
X91654Y472030D01*
X91727Y471863D01*
X91778Y471695D01*
X91815Y471527D01*
X91837Y471381D01*
X91844Y471316D01*
Y471257D01*
X91851Y471214D01*
Y471177D01*
Y471155D01*
Y471148D01*
Y471024D01*
X91837Y470900D01*
X91822Y470791D01*
X91807Y470696D01*
X91786Y470601D01*
X91756Y470514D01*
X91734Y470441D01*
X91705Y470375D01*
X91676Y470310D01*
X91654Y470259D01*
X91625Y470215D01*
X91603Y470186D01*
X91589Y470157D01*
X91574Y470135D01*
X91559Y470127D01*
Y470120D01*
X91501Y470062D01*
X91443Y470011D01*
X91326Y469931D01*
X91202Y469872D01*
X91093Y469836D01*
X90991Y469807D01*
X90911Y469799D01*
X90882Y469792D01*
X90838D01*
X90758Y469799D01*
X90685Y469807D01*
X90546Y469843D01*
X90422Y469894D01*
X90320Y469960D01*
X90233Y470018D01*
X90174Y470069D01*
X90138Y470106D01*
X90123Y470120D01*
X90072Y470186D01*
X90029Y470259D01*
X89956Y470426D01*
X89912Y470594D01*
X89876Y470769D01*
X89854Y470922D01*
X89846Y470995D01*
Y471053D01*
X89839Y471104D01*
Y471141D01*
Y471163D01*
Y471170D01*
Y471294D01*
X89854Y471403D01*
X89868Y471505D01*
X89883Y471607D01*
X89905Y471695D01*
X89926Y471775D01*
X89956Y471855D01*
X89985Y471921D01*
X90007Y471979D01*
X90036Y472030D01*
X90058Y472074D01*
X90080Y472103D01*
X90094Y472132D01*
X90109Y472154D01*
X90123Y472161D01*
Y472169D01*
X90182Y472227D01*
X90240Y472285D01*
X90357Y472366D01*
X90473Y472431D01*
X90590Y472468D01*
X90685Y472497D01*
X90765Y472504D01*
X90794Y472511D01*
X90911D01*
X90984Y472497D01*
D02*
G37*
G36*
X102790Y465261D02*
X102870Y465253D01*
X102943Y465232D01*
X103008Y465202D01*
X103132Y465137D01*
X103242Y465064D01*
X103322Y464984D01*
X103387Y464918D01*
X103409Y464889D01*
X103424Y464867D01*
X103439Y464860D01*
Y464852D01*
X103490Y464765D01*
X103533Y464663D01*
X103577Y464546D01*
X103606Y464422D01*
X103635Y464291D01*
X103657Y464152D01*
X103694Y463875D01*
X103708Y463737D01*
X103716Y463613D01*
X103723Y463496D01*
Y463402D01*
X103730Y463314D01*
Y463249D01*
Y463212D01*
Y463205D01*
Y463198D01*
Y462972D01*
X103716Y462767D01*
X103701Y462585D01*
X103686Y462410D01*
X103665Y462264D01*
X103635Y462126D01*
X103606Y462009D01*
X103584Y461900D01*
X103555Y461812D01*
X103526Y461739D01*
X103504Y461674D01*
X103475Y461623D01*
X103460Y461586D01*
X103446Y461565D01*
X103431Y461550D01*
Y461543D01*
X103373Y461470D01*
X103315Y461412D01*
X103256Y461353D01*
X103198Y461309D01*
X103074Y461236D01*
X102965Y461186D01*
X102863Y461156D01*
X102790Y461142D01*
X102761Y461134D01*
X102717D01*
X102637Y461142D01*
X102564Y461149D01*
X102425Y461200D01*
X102301Y461266D01*
X102192Y461339D01*
X102112Y461412D01*
X102046Y461477D01*
X102010Y461528D01*
X101995Y461535D01*
Y461543D01*
X101944Y461630D01*
X101900Y461732D01*
X101857Y461849D01*
X101828Y461973D01*
X101798Y462104D01*
X101776Y462243D01*
X101740Y462527D01*
X101725Y462658D01*
X101718Y462782D01*
X101711Y462899D01*
Y462993D01*
X101704Y463081D01*
Y463146D01*
Y463183D01*
Y463198D01*
X101711Y463423D01*
X101718Y463628D01*
X101733Y463817D01*
X101755Y463992D01*
X101776Y464145D01*
X101806Y464284D01*
X101835Y464408D01*
X101864Y464517D01*
X101893Y464612D01*
X101915Y464692D01*
X101944Y464758D01*
X101966Y464816D01*
X101988Y464852D01*
X102002Y464882D01*
X102017Y464896D01*
Y464903D01*
X102068Y464969D01*
X102119Y465027D01*
X102177Y465071D01*
X102236Y465115D01*
X102352Y465180D01*
X102462Y465224D01*
X102557Y465246D01*
X102637Y465261D01*
X102666Y465268D01*
X102710D01*
X102790Y465261D01*
D02*
G37*
G36*
X104364Y460624D02*
X102717D01*
X102914Y460639D01*
X103096Y460668D01*
X103249Y460719D01*
X103380Y460770D01*
X103490Y460821D01*
X103526Y460850D01*
X103562Y460872D01*
X103592Y460887D01*
X103613Y460901D01*
X103621Y460916D01*
X103628D01*
X103759Y461040D01*
X103869Y461171D01*
X103963Y461317D01*
X104036Y461448D01*
X104095Y461572D01*
X104124Y461623D01*
X104138Y461674D01*
X104153Y461710D01*
X104168Y461739D01*
X104175Y461754D01*
Y461761D01*
X104211Y461871D01*
X104241Y461980D01*
X104284Y462213D01*
X104321Y462454D01*
X104342Y462687D01*
X104350Y462789D01*
X104357Y462884D01*
Y462972D01*
X104364Y463052D01*
Y460624D01*
D02*
G37*
G36*
X106974Y462490D02*
X105385D01*
X106974Y464750D01*
Y462490D01*
D02*
G37*
G36*
X108279Y460712D02*
X107594D01*
Y461922D01*
X108279D01*
Y460712D01*
D02*
G37*
G36*
X118106Y460624D02*
X116400D01*
X116539Y460632D01*
X116663Y460646D01*
X116787Y460668D01*
X116903Y460697D01*
X117013Y460734D01*
X117107Y460770D01*
X117202Y460814D01*
X117282Y460857D01*
X117362Y460894D01*
X117428Y460938D01*
X117486Y460974D01*
X117530Y461011D01*
X117567Y461040D01*
X117596Y461062D01*
X117610Y461076D01*
X117618Y461083D01*
X117705Y461171D01*
X117778Y461266D01*
X117844Y461361D01*
X117902Y461455D01*
X117946Y461543D01*
X117989Y461637D01*
X118048Y461812D01*
X118062Y461893D01*
X118077Y461966D01*
X118091Y462031D01*
X118099Y462089D01*
X118106Y462133D01*
Y460624D01*
D02*
G37*
%LPC*%
G36*
X147095Y490078D02*
X146475D01*
Y489371D01*
X147095D01*
Y489130D01*
Y489371D01*
Y490078D01*
D02*
G37*
G36*
X133091Y489969D02*
X132471Y489597D01*
Y488693D01*
X132012D01*
D01*
Y488212D01*
X132471D01*
Y486098D01*
Y485996D01*
Y485908D01*
X132478Y485828D01*
X132486Y485748D01*
Y485682D01*
X132493Y485624D01*
X132507Y485529D01*
X132522Y485456D01*
X132529Y485405D01*
X132544Y485376D01*
Y485369D01*
X132573Y485303D01*
X132617Y485252D01*
X132660Y485201D01*
X132697Y485165D01*
X132741Y485128D01*
X132770Y485106D01*
X132792Y485092D01*
X132799Y485085D01*
X132879Y485048D01*
X132959Y485026D01*
X133047Y485004D01*
X133134Y484997D01*
X133207Y484990D01*
X133266Y484982D01*
X133324D01*
X133484Y484990D01*
X133564Y484997D01*
X133637Y485012D01*
X133703Y485019D01*
X133754Y485026D01*
X133783Y485034D01*
X133798D01*
X133718Y485580D01*
X133659Y485573D01*
X133601Y485566D01*
X133550D01*
X133513Y485558D01*
X133441D01*
X133346Y485566D01*
X133280Y485580D01*
X133244Y485595D01*
X133229Y485602D01*
X133178Y485639D01*
X133149Y485675D01*
X133127Y485704D01*
X133120Y485719D01*
X133113Y485755D01*
X133105Y485806D01*
X133098Y485923D01*
X133091Y485974D01*
Y486018D01*
Y486047D01*
Y486061D01*
Y488212D01*
X133718D01*
Y488693D01*
X133091D01*
Y489969D01*
D02*
G37*
G36*
X97268Y490078D02*
X94096D01*
X96648D01*
Y488270D01*
X96582Y488350D01*
X96509Y488416D01*
X96444Y488482D01*
X96371Y488533D01*
X96313Y488569D01*
X96269Y488606D01*
X96240Y488620D01*
X96225Y488627D01*
X96130Y488679D01*
X96028Y488715D01*
X95926Y488737D01*
X95831Y488759D01*
X95751Y488766D01*
X95693Y488773D01*
X95635D01*
X95474Y488766D01*
X95321Y488737D01*
X95183Y488700D01*
X95066Y488657D01*
X94964Y488606D01*
X94891Y488569D01*
X94862Y488555D01*
X94840Y488540D01*
X94833Y488533D01*
X94825D01*
X94694Y488438D01*
X94585Y488321D01*
X94490Y488212D01*
X94417Y488103D01*
X94359Y488001D01*
X94315Y487920D01*
X94301Y487891D01*
X94286Y487869D01*
X94279Y487855D01*
Y487848D01*
X94220Y487680D01*
X94177Y487505D01*
X94140Y487337D01*
X94118Y487184D01*
X94104Y487053D01*
Y486995D01*
X94096Y486951D01*
Y486856D01*
X94104Y486652D01*
X94126Y486462D01*
X94162Y486295D01*
X94199Y486149D01*
X94213Y486083D01*
X94228Y486032D01*
X94249Y485981D01*
X94264Y485938D01*
X94279Y485908D01*
X94286Y485886D01*
X94293Y485872D01*
Y485865D01*
X94373Y485711D01*
X94468Y485580D01*
X94563Y485464D01*
X94658Y485369D01*
X94738Y485296D01*
X94804Y485238D01*
X94847Y485209D01*
X94855Y485194D01*
X94862D01*
X95000Y485114D01*
X95139Y485055D01*
X95277Y485012D01*
X95401Y484982D01*
X95503Y484968D01*
X95591Y484961D01*
X95620Y484953D01*
X97268D01*
Y490078D01*
D02*
G37*
G36*
X118846Y488773D02*
X118788D01*
X118649Y488766D01*
X118518Y488744D01*
X118401Y488715D01*
X118285Y488679D01*
X118183Y488635D01*
X118088Y488584D01*
X118000Y488525D01*
X117927Y488474D01*
X117854Y488416D01*
X117796Y488358D01*
X117745Y488307D01*
X117701Y488263D01*
X117672Y488227D01*
X117650Y488197D01*
X117636Y488175D01*
X117629Y488168D01*
Y488693D01*
X117075D01*
Y485034D01*
X120042D01*
Y487439D01*
Y487432D01*
X120034Y487556D01*
X120027Y487658D01*
Y487745D01*
X120020Y487804D01*
X120012Y487848D01*
X120005Y487877D01*
Y487884D01*
X119983Y487979D01*
X119947Y488066D01*
X119918Y488139D01*
X119888Y488212D01*
X119852Y488263D01*
X119830Y488300D01*
X119816Y488329D01*
X119808Y488336D01*
X119750Y488409D01*
X119684Y488467D01*
X119619Y488525D01*
X119546Y488569D01*
X119488Y488606D01*
X119437Y488627D01*
X119407Y488642D01*
X119393Y488649D01*
X119291Y488693D01*
X119181Y488722D01*
X119079Y488744D01*
X118984Y488759D01*
X118904Y488766D01*
X118846Y488773D01*
D02*
G37*
G36*
X140227D02*
X138245D01*
Y485034D01*
X138864D01*
D01*
X138944D01*
X138864D01*
Y486943D01*
X138872Y487089D01*
X138879Y487220D01*
X138893Y487345D01*
X138915Y487454D01*
X138937Y487541D01*
X138952Y487607D01*
X138959Y487651D01*
X138966Y487665D01*
X138996Y487745D01*
X139032Y487811D01*
X139068Y487869D01*
X139105Y487920D01*
X139141Y487957D01*
X139163Y487986D01*
X139185Y488001D01*
X139192Y488008D01*
X139251Y488052D01*
X139316Y488081D01*
X139382Y488103D01*
X139433Y488117D01*
X139484Y488125D01*
X139520Y488132D01*
X139557D01*
X139637Y488125D01*
X139717Y488110D01*
X139797Y488088D01*
X139863Y488066D01*
X139921Y488044D01*
X139965Y488022D01*
X139994Y488008D01*
X140001Y488001D01*
X140227Y488569D01*
X140104Y488635D01*
X139987Y488686D01*
X139885Y488722D01*
X139790Y488751D01*
X139710Y488766D01*
X139644Y488773D01*
X140227D01*
D01*
D02*
G37*
G36*
X103442D02*
X103267D01*
X103165Y488759D01*
X103078Y488751D01*
X102998Y488737D01*
X102932Y488722D01*
X102881Y488708D01*
X102852Y488700D01*
X102837Y488693D01*
X102750Y488664D01*
X102670Y488635D01*
X102604Y488606D01*
X102545Y488577D01*
X102502Y488555D01*
X102473Y488533D01*
X102451Y488525D01*
X102444Y488518D01*
X102371Y488467D01*
X102312Y488409D01*
X102261Y488343D01*
X102217Y488292D01*
X102181Y488241D01*
X102159Y488205D01*
X102145Y488175D01*
X102137Y488168D01*
X102101Y488088D01*
X102072Y488015D01*
X102057Y487935D01*
X102042Y487869D01*
X102035Y487804D01*
X102028Y487760D01*
Y487731D01*
Y487716D01*
X102035Y487614D01*
X102050Y487527D01*
X102072Y487439D01*
X102094Y487366D01*
X102115Y487308D01*
X102137Y487257D01*
X102152Y487228D01*
X102159Y487220D01*
X102217Y487140D01*
X102283Y487075D01*
X102349Y487016D01*
X102414Y486965D01*
X102473Y486929D01*
X102516Y486900D01*
X102545Y486885D01*
X102560Y486878D01*
X102611Y486856D01*
X102677Y486827D01*
X102823Y486776D01*
X102976Y486732D01*
X103136Y486681D01*
X103275Y486645D01*
X103340Y486623D01*
X103399Y486608D01*
X103442Y486594D01*
X103479Y486586D01*
X103500Y486579D01*
X103508D01*
X103603Y486557D01*
X103683Y486535D01*
X103756Y486513D01*
X103821Y486491D01*
X103880Y486477D01*
X103931Y486455D01*
X104018Y486426D01*
X104076Y486404D01*
X104113Y486382D01*
X104135Y486375D01*
X104142Y486368D01*
X104208Y486324D01*
X104251Y486266D01*
X104288Y486214D01*
X104310Y486164D01*
X104324Y486112D01*
X104332Y486076D01*
Y486047D01*
Y486040D01*
X104324Y485952D01*
X104302Y485879D01*
X104266Y485806D01*
X104229Y485748D01*
X104186Y485697D01*
X104157Y485661D01*
X104128Y485639D01*
X104120Y485631D01*
X104033Y485573D01*
X103938Y485536D01*
X103829Y485507D01*
X103726Y485486D01*
X103632Y485471D01*
X103559Y485464D01*
X103486D01*
X103333Y485471D01*
X103202Y485493D01*
X103092Y485522D01*
X102998Y485558D01*
X102925Y485595D01*
X102866Y485624D01*
X102837Y485646D01*
X102823Y485653D01*
X102742Y485733D01*
X102677Y485828D01*
X102633Y485923D01*
X102597Y486010D01*
X102567Y486091D01*
X102553Y486164D01*
X102538Y486207D01*
Y486214D01*
Y486222D01*
X101926Y486127D01*
X101977Y485923D01*
X102042Y485741D01*
X102123Y485595D01*
X102203Y485471D01*
X102276Y485369D01*
X102341Y485303D01*
X102385Y485259D01*
X102392Y485252D01*
X102400Y485245D01*
X102473Y485194D01*
X102553Y485150D01*
X102728Y485077D01*
X102910Y485026D01*
X103085Y484990D01*
X103165Y484975D01*
X103238Y484968D01*
X103311Y484961D01*
X103369D01*
X103420Y484953D01*
X101926D01*
X104966D01*
D01*
X103486D01*
X103646Y484961D01*
X103785Y484975D01*
X103916Y484997D01*
X104033Y485026D01*
X104128Y485055D01*
X104200Y485077D01*
X104244Y485092D01*
X104251Y485099D01*
X104259D01*
X104383Y485165D01*
X104485Y485230D01*
X104572Y485303D01*
X104652Y485369D01*
X104711Y485427D01*
X104747Y485478D01*
X104776Y485507D01*
X104784Y485522D01*
X104842Y485624D01*
X104886Y485733D01*
X104922Y485828D01*
X104944Y485916D01*
X104958Y485996D01*
X104966Y486054D01*
Y486105D01*
X104958Y486222D01*
X104944Y486324D01*
X104915Y486411D01*
X104893Y486491D01*
X104864Y486557D01*
X104835Y486601D01*
X104820Y486630D01*
X104813Y486637D01*
X104754Y486710D01*
X104689Y486776D01*
X104623Y486834D01*
X104558Y486878D01*
X104492Y486914D01*
X104448Y486936D01*
X104419Y486951D01*
X104404Y486958D01*
X104353Y486980D01*
X104295Y487002D01*
X104157Y487053D01*
X104004Y487104D01*
X103850Y487148D01*
X103712Y487191D01*
X103646Y487206D01*
X103595Y487220D01*
X103551Y487235D01*
X103515Y487242D01*
X103493Y487250D01*
X103486D01*
X103406Y487272D01*
X103333Y487293D01*
X103267Y487308D01*
X103209Y487330D01*
X103114Y487352D01*
X103041Y487374D01*
X102990Y487395D01*
X102961Y487403D01*
X102946Y487410D01*
X102939D01*
X102881Y487439D01*
X102830Y487461D01*
X102786Y487490D01*
X102757Y487512D01*
X102728Y487534D01*
X102713Y487556D01*
X102706Y487563D01*
X102699Y487570D01*
X102655Y487643D01*
X102633Y487716D01*
Y487745D01*
X102626Y487767D01*
Y487782D01*
Y487789D01*
X102633Y487855D01*
X102655Y487920D01*
X102684Y487979D01*
X102720Y488022D01*
X102750Y488066D01*
X102779Y488095D01*
X102801Y488110D01*
X102808Y488117D01*
X102888Y488168D01*
X102983Y488205D01*
X103085Y488227D01*
X103180Y488248D01*
X103275Y488256D01*
X103347Y488263D01*
X103420D01*
X103544Y488256D01*
X103661Y488241D01*
X103756Y488212D01*
X103829Y488183D01*
X103894Y488154D01*
X103938Y488125D01*
X103967Y488110D01*
X103974Y488103D01*
X104047Y488037D01*
X104098Y487964D01*
X104142Y487891D01*
X104179Y487826D01*
X104200Y487760D01*
X104215Y487709D01*
X104222Y487680D01*
Y487665D01*
X104827Y487745D01*
X104798Y487869D01*
X104769Y487979D01*
X104733Y488073D01*
X104696Y488161D01*
X104660Y488219D01*
X104630Y488270D01*
X104616Y488300D01*
X104609Y488307D01*
X104543Y488380D01*
X104470Y488445D01*
X104390Y488504D01*
X104310Y488555D01*
X104237Y488591D01*
X104179Y488620D01*
X104142Y488635D01*
X104135Y488642D01*
X104128D01*
X104004Y488686D01*
X103872Y488715D01*
X103748Y488744D01*
X103632Y488759D01*
X103522Y488766D01*
X103442Y488773D01*
D02*
G37*
G36*
X122535D02*
X120814D01*
X122476D01*
X122301Y488766D01*
X122141Y488737D01*
X121988Y488700D01*
X121864Y488664D01*
X121755Y488620D01*
X121711Y488598D01*
X121675Y488584D01*
X121645Y488569D01*
X121624Y488555D01*
X121609Y488547D01*
X121602D01*
X121463Y488460D01*
X121339Y488350D01*
X121237Y488241D01*
X121150Y488132D01*
X121084Y488037D01*
X121040Y487957D01*
X121026Y487928D01*
X121011Y487906D01*
X121004Y487891D01*
Y487884D01*
X120938Y487709D01*
X120895Y487534D01*
X120858Y487359D01*
X120836Y487199D01*
X120829Y487126D01*
X120822Y487060D01*
Y487002D01*
X120814Y486951D01*
Y486849D01*
X120822Y486681D01*
X120836Y486528D01*
X120858Y486375D01*
X120887Y486244D01*
X120916Y486112D01*
X120960Y486003D01*
X120996Y485894D01*
X121040Y485799D01*
X121084Y485719D01*
X121121Y485646D01*
X121164Y485580D01*
X121193Y485529D01*
X121222Y485493D01*
X121244Y485464D01*
X121259Y485449D01*
X121266Y485442D01*
X121354Y485354D01*
X121449Y485281D01*
X121543Y485216D01*
X121645Y485157D01*
X121747Y485114D01*
X121842Y485070D01*
X122039Y485012D01*
X122126Y484997D01*
X122207Y484982D01*
X122280Y484968D01*
X122345Y484961D01*
X122396Y484953D01*
X122469D01*
X122578Y484961D01*
X122688Y484968D01*
X122877Y485012D01*
X123052Y485063D01*
X123198Y485128D01*
X123256Y485165D01*
X123315Y485194D01*
X123366Y485223D01*
X123402Y485252D01*
X123431Y485274D01*
X123453Y485289D01*
X123468Y485296D01*
X123475Y485303D01*
X123548Y485376D01*
X123614Y485449D01*
X123730Y485609D01*
X123825Y485777D01*
X123891Y485930D01*
X123942Y486076D01*
X123956Y486134D01*
X123971Y486193D01*
X123978Y486236D01*
X123985Y486266D01*
X123993Y486287D01*
Y485384D01*
Y486287D01*
Y486295D01*
X123380Y486375D01*
X123351Y486214D01*
X123307Y486069D01*
X123249Y485952D01*
X123198Y485857D01*
X123147Y485777D01*
X123103Y485726D01*
X123082Y485690D01*
X123067Y485682D01*
X122972Y485609D01*
X122870Y485558D01*
X122768Y485515D01*
X122673Y485493D01*
X122593Y485478D01*
X122520Y485471D01*
X122476Y485464D01*
X122462D01*
X122382Y485471D01*
X122301Y485478D01*
X122156Y485515D01*
X122032Y485566D01*
X121922Y485631D01*
X121842Y485690D01*
X121776Y485741D01*
X121740Y485777D01*
X121725Y485792D01*
X121675Y485857D01*
X121631Y485938D01*
X121565Y486098D01*
X121514Y486280D01*
X121485Y486455D01*
X121463Y486616D01*
X121456Y486681D01*
Y486747D01*
X121449Y486790D01*
Y486834D01*
Y486856D01*
Y486863D01*
Y486995D01*
X121463Y487118D01*
X121478Y487235D01*
X121492Y487337D01*
X121514Y487432D01*
X121543Y487519D01*
X121565Y487600D01*
X121594Y487673D01*
X121624Y487731D01*
X121645Y487782D01*
X121675Y487826D01*
X121696Y487862D01*
X121711Y487891D01*
X121725Y487913D01*
X121740Y487920D01*
Y487928D01*
X121798Y487986D01*
X121857Y488037D01*
X121981Y488125D01*
X122112Y488183D01*
X122229Y488219D01*
X122338Y488248D01*
X122418Y488256D01*
X122455Y488263D01*
X122498D01*
X122608Y488256D01*
X122710Y488234D01*
X122797Y488205D01*
X122877Y488168D01*
X122936Y488132D01*
X122987Y488103D01*
X123016Y488081D01*
X123023Y488073D01*
X123096Y488001D01*
X123162Y487913D01*
X123220Y487818D01*
X123256Y487731D01*
X123293Y487651D01*
X123315Y487585D01*
X123322Y487541D01*
X123329Y487534D01*
Y487527D01*
X123934Y487621D01*
X123883Y487818D01*
X123811Y487986D01*
X123730Y488132D01*
X123650Y488248D01*
X123570Y488343D01*
X123504Y488409D01*
X123460Y488452D01*
X123453Y488467D01*
X123446D01*
X123293Y488569D01*
X123133Y488642D01*
X122972Y488700D01*
X122819Y488737D01*
X122680Y488759D01*
X122622Y488766D01*
X122578D01*
X122535Y488773D01*
D02*
G37*
G36*
X84474Y490078D02*
Y485631D01*
X81375D01*
Y487345D01*
X84167D01*
Y487942D01*
X81375D01*
Y489480D01*
X84357D01*
Y490078D01*
X84474D01*
X80705D01*
Y485034D01*
X84474D01*
Y490078D01*
D02*
G37*
G36*
X71352D02*
Y485631D01*
X68122D01*
X68421Y485989D01*
X71271Y489480D01*
Y490078D01*
X71352D01*
X67648D01*
Y489480D01*
X70469D01*
X70375Y489378D01*
X70280Y489276D01*
X70192Y489174D01*
X70112Y489080D01*
X70047Y488999D01*
X69996Y488934D01*
X69959Y488890D01*
X69945Y488883D01*
Y488875D01*
X67357Y485653D01*
Y485034D01*
X71352D01*
Y490078D01*
D02*
G37*
G36*
X112387Y490078D02*
X109216D01*
Y485034D01*
X109792D01*
Y485493D01*
X109865Y485398D01*
X109938Y485318D01*
X110018Y485245D01*
X110105Y485179D01*
X110185Y485128D01*
X110273Y485085D01*
X110353Y485048D01*
X110433Y485019D01*
X110579Y484982D01*
X110645Y484968D01*
X110696Y484961D01*
X110740D01*
X110776Y484953D01*
X110805D01*
X110922Y484961D01*
X111038Y484975D01*
X111148Y484997D01*
X111250Y485034D01*
X111447Y485114D01*
X111527Y485165D01*
X111607Y485209D01*
X111680Y485259D01*
X111738Y485303D01*
X111789Y485347D01*
X111840Y485384D01*
X111877Y485420D01*
X111899Y485442D01*
X111913Y485456D01*
X111920Y485464D01*
X112001Y485566D01*
X112074Y485675D01*
X112139Y485784D01*
X112190Y485908D01*
X112234Y486025D01*
X112270Y486149D01*
X112329Y486382D01*
X112351Y486491D01*
X112365Y486594D01*
X112373Y486681D01*
X112380Y486761D01*
X112387Y486827D01*
Y485048D01*
Y486914D01*
X112380Y487060D01*
X112373Y487199D01*
X112351Y487323D01*
X112329Y487432D01*
X112307Y487527D01*
X112292Y487600D01*
X112285Y487621D01*
X112278Y487643D01*
X112270Y487651D01*
Y487658D01*
X112227Y487782D01*
X112176Y487898D01*
X112125Y488001D01*
X112074Y488088D01*
X112030Y488154D01*
X111993Y488205D01*
X111971Y488241D01*
X111964Y488248D01*
X111891Y488336D01*
X111804Y488416D01*
X111724Y488482D01*
X111644Y488533D01*
X111578Y488577D01*
X111520Y488613D01*
X111483Y488627D01*
X111469Y488635D01*
X111359Y488679D01*
X111242Y488715D01*
X111133Y488737D01*
X111038Y488759D01*
X110958Y488766D01*
X110893Y488773D01*
X110834D01*
X110725Y488766D01*
X110616Y488751D01*
X110513Y488730D01*
X110419Y488693D01*
X110251Y488620D01*
X110105Y488525D01*
X110047Y488482D01*
X109989Y488438D01*
X109945Y488394D01*
X109908Y488358D01*
X109872Y488321D01*
X109850Y488300D01*
X109843Y488285D01*
X109836Y488278D01*
Y490078D01*
X112387D01*
D01*
D02*
G37*
G36*
X156491Y490078D02*
X155872D01*
Y485034D01*
X156491D01*
Y490078D01*
D02*
G37*
G36*
X153590Y488773D02*
X151753D01*
Y484953D01*
Y485996D01*
X151760Y485908D01*
X151768Y485836D01*
X151804Y485682D01*
X151855Y485558D01*
X151913Y485449D01*
X151972Y485362D01*
X152023Y485296D01*
X152059Y485259D01*
X152074Y485245D01*
X152205Y485150D01*
X152351Y485077D01*
X152511Y485026D01*
X152657Y484990D01*
X152788Y484968D01*
X152847Y484961D01*
X152898D01*
X152941Y484953D01*
X151753D01*
X153000D01*
X153131Y484961D01*
X153262Y484975D01*
X153379Y484990D01*
X153481Y485012D01*
X153561Y485034D01*
X153627Y485055D01*
X153670Y485063D01*
X153685Y485070D01*
X153809Y485121D01*
X153926Y485187D01*
X154035Y485259D01*
X154144Y485325D01*
X154232Y485391D01*
X154297Y485442D01*
X154341Y485478D01*
X154348Y485493D01*
X154356D01*
X154370Y485398D01*
X154385Y485311D01*
X154399Y485230D01*
X154421Y485165D01*
X154443Y485107D01*
X154458Y485070D01*
X154465Y485041D01*
X154472Y485034D01*
X155121D01*
X155085Y485114D01*
X155048Y485194D01*
X155019Y485267D01*
X155004Y485332D01*
X154982Y485391D01*
X154975Y485434D01*
X154968Y485464D01*
Y485471D01*
X154961Y485522D01*
X154953Y485588D01*
Y485661D01*
X154946Y485741D01*
X154939Y485923D01*
Y486105D01*
X154931Y486280D01*
Y486360D01*
Y486426D01*
Y486484D01*
Y486528D01*
Y486557D01*
Y486564D01*
Y487395D01*
Y487534D01*
X154924Y487658D01*
X154917Y487753D01*
Y487833D01*
X154910Y487891D01*
X154902Y487935D01*
X154895Y487957D01*
Y487964D01*
X154873Y488059D01*
X154844Y488139D01*
X154815Y488205D01*
X154778Y488270D01*
X154749Y488314D01*
X154727Y488350D01*
X154713Y488372D01*
X154706Y488380D01*
X154647Y488438D01*
X154581Y488496D01*
X154509Y488540D01*
X154436Y488584D01*
X154370Y488613D01*
X154319Y488635D01*
X154283Y488649D01*
X154268Y488657D01*
X154151Y488693D01*
X154027Y488722D01*
X153904Y488744D01*
X153780Y488759D01*
X153670Y488766D01*
X153590Y488773D01*
D02*
G37*
G36*
X151009D02*
X148042Y488773D01*
Y485034D01*
X149526Y485034D01*
X148662D01*
Y487024D01*
Y487148D01*
X148677Y487272D01*
X148691Y487374D01*
X148706Y487468D01*
X148728Y487556D01*
X148749Y487636D01*
X148779Y487709D01*
X148808Y487767D01*
X148830Y487818D01*
X148859Y487862D01*
X148881Y487898D01*
X148903Y487928D01*
X148932Y487964D01*
X148946Y487979D01*
X149056Y488066D01*
X149172Y488125D01*
X149289Y488168D01*
X149391Y488205D01*
X149486Y488219D01*
X149559Y488227D01*
X149588Y488234D01*
X149624D01*
X149712Y488227D01*
X149799Y488219D01*
X149872Y488197D01*
X149931Y488175D01*
X149982Y488154D01*
X150025Y488139D01*
X150047Y488125D01*
X150055Y488117D01*
X150120Y488073D01*
X150178Y488023D01*
X150222Y487971D01*
X150259Y487928D01*
X150280Y487884D01*
X150302Y487848D01*
X150317Y487826D01*
Y487818D01*
X150339Y487738D01*
X150361Y487651D01*
X150375Y487556D01*
X150382Y487461D01*
X150390Y487381D01*
Y487315D01*
Y487264D01*
Y487257D01*
Y487250D01*
Y485034D01*
X151009D01*
Y487432D01*
X151002Y487556D01*
X150995Y487658D01*
Y487745D01*
X150988Y487804D01*
X150980Y487848D01*
X150973Y487877D01*
Y487884D01*
X150951Y487979D01*
X150915Y488066D01*
X150885Y488139D01*
X150856Y488212D01*
X150820Y488263D01*
X150798Y488300D01*
X150784Y488329D01*
X150776Y488336D01*
X150718Y488409D01*
X150652Y488467D01*
X150587Y488525D01*
X150514Y488569D01*
X150455Y488606D01*
X150404Y488627D01*
X150375Y488642D01*
X150361Y488649D01*
X150259Y488693D01*
X150149Y488722D01*
X150047Y488744D01*
X149952Y488759D01*
X149872Y488766D01*
X149814Y488773D01*
X151009D01*
D02*
G37*
G36*
X147095Y488693D02*
D01*
X146475D01*
Y485034D01*
X147095D01*
Y488693D01*
D02*
G37*
G36*
X145556Y488773D02*
X140592D01*
Y485034D01*
X142247D01*
X141212D01*
Y486929D01*
X141219Y487104D01*
X141226Y487257D01*
X141241Y487388D01*
X141263Y487498D01*
X141285Y487578D01*
X141299Y487636D01*
X141306Y487673D01*
X141314Y487687D01*
X141358Y487782D01*
X141409Y487862D01*
X141460Y487935D01*
X141511Y487993D01*
X141562Y488037D01*
X141598Y488066D01*
X141627Y488088D01*
X141635Y488095D01*
X141722Y488139D01*
X141802Y488175D01*
X141890Y488197D01*
X141963Y488219D01*
X142021Y488227D01*
X142072Y488234D01*
X142116D01*
X142240Y488227D01*
X142342Y488205D01*
X142429Y488168D01*
X142495Y488132D01*
X142546Y488088D01*
X142582Y488059D01*
X142604Y488030D01*
X142611Y488022D01*
X142662Y487935D01*
X142699Y487840D01*
X142728Y487738D01*
X142743Y487636D01*
X142757Y487549D01*
X142764Y487468D01*
Y487439D01*
Y487425D01*
Y487410D01*
Y487403D01*
Y485034D01*
X143384D01*
D01*
X143902D01*
X143384D01*
Y487155D01*
X143399Y487352D01*
X143428Y487519D01*
X143464Y487658D01*
X143515Y487775D01*
X143559Y487862D01*
X143603Y487920D01*
X143632Y487957D01*
X143639Y487971D01*
X143741Y488059D01*
X143851Y488125D01*
X143960Y488168D01*
X144062Y488205D01*
X144150Y488219D01*
X144222Y488227D01*
X144252Y488234D01*
X144288D01*
X144368Y488227D01*
X144434Y488219D01*
X144500Y488205D01*
X144551Y488183D01*
X144602Y488161D01*
X144631Y488146D01*
X144653Y488139D01*
X144660Y488132D01*
X144718Y488088D01*
X144762Y488044D01*
X144798Y488001D01*
X144827Y487957D01*
X144849Y487920D01*
X144864Y487891D01*
X144879Y487869D01*
Y487862D01*
X144900Y487796D01*
X144915Y487709D01*
X144922Y487621D01*
X144930Y487534D01*
X144937Y487454D01*
Y487388D01*
Y487345D01*
Y487337D01*
Y487330D01*
Y485034D01*
X145556D01*
Y487658D01*
X145542Y487760D01*
X145527Y487862D01*
X145513Y487950D01*
X145491Y488037D01*
X145462Y488110D01*
X145440Y488175D01*
X145411Y488241D01*
X145382Y488292D01*
X145360Y488343D01*
X145309Y488409D01*
X145280Y488452D01*
X145265Y488467D01*
X145148Y488569D01*
X145010Y488642D01*
X144871Y488700D01*
X144740Y488737D01*
X144616Y488759D01*
X144565Y488766D01*
X144514D01*
X144478Y488773D01*
X145556D01*
D02*
G37*
G36*
X125145Y490078D02*
X124525D01*
Y485034D01*
X126008D01*
X125145D01*
Y487031D01*
X125152Y487184D01*
X125159Y487315D01*
X125174Y487432D01*
X125196Y487527D01*
X125217Y487600D01*
X125232Y487658D01*
X125239Y487687D01*
X125247Y487702D01*
X125290Y487789D01*
X125341Y487869D01*
X125400Y487935D01*
X125458Y487993D01*
X125509Y488037D01*
X125553Y488066D01*
X125582Y488088D01*
X125589Y488095D01*
X125684Y488146D01*
X125771Y488183D01*
X125859Y488205D01*
X125932Y488227D01*
X126005Y488234D01*
X126056Y488241D01*
X126100D01*
X126231Y488234D01*
X126347Y488205D01*
X126442Y488175D01*
X126522Y488132D01*
X126588Y488095D01*
X126632Y488059D01*
X126661Y488030D01*
X126668Y488022D01*
X126734Y487935D01*
X126785Y487826D01*
X126821Y487716D01*
X126850Y487607D01*
X126865Y487505D01*
X126872Y487425D01*
Y487395D01*
Y487374D01*
Y487359D01*
Y487352D01*
Y485034D01*
X127492D01*
Y487345D01*
X127485Y487534D01*
X127470Y487702D01*
X127448Y487840D01*
X127426Y487957D01*
X127404Y488052D01*
X127383Y488117D01*
X127368Y488154D01*
X127361Y488168D01*
X127302Y488270D01*
X127237Y488358D01*
X127164Y488431D01*
X127098Y488496D01*
X127033Y488547D01*
X126982Y488584D01*
X126945Y488606D01*
X126931Y488613D01*
X126814Y488664D01*
X126697Y488708D01*
X126581Y488737D01*
X126471Y488751D01*
X126376Y488766D01*
X126296Y488773D01*
X126231D01*
X126114Y488766D01*
X125997Y488751D01*
X125888Y488730D01*
X125786Y488693D01*
X125596Y488613D01*
X125516Y488569D01*
X125443Y488525D01*
X125378Y488474D01*
X125312Y488431D01*
X125261Y488387D01*
X125225Y488350D01*
X125188Y488314D01*
X125166Y488292D01*
X125152Y488278D01*
X125145Y488270D01*
Y490078D01*
D02*
G37*
G36*
X106322D02*
X105702D01*
Y485034D01*
X108735D01*
X107189Y487330D01*
X108596Y488693D01*
X107787D01*
X106322Y487199D01*
Y490078D01*
D02*
G37*
G36*
X78066Y490078D02*
X75995D01*
Y485034D01*
X79844D01*
X76666D01*
Y487082D01*
X77956D01*
X78146Y487089D01*
X78328Y487104D01*
X78488Y487126D01*
X78634Y487155D01*
X78773Y487184D01*
X78890Y487220D01*
X78999Y487264D01*
X79094Y487308D01*
X79174Y487345D01*
X79247Y487388D01*
X79305Y487425D01*
X79349Y487461D01*
X79385Y487483D01*
X79407Y487505D01*
X79422Y487519D01*
X79429Y487527D01*
X79502Y487614D01*
X79567Y487702D01*
X79619Y487789D01*
X79669Y487884D01*
X79713Y487979D01*
X79742Y488066D01*
X79793Y488234D01*
X79808Y488314D01*
X79823Y488387D01*
X79830Y488452D01*
X79837Y488504D01*
X79844Y488555D01*
Y488613D01*
Y488613D01*
X79837Y488751D01*
X79823Y488883D01*
X79793Y488999D01*
X79772Y489101D01*
X79742Y489189D01*
X79713Y489254D01*
X79699Y489291D01*
X79691Y489305D01*
X79633Y489415D01*
X79560Y489510D01*
X79495Y489597D01*
X79429Y489663D01*
X79371Y489714D01*
X79327Y489757D01*
X79298Y489779D01*
X79283Y489787D01*
X79188Y489845D01*
X79079Y489896D01*
X78977Y489940D01*
X78882Y489976D01*
X78795Y489998D01*
X78729Y490013D01*
X78678Y490027D01*
X78663D01*
X78554Y490042D01*
X78430Y490056D01*
X78299Y490064D01*
X78175Y490071D01*
X78066Y490078D01*
D02*
G37*
G36*
X133266Y484982D02*
X132012D01*
X133266D01*
D01*
D02*
G37*
G36*
X137494Y488773D02*
X134118D01*
Y486827D01*
X134126Y486666D01*
X134140Y486513D01*
X134162Y486368D01*
X134191Y486236D01*
X134228Y486112D01*
X134264Y485996D01*
X134308Y485894D01*
X134352Y485799D01*
X134396Y485719D01*
X134439Y485646D01*
X134476Y485588D01*
X134512Y485536D01*
X134541Y485493D01*
X134563Y485464D01*
X134578Y485449D01*
X134585Y485442D01*
X134680Y485354D01*
X134775Y485281D01*
X134877Y485216D01*
X134986Y485157D01*
X135088Y485114D01*
X135197Y485070D01*
X135402Y485012D01*
X135496Y484997D01*
X135584Y484982D01*
X135664Y484968D01*
X135730Y484961D01*
X135781Y484953D01*
X134118D01*
X137494D01*
X135861D01*
X136087Y484968D01*
X136291Y485004D01*
X136473Y485048D01*
X136546Y485077D01*
X136619Y485106D01*
X136685Y485136D01*
X136743Y485165D01*
X136787Y485187D01*
X136830Y485209D01*
X136860Y485230D01*
X136881Y485245D01*
X136896Y485259D01*
X136903D01*
X137049Y485391D01*
X137166Y485529D01*
X137268Y485675D01*
X137341Y485814D01*
X137399Y485938D01*
X137421Y485996D01*
X137443Y486040D01*
X137457Y486083D01*
X137465Y486112D01*
X137472Y486127D01*
Y486134D01*
X136830Y486214D01*
X136772Y486076D01*
X136706Y485959D01*
X136641Y485857D01*
X136583Y485777D01*
X136531Y485719D01*
X136488Y485675D01*
X136451Y485646D01*
X136444Y485639D01*
X136349Y485580D01*
X136255Y485536D01*
X136152Y485507D01*
X136065Y485486D01*
X135985Y485471D01*
X135919Y485464D01*
X135861D01*
X135773Y485471D01*
X135693Y485478D01*
X135547Y485515D01*
X135416Y485566D01*
X135300Y485624D01*
X135212Y485675D01*
X135146Y485726D01*
X135103Y485763D01*
X135095Y485777D01*
X135088D01*
X134986Y485908D01*
X134906Y486054D01*
X134847Y486214D01*
X134804Y486360D01*
X134782Y486491D01*
X134767Y486550D01*
X134760Y486601D01*
Y486645D01*
X134753Y486674D01*
Y486696D01*
Y486703D01*
X137487D01*
X137494Y486776D01*
Y486863D01*
X137487Y487031D01*
X137472Y487184D01*
X137450Y487330D01*
X137421Y487468D01*
X137384Y487592D01*
X137348Y487709D01*
X137304Y487811D01*
X137260Y487906D01*
X137217Y487993D01*
X137173Y488066D01*
X137137Y488125D01*
X137100Y488175D01*
X137071Y488219D01*
X137049Y488248D01*
X137034Y488263D01*
X137027Y488270D01*
X136940Y488358D01*
X136845Y488438D01*
X136743Y488504D01*
X136641Y488562D01*
X136539Y488613D01*
X136444Y488649D01*
X136342Y488686D01*
X136255Y488708D01*
X136160Y488730D01*
X136080Y488744D01*
X136007Y488759D01*
X135948Y488766D01*
X135897Y488773D01*
X137494D01*
D02*
G37*
G36*
X116316D02*
X112941D01*
Y486827D01*
X112948Y486666D01*
X112963Y486513D01*
X112985Y486368D01*
X113014Y486236D01*
X113050Y486112D01*
X113087Y485996D01*
X113131Y485894D01*
X113174Y485799D01*
X113218Y485719D01*
X113262Y485646D01*
X113298Y485588D01*
X113335Y485536D01*
X113364Y485493D01*
X113386Y485464D01*
X113400Y485449D01*
X113408Y485442D01*
X113502Y485354D01*
X113597Y485281D01*
X113699Y485216D01*
X113809Y485157D01*
X113911Y485114D01*
X114020Y485070D01*
X114224Y485012D01*
X114319Y484997D01*
X114406Y484982D01*
X114487Y484968D01*
X114552Y484961D01*
X114603Y484953D01*
X112941D01*
X116316D01*
Y486863D01*
X116309Y487031D01*
X116295Y487184D01*
X116273Y487330D01*
X116243Y487468D01*
X116207Y487592D01*
X116171Y487709D01*
X116127Y487811D01*
X116083Y487906D01*
X116039Y487993D01*
X115996Y488066D01*
X115959Y488125D01*
X115923Y488175D01*
X115893Y488219D01*
X115872Y488248D01*
X115857Y488263D01*
X115850Y488270D01*
X115762Y488358D01*
X115667Y488438D01*
X115566Y488504D01*
X115463Y488562D01*
X115361Y488613D01*
X115267Y488649D01*
X115164Y488686D01*
X115077Y488708D01*
X114982Y488730D01*
X114902Y488744D01*
X114829Y488759D01*
X114771Y488766D01*
X114720Y488773D01*
X116316D01*
D02*
G37*
G36*
X101416D02*
X98040D01*
Y486827D01*
X98048Y486666D01*
X98062Y486513D01*
X98084Y486368D01*
X98113Y486236D01*
X98150Y486112D01*
X98186Y485996D01*
X98230Y485894D01*
X98274Y485799D01*
X98317Y485719D01*
X98361Y485646D01*
X98397Y485588D01*
X98434Y485536D01*
X98463Y485493D01*
X98485Y485464D01*
X98500Y485449D01*
X98507Y485442D01*
X98602Y485354D01*
X98696Y485281D01*
X98799Y485216D01*
X98908Y485157D01*
X99010Y485114D01*
X99119Y485070D01*
X99323Y485012D01*
X99418Y484997D01*
X99506Y484982D01*
X99586Y484968D01*
X99651Y484961D01*
X99702Y484953D01*
X98040D01*
X101416D01*
Y486863D01*
X101408Y487031D01*
X101394Y487184D01*
X101372Y487330D01*
X101343Y487468D01*
X101306Y487592D01*
X101270Y487709D01*
X101226Y487811D01*
X101182Y487906D01*
X101139Y487993D01*
X101095Y488066D01*
X101058Y488125D01*
X101022Y488175D01*
X100993Y488219D01*
X100971Y488248D01*
X100956Y488263D01*
X100949Y488270D01*
X100862Y488358D01*
X100767Y488438D01*
X100665Y488504D01*
X100563Y488562D01*
X100461Y488613D01*
X100366Y488649D01*
X100264Y488686D01*
X100176Y488708D01*
X100082Y488730D01*
X100001Y488744D01*
X99928Y488759D01*
X99870Y488766D01*
X99819Y488773D01*
X101416D01*
D02*
G37*
G36*
X127871Y485034D02*
Y483634D01*
X131975D01*
Y484079D01*
X127871D01*
Y485034D01*
D02*
G37*
G36*
X87747Y490078D02*
X85407D01*
Y485034D01*
X87594D01*
X86077D01*
Y487272D01*
X86938D01*
X87018Y487264D01*
X87076D01*
X87127Y487257D01*
X87164Y487250D01*
X87193D01*
X87207Y487242D01*
X87215D01*
X87331Y487206D01*
X87382Y487184D01*
X87426Y487162D01*
X87470Y487140D01*
X87499Y487126D01*
X87514Y487118D01*
X87521Y487111D01*
X87579Y487067D01*
X87638Y487016D01*
X87747Y486907D01*
X87798Y486856D01*
X87834Y486812D01*
X87856Y486783D01*
X87863Y486776D01*
X87936Y486674D01*
X88017Y486564D01*
X88097Y486448D01*
X88177Y486338D01*
X88243Y486236D01*
X88294Y486156D01*
X88315Y486127D01*
X88330Y486105D01*
X88345Y486091D01*
Y486083D01*
X89008Y485034D01*
X89832D01*
Y483634D01*
X93936Y483634D01*
Y484079D01*
X89832Y484079D01*
Y485034D01*
X93936Y485034D01*
X89839Y485034D01*
X88972Y486404D01*
X88870Y486550D01*
X88775Y486681D01*
X88680Y486790D01*
X88600Y486893D01*
X88527Y486965D01*
X88468Y487024D01*
X88432Y487060D01*
X88418Y487075D01*
X88359Y487118D01*
X88294Y487170D01*
X88162Y487250D01*
X88104Y487279D01*
X88060Y487308D01*
X88031Y487323D01*
X88017Y487330D01*
X88148Y487352D01*
X88272Y487374D01*
X88381Y487410D01*
X88490Y487439D01*
X88585Y487476D01*
X88673Y487519D01*
X88753Y487556D01*
X88826Y487592D01*
X88884Y487636D01*
X88942Y487673D01*
X88986Y487702D01*
X89023Y487731D01*
X89052Y487753D01*
X89074Y487775D01*
X89081Y487782D01*
X89088Y487789D01*
X89147Y487862D01*
X89205Y487935D01*
X89292Y488088D01*
X89351Y488241D01*
X89394Y488387D01*
X89424Y488511D01*
X89431Y488562D01*
Y488613D01*
X89438Y488649D01*
Y488679D01*
Y488693D01*
Y488700D01*
X89431Y488854D01*
X89409Y488992D01*
X89372Y489123D01*
X89336Y489233D01*
X89292Y489327D01*
X89263Y489400D01*
X89234Y489444D01*
X89227Y489451D01*
Y489459D01*
X89139Y489575D01*
X89052Y489677D01*
X88957Y489765D01*
X88870Y489830D01*
X88789Y489881D01*
X88724Y489911D01*
X88680Y489932D01*
X88673Y489940D01*
X88665D01*
X88600Y489962D01*
X88520Y489983D01*
X88359Y490020D01*
X88184Y490042D01*
X88024Y490064D01*
X87871Y490071D01*
X87805D01*
X87747Y490078D01*
D02*
G37*
G36*
X71417Y485034D02*
Y483634D01*
X75521D01*
Y484079D01*
X71417D01*
Y485034D01*
D02*
G37*
G36*
X134337Y481559D02*
X133936D01*
X133863Y481435D01*
X133783Y481319D01*
X133688Y481202D01*
X133601Y481100D01*
X133513Y481012D01*
X133448Y480939D01*
X133419Y480918D01*
X133397Y480896D01*
X133389Y480888D01*
X133382Y480881D01*
X133229Y480757D01*
X133076Y480641D01*
X132930Y480538D01*
X132784Y480458D01*
X132660Y480385D01*
X132609Y480356D01*
X132566Y480334D01*
X132529Y480312D01*
X132500Y480305D01*
X132486Y480291D01*
X132478D01*
Y481559D01*
Y476493D01*
D01*
Y479693D01*
X132588Y479737D01*
X132697Y479788D01*
X132806Y479839D01*
X132908Y479890D01*
X132996Y479933D01*
X133069Y479970D01*
X133113Y479999D01*
X133120Y480006D01*
X133127D01*
X133258Y480087D01*
X133375Y480167D01*
X133477Y480239D01*
X133557Y480305D01*
X133630Y480356D01*
X133674Y480400D01*
X133710Y480429D01*
X133718Y480436D01*
Y476493D01*
X132478D01*
X134337D01*
Y481559D01*
D02*
G37*
G36*
X109646Y480232D02*
X109588D01*
X109449Y480225D01*
X109318Y480203D01*
X109201Y480174D01*
X109085Y480137D01*
X108983Y480094D01*
X108888Y480043D01*
X108800Y479984D01*
X108727Y479933D01*
X108654Y479875D01*
X108596Y479817D01*
X108545Y479766D01*
X108502Y479722D01*
X108472Y479685D01*
X108450Y479656D01*
X108436Y479635D01*
X108429Y479627D01*
Y480152D01*
X107875D01*
Y476493D01*
X110842D01*
Y478891D01*
X110834Y479015D01*
X110827Y479117D01*
Y479204D01*
X110820Y479263D01*
X110812Y479306D01*
X110805Y479336D01*
Y479343D01*
X110783Y479438D01*
X110747Y479525D01*
X110718Y479598D01*
X110688Y479671D01*
X110652Y479722D01*
X110630Y479758D01*
X110616Y479788D01*
X110608Y479795D01*
X110550Y479868D01*
X110484Y479926D01*
X110419Y479984D01*
X110346Y480028D01*
X110287Y480065D01*
X110237Y480087D01*
X110207Y480101D01*
X110193Y480108D01*
X110091Y480152D01*
X109981Y480181D01*
X109879Y480203D01*
X109784Y480218D01*
X109704Y480225D01*
X109646Y480232D01*
D02*
G37*
G36*
X101649D02*
X98609D01*
Y476412D01*
D01*
Y480232D01*
X99950D01*
X99848Y480218D01*
X99761Y480210D01*
X99681Y480196D01*
X99615Y480181D01*
X99564Y480167D01*
X99535Y480159D01*
X99520Y480152D01*
X99433Y480123D01*
X99353Y480094D01*
X99287Y480065D01*
X99229Y480035D01*
X99185Y480014D01*
X99156Y479992D01*
X99134Y479984D01*
X99126Y479977D01*
X99054Y479926D01*
X98995Y479868D01*
X98944Y479802D01*
X98901Y479751D01*
X98864Y479700D01*
X98842Y479664D01*
X98828Y479635D01*
X98820Y479627D01*
X98784Y479547D01*
X98755Y479474D01*
X98740Y479394D01*
X98726Y479328D01*
X98718Y479263D01*
X98711Y479219D01*
Y479190D01*
Y479175D01*
X98718Y479073D01*
X98733Y478986D01*
X98755Y478898D01*
X98777Y478825D01*
X98799Y478767D01*
X98820Y478716D01*
X98835Y478687D01*
X98842Y478680D01*
X98901Y478599D01*
X98966Y478534D01*
X99032Y478475D01*
X99097Y478424D01*
X99156Y478388D01*
X99199Y478359D01*
X99229Y478344D01*
X99243Y478337D01*
X99294Y478315D01*
X99360Y478286D01*
X99506Y478235D01*
X99659Y478191D01*
X99819Y478140D01*
X99958Y478104D01*
X100023Y478082D01*
X100082Y478067D01*
X100125Y478053D01*
X100162Y478045D01*
X100184Y478038D01*
X100191D01*
X100286Y478016D01*
X100366Y477994D01*
X100439Y477972D01*
X100504Y477950D01*
X100563Y477936D01*
X100614Y477914D01*
X100701Y477885D01*
X100759Y477863D01*
X100796Y477841D01*
X100818Y477834D01*
X100825Y477827D01*
X100891Y477783D01*
X100934Y477725D01*
X100971Y477673D01*
X100993Y477622D01*
X101007Y477571D01*
X101015Y477535D01*
Y477506D01*
Y477498D01*
X101007Y477411D01*
X100986Y477338D01*
X100949Y477265D01*
X100913Y477207D01*
X100869Y477156D01*
X100840Y477119D01*
X100811Y477098D01*
X100803Y477090D01*
X100716Y477032D01*
X100621Y476996D01*
X100512Y476966D01*
X100410Y476944D01*
X100315Y476930D01*
X100242Y476923D01*
X100169D01*
X100016Y476930D01*
X99885Y476952D01*
X99775Y476981D01*
X99681Y477017D01*
X99608Y477054D01*
X99549Y477083D01*
X99520Y477105D01*
X99506Y477112D01*
X99425Y477192D01*
X99360Y477287D01*
X99316Y477382D01*
X99280Y477469D01*
X99251Y477550D01*
X99236Y477622D01*
X99221Y477666D01*
Y477673D01*
Y477681D01*
X98609Y477586D01*
X98660Y477382D01*
X98726Y477200D01*
X98806Y477054D01*
X98886Y476930D01*
X98959Y476828D01*
X99024Y476762D01*
X99068Y476719D01*
X99076Y476711D01*
X99083Y476704D01*
X99156Y476653D01*
X99236Y476609D01*
X99411Y476536D01*
X99593Y476485D01*
X99768Y476449D01*
X99848Y476434D01*
X99921Y476427D01*
X99994Y476420D01*
X100052D01*
X100103Y476412D01*
X100169D01*
X100329Y476420D01*
X100468Y476434D01*
X100599Y476456D01*
X100716Y476485D01*
X100811Y476514D01*
X100883Y476536D01*
X100927Y476551D01*
X100934Y476558D01*
X100942D01*
X101066Y476624D01*
X101168Y476689D01*
X101255Y476762D01*
X101335Y476828D01*
X101394Y476886D01*
X101430Y476937D01*
X101459Y476966D01*
X101467Y476981D01*
X101525Y477083D01*
X101569Y477192D01*
X101605Y477287D01*
X101627Y477375D01*
X101642Y477455D01*
X101649Y477513D01*
Y477564D01*
X101642Y477681D01*
X101627Y477783D01*
X101598Y477870D01*
X101576Y477950D01*
X101547Y478016D01*
X101518Y478060D01*
X101503Y478089D01*
X101496Y478096D01*
X101437Y478169D01*
X101372Y478235D01*
X101306Y478293D01*
X101241Y478337D01*
X101175Y478373D01*
X101131Y478395D01*
X101102Y478410D01*
X101087Y478417D01*
X101037Y478439D01*
X100978Y478461D01*
X100840Y478512D01*
X100687Y478563D01*
X100533Y478607D01*
X100395Y478650D01*
X100329Y478665D01*
X100278Y478680D01*
X100235Y478694D01*
X100198Y478701D01*
X100176Y478709D01*
X100169D01*
X100089Y478730D01*
X100016Y478752D01*
X99950Y478767D01*
X99892Y478789D01*
X99797Y478811D01*
X99724Y478833D01*
X99673Y478854D01*
X99644Y478862D01*
X99629Y478869D01*
X99622D01*
X99564Y478898D01*
X99513Y478920D01*
X99469Y478949D01*
X99440Y478971D01*
X99411Y478993D01*
X99396Y479015D01*
X99389Y479022D01*
X99382Y479029D01*
X99338Y479102D01*
X99316Y479175D01*
Y479204D01*
X99309Y479226D01*
Y479241D01*
Y479248D01*
X99316Y479314D01*
X99338Y479379D01*
X99367Y479438D01*
X99404Y479481D01*
X99433Y479525D01*
X99462Y479554D01*
X99484Y479569D01*
X99491Y479576D01*
X99571Y479627D01*
X99666Y479664D01*
X99768Y479685D01*
X99863Y479707D01*
X99958Y479715D01*
X100031Y479722D01*
X100103D01*
X100227Y479715D01*
X100344Y479700D01*
X100439Y479671D01*
X100512Y479642D01*
X100577Y479613D01*
X100621Y479583D01*
X100650Y479569D01*
X100657Y479562D01*
X100730Y479496D01*
X100781Y479423D01*
X100825Y479350D01*
X100862Y479285D01*
X100883Y479219D01*
X100898Y479168D01*
X100905Y479139D01*
Y479124D01*
X101510Y479204D01*
X101481Y479328D01*
X101452Y479438D01*
X101416Y479532D01*
X101379Y479620D01*
X101343Y479678D01*
X101313Y479729D01*
X101299Y479758D01*
X101292Y479766D01*
X101226Y479839D01*
X101153Y479904D01*
X101073Y479962D01*
X100993Y480014D01*
X100920Y480050D01*
X100862Y480079D01*
X100825Y480094D01*
X100818Y480101D01*
X100811D01*
X100687Y480145D01*
X100555Y480174D01*
X100431Y480203D01*
X100315Y480218D01*
X100205Y480225D01*
X100125Y480232D01*
X101649D01*
D02*
G37*
G36*
X96735Y480152D02*
X96094D01*
X95285Y477914D01*
X95234Y477768D01*
X95183Y477637D01*
X95146Y477513D01*
X95110Y477418D01*
X95088Y477331D01*
X95066Y477273D01*
X95059Y477236D01*
X95051Y477221D01*
X95008Y477360D01*
X94971Y477498D01*
X94928Y477622D01*
X94891Y477732D01*
X94862Y477827D01*
X94840Y477899D01*
X94833Y477921D01*
X94825Y477943D01*
X94818Y477950D01*
Y477958D01*
X94031Y480152D01*
X93375D01*
X94753Y476493D01*
X93375D01*
Y480152D01*
D01*
Y476493D01*
X96735D01*
X95343D01*
X96735Y480152D01*
D01*
D02*
G37*
G36*
X127703Y480152D02*
X124343D01*
Y476493D01*
D01*
Y480152D01*
X125720Y476493D01*
X126311D01*
X127703Y480152D01*
D01*
D02*
G37*
G36*
X118146Y481537D02*
X115806D01*
Y476493D01*
X116477D01*
Y478730D01*
X117337D01*
X117417Y478723D01*
X117475D01*
X117526Y478716D01*
X117563Y478709D01*
X117592D01*
X117607Y478701D01*
X117614D01*
X117731Y478665D01*
X117782Y478643D01*
X117825Y478621D01*
X117869Y478599D01*
X117898Y478585D01*
X117913Y478577D01*
X117920Y478570D01*
X117979Y478526D01*
X118037Y478475D01*
X118146Y478366D01*
X118197Y478315D01*
X118234Y478271D01*
X118255Y478242D01*
X118263Y478235D01*
X118336Y478133D01*
X118416Y478023D01*
X118496Y477907D01*
X118576Y477797D01*
X118642Y477695D01*
X118693Y477615D01*
X118715Y477586D01*
X118729Y477564D01*
X118744Y477550D01*
Y477542D01*
X119407Y476493D01*
X120238D01*
D01*
X119371Y477863D01*
X119269Y478009D01*
X119174Y478140D01*
X119079Y478249D01*
X118999Y478351D01*
X118926Y478424D01*
X118868Y478483D01*
X118831Y478519D01*
X118817Y478534D01*
X118758Y478577D01*
X118693Y478628D01*
X118562Y478709D01*
X118503Y478738D01*
X118460Y478767D01*
X118430Y478782D01*
X118416Y478789D01*
X118547Y478811D01*
X118671Y478833D01*
X118780Y478869D01*
X118890Y478898D01*
X118984Y478935D01*
X119072Y478978D01*
X119152Y479015D01*
X119225Y479051D01*
X119283Y479095D01*
X119342Y479132D01*
X119385Y479161D01*
X119422Y479190D01*
X119451Y479212D01*
X119473Y479234D01*
X119480Y479241D01*
X119488Y479248D01*
X119546Y479321D01*
X119604Y479394D01*
X119692Y479547D01*
X119750Y479700D01*
X119794Y479846D01*
X119823Y479970D01*
X119830Y480021D01*
Y480072D01*
X119837Y480108D01*
Y480137D01*
Y480152D01*
Y480159D01*
X119830Y480312D01*
X119808Y480451D01*
X119772Y480582D01*
X119735Y480691D01*
X119692Y480786D01*
X119662Y480859D01*
X119633Y480903D01*
X119626Y480910D01*
Y480918D01*
X119538Y481034D01*
X119451Y481136D01*
X119356Y481224D01*
X119269Y481289D01*
X119189Y481340D01*
X119123Y481369D01*
X119079Y481391D01*
X119072Y481399D01*
X119065D01*
X118999Y481421D01*
X118919Y481442D01*
X118758Y481479D01*
X118584Y481501D01*
X118423Y481523D01*
X118270Y481530D01*
X118204D01*
X118146Y481537D01*
D02*
G37*
G36*
X112671Y480152D02*
X111964D01*
Y476493D01*
X112671D01*
Y477200D01*
X111964D01*
Y479445D01*
X112671D01*
Y480152D01*
D02*
G37*
G36*
X103005Y481537D02*
X102385D01*
Y476493D01*
X103005D01*
Y480152D01*
D01*
X102385D01*
Y480830D01*
X103005D01*
Y481537D01*
D02*
G37*
G36*
X97909D02*
X97289D01*
Y476493D01*
X97909D01*
Y480152D01*
D01*
X97289D01*
Y480830D01*
X97909D01*
Y481537D01*
D02*
G37*
G36*
X87178Y481537D02*
X84838D01*
Y476493D01*
X85509D01*
Y478730D01*
X86369D01*
X86449Y478723D01*
X86507D01*
X86559Y478716D01*
X86595Y478709D01*
X86624D01*
X86639Y478701D01*
X86646D01*
X86763Y478665D01*
X86814Y478643D01*
X86857Y478621D01*
X86901Y478599D01*
X86930Y478585D01*
X86945Y478577D01*
X86952Y478570D01*
X87011Y478526D01*
X87069Y478475D01*
X87178Y478366D01*
X87229Y478315D01*
X87266Y478271D01*
X87288Y478242D01*
X87295Y478235D01*
X87368Y478133D01*
X87448Y478023D01*
X87528Y477907D01*
X87608Y477797D01*
X87674Y477695D01*
X87725Y477615D01*
X87747Y477586D01*
X87761Y477564D01*
X87776Y477550D01*
Y477542D01*
X88439Y476493D01*
X89270D01*
D01*
X88403Y477863D01*
X88301Y478009D01*
X88206Y478140D01*
X88111Y478249D01*
X88031Y478351D01*
X87958Y478424D01*
X87900Y478483D01*
X87863Y478519D01*
X87849Y478534D01*
X87791Y478577D01*
X87725Y478628D01*
X87594Y478709D01*
X87535Y478738D01*
X87492Y478767D01*
X87463Y478782D01*
X87448Y478789D01*
X87579Y478811D01*
X87703Y478833D01*
X87812Y478869D01*
X87922Y478898D01*
X88017Y478935D01*
X88104Y478978D01*
X88184Y479015D01*
X88257Y479051D01*
X88315Y479095D01*
X88374Y479132D01*
X88418Y479161D01*
X88454Y479190D01*
X88483Y479212D01*
X88505Y479234D01*
X88512Y479241D01*
X88520Y479248D01*
X88578Y479321D01*
X88636Y479394D01*
X88724Y479547D01*
X88782Y479700D01*
X88826Y479846D01*
X88855Y479970D01*
X88862Y480021D01*
Y480072D01*
X88870Y480108D01*
Y480137D01*
Y480152D01*
Y480159D01*
X88862Y480312D01*
X88840Y480451D01*
X88804Y480582D01*
X88767Y480691D01*
X88724Y480786D01*
X88695Y480859D01*
X88665Y480903D01*
X88658Y480910D01*
Y480918D01*
X88571Y481034D01*
X88483Y481136D01*
X88388Y481224D01*
X88301Y481289D01*
X88221Y481340D01*
X88155Y481369D01*
X88111Y481391D01*
X88104Y481399D01*
X88097D01*
X88031Y481421D01*
X87951Y481442D01*
X87791Y481479D01*
X87616Y481501D01*
X87455Y481523D01*
X87302Y481530D01*
X87236D01*
X87178Y481537D01*
D02*
G37*
G36*
X123971Y480232D02*
X120596D01*
Y476412D01*
D01*
Y478286D01*
X120603Y478125D01*
X120617Y477972D01*
X120639Y477827D01*
X120668Y477695D01*
X120705Y477571D01*
X120741Y477455D01*
X120785Y477353D01*
X120829Y477258D01*
X120873Y477178D01*
X120916Y477105D01*
X120953Y477046D01*
X120989Y476996D01*
X121018Y476952D01*
X121040Y476923D01*
X121055Y476908D01*
X121062Y476901D01*
X121157Y476813D01*
X121252Y476740D01*
X121354Y476675D01*
X121463Y476616D01*
X121565Y476573D01*
X121675Y476529D01*
X121879Y476471D01*
X121973Y476456D01*
X122061Y476441D01*
X122141Y476427D01*
X122207Y476420D01*
X122258Y476412D01*
X123971D01*
X122338D01*
X122564Y476427D01*
X122768Y476463D01*
X122950Y476507D01*
X123023Y476536D01*
X123096Y476565D01*
X123162Y476594D01*
X123220Y476624D01*
X123264Y476646D01*
X123307Y476667D01*
X123337Y476689D01*
X123359Y476704D01*
X123373Y476719D01*
X123380D01*
X123526Y476850D01*
X123643Y476988D01*
X123745Y477134D01*
X123818Y477273D01*
X123876Y477396D01*
X123898Y477455D01*
X123920Y477498D01*
X123934Y477542D01*
X123942Y477571D01*
X123949Y477586D01*
Y477593D01*
X123307Y477673D01*
X123249Y477535D01*
X123184Y477418D01*
X123118Y477316D01*
X123060Y477236D01*
X123009Y477178D01*
X122965Y477134D01*
X122928Y477105D01*
X122921Y477098D01*
X122826Y477039D01*
X122731Y476996D01*
X122629Y476966D01*
X122542Y476944D01*
X122462Y476930D01*
X122396Y476923D01*
X122338D01*
X122250Y476930D01*
X122170Y476937D01*
X122024Y476974D01*
X121893Y477025D01*
X121776Y477083D01*
X121689Y477134D01*
X121624Y477185D01*
X121580Y477221D01*
X121572Y477236D01*
X121565D01*
X121463Y477367D01*
X121383Y477513D01*
X121325Y477673D01*
X121281Y477819D01*
X121259Y477950D01*
X121244Y478009D01*
X121237Y478060D01*
Y478104D01*
X121230Y478133D01*
Y478155D01*
Y478162D01*
X123964D01*
X123971Y478235D01*
Y478322D01*
X123964Y478490D01*
X123949Y478643D01*
X123927Y478789D01*
X123898Y478927D01*
X123862Y479051D01*
X123825Y479168D01*
X123781Y479270D01*
X123738Y479365D01*
X123694Y479452D01*
X123650Y479525D01*
X123614Y479583D01*
X123577Y479635D01*
X123548Y479678D01*
X123526Y479707D01*
X123512Y479722D01*
X123504Y479729D01*
X123417Y479817D01*
X123322Y479897D01*
X123220Y479962D01*
X123118Y480021D01*
X123016Y480072D01*
X122921Y480108D01*
X122819Y480145D01*
X122731Y480167D01*
X122637Y480189D01*
X122557Y480203D01*
X122484Y480218D01*
X122425Y480225D01*
X122374Y480232D01*
X123971D01*
D02*
G37*
G36*
X107146D02*
X105432D01*
X105308Y480225D01*
X105192Y480218D01*
X104966Y480167D01*
X104769Y480101D01*
X104682Y480065D01*
X104601Y480028D01*
X104528Y479992D01*
X104470Y479955D01*
X104412Y479919D01*
X104368Y479890D01*
X104332Y479860D01*
X104302Y479839D01*
X104288Y479831D01*
X104280Y479824D01*
X104179Y479729D01*
X104098Y479620D01*
X104018Y479503D01*
X103960Y479387D01*
X103902Y479263D01*
X103858Y479132D01*
X103821Y479007D01*
X103792Y478891D01*
X103763Y478774D01*
X103748Y478672D01*
X103734Y478570D01*
X103726Y478490D01*
Y478417D01*
X103719Y478366D01*
Y476412D01*
D01*
Y478322D01*
X103726Y478155D01*
X103741Y477994D01*
X103763Y477848D01*
X103792Y477710D01*
X103829Y477586D01*
X103865Y477469D01*
X103909Y477360D01*
X103953Y477265D01*
X103996Y477178D01*
X104040Y477105D01*
X104076Y477046D01*
X104113Y476996D01*
X104142Y476952D01*
X104164Y476923D01*
X104179Y476908D01*
X104186Y476901D01*
X104280Y476813D01*
X104375Y476740D01*
X104477Y476675D01*
X104579Y476616D01*
X104682Y476573D01*
X104791Y476529D01*
X104988Y476471D01*
X105075Y476456D01*
X105163Y476441D01*
X105236Y476427D01*
X105301Y476420D01*
X105359Y476412D01*
X103719D01*
X105432D01*
X105607Y476420D01*
X105768Y476449D01*
X105921Y476485D01*
X106045Y476522D01*
X106154Y476565D01*
X106198Y476580D01*
X106234Y476594D01*
X106271Y476609D01*
X106293Y476624D01*
X106300Y476631D01*
X106307D01*
X106453Y476726D01*
X106577Y476828D01*
X106686Y476930D01*
X106774Y477032D01*
X106839Y477119D01*
X106890Y477192D01*
X106905Y477221D01*
X106920Y477243D01*
X106927Y477251D01*
Y477258D01*
X107000Y477426D01*
X107051Y477608D01*
X107095Y477790D01*
X107116Y477972D01*
X107131Y478053D01*
Y478125D01*
X107138Y478198D01*
X107146Y478257D01*
Y478373D01*
X107138Y478534D01*
X107124Y478680D01*
X107102Y478818D01*
X107073Y478949D01*
X107036Y479073D01*
X106992Y479182D01*
X106949Y479292D01*
X106905Y479379D01*
X106861Y479459D01*
X106817Y479532D01*
X106774Y479598D01*
X106737Y479649D01*
X106708Y479685D01*
X106686Y479715D01*
X106672Y479729D01*
X106664Y479737D01*
X106570Y479824D01*
X106475Y479897D01*
X106373Y479970D01*
X106271Y480021D01*
X106169Y480072D01*
X106067Y480108D01*
X105870Y480174D01*
X105775Y480189D01*
X105695Y480203D01*
X105622Y480218D01*
X105556Y480225D01*
X105505Y480232D01*
X107146D01*
D02*
G37*
G36*
X93003Y480232D02*
X89628D01*
Y476412D01*
D01*
Y478286D01*
X89635Y478125D01*
X89649Y477972D01*
X89671Y477827D01*
X89701Y477695D01*
X89737Y477571D01*
X89773Y477455D01*
X89817Y477353D01*
X89861Y477258D01*
X89905Y477178D01*
X89948Y477105D01*
X89985Y477046D01*
X90021Y476996D01*
X90051Y476952D01*
X90072Y476923D01*
X90087Y476908D01*
X90094Y476901D01*
X90189Y476813D01*
X90284Y476740D01*
X90386Y476675D01*
X90495Y476616D01*
X90597Y476573D01*
X90707Y476529D01*
X90911Y476471D01*
X91005Y476456D01*
X91093Y476441D01*
X91173Y476427D01*
X91239Y476420D01*
X91290Y476412D01*
X93003D01*
X91370D01*
X91596Y476427D01*
X91800Y476463D01*
X91982Y476507D01*
X92055Y476536D01*
X92128Y476565D01*
X92194Y476594D01*
X92252Y476624D01*
X92296Y476646D01*
X92339Y476667D01*
X92369Y476689D01*
X92391Y476704D01*
X92405Y476719D01*
X92412D01*
X92558Y476850D01*
X92675Y476988D01*
X92777Y477134D01*
X92850Y477273D01*
X92908Y477396D01*
X92930Y477455D01*
X92952Y477498D01*
X92967Y477542D01*
X92974Y477571D01*
X92981Y477586D01*
Y477593D01*
X92339Y477673D01*
X92281Y477535D01*
X92216Y477418D01*
X92150Y477316D01*
X92092Y477236D01*
X92041Y477178D01*
X91997Y477134D01*
X91961Y477105D01*
X91953Y477098D01*
X91858Y477039D01*
X91764Y476996D01*
X91662Y476966D01*
X91574Y476944D01*
X91494Y476930D01*
X91428Y476923D01*
X91370D01*
X91282Y476930D01*
X91202Y476937D01*
X91057Y476974D01*
X90925Y477025D01*
X90809Y477083D01*
X90721Y477134D01*
X90655Y477185D01*
X90612Y477221D01*
X90605Y477236D01*
X90597D01*
X90495Y477367D01*
X90415Y477513D01*
X90357Y477673D01*
X90313Y477819D01*
X90291Y477950D01*
X90276Y478009D01*
X90269Y478060D01*
Y478104D01*
X90262Y478133D01*
Y478155D01*
Y478162D01*
X92996D01*
X93003Y478235D01*
Y478322D01*
X92996Y478490D01*
X92981Y478643D01*
X92959Y478789D01*
X92930Y478927D01*
X92894Y479051D01*
X92857Y479168D01*
X92813Y479270D01*
X92770Y479365D01*
X92726Y479452D01*
X92682Y479525D01*
X92646Y479583D01*
X92609Y479635D01*
X92580Y479678D01*
X92558Y479707D01*
X92544Y479722D01*
X92536Y479729D01*
X92449Y479817D01*
X92354Y479897D01*
X92252Y479962D01*
X92150Y480021D01*
X92048Y480072D01*
X91953Y480108D01*
X91851Y480145D01*
X91764Y480167D01*
X91669Y480189D01*
X91589Y480203D01*
X91516Y480218D01*
X91457Y480225D01*
X91406Y480232D01*
X93003D01*
D02*
G37*
G36*
X129796Y481559D02*
X128082D01*
X129730D01*
X129533Y481544D01*
X129351Y481515D01*
X129198Y481464D01*
X129067Y481413D01*
X128957Y481355D01*
X128913Y481333D01*
X128877Y481304D01*
X128848Y481289D01*
X128826Y481275D01*
X128819Y481260D01*
X128811D01*
X128680Y481144D01*
X128571Y481005D01*
X128476Y480866D01*
X128403Y480735D01*
X128345Y480611D01*
X128316Y480560D01*
X128301Y480509D01*
X128287Y480473D01*
X128272Y480444D01*
X128265Y480429D01*
Y480422D01*
X128235Y480312D01*
X128206Y480203D01*
X128163Y479962D01*
X128126Y479722D01*
X128104Y479496D01*
X128097Y479387D01*
X128090Y479292D01*
Y479204D01*
X128082Y479124D01*
Y478978D01*
X128090Y478723D01*
X128104Y478483D01*
X128126Y478264D01*
X128163Y478060D01*
X128199Y477870D01*
X128243Y477703D01*
X128287Y477550D01*
X128330Y477418D01*
X128374Y477302D01*
X128425Y477200D01*
X128462Y477112D01*
X128498Y477046D01*
X128534Y476988D01*
X128556Y476952D01*
X128571Y476930D01*
X128578Y476923D01*
X128658Y476835D01*
X128746Y476755D01*
X128841Y476682D01*
X128935Y476624D01*
X129030Y476573D01*
X129125Y476529D01*
X129220Y476500D01*
X129307Y476471D01*
X129395Y476449D01*
X129475Y476434D01*
X129548Y476420D01*
X129606Y476412D01*
X129657Y476405D01*
X129730D01*
X129927Y476420D01*
X130109Y476449D01*
X130262Y476500D01*
X130393Y476551D01*
X130503Y476602D01*
X130539Y476631D01*
X130576Y476653D01*
X130605Y476667D01*
X130627Y476682D01*
X130634Y476697D01*
X130641D01*
X130772Y476821D01*
X130882Y476952D01*
X130976Y477098D01*
X131049Y477229D01*
X131108Y477353D01*
X131137Y477404D01*
X131151Y477455D01*
X131166Y477491D01*
X131181Y477520D01*
X131188Y477535D01*
Y477542D01*
X131224Y477652D01*
X131254Y477761D01*
X131297Y477994D01*
X131334Y478235D01*
X131356Y478468D01*
X131363Y478570D01*
X131370Y478665D01*
Y478752D01*
X131377Y478833D01*
Y479117D01*
X131370Y479248D01*
Y479365D01*
X131363Y479481D01*
X131348Y479583D01*
X131341Y479685D01*
X131334Y479773D01*
X131319Y479853D01*
X131312Y479926D01*
X131297Y479992D01*
X131290Y480043D01*
X131283Y480087D01*
X131275Y480123D01*
X131268Y480145D01*
X131261Y480159D01*
Y480167D01*
X131217Y480327D01*
X131166Y480473D01*
X131108Y480597D01*
X131064Y480706D01*
X131013Y480801D01*
X130984Y480866D01*
X130955Y480903D01*
X130947Y480918D01*
X130867Y481027D01*
X130787Y481122D01*
X130700Y481202D01*
X130619Y481275D01*
X130546Y481326D01*
X130488Y481362D01*
X130452Y481384D01*
X130444Y481391D01*
X130437D01*
X130320Y481450D01*
X130196Y481486D01*
X130080Y481515D01*
X129971Y481537D01*
X129876Y481552D01*
X129796Y481559D01*
D02*
G37*
G36*
X128082Y478599D02*
Y476405D01*
D01*
Y478599D01*
D02*
G37*
%LPD*%
G36*
X95780Y488256D02*
X95853Y488248D01*
X95992Y488205D01*
X96116Y488154D01*
X96218Y488088D01*
X96298Y488022D01*
X96364Y487964D01*
X96400Y487920D01*
X96415Y487913D01*
Y487906D01*
X96466Y487833D01*
X96509Y487760D01*
X96582Y487585D01*
X96633Y487403D01*
X96670Y487228D01*
X96684Y487140D01*
X96692Y487060D01*
X96699Y486987D01*
Y486929D01*
X96706Y486878D01*
Y486841D01*
Y486812D01*
Y486805D01*
Y486681D01*
X96692Y486564D01*
X96677Y486462D01*
X96662Y486360D01*
X96641Y486273D01*
X96611Y486185D01*
X96590Y486112D01*
X96560Y486047D01*
X96531Y485989D01*
X96509Y485930D01*
X96480Y485894D01*
X96458Y485857D01*
X96444Y485828D01*
X96429Y485806D01*
X96415Y485799D01*
Y485792D01*
X96364Y485733D01*
X96305Y485682D01*
X96189Y485602D01*
X96072Y485544D01*
X95963Y485507D01*
X95868Y485478D01*
X95788Y485471D01*
X95758Y485464D01*
X95722D01*
X95649Y485471D01*
X95576Y485478D01*
X95445Y485515D01*
X95321Y485573D01*
X95219Y485639D01*
X95139Y485697D01*
X95073Y485755D01*
X95037Y485792D01*
X95029Y485806D01*
X95022D01*
X94971Y485879D01*
X94928Y485952D01*
X94855Y486120D01*
X94804Y486295D01*
X94767Y486462D01*
X94745Y486616D01*
X94738Y486681D01*
Y486739D01*
X94731Y486790D01*
Y486827D01*
Y486849D01*
Y486856D01*
Y486987D01*
X94745Y487111D01*
X94760Y487228D01*
X94774Y487330D01*
X94796Y487425D01*
X94818Y487512D01*
X94840Y487592D01*
X94869Y487665D01*
X94898Y487723D01*
X94920Y487775D01*
X94942Y487818D01*
X94964Y487855D01*
X94986Y487884D01*
X94993Y487906D01*
X95008Y487913D01*
Y487920D01*
X95059Y487979D01*
X95117Y488037D01*
X95234Y488117D01*
X95350Y488183D01*
X95460Y488219D01*
X95554Y488248D01*
X95635Y488256D01*
X95664Y488263D01*
X95700D01*
X95780Y488256D01*
D02*
G37*
G36*
X96692Y485034D02*
X97268D01*
Y484953D01*
X95664D01*
X95788Y484961D01*
X95904Y484975D01*
X96014Y485004D01*
X96109Y485041D01*
X96203Y485077D01*
X96291Y485121D01*
X96364Y485172D01*
X96429Y485223D01*
X96495Y485274D01*
X96546Y485325D01*
X96590Y485369D01*
X96626Y485405D01*
X96655Y485442D01*
X96677Y485471D01*
X96684Y485486D01*
X96692Y485493D01*
Y485034D01*
D02*
G37*
G36*
X118744Y488227D02*
X118831Y488219D01*
X118904Y488197D01*
X118963Y488175D01*
X119014Y488154D01*
X119057Y488139D01*
X119079Y488125D01*
X119087Y488117D01*
X119152Y488073D01*
X119211Y488022D01*
X119254Y487971D01*
X119291Y487928D01*
X119313Y487884D01*
X119334Y487848D01*
X119349Y487826D01*
Y487818D01*
X119371Y487738D01*
X119393Y487651D01*
X119407Y487556D01*
X119415Y487461D01*
X119422Y487381D01*
Y487315D01*
Y487264D01*
Y487257D01*
Y487250D01*
Y485034D01*
X117694D01*
Y487024D01*
Y487148D01*
X117709Y487272D01*
X117723Y487374D01*
X117738Y487468D01*
X117760Y487556D01*
X117782Y487636D01*
X117811Y487709D01*
X117840Y487767D01*
X117862Y487818D01*
X117891Y487862D01*
X117913Y487898D01*
X117935Y487928D01*
X117964Y487964D01*
X117979Y487979D01*
X118088Y488066D01*
X118204Y488125D01*
X118321Y488168D01*
X118423Y488205D01*
X118518Y488219D01*
X118591Y488227D01*
X118620Y488234D01*
X118656D01*
X118744Y488227D01*
D02*
G37*
G36*
X139513Y488766D02*
X139440Y488751D01*
X139367Y488730D01*
X139309Y488708D01*
X139265Y488686D01*
X139222Y488664D01*
X139200Y488649D01*
X139192Y488642D01*
X139127Y488584D01*
X139061Y488511D01*
X138996Y488423D01*
X138937Y488343D01*
X138879Y488263D01*
X138842Y488197D01*
X138813Y488146D01*
X138806Y488139D01*
Y488693D01*
X138245D01*
Y488773D01*
X139593D01*
X139513Y488766D01*
D02*
G37*
G36*
X110922Y488248D02*
X111060Y488212D01*
X111177Y488154D01*
X111279Y488095D01*
X111359Y488030D01*
X111417Y487971D01*
X111454Y487935D01*
X111469Y487928D01*
Y487920D01*
X111520Y487855D01*
X111563Y487775D01*
X111636Y487614D01*
X111687Y487432D01*
X111716Y487264D01*
X111738Y487111D01*
X111746Y487038D01*
Y486980D01*
X111753Y486929D01*
Y486893D01*
Y486871D01*
Y486863D01*
Y486739D01*
X111738Y486616D01*
X111724Y486506D01*
X111709Y486404D01*
X111687Y486309D01*
X111658Y486222D01*
X111629Y486149D01*
X111607Y486076D01*
X111578Y486018D01*
X111549Y485959D01*
X111527Y485916D01*
X111498Y485879D01*
X111483Y485850D01*
X111469Y485828D01*
X111454Y485821D01*
Y485814D01*
X111396Y485755D01*
X111337Y485697D01*
X111221Y485609D01*
X111104Y485551D01*
X110995Y485507D01*
X110900Y485486D01*
X110820Y485471D01*
X110791Y485464D01*
X110754D01*
X110659Y485471D01*
X110579Y485486D01*
X110492Y485507D01*
X110419Y485536D01*
X110280Y485617D01*
X110171Y485704D01*
X110076Y485784D01*
X110011Y485865D01*
X109989Y485894D01*
X109974Y485916D01*
X109959Y485930D01*
Y485938D01*
X109930Y485996D01*
X109901Y486061D01*
X109857Y486207D01*
X109828Y486368D01*
X109806Y486521D01*
X109792Y486659D01*
Y486725D01*
X109784Y486776D01*
Y486820D01*
Y486856D01*
Y486878D01*
Y486885D01*
Y487009D01*
X109799Y487118D01*
X109814Y487228D01*
X109828Y487330D01*
X109850Y487417D01*
X109879Y487505D01*
X109901Y487578D01*
X109930Y487651D01*
X109959Y487709D01*
X109981Y487760D01*
X110011Y487804D01*
X110032Y487840D01*
X110047Y487869D01*
X110062Y487891D01*
X110076Y487898D01*
Y487906D01*
X110134Y487971D01*
X110193Y488022D01*
X110251Y488073D01*
X110309Y488110D01*
X110426Y488175D01*
X110535Y488219D01*
X110630Y488241D01*
X110710Y488256D01*
X110740Y488263D01*
X110849D01*
X110922Y488248D01*
D02*
G37*
G36*
X153335Y488766D02*
X153182Y488752D01*
X153036Y488730D01*
X152919Y488708D01*
X152817Y488686D01*
X152744Y488664D01*
X152715Y488657D01*
X152693Y488649D01*
X152686Y488642D01*
X152679D01*
X152555Y488591D01*
X152446Y488525D01*
X152351Y488467D01*
X152271Y488409D01*
X152212Y488350D01*
X152169Y488307D01*
X152139Y488278D01*
X152132Y488270D01*
X152067Y488175D01*
X152008Y488073D01*
X151964Y487971D01*
X151928Y487877D01*
X151899Y487782D01*
X151877Y487716D01*
X151870Y487687D01*
Y487665D01*
X151862Y487658D01*
Y487651D01*
X152468Y487570D01*
X152511Y487702D01*
X152555Y487818D01*
X152606Y487913D01*
X152650Y487986D01*
X152693Y488044D01*
X152730Y488081D01*
X152759Y488103D01*
X152766Y488110D01*
X152854Y488161D01*
X152956Y488197D01*
X153065Y488227D01*
X153167Y488241D01*
X153269Y488256D01*
X153342Y488263D01*
X153415D01*
X153583Y488256D01*
X153729Y488234D01*
X153845Y488197D01*
X153947Y488161D01*
X154020Y488117D01*
X154078Y488088D01*
X154115Y488059D01*
X154122Y488052D01*
X154181Y487986D01*
X154224Y487906D01*
X154261Y487818D01*
X154283Y487731D01*
X154297Y487651D01*
X154305Y487578D01*
Y487534D01*
Y487527D01*
Y487519D01*
Y487505D01*
Y487476D01*
Y487425D01*
X154297Y487381D01*
Y487366D01*
Y487359D01*
X154224Y487337D01*
X154144Y487315D01*
X153977Y487272D01*
X153787Y487235D01*
X153612Y487199D01*
X153524Y487184D01*
X153444Y487177D01*
X153371Y487162D01*
X153313Y487155D01*
X153262Y487148D01*
X153226D01*
X153197Y487140D01*
X153189D01*
X153058Y487126D01*
X152949Y487104D01*
X152854Y487089D01*
X152781Y487075D01*
X152723Y487068D01*
X152679Y487053D01*
X152650Y487046D01*
X152642D01*
X152548Y487016D01*
X152468Y486987D01*
X152387Y486951D01*
X152322Y486922D01*
X152263Y486893D01*
X152227Y486863D01*
X152198Y486849D01*
X152190Y486841D01*
X152118Y486790D01*
X152059Y486732D01*
X152001Y486674D01*
X151957Y486616D01*
X151921Y486564D01*
X151892Y486521D01*
X151877Y486492D01*
X151870Y486484D01*
X151833Y486404D01*
X151804Y486317D01*
X151782Y486236D01*
X151768Y486156D01*
X151760Y486091D01*
X151753Y486040D01*
Y488773D01*
X153510D01*
X153335Y488766D01*
D02*
G37*
G36*
X154297Y486637D02*
X154290Y486492D01*
X154283Y486368D01*
X154268Y486266D01*
X154246Y486178D01*
X154224Y486112D01*
X154210Y486061D01*
X154202Y486032D01*
X154195Y486025D01*
X154137Y485930D01*
X154078Y485843D01*
X154006Y485770D01*
X153940Y485711D01*
X153882Y485661D01*
X153831Y485624D01*
X153802Y485602D01*
X153787Y485595D01*
X153678Y485544D01*
X153568Y485507D01*
X153466Y485478D01*
X153364Y485464D01*
X153284Y485449D01*
X153211Y485442D01*
X153153D01*
X153022Y485449D01*
X152912Y485464D01*
X152817Y485493D01*
X152737Y485522D01*
X152679Y485551D01*
X152635Y485580D01*
X152606Y485595D01*
X152599Y485602D01*
X152540Y485668D01*
X152497Y485741D01*
X152460Y485806D01*
X152438Y485872D01*
X152424Y485930D01*
X152416Y485974D01*
Y486010D01*
Y486018D01*
X152424Y486076D01*
X152431Y486134D01*
X152446Y486178D01*
X152460Y486222D01*
X152475Y486258D01*
X152482Y486287D01*
X152497Y486302D01*
Y486309D01*
X152569Y486397D01*
X152657Y486455D01*
X152686Y486477D01*
X152715Y486492D01*
X152737Y486506D01*
X152744D01*
X152817Y486535D01*
X152898Y486557D01*
X152985Y486579D01*
X153073Y486594D01*
X153153Y486608D01*
X153226Y486623D01*
X153269Y486630D01*
X153284D01*
X153408Y486652D01*
X153524Y486666D01*
X153627Y486688D01*
X153729Y486710D01*
X153823Y486732D01*
X153904Y486754D01*
X153984Y486769D01*
X154049Y486790D01*
X154108Y486805D01*
X154159Y486820D01*
X154202Y486834D01*
X154239Y486849D01*
X154268Y486856D01*
X154290Y486863D01*
X154297Y486871D01*
X154305D01*
X154297Y486637D01*
D02*
G37*
G36*
X149617Y488766D02*
X149486Y488744D01*
X149369Y488715D01*
X149253Y488679D01*
X149151Y488635D01*
X149056Y488584D01*
X148968Y488525D01*
X148895Y488474D01*
X148822Y488416D01*
X148764Y488358D01*
X148713Y488307D01*
X148669Y488263D01*
X148640Y488227D01*
X148618Y488197D01*
X148604Y488175D01*
X148597Y488168D01*
Y488693D01*
X148042Y488693D01*
Y488773D01*
X149756Y488773D01*
X149617Y488766D01*
D02*
G37*
G36*
X142123Y488766D02*
X141999Y488744D01*
X141890Y488722D01*
X141795Y488693D01*
X141715Y488657D01*
X141656Y488635D01*
X141620Y488613D01*
X141605Y488606D01*
X141503Y488540D01*
X141416Y488467D01*
X141336Y488394D01*
X141270Y488321D01*
X141219Y488263D01*
X141175Y488212D01*
X141153Y488183D01*
X141146Y488168D01*
Y488693D01*
X140592D01*
Y488773D01*
X142254D01*
X142123Y488766D01*
D02*
G37*
G36*
X144295D02*
X144179Y488744D01*
X144062Y488715D01*
X143953Y488671D01*
X143851Y488620D01*
X143756Y488569D01*
X143676Y488511D01*
X143596Y488452D01*
X143523Y488387D01*
X143464Y488329D01*
X143413Y488278D01*
X143369Y488227D01*
X143333Y488183D01*
X143311Y488154D01*
X143297Y488132D01*
X143289Y488125D01*
X143246Y488234D01*
X143187Y488329D01*
X143122Y488409D01*
X143063Y488474D01*
X143005Y488533D01*
X142961Y488569D01*
X142932Y488591D01*
X142918Y488598D01*
X142815Y488657D01*
X142706Y488700D01*
X142597Y488730D01*
X142487Y488751D01*
X142400Y488766D01*
X142320Y488773D01*
X144427D01*
X144295Y488766D01*
D02*
G37*
G36*
X107969Y485034D02*
X106322D01*
Y486484D01*
X106752Y486900D01*
X107969Y485034D01*
D02*
G37*
G36*
X78241Y489473D02*
X78350Y489466D01*
X78438Y489459D01*
X78496Y489444D01*
X78540Y489437D01*
X78569Y489429D01*
X78576D01*
X78671Y489393D01*
X78751Y489349D01*
X78824Y489305D01*
X78890Y489254D01*
X78933Y489203D01*
X78970Y489167D01*
X78992Y489138D01*
X78999Y489130D01*
X79050Y489043D01*
X79094Y488956D01*
X79123Y488861D01*
X79137Y488781D01*
X79152Y488708D01*
X79159Y488642D01*
Y488606D01*
Y488598D01*
Y488591D01*
X79145Y488438D01*
X79115Y488307D01*
X79072Y488190D01*
X79021Y488095D01*
X78970Y488022D01*
X78926Y487964D01*
X78897Y487935D01*
X78882Y487920D01*
X78831Y487877D01*
X78765Y487840D01*
X78627Y487782D01*
X78474Y487738D01*
X78321Y487709D01*
X78182Y487694D01*
X78124Y487687D01*
X78073D01*
X78022Y487680D01*
X76666D01*
Y489480D01*
X78110D01*
X78241Y489473D01*
D02*
G37*
G36*
X135919Y488256D02*
X135999Y488248D01*
X136152Y488205D01*
X136284Y488146D01*
X136393Y488081D01*
X136480Y488015D01*
X136546Y487957D01*
X136583Y487913D01*
X136597Y487906D01*
Y487898D01*
X136663Y487804D01*
X136721Y487694D01*
X136758Y487585D01*
X136794Y487468D01*
X136816Y487374D01*
X136830Y487286D01*
Y487257D01*
X136838Y487235D01*
Y487220D01*
Y487213D01*
X134789D01*
X134811Y487381D01*
X134855Y487534D01*
X134906Y487665D01*
X134964Y487767D01*
X135015Y487855D01*
X135066Y487920D01*
X135095Y487957D01*
X135110Y487971D01*
X135227Y488066D01*
X135343Y488139D01*
X135467Y488190D01*
X135584Y488227D01*
X135679Y488248D01*
X135759Y488256D01*
X135788Y488263D01*
X135832D01*
X135919Y488256D01*
D02*
G37*
G36*
X135686Y488766D02*
X135555Y488751D01*
X135431Y488730D01*
X135314Y488693D01*
X135205Y488657D01*
X135103Y488613D01*
X135008Y488569D01*
X134928Y488518D01*
X134847Y488474D01*
X134782Y488423D01*
X134724Y488380D01*
X134680Y488343D01*
X134643Y488307D01*
X134614Y488285D01*
X134600Y488270D01*
X134592Y488263D01*
X134512Y488161D01*
X134439Y488052D01*
X134374Y487942D01*
X134315Y487826D01*
X134272Y487702D01*
X134235Y487585D01*
X134177Y487352D01*
X134155Y487250D01*
X134140Y487148D01*
X134133Y487060D01*
X134126Y486980D01*
X134118Y486914D01*
Y488773D01*
X135824D01*
X135686Y488766D01*
D02*
G37*
G36*
X114742Y488256D02*
X114822Y488248D01*
X114975Y488205D01*
X115106Y488146D01*
X115216Y488081D01*
X115303Y488015D01*
X115369Y487957D01*
X115405Y487913D01*
X115420Y487906D01*
Y487898D01*
X115485Y487804D01*
X115544Y487694D01*
X115580Y487585D01*
X115617Y487468D01*
X115638Y487374D01*
X115653Y487286D01*
Y487257D01*
X115660Y487235D01*
Y487220D01*
Y487213D01*
X113612D01*
X113634Y487381D01*
X113677Y487534D01*
X113728Y487665D01*
X113787Y487767D01*
X113838Y487855D01*
X113889Y487920D01*
X113918Y487957D01*
X113933Y487971D01*
X114049Y488066D01*
X114166Y488139D01*
X114290Y488190D01*
X114406Y488227D01*
X114501Y488248D01*
X114581Y488256D01*
X114611Y488263D01*
X114654D01*
X114742Y488256D01*
D02*
G37*
G36*
X114508Y488766D02*
X114377Y488751D01*
X114253Y488730D01*
X114137Y488693D01*
X114027Y488657D01*
X113925Y488613D01*
X113830Y488569D01*
X113750Y488518D01*
X113670Y488474D01*
X113604Y488423D01*
X113546Y488380D01*
X113502Y488343D01*
X113466Y488307D01*
X113437Y488285D01*
X113422Y488270D01*
X113415Y488263D01*
X113335Y488161D01*
X113262Y488052D01*
X113196Y487942D01*
X113138Y487826D01*
X113094Y487702D01*
X113058Y487585D01*
X112999Y487352D01*
X112978Y487250D01*
X112963Y487148D01*
X112956Y487060D01*
X112948Y486980D01*
X112941Y486914D01*
Y488773D01*
X114647D01*
X114508Y488766D01*
D02*
G37*
G36*
X116316Y484953D02*
X114683D01*
X114909Y484968D01*
X115113Y485004D01*
X115296Y485048D01*
X115369Y485077D01*
X115442Y485106D01*
X115507Y485136D01*
X115566Y485165D01*
X115609Y485187D01*
X115653Y485209D01*
X115682Y485230D01*
X115704Y485245D01*
X115719Y485259D01*
X115726D01*
X115872Y485391D01*
X115988Y485529D01*
X116090Y485675D01*
X116163Y485814D01*
X116222Y485938D01*
X116243Y485996D01*
X116265Y486040D01*
X116280Y486083D01*
X116287Y486112D01*
X116295Y486127D01*
Y486134D01*
X115653Y486214D01*
X115595Y486076D01*
X115529Y485959D01*
X115463Y485857D01*
X115405Y485777D01*
X115354Y485719D01*
X115310Y485675D01*
X115274Y485646D01*
X115267Y485639D01*
X115172Y485580D01*
X115077Y485536D01*
X114975Y485507D01*
X114887Y485486D01*
X114807Y485471D01*
X114742Y485464D01*
X114683D01*
X114596Y485471D01*
X114516Y485478D01*
X114370Y485515D01*
X114239Y485566D01*
X114122Y485624D01*
X114035Y485675D01*
X113969Y485726D01*
X113925Y485763D01*
X113918Y485777D01*
X113911D01*
X113809Y485908D01*
X113728Y486054D01*
X113670Y486214D01*
X113626Y486360D01*
X113604Y486491D01*
X113590Y486550D01*
X113583Y486601D01*
Y486645D01*
X113575Y486674D01*
Y486696D01*
Y486703D01*
X116309D01*
X116316Y486776D01*
Y484953D01*
D02*
G37*
G36*
X99841Y488256D02*
X99921Y488248D01*
X100074Y488205D01*
X100205Y488146D01*
X100315Y488081D01*
X100402Y488015D01*
X100468Y487957D01*
X100504Y487913D01*
X100519Y487906D01*
Y487898D01*
X100584Y487804D01*
X100643Y487694D01*
X100679Y487585D01*
X100716Y487468D01*
X100738Y487374D01*
X100752Y487286D01*
Y487257D01*
X100759Y487235D01*
Y487220D01*
Y487213D01*
X98711D01*
X98733Y487381D01*
X98777Y487534D01*
X98828Y487665D01*
X98886Y487767D01*
X98937Y487855D01*
X98988Y487920D01*
X99017Y487957D01*
X99032Y487971D01*
X99148Y488066D01*
X99265Y488139D01*
X99389Y488190D01*
X99506Y488227D01*
X99600Y488248D01*
X99681Y488256D01*
X99710Y488263D01*
X99753D01*
X99841Y488256D01*
D02*
G37*
G36*
X99608Y488766D02*
X99476Y488751D01*
X99353Y488730D01*
X99236Y488693D01*
X99126Y488657D01*
X99024Y488613D01*
X98930Y488569D01*
X98849Y488518D01*
X98769Y488474D01*
X98704Y488423D01*
X98645Y488380D01*
X98602Y488343D01*
X98565Y488307D01*
X98536Y488285D01*
X98522Y488270D01*
X98514Y488263D01*
X98434Y488161D01*
X98361Y488052D01*
X98295Y487942D01*
X98237Y487826D01*
X98193Y487702D01*
X98157Y487585D01*
X98099Y487352D01*
X98077Y487250D01*
X98062Y487148D01*
X98055Y487060D01*
X98048Y486980D01*
X98040Y486914D01*
Y488773D01*
X99746D01*
X99608Y488766D01*
D02*
G37*
G36*
X101416Y484953D02*
X99783D01*
X100009Y484968D01*
X100213Y485004D01*
X100395Y485048D01*
X100468Y485077D01*
X100541Y485106D01*
X100606Y485136D01*
X100665Y485165D01*
X100708Y485187D01*
X100752Y485209D01*
X100781Y485230D01*
X100803Y485245D01*
X100818Y485259D01*
X100825D01*
X100971Y485391D01*
X101087Y485529D01*
X101190Y485675D01*
X101262Y485814D01*
X101321Y485938D01*
X101343Y485996D01*
X101365Y486040D01*
X101379Y486083D01*
X101386Y486112D01*
X101394Y486127D01*
Y486134D01*
X100752Y486214D01*
X100694Y486076D01*
X100628Y485959D01*
X100563Y485857D01*
X100504Y485777D01*
X100453Y485719D01*
X100410Y485675D01*
X100373Y485646D01*
X100366Y485639D01*
X100271Y485580D01*
X100176Y485536D01*
X100074Y485507D01*
X99987Y485486D01*
X99907Y485471D01*
X99841Y485464D01*
X99783D01*
X99695Y485471D01*
X99615Y485478D01*
X99469Y485515D01*
X99338Y485566D01*
X99221Y485624D01*
X99134Y485675D01*
X99068Y485726D01*
X99024Y485763D01*
X99017Y485777D01*
X99010D01*
X98908Y485908D01*
X98828Y486054D01*
X98769Y486214D01*
X98726Y486360D01*
X98704Y486491D01*
X98689Y486550D01*
X98682Y486601D01*
Y486645D01*
X98674Y486674D01*
Y486696D01*
Y486703D01*
X101408D01*
X101416Y486776D01*
Y484953D01*
D02*
G37*
G36*
X87863Y489510D02*
X88031Y489480D01*
X88177Y489444D01*
X88286Y489400D01*
X88381Y489357D01*
X88439Y489320D01*
X88476Y489291D01*
X88490Y489284D01*
X88578Y489189D01*
X88643Y489094D01*
X88687Y488992D01*
X88724Y488904D01*
X88738Y488817D01*
X88746Y488751D01*
X88753Y488708D01*
Y488700D01*
Y488693D01*
X88746Y488606D01*
X88731Y488518D01*
X88709Y488445D01*
X88687Y488380D01*
X88658Y488321D01*
X88636Y488278D01*
X88622Y488248D01*
X88614Y488241D01*
X88563Y488168D01*
X88498Y488103D01*
X88432Y488052D01*
X88367Y488008D01*
X88308Y487979D01*
X88264Y487957D01*
X88235Y487942D01*
X88221Y487935D01*
X88119Y487906D01*
X88002Y487884D01*
X87885Y487869D01*
X87769Y487862D01*
X87667Y487855D01*
X87579Y487848D01*
X86077D01*
Y489517D01*
X87667D01*
X87863Y489510D01*
D02*
G37*
G36*
X109544Y479685D02*
X109631Y479678D01*
X109704Y479656D01*
X109763Y479635D01*
X109814Y479613D01*
X109857Y479598D01*
X109879Y479583D01*
X109887Y479576D01*
X109952Y479532D01*
X110011Y479481D01*
X110054Y479430D01*
X110091Y479387D01*
X110113Y479343D01*
X110134Y479306D01*
X110149Y479285D01*
Y479277D01*
X110171Y479197D01*
X110193Y479110D01*
X110207Y479015D01*
X110215Y478920D01*
X110222Y478840D01*
Y478774D01*
Y478723D01*
Y478716D01*
Y478709D01*
Y476493D01*
X108494D01*
Y478483D01*
Y478607D01*
X108509Y478730D01*
X108523Y478833D01*
X108538Y478927D01*
X108560Y479015D01*
X108582Y479095D01*
X108611Y479168D01*
X108640Y479226D01*
X108662Y479277D01*
X108691Y479321D01*
X108713Y479357D01*
X108735Y479387D01*
X108764Y479423D01*
X108779Y479438D01*
X108888Y479525D01*
X109004Y479583D01*
X109121Y479627D01*
X109223Y479664D01*
X109318Y479678D01*
X109391Y479685D01*
X109420Y479693D01*
X109456D01*
X109544Y479685D01*
D02*
G37*
G36*
X126253Y477914D02*
X126202Y477768D01*
X126151Y477637D01*
X126114Y477513D01*
X126078Y477418D01*
X126056Y477331D01*
X126034Y477273D01*
X126027Y477236D01*
X126019Y477221D01*
X125976Y477360D01*
X125939Y477498D01*
X125895Y477622D01*
X125859Y477732D01*
X125830Y477827D01*
X125808Y477900D01*
X125801Y477921D01*
X125793Y477943D01*
X125786Y477950D01*
Y477958D01*
X124999Y480152D01*
X127062D01*
X126253Y477914D01*
D02*
G37*
G36*
X118263Y480969D02*
X118430Y480939D01*
X118576Y480903D01*
X118686Y480859D01*
X118780Y480816D01*
X118839Y480779D01*
X118875Y480750D01*
X118890Y480743D01*
X118977Y480648D01*
X119043Y480553D01*
X119087Y480451D01*
X119123Y480364D01*
X119138Y480276D01*
X119145Y480210D01*
X119152Y480167D01*
Y480159D01*
Y480152D01*
X119145Y480065D01*
X119130Y479977D01*
X119108Y479904D01*
X119087Y479839D01*
X119057Y479780D01*
X119035Y479737D01*
X119021Y479707D01*
X119014Y479700D01*
X118963Y479627D01*
X118897Y479562D01*
X118831Y479510D01*
X118766Y479467D01*
X118708Y479438D01*
X118664Y479416D01*
X118635Y479401D01*
X118620Y479394D01*
X118518Y479365D01*
X118401Y479343D01*
X118285Y479328D01*
X118168Y479321D01*
X118066Y479314D01*
X117979Y479306D01*
X116477D01*
Y480976D01*
X118066D01*
X118263Y480969D01*
D02*
G37*
G36*
X87295Y480969D02*
X87463Y480939D01*
X87608Y480903D01*
X87718Y480859D01*
X87812Y480815D01*
X87871Y480779D01*
X87907Y480750D01*
X87922Y480743D01*
X88009Y480648D01*
X88075Y480553D01*
X88119Y480451D01*
X88155Y480364D01*
X88170Y480276D01*
X88177Y480210D01*
X88184Y480167D01*
Y480159D01*
Y480152D01*
X88177Y480065D01*
X88162Y479977D01*
X88140Y479904D01*
X88119Y479839D01*
X88090Y479780D01*
X88068Y479737D01*
X88053Y479707D01*
X88046Y479700D01*
X87995Y479627D01*
X87929Y479562D01*
X87863Y479510D01*
X87798Y479467D01*
X87739Y479438D01*
X87696Y479416D01*
X87667Y479401D01*
X87652Y479394D01*
X87550Y479365D01*
X87433Y479343D01*
X87317Y479328D01*
X87200Y479321D01*
X87098Y479314D01*
X87011Y479306D01*
X85509D01*
Y480976D01*
X87098D01*
X87295Y480969D01*
D02*
G37*
G36*
X122396Y479715D02*
X122476Y479707D01*
X122629Y479664D01*
X122761Y479605D01*
X122870Y479540D01*
X122958Y479474D01*
X123023Y479416D01*
X123060Y479372D01*
X123074Y479365D01*
Y479357D01*
X123140Y479263D01*
X123198Y479153D01*
X123234Y479044D01*
X123271Y478927D01*
X123293Y478833D01*
X123307Y478745D01*
Y478716D01*
X123315Y478694D01*
Y478680D01*
Y478672D01*
X121266D01*
X121288Y478840D01*
X121332Y478993D01*
X121383Y479124D01*
X121441Y479226D01*
X121492Y479314D01*
X121543Y479379D01*
X121572Y479416D01*
X121587Y479430D01*
X121704Y479525D01*
X121820Y479598D01*
X121944Y479649D01*
X122061Y479685D01*
X122156Y479707D01*
X122236Y479715D01*
X122265Y479722D01*
X122309D01*
X122396Y479715D01*
D02*
G37*
G36*
X122163Y480225D02*
X122032Y480210D01*
X121908Y480189D01*
X121791Y480152D01*
X121682Y480116D01*
X121580Y480072D01*
X121485Y480028D01*
X121405Y479977D01*
X121325Y479933D01*
X121259Y479882D01*
X121201Y479839D01*
X121157Y479802D01*
X121121Y479766D01*
X121091Y479744D01*
X121077Y479729D01*
X121069Y479722D01*
X120989Y479620D01*
X120916Y479510D01*
X120851Y479401D01*
X120792Y479285D01*
X120749Y479161D01*
X120712Y479044D01*
X120654Y478811D01*
X120632Y478709D01*
X120617Y478607D01*
X120610Y478519D01*
X120603Y478439D01*
X120596Y478373D01*
Y480232D01*
X122301D01*
X122163Y480225D01*
D02*
G37*
G36*
X105520Y479715D02*
X105600Y479707D01*
X105746Y479671D01*
X105877Y479613D01*
X105986Y479547D01*
X106074Y479481D01*
X106140Y479430D01*
X106183Y479387D01*
X106198Y479379D01*
Y479372D01*
X106256Y479306D01*
X106300Y479226D01*
X106380Y479066D01*
X106438Y478891D01*
X106475Y478730D01*
X106497Y478577D01*
X106504Y478512D01*
Y478453D01*
X106511Y478410D01*
Y478373D01*
Y478351D01*
Y478344D01*
Y478213D01*
X106497Y478089D01*
X106482Y477980D01*
X106460Y477870D01*
X106438Y477775D01*
X106409Y477688D01*
X106387Y477608D01*
X106358Y477535D01*
X106329Y477477D01*
X106300Y477418D01*
X106271Y477375D01*
X106249Y477338D01*
X106227Y477309D01*
X106212Y477287D01*
X106205Y477280D01*
X106198Y477273D01*
X106140Y477214D01*
X106074Y477156D01*
X105950Y477068D01*
X105819Y477010D01*
X105702Y476966D01*
X105593Y476944D01*
X105513Y476930D01*
X105476Y476923D01*
X105432D01*
X105345Y476930D01*
X105265Y476937D01*
X105112Y476974D01*
X104980Y477032D01*
X104871Y477098D01*
X104784Y477156D01*
X104718Y477214D01*
X104674Y477251D01*
X104667Y477265D01*
X104660D01*
X104609Y477338D01*
X104558Y477411D01*
X104485Y477579D01*
X104426Y477754D01*
X104390Y477929D01*
X104368Y478082D01*
X104361Y478147D01*
Y478206D01*
X104353Y478257D01*
Y478293D01*
Y478315D01*
Y478322D01*
X104361Y478446D01*
X104368Y478570D01*
X104383Y478680D01*
X104404Y478782D01*
X104426Y478876D01*
X104448Y478964D01*
X104477Y479037D01*
X104507Y479110D01*
X104536Y479168D01*
X104565Y479226D01*
X104587Y479270D01*
X104609Y479306D01*
X104630Y479336D01*
X104645Y479357D01*
X104660Y479365D01*
Y479372D01*
X104718Y479430D01*
X104784Y479489D01*
X104908Y479576D01*
X105039Y479635D01*
X105163Y479678D01*
X105272Y479707D01*
X105352Y479715D01*
X105389Y479722D01*
X105432D01*
X105520Y479715D01*
D02*
G37*
G36*
X91428Y479715D02*
X91509Y479707D01*
X91662Y479664D01*
X91793Y479605D01*
X91902Y479540D01*
X91990Y479474D01*
X92055Y479416D01*
X92092Y479372D01*
X92106Y479365D01*
Y479357D01*
X92172Y479263D01*
X92230Y479153D01*
X92267Y479044D01*
X92303Y478927D01*
X92325Y478833D01*
X92339Y478745D01*
Y478716D01*
X92347Y478694D01*
Y478680D01*
Y478672D01*
X90298D01*
X90320Y478840D01*
X90364Y478993D01*
X90415Y479124D01*
X90473Y479226D01*
X90524Y479314D01*
X90575Y479379D01*
X90605Y479416D01*
X90619Y479430D01*
X90736Y479525D01*
X90852Y479598D01*
X90976Y479649D01*
X91093Y479685D01*
X91188Y479707D01*
X91268Y479715D01*
X91297Y479722D01*
X91341D01*
X91428Y479715D01*
D02*
G37*
G36*
X91195Y480225D02*
X91064Y480210D01*
X90940Y480189D01*
X90823Y480152D01*
X90714Y480116D01*
X90612Y480072D01*
X90517Y480028D01*
X90437Y479977D01*
X90357Y479933D01*
X90291Y479882D01*
X90233Y479839D01*
X90189Y479802D01*
X90153Y479766D01*
X90123Y479744D01*
X90109Y479729D01*
X90101Y479722D01*
X90021Y479620D01*
X89948Y479510D01*
X89883Y479401D01*
X89824Y479285D01*
X89781Y479161D01*
X89744Y479044D01*
X89686Y478811D01*
X89664Y478709D01*
X89649Y478607D01*
X89642Y478519D01*
X89635Y478439D01*
X89628Y478373D01*
Y480232D01*
X91334D01*
X91195Y480225D01*
D02*
G37*
G36*
X129803Y481041D02*
X129883Y481034D01*
X129956Y481012D01*
X130022Y480983D01*
X130146Y480918D01*
X130255Y480845D01*
X130335Y480764D01*
X130401Y480699D01*
X130422Y480670D01*
X130437Y480648D01*
X130452Y480641D01*
Y480633D01*
X130503Y480546D01*
X130546Y480444D01*
X130590Y480327D01*
X130619Y480203D01*
X130649Y480072D01*
X130670Y479933D01*
X130707Y479656D01*
X130721Y479518D01*
X130729Y479394D01*
X130736Y479277D01*
Y479182D01*
X130743Y479095D01*
Y479029D01*
Y478993D01*
Y478986D01*
Y478978D01*
Y478752D01*
X130729Y478548D01*
X130714Y478366D01*
X130700Y478191D01*
X130678Y478045D01*
X130649Y477907D01*
X130619Y477790D01*
X130597Y477681D01*
X130568Y477593D01*
X130539Y477520D01*
X130517Y477455D01*
X130488Y477404D01*
X130473Y477367D01*
X130459Y477345D01*
X130444Y477331D01*
Y477323D01*
X130386Y477251D01*
X130328Y477192D01*
X130269Y477134D01*
X130211Y477090D01*
X130087Y477017D01*
X129978Y476966D01*
X129876Y476937D01*
X129803Y476923D01*
X129774Y476915D01*
X129730D01*
X129650Y476923D01*
X129577Y476930D01*
X129438Y476981D01*
X129314Y477046D01*
X129205Y477119D01*
X129125Y477192D01*
X129059Y477258D01*
X129023Y477309D01*
X129008Y477316D01*
Y477323D01*
X128957Y477411D01*
X128913Y477513D01*
X128870Y477630D01*
X128841Y477754D01*
X128811Y477885D01*
X128789Y478023D01*
X128753Y478308D01*
X128738Y478439D01*
X128731Y478563D01*
X128724Y478680D01*
Y478774D01*
X128717Y478862D01*
Y478927D01*
Y478964D01*
Y478978D01*
X128724Y479204D01*
X128731Y479409D01*
X128746Y479598D01*
X128768Y479773D01*
X128789Y479926D01*
X128819Y480065D01*
X128848Y480189D01*
X128877Y480298D01*
X128906Y480393D01*
X128928Y480473D01*
X128957Y480538D01*
X128979Y480597D01*
X129001Y480633D01*
X129016Y480662D01*
X129030Y480677D01*
Y480684D01*
X129081Y480750D01*
X129132Y480808D01*
X129191Y480852D01*
X129249Y480896D01*
X129365Y480961D01*
X129475Y481005D01*
X129570Y481027D01*
X129650Y481041D01*
X129679Y481049D01*
X129723D01*
X129803Y481041D01*
D02*
G37*
D10*
X203169Y424232D02*
G03*
X205906Y421496I2736J0D01*
G01*
X226772Y418740D02*
G03*
X224035Y421476I-2736J0D01*
G01*
X205906Y351693D02*
G03*
X203169Y348957I0J-2736D01*
G01*
X224035Y351713D02*
G03*
X226772Y354449I0J2736D01*
G01*
X37205Y297176D02*
G03*
X37205Y297176I-197J0D01*
G01*
X191339Y325965D02*
Y447224D01*
X154331Y325965D02*
X203150D01*
X154331Y447224D02*
X203150D01*
X226772Y354449D02*
Y418740D01*
X154331Y325965D02*
Y447224D01*
X154331Y359035D02*
X191339D01*
X203150Y325965D02*
Y447224D01*
X154331Y414154D02*
X191339D01*
X205906Y421496D02*
X224016D01*
X205906Y351693D02*
X224016D01*
X96063Y417323D02*
Y443307D01*
Y417323D02*
X122047D01*
Y443307D01*
X96063D02*
X122047D01*
D11*
X46038Y43012D02*
G03*
X44072Y39456I2042J-3450D01*
G01*
X107006Y47660D02*
G03*
X105015Y45744I5681J-7897D01*
G01*
X115179Y47654D02*
G03*
X113143Y45738I4894J-7239D01*
G01*
X78343Y37438D02*
G03*
X80222Y37086I1810J4480D01*
G01*
X38473Y48647D02*
G03*
X37305Y47531I4338J-5714D01*
G01*
X10602Y37081D02*
G03*
X13111Y37360I99J10542D01*
G01*
X80222Y49712D02*
G03*
X77796Y49249I-73J-6206D01*
G01*
X82085Y47986D02*
G03*
X78343Y47986I-1871J-4807D01*
G01*
X77796Y36183D02*
G03*
X82706Y36183I2455J6225D01*
G01*
X10593Y35712D02*
G03*
X14140Y36269I290J9713D01*
G01*
X99426Y47339D02*
G03*
X97770Y49276I-3181J-1043D01*
G01*
X84591Y47860D02*
G03*
X82704Y49235I-3875J-3337D01*
G01*
X77796Y49249D02*
G03*
X75908Y47883I1987J-4733D01*
G01*
X16365Y37881D02*
G03*
X17508Y40468I-5077J3789D01*
G01*
X117337Y48331D02*
G03*
X115179Y47654I49J-3931D01*
G01*
X114130Y48468D02*
G03*
X113032Y47272I3985J-4762D01*
G01*
X109086Y48337D02*
G03*
X107006Y47660I30J-3625D01*
G01*
X98404Y44748D02*
G03*
X98240Y46355I-6970J97D01*
G01*
X95270Y48337D02*
G03*
X93079Y47668I25J-4004D01*
G01*
X92253Y48596D02*
G03*
X90965Y47392I5077J-6721D01*
G01*
X83532Y46937D02*
G03*
X82085Y47986I-2931J-2523D01*
G01*
X85799Y45666D02*
G03*
X84591Y47860I-5950J-1844D01*
G01*
X84597Y37558D02*
G03*
X85799Y39766I-4843J4067D01*
G01*
X82706Y36183D02*
G03*
X84597Y37558I-2008J4749D01*
G01*
X80222Y37086D02*
G03*
X82085Y37438I62J4787D01*
G01*
X75908Y47883D02*
G03*
X74704Y45691I4723J-4023D01*
G01*
X78343Y47986D02*
G03*
X76896Y46937I1484J-3571D01*
G01*
X74704Y39757D02*
G03*
X75917Y37549I6095J1911D01*
G01*
Y37549D02*
G03*
X77796Y36183I3811J3266D01*
G01*
X64231Y79923D02*
G03*
X64092Y80006I-137J-70D01*
G01*
X70721Y80713D02*
G03*
X70271Y79627I1086J-1086D01*
G01*
X47394Y43660D02*
G03*
X46903Y43469I2403J-6922D01*
G01*
X52682Y38623D02*
G03*
X53538Y39440I-6324J7484D01*
G01*
X48965Y37086D02*
G03*
X50343Y37301I19J4405D01*
G01*
X52144Y36752D02*
G03*
X53538Y37772I-4825J8054D01*
G01*
X45121Y47903D02*
G03*
X44823Y47341I3036J-1969D01*
G01*
X44393Y37920D02*
G03*
X45268Y36732I3210J1449D01*
G01*
X14140Y36269D02*
G03*
X16365Y37881I-1762J4774D01*
G01*
X3717Y40142D02*
G03*
X4428Y38425I6788J1804D01*
G01*
X8117Y37360D02*
G03*
X10602Y37081I2376J9967D01*
G01*
X116514Y49600D02*
G03*
X115310Y49215I972J-5120D01*
G01*
X117897Y48298D02*
G03*
X117625Y48323I-513J-4069D01*
G01*
X120821Y47968D02*
G03*
X119592Y49276I-2724J-1330D01*
G01*
X117691Y49712D02*
G03*
X116514Y49600I14J-6413D01*
G01*
X119824Y46653D02*
G03*
X119746Y46895I-3494J-984D01*
G01*
X107483Y49319D02*
G03*
X106323Y48621I2578J-5603D01*
G01*
X109465Y49712D02*
G03*
X108523Y49636I26J-6265D01*
G01*
X111696Y49112D02*
G03*
X109465Y49712I-2101J-3366D01*
G01*
X111621Y46380D02*
G03*
X111177Y47495I-2723J-437D01*
G01*
X90571Y80713D02*
G03*
X89485Y81163I-1086J-1086D01*
G01*
X89853Y79412D02*
G03*
X89270Y79998I-586J0D01*
G01*
X94629Y49625D02*
G03*
X93486Y49299I804J-4985D01*
G01*
X97149Y49518D02*
G03*
X95658Y49712I-1422J-5114D01*
G01*
X96734Y48122D02*
G03*
X95270Y48337I-1349J-4097D01*
G01*
X93079Y47668D02*
G03*
X90957Y45777I5620J-8444D01*
G01*
X82704Y49235D02*
G03*
X80222Y49712I-2401J-5799D01*
G01*
X82085Y37438D02*
G03*
X83532Y38503I-1460J3500D01*
G01*
X76896D02*
G03*
X78343Y37438I2907J2434D01*
G01*
X69905Y56763D02*
G03*
X70995Y57221I-6J1539D01*
G01*
X47198Y49383D02*
G03*
X46854Y49263I1521J-4929D01*
G01*
X49799Y48337D02*
G03*
X49083Y48314I-18J-10472D01*
G01*
X49291Y49703D02*
G03*
X48823Y49676I406J-11087D01*
G01*
X51826Y48028D02*
G03*
X49799Y48337I-1814J-5087D01*
G01*
X52166Y49369D02*
G03*
X49785Y49712I-2210J-6904D01*
G01*
X53761Y48382D02*
G03*
X52166Y49369I-2832J-2795D01*
G01*
X47168Y47865D02*
G03*
X46969Y47754I1201J-2386D01*
G01*
X53427Y45897D02*
G03*
X52942Y47177I-2861J-353D01*
G01*
X51938Y44283D02*
G03*
X51170Y44270I-10J-22573D01*
G01*
X49754Y44168D02*
G03*
X49105Y44080I1584J-13962D01*
G01*
X47258Y42213D02*
G03*
X46947Y42050I1790J-3795D01*
G01*
X49277Y42771D02*
G03*
X48811Y42694I1425J-10012D01*
G01*
X51444Y42908D02*
G03*
X50299Y42874I-29J-18137D01*
G01*
X46403Y37747D02*
G03*
X47026Y37410I1756J2500D01*
G01*
X50343Y37301D02*
G03*
X51600Y37859I-1937J6064D01*
G01*
X48229Y35712D02*
G03*
X49529Y35798I18J9536D01*
G01*
X50820Y36116D02*
G03*
X52144Y36752I-2493J6891D01*
G01*
X46584Y35977D02*
G03*
X48229Y35712I1606J4734D01*
G01*
X41186Y48337D02*
G03*
X40040Y48097I-5J-2836D01*
G01*
X40637Y49636D02*
G03*
X39588Y49319I724J-4275D01*
G01*
X38983Y47470D02*
G03*
X38049Y46594I4008J-5212D01*
G01*
X30027Y81049D02*
G03*
X29613Y80878I0J-586D01*
G01*
X29442Y58302D02*
G03*
X30978Y56763I1539J0D01*
G01*
X31497Y37321D02*
G03*
X32303Y37242I760J3647D01*
G01*
X29481Y36863D02*
G03*
X30318Y36116I1523J863D01*
G01*
X13111Y37360D02*
G03*
X14949Y38400I-858J3659D01*
G01*
X6280Y38391D02*
G03*
X8117Y37360I2759J2762D01*
G01*
X7693Y36063D02*
G03*
X10593Y35712I2693J10089D01*
G01*
X5691Y37017D02*
G03*
X7693Y36063I3606J4993D01*
G01*
X85799Y39766D02*
G03*
X85799Y45666I-10089J2950D01*
G01*
X84474Y40273D02*
G03*
X84474Y45186I-8699J2457D01*
G01*
X75962D02*
G03*
X75962Y40273I9006J-2457D01*
G01*
X74704Y45691D02*
G03*
X74704Y39757I10067J-2967D01*
G01*
X113032Y47272D02*
G03*
X111696Y49112I-3255J-958D01*
G01*
X46947Y42050D02*
G03*
X45466Y39593I1218J-2409D01*
G01*
X14949Y38400D02*
G03*
X16064Y40505I-3649J3281D01*
G01*
X5136Y40496D02*
G03*
X6280Y38391I4663J1169D01*
G01*
X3413Y42033D02*
G03*
X3717Y40142I9741J596D01*
G01*
X120015Y45469D02*
G03*
X119985Y45797I-7831J-547D01*
G01*
X121416Y44868D02*
G03*
X121379Y45789I-10813J29D01*
G01*
X121082Y47339D02*
G03*
X120821Y47968I-4170J-1357D01*
G01*
X119442Y47495D02*
G03*
X118998Y47922I-1379J-989D01*
G01*
X111749Y44748D02*
G03*
X111621Y46380I-8936J118D01*
G01*
X111177Y47495D02*
G03*
X110341Y48131I-1478J-1077D01*
G01*
X106323Y48621D02*
G03*
X105015Y47392I5427J-7082D01*
G01*
X99798Y44868D02*
G03*
X99757Y45789I-9743J23D01*
G01*
X97704Y47470D02*
G03*
X96734Y48122I-1698J-1477D01*
G01*
X91021Y79627D02*
G03*
X90571Y80713I-1536J0D01*
G01*
X84474Y45186D02*
G03*
X83532Y46937I-4665J-1382D01*
G01*
X83532Y38503D02*
G03*
X84474Y40273I-3870J3196D01*
G01*
X76896Y46937D02*
G03*
X75962Y45186I3650J-3072D01*
G01*
Y40273D02*
G03*
X76896Y38503I4736J1367D01*
G01*
X65812Y79936D02*
G03*
X65908Y80754I-572J481D01*
G01*
X53530Y44283D02*
G03*
X53427Y45897I-11532J74D01*
G01*
X54932Y44748D02*
G03*
X54654Y46817I-7188J85D01*
G01*
X54654D02*
G03*
X53761Y48382I-3666J-1054D01*
G01*
X52942Y47177D02*
G03*
X51826Y48028I-1997J-1463D01*
G01*
X48960Y80006D02*
G03*
X48546Y79835I0J-586D01*
G01*
X47656Y80713D02*
G03*
X47206Y79627I1086J-1086D01*
G01*
X47385Y47964D02*
G03*
X47168Y47865I1176J-2867D01*
G01*
X47774Y37192D02*
G03*
X48051Y37146I987J5062D01*
G01*
X45466Y39593D02*
G03*
X46403Y37747I2132J-79D01*
G01*
X44072Y39456D02*
G03*
X44393Y37920I3608J-49D01*
G01*
X40040Y48097D02*
G03*
X38983Y47470I1981J-4541D01*
G01*
X38049Y46594D02*
G03*
X37305Y45591I5033J-4511D01*
G01*
X30415Y39735D02*
G03*
X30538Y38419I5670J-135D01*
G01*
X29107Y38107D02*
G03*
X29481Y36863I3208J286D01*
G01*
X29021Y39852D02*
G03*
X29107Y38107I15187J-123D01*
G01*
X17508Y40468D02*
G03*
X17837Y43937I-16160J3283D01*
G01*
X16064Y40505D02*
G03*
X16443Y43993I-12721J3148D01*
G01*
X4746Y43993D02*
G03*
X5136Y40496I12920J-328D01*
G01*
X4428Y38425D02*
G03*
X5691Y37017I4074J2384D01*
G01*
X3353Y43754D02*
G03*
X3362Y43189I28637J209D01*
G01*
X119985Y45797D02*
G03*
X119943Y46103I-6473J-725D01*
G01*
X119889Y46389D02*
G03*
X119824Y46653I-4321J-934D01*
G01*
X121268Y46612D02*
G03*
X121082Y47339I-5741J-1082D01*
G01*
X119943Y46103D02*
G03*
X119889Y46389I-5308J-851D01*
G01*
X121379Y45789D02*
G03*
X121268Y46612I-7915J-651D01*
G01*
X120038Y44748D02*
G03*
X120015Y45469I-10268J20D01*
G01*
X118814Y48030D02*
G03*
X118611Y48122I-1006J-1948D01*
G01*
X118611D02*
G03*
X118391Y48198I-925J-2347D01*
G01*
Y48198D02*
G03*
X118152Y48256I-822J-2828D01*
G01*
D02*
G03*
X117897Y48298I-688J-3400D01*
G01*
X119592Y49276D02*
G03*
X119033Y49518I-1521J-2745D01*
G01*
X118998Y47922D02*
G03*
X118814Y48030I-1079J-1621D01*
G01*
X119033Y49518D02*
G03*
X117691Y49712I-1282J-4138D01*
G01*
X119746Y46895D02*
G03*
X119657Y47117I-2812J-1009D01*
G01*
X119657Y47117D02*
G03*
X119555Y47316I-2255J-1019D01*
G01*
D02*
G03*
X119442Y47495I-1809J-1024D01*
G01*
X117625Y48323D02*
G03*
X117337Y48331I-285J-4842D01*
G01*
X115310Y49215D02*
G03*
X114130Y48468I2437J-5152D01*
G01*
X110341Y48131D02*
G03*
X109086Y48337I-1156J-3113D01*
G01*
X108523Y49636D02*
G03*
X107483Y49319I732J-4254D01*
G01*
X99757Y45789D02*
G03*
X99633Y46612I-7168J-660D01*
G01*
X99633Y46612D02*
G03*
X99426Y47339I-5262J-1107D01*
G01*
X97646Y56763D02*
G03*
X98062Y56940I-3J586D01*
G01*
X98229Y57360D02*
G03*
X97646Y57945I-586J0D01*
G01*
X98062Y56940D02*
G03*
X98229Y57360I-419J409D01*
G01*
X97769Y49276D02*
G03*
X97148Y49518I-1649J-3312D01*
G01*
X98240Y46355D02*
G03*
X97704Y47470I-2626J-574D01*
G01*
X95658Y49712D02*
G03*
X94629Y49625I24J-6455D01*
G01*
X93486Y49299D02*
G03*
X92253Y48596I2172J-5242D01*
G01*
X91021Y58528D02*
G03*
X91193Y58115I583J-0D01*
G01*
X91193Y58115D02*
G03*
X91606Y57945I411J413D01*
G01*
X89853Y58302D02*
G03*
X91389Y56763I1539J0D01*
G01*
X71807Y81163D02*
G03*
X70721Y80713I0J-1536D01*
G01*
X72022Y79998D02*
G03*
X71439Y79412I3J-586D01*
G01*
X70995Y57221D02*
G03*
X71439Y58316I-1095J1081D01*
G01*
X69685Y57934D02*
G03*
X70099Y58104I3J583D01*
G01*
D02*
G03*
X70271Y58517I-411J413D01*
G01*
X65908Y80754D02*
G03*
X65193Y81163I-667J-337D01*
G01*
X64217Y79761D02*
G03*
X64231Y79923I-123J92D01*
G01*
X54610Y56935D02*
G03*
X55024Y56763I414J414D01*
G01*
X54610Y57763D02*
G03*
X54439Y57349I414J-414D01*
G01*
X55024Y57934D02*
G03*
X54610Y57763I0J-586D01*
G01*
X54439Y57349D02*
G03*
X54610Y56935I586J0D01*
G01*
X51600Y37859D02*
G03*
X52682Y38623I-3738J6441D01*
G01*
X49785Y49712D02*
G03*
X49291Y49703I-20J-12910D01*
G01*
X51170Y44270D02*
G03*
X50443Y44232I648J-19334D01*
G01*
X50443Y44232D02*
G03*
X49754Y44168I1174J-16472D01*
G01*
X50299Y42874D02*
G03*
X49772Y42831I893J-14199D01*
G01*
X49772Y42831D02*
G03*
X49277Y42771I1199J-11962D01*
G01*
X49529Y35798D02*
G03*
X50820Y36116I-812J6080D01*
G01*
X48742Y81163D02*
G03*
X47656Y80713I0J-1536D01*
G01*
X48546Y79835D02*
G03*
X48374Y79421I414J-414D01*
G01*
X47377Y63984D02*
G03*
X47792Y63812I414J414D01*
G01*
X47206Y64398D02*
G03*
X47377Y63984I586J0D01*
G01*
X48205Y63984D02*
G03*
X48374Y64398I-413J411D01*
G01*
X47791Y63812D02*
G03*
X48205Y63984I0J583D01*
G01*
X48045Y57948D02*
G03*
X48168Y58012I-77J297D01*
G01*
X48045Y56763D02*
G03*
X49102Y57321I-59J1393D01*
G01*
X48149Y48191D02*
G03*
X47875Y48127I1015J-4948D01*
G01*
X47875Y48127D02*
G03*
X47621Y48052I1091J-4135D01*
G01*
X47621Y48052D02*
G03*
X47385Y47964I1142J-3445D01*
G01*
X47566Y49484D02*
G03*
X47198Y49383I1395J-5819D01*
G01*
X47960Y49566D02*
G03*
X47566Y49484I1233J-6864D01*
G01*
X49083Y48314D02*
G03*
X48753Y48285I563J-8255D01*
G01*
Y48285D02*
G03*
X48442Y48244I759J-6996D01*
G01*
X48823Y49676D02*
G03*
X48379Y49630I750J-9482D01*
G01*
X48442Y48244D02*
G03*
X48149Y48191I907J-5898D01*
G01*
X48379Y49630D02*
G03*
X47960Y49566I1022J-8079D01*
G01*
X47925Y43825D02*
G03*
X47394Y43660I2288J-8284D01*
G01*
X49105Y44080D02*
G03*
X48496Y43965I1895J-11778D01*
G01*
X48496Y43965D02*
G03*
X47925Y43825I2124J-9894D01*
G01*
X47973Y42487D02*
G03*
X47600Y42359I1748J-5663D01*
G01*
D02*
G03*
X47258Y42213I1778J-4641D01*
G01*
X48811Y42694D02*
G03*
X48377Y42599I1583J-8327D01*
G01*
X48377D02*
G03*
X47973Y42487I1687J-6885D01*
G01*
X47026Y37410D02*
G03*
X47511Y37252I1439J3578D01*
G01*
X47511Y37252D02*
G03*
X47774Y37192I1138J4426D01*
G01*
X48342Y37113D02*
G03*
X48647Y37093I582J6599D01*
G01*
X48647Y37093D02*
G03*
X48965Y37086I315J7513D01*
G01*
X48051Y37146D02*
G03*
X48342Y37113I804J5783D01*
G01*
X46854Y49263D02*
G03*
X46536Y49125I1620J-4180D01*
G01*
X45974Y48794D02*
G03*
X45121Y47903I1931J-2701D01*
G01*
X46536Y49125D02*
G03*
X45974Y48794I1602J-3361D01*
G01*
X46969Y47754D02*
G03*
X45854Y45984I1239J-2017D01*
G01*
X46903Y43469D02*
G03*
X46038Y43011I2300J-5393D01*
G01*
X45268Y36732D02*
G03*
X46584Y35977I2573J2958D01*
G01*
X44706Y47031D02*
G03*
X44611Y46701I4305J-1424D01*
G01*
X44823Y47341D02*
G03*
X44706Y47031I3764J-1594D01*
G01*
X44611Y46701D02*
G03*
X44485Y45984I5270J-1299D01*
G01*
X41554Y49712D02*
G03*
X40637Y49636I50J-6234D01*
G01*
X42106Y48304D02*
G03*
X41691Y48337I-401J-2378D01*
G01*
X39588Y49319D02*
G03*
X38473Y48647I2545J-5486D01*
G01*
X32811Y37246D02*
G03*
X32844Y37248I-97J1717D01*
G01*
X32844Y37248D02*
G03*
X32910Y37255I-111J1493D01*
G01*
X32910D02*
G03*
X32944Y37259I-160J1335D01*
G01*
X32177Y35872D02*
G03*
X32353Y35882I-231J5771D01*
G01*
X30610Y80463D02*
G03*
X30027Y81049I-586J0D01*
G01*
X30610Y58531D02*
G03*
X30782Y58118I583J-0D01*
G01*
D02*
G03*
X31196Y57948I411J413D01*
G01*
X30538Y38419D02*
G03*
X30900Y37663I1662J333D01*
G01*
D02*
G03*
X31497Y37321I814J725D01*
G01*
X30317Y36116D02*
G03*
X31765Y35865I1307J3240D01*
G01*
X29613Y80878D02*
G03*
X29442Y80463I414J-414D01*
G01*
X3362Y43189D02*
G03*
X3383Y42615I32744J884D01*
G01*
X57520Y37875D02*
X70324Y53490D01*
X48168Y58012D02*
X64217Y79761D01*
X49102Y57321D02*
X65812Y79936D01*
X48960Y80006D02*
X64092D01*
X48742Y81163D02*
X65193D01*
X91389Y56763D02*
X97646D01*
X91606Y57945D02*
X97646D01*
X55024Y56763D02*
X69905D01*
X55024Y57934D02*
X69685D01*
X58646Y54867D02*
X71751D01*
X58646Y53490D02*
X70324D01*
X57520Y36055D02*
X72108D01*
X58925Y37429D02*
X71751Y53027D01*
X71807Y81163D02*
X89485D01*
X72022Y79998D02*
X89270D01*
X58925Y37429D02*
X72108D01*
X30978Y56763D02*
X48045D01*
X31196Y57948D02*
X48045D01*
X27306Y47994D02*
X29021D01*
X27306Y49369D02*
X29021D01*
X103621D02*
X105015D01*
X103621Y36055D02*
X105015D01*
X89563Y54867D02*
X90957D01*
X89563Y36055D02*
X90957D01*
X51938Y44283D02*
X53530D01*
X51444Y42908D02*
X53538D01*
X44485Y45984D02*
X45854D01*
X29021Y52860D02*
X30415D01*
X35911Y49369D02*
X37305D01*
X30415Y47997D02*
X32615D01*
X30415Y49371D02*
X32615D01*
X31941Y35866D02*
X32000Y35867D01*
X35911Y36055D02*
X37305D01*
X22678Y54867D02*
X24072D01*
X22678Y36055D02*
X24072D01*
X16443Y54867D02*
X17837D01*
X3352D02*
X4746D01*
X120038Y36055D02*
Y44748D01*
X121416Y44868D02*
X121433Y36055D01*
X111749Y36049D02*
Y44748D01*
X113143Y36049D02*
Y45738D01*
X105015Y36055D02*
Y45744D01*
X103621Y36055D02*
Y49369D01*
X98404Y36055D02*
Y44748D01*
X99798Y36055D02*
Y44868D01*
X90957Y36055D02*
Y45777D01*
X89853Y58302D02*
Y79412D01*
X91021Y58528D02*
Y79627D01*
X89563Y36055D02*
Y54867D01*
X71439Y58316D02*
Y79412D01*
X70271Y58517D02*
Y79627D01*
X54932Y36055D02*
Y44748D01*
X47206Y64398D02*
Y79627D01*
X48374Y64398D02*
Y79421D01*
X37305Y36055D02*
Y45591D01*
X35911Y36055D02*
Y49369D01*
X30415Y39735D02*
Y47997D01*
X30610Y58531D02*
Y80463D01*
X29021Y39852D02*
Y47994D01*
X29442Y58302D02*
Y80463D01*
X24072Y36055D02*
Y54867D01*
X22678Y36055D02*
Y54867D01*
X17837Y43937D02*
Y54867D01*
X16443Y43993D02*
Y54867D01*
X4746Y43993D02*
Y54867D01*
X3352Y43940D02*
Y54867D01*
X105015Y47392D02*
Y49369D01*
X90957Y54867D02*
X90965Y47392D01*
X53538Y39440D02*
Y42908D01*
X37305Y47531D02*
Y49369D01*
X71751Y53027D02*
Y54867D01*
X72108Y36055D02*
Y37429D01*
X58646Y53490D02*
Y54867D01*
X57520Y36055D02*
Y37875D01*
X53538Y36055D02*
Y37772D01*
X32941Y35935D02*
X32944Y37259D01*
X30415Y49371D02*
Y52860D01*
X29021Y49369D02*
Y52860D01*
X120038Y36055D02*
X121433D01*
X111749Y36049D02*
X113143D01*
X98404Y36055D02*
X99798D01*
X53538D02*
X54932D01*
X41186Y48337D02*
X41691D01*
X41813Y49712D02*
X42092Y49687D01*
X42106Y48304D01*
X41554Y49712D02*
X41813D01*
X32615Y47997D02*
Y49371D01*
X32303Y37242D02*
X32632D01*
X32689Y37243D01*
X32718Y37243D01*
X32748Y37244D01*
X32779Y37245D01*
X32811Y37246D01*
X32765Y35916D02*
X32941Y35935D01*
X32647Y35905D02*
X32765Y35916D01*
X32529Y35895D02*
X32647Y35905D01*
X32412Y35886D02*
X32529Y35895D01*
X32353Y35882D02*
X32412Y35886D01*
X32118Y35870D02*
X32177Y35872D01*
X32059Y35868D02*
X32118Y35870D01*
X32000Y35867D02*
X32059Y35868D01*
X31882Y35866D02*
X31941Y35866D01*
X31823Y35865D02*
X31882Y35866D01*
X31765Y35865D02*
X31823Y35865D01*
X27306Y47994D02*
Y49369D01*
X3352Y43940D02*
X3353Y43754D01*
X3383Y42615D02*
X3413Y42033D01*
D12*
X59528Y123591D02*
Y248237D01*
X13780Y123591D02*
X59528D01*
X13780D02*
Y248237D01*
X59528D01*
X128431Y265562D02*
Y312806D01*
X128433Y312806D02*
X203254D01*
X128433Y265562D02*
X203254D01*
X258471Y266547D02*
Y311822D01*
X203254Y265563D02*
Y312805D01*
X203260Y311822D02*
X258465D01*
X203260Y266547D02*
X258467D01*
X128431Y209263D02*
Y256507D01*
X128433Y256507D02*
X203254D01*
X128433Y209263D02*
X203254D01*
X258471Y210247D02*
Y255523D01*
X203254Y209264D02*
Y256506D01*
X203260Y255523D02*
X258465D01*
X203260Y210247D02*
X258467D01*
X128431Y152964D02*
Y200208D01*
X128433Y200208D02*
X203254D01*
X128433Y152964D02*
X203254D01*
X258471Y153948D02*
Y199224D01*
X203254Y152965D02*
Y200207D01*
X203260Y199224D02*
X258465D01*
X203260Y153948D02*
X258467D01*
X128431Y96665D02*
Y143909D01*
X128433Y143909D02*
X203254D01*
X128433Y96665D02*
X203254D01*
X258471Y97649D02*
Y142924D01*
X203254Y96666D02*
Y143908D01*
X203260Y142924D02*
X258465D01*
X203260Y97649D02*
X258467D01*
X128431Y40365D02*
Y87609D01*
X128433Y87609D02*
X203254D01*
X128433Y40365D02*
X203254D01*
X258471Y41350D02*
Y86625D01*
X203254Y40366D02*
Y87608D01*
X203260Y86625D02*
X258465D01*
X203260Y41350D02*
X258467D01*
X20965Y300365D02*
X53051D01*
Y420365D01*
X20965D02*
X53051D01*
X20965Y300365D02*
Y420365D01*
D13*
X61987Y312904D02*
X57988D01*
Y306906D01*
X61987D01*
X57988Y309905D02*
X59987D01*
X63986Y312904D02*
X67985Y306906D01*
Y312904D02*
X63986Y306906D01*
X73983Y311904D02*
X72983Y312904D01*
X70984D01*
X69984Y311904D01*
Y307905D01*
X70984Y306906D01*
X72983D01*
X73983Y307905D01*
X177741Y458117D02*
X175741D01*
X176741D01*
Y453119D01*
X175741Y452119D01*
X174741D01*
X173742Y453119D01*
X183739Y458117D02*
X181739Y457118D01*
X179740Y455118D01*
Y453119D01*
X180739Y452119D01*
X182739D01*
X183739Y453119D01*
Y454118D01*
X182739Y455118D01*
X179740D01*
X61987Y412593D02*
X60987Y413593D01*
X58988D01*
X57988Y412593D01*
Y408594D01*
X58988Y407594D01*
X60987D01*
X61987Y408594D01*
X66985Y413593D02*
X64986D01*
X63986Y412593D01*
Y408594D01*
X64986Y407594D01*
X66985D01*
X67985Y408594D01*
Y412593D01*
X66985Y413593D01*
X73983Y412593D02*
X72983Y413593D01*
X70984D01*
X69984Y412593D01*
Y411593D01*
X70984Y410594D01*
X72983D01*
X73983Y409594D01*
Y408594D01*
X72983Y407594D01*
X70984D01*
X69984Y408594D01*
X75982Y410594D02*
X79981D01*
X65173Y238606D02*
Y232608D01*
X68172D01*
X69172Y233608D01*
Y234607D01*
X68172Y235607D01*
X65173D01*
X68172D01*
X69172Y236607D01*
Y237606D01*
X68172Y238606D01*
X65173D01*
X71171Y236607D02*
Y232608D01*
Y234607D01*
X72171Y235607D01*
X73171Y236607D01*
X74170D01*
X77169Y235607D02*
X81168D01*
X65173Y218255D02*
Y212257D01*
X68172D01*
X69172Y213256D01*
Y214256D01*
X68172Y215256D01*
X65173D01*
X68172D01*
X69172Y216255D01*
Y217255D01*
X68172Y218255D01*
X65173D01*
X71171Y216255D02*
Y212257D01*
Y214256D01*
X72171Y215256D01*
X73171Y216255D01*
X74170D01*
X77169Y215256D02*
X81168D01*
X79169Y217255D02*
Y213256D01*
X65173Y192386D02*
Y198384D01*
X68172D01*
X69172Y197385D01*
Y195385D01*
X68172Y194386D01*
X65173D01*
X75170Y198384D02*
X71171D01*
Y192386D01*
X75170D01*
X71171Y195385D02*
X73171D01*
X69172Y177604D02*
X68172Y178603D01*
X66173D01*
X65173Y177604D01*
Y173605D01*
X66173Y172605D01*
X68172D01*
X69172Y173605D01*
X65173Y158561D02*
Y152563D01*
X68172D01*
X69172Y153562D01*
Y154562D01*
X68172Y155562D01*
X65173D01*
X68172D01*
X69172Y156562D01*
Y157561D01*
X68172Y158561D01*
X65173D01*
X61987Y332963D02*
X57988D01*
Y326965D01*
X61987D01*
X57988Y329964D02*
X59987D01*
X63986Y332963D02*
X67985Y326965D01*
Y332963D02*
X63986Y326965D01*
X73983Y331963D02*
X72983Y332963D01*
X70984D01*
X69984Y331963D01*
Y327964D01*
X70984Y326965D01*
X72983D01*
X73983Y327964D01*
X75982Y329964D02*
X79981D01*
X65173Y132466D02*
Y136465D01*
X67173Y138465D01*
X69172Y136465D01*
Y132466D01*
Y135466D01*
X65173D01*
X61987Y392593D02*
X60987Y393593D01*
X58988D01*
X57988Y392593D01*
Y388594D01*
X58988Y387595D01*
X60987D01*
X61987Y388594D01*
X66985Y393593D02*
X64986D01*
X63986Y392593D01*
Y388594D01*
X64986Y387595D01*
X66985D01*
X67985Y388594D01*
Y392593D01*
X66985Y393593D01*
X73983Y392593D02*
X72983Y393593D01*
X70984D01*
X69984Y392593D01*
Y391593D01*
X70984Y390594D01*
X72983D01*
X73983Y389594D01*
Y388594D01*
X72983Y387595D01*
X70984D01*
X69984Y388594D01*
X61987Y371364D02*
X60987Y372363D01*
X58988D01*
X57988Y371364D01*
Y370364D01*
X58988Y369364D01*
X60987D01*
X61987Y368365D01*
Y367365D01*
X60987Y366365D01*
X58988D01*
X57988Y367365D01*
X63986Y372363D02*
X65986D01*
X64986D01*
Y366365D01*
X63986D01*
X65986D01*
X68985D02*
Y372363D01*
X72983Y366365D01*
Y372363D01*
X74983Y369364D02*
X78981D01*
X61987Y353439D02*
X60987Y354439D01*
X58988D01*
X57988Y353439D01*
Y352440D01*
X58988Y351440D01*
X60987D01*
X61987Y350440D01*
Y349441D01*
X60987Y348441D01*
X58988D01*
X57988Y349441D01*
X63986Y354439D02*
X65986D01*
X64986D01*
Y348441D01*
X63986D01*
X65986D01*
X68985D02*
Y354439D01*
X72983Y348441D01*
Y354439D01*
X14665Y261404D02*
X12665D01*
X13665D01*
Y256406D01*
X12665Y255406D01*
X11666D01*
X10666Y256406D01*
X16664Y261404D02*
X20663D01*
Y260405D01*
X16664Y256406D01*
Y255406D01*
X21965Y433404D02*
X19965D01*
X20965D01*
Y428406D01*
X19965Y427406D01*
X18966D01*
X17966Y428406D01*
X23964Y432405D02*
X24964Y433404D01*
X26963D01*
X27963Y432405D01*
Y431405D01*
X26963Y430405D01*
X27963Y429406D01*
Y428406D01*
X26963Y427406D01*
X24964D01*
X23964Y428406D01*
Y429406D01*
X24964Y430405D01*
X23964Y431405D01*
Y432405D01*
X24964Y430405D02*
X26963D01*
X117473Y307870D02*
Y305871D01*
Y306871D01*
X122472D01*
X123471Y305871D01*
Y304871D01*
X122472Y303872D01*
X117473Y313868D02*
Y309870D01*
X120472D01*
X119473Y311869D01*
Y312869D01*
X120472Y313868D01*
X122472D01*
X123471Y312869D01*
Y310869D01*
X122472Y309870D01*
X117456Y251548D02*
Y249548D01*
Y250548D01*
X122454D01*
X123454Y249548D01*
Y248549D01*
X122454Y247549D01*
X123454Y256546D02*
X117456D01*
X120455Y253547D01*
Y257546D01*
X117456Y194229D02*
Y192229D01*
Y193229D01*
X122454D01*
X123454Y192229D01*
Y191230D01*
X122454Y190230D01*
X118456Y196228D02*
X117456Y197228D01*
Y199227D01*
X118456Y200227D01*
X119455D01*
X120455Y199227D01*
Y198227D01*
Y199227D01*
X121455Y200227D01*
X122454D01*
X123454Y199227D01*
Y197228D01*
X122454Y196228D01*
X117456Y138603D02*
Y136603D01*
Y137603D01*
X122454D01*
X123454Y136603D01*
Y135604D01*
X122454Y134604D01*
X123454Y144601D02*
Y140602D01*
X119455Y144601D01*
X118456D01*
X117456Y143601D01*
Y141602D01*
X118456Y140602D01*
X117473Y83673D02*
Y81674D01*
Y82674D01*
X122472D01*
X123471Y81674D01*
Y80674D01*
X122472Y79675D01*
X123471Y85673D02*
Y87672D01*
Y86672D01*
X117473D01*
X118473Y85673D01*
X100165Y452205D02*
X99165Y453204D01*
X97166D01*
X96166Y452205D01*
Y451205D01*
X97166Y450205D01*
X99165D01*
X100165Y449206D01*
Y448206D01*
X99165Y447206D01*
X97166D01*
X96166Y448206D01*
X105163Y447206D02*
X103164D01*
X102164Y448206D01*
Y450205D01*
X103164Y451205D01*
X105163D01*
X106163Y450205D01*
Y449206D01*
X102164D01*
X108162Y451205D02*
Y447206D01*
Y449206D01*
X109162Y450205D01*
X110161Y451205D01*
X111161D01*
X114160Y447206D02*
X116159D01*
X115160D01*
Y451205D01*
X114160D01*
X120158D02*
X122158D01*
X123157Y450205D01*
Y447206D01*
X120158D01*
X119158Y448206D01*
X120158Y449206D01*
X123157D01*
X125157Y447206D02*
X127156D01*
X126156D01*
Y453204D01*
X125157D01*
D14*
X146555Y409390D02*
Y407422D01*
Y408406D01*
X152459D01*
X151475Y409390D01*
X152459Y362816D02*
Y366752D01*
X149507D01*
X150491Y364784D01*
Y363800D01*
X149507Y362816D01*
X147539D01*
X146555Y363800D01*
Y365768D01*
X147539Y366752D01*
X184547Y372205D02*
X183563Y371221D01*
Y369253D01*
X184547Y368269D01*
X188483D01*
X189467Y369253D01*
Y371221D01*
X188483Y372205D01*
X187499D01*
X186515Y371221D01*
Y368269D01*
X189467Y400985D02*
X188483Y402953D01*
X186515Y404921D01*
X184547D01*
X183563Y403937D01*
Y401969D01*
X184547Y400985D01*
X185531D01*
X186515Y401969D01*
Y404921D01*
D15*
X92126Y232781D02*
Y220974D01*
X98030D01*
X99998Y222941D01*
Y224909D01*
X98030Y226877D01*
X92126D01*
X98030D01*
X99998Y228845D01*
Y230813D01*
X98030Y232781D01*
X92126D01*
X103933Y228845D02*
Y220974D01*
Y224909D01*
X105901Y226877D01*
X107869Y228845D01*
X109837D01*
X115740Y226877D02*
X123612D01*
X119676Y230813D02*
Y222941D01*
X92126Y297828D02*
Y286021D01*
X98030D01*
X99998Y287989D01*
Y289957D01*
X98030Y291925D01*
X92126D01*
X98030D01*
X99998Y293892D01*
Y295860D01*
X98030Y297828D01*
X92126D01*
X103933Y293892D02*
Y286021D01*
Y289957D01*
X105901Y291925D01*
X107869Y293892D01*
X109837D01*
X115740Y291925D02*
X123612D01*
X121060Y180627D02*
X119093Y182595D01*
X115157D01*
X113189Y180627D01*
Y172756D01*
X115157Y170788D01*
X119093D01*
X121060Y172756D01*
X113189Y126274D02*
Y114467D01*
X119093D01*
X121060Y116435D01*
Y118403D01*
X119093Y120370D01*
X113189D01*
X119093D01*
X121060Y122338D01*
Y124306D01*
X119093Y126274D01*
X113189D01*
Y58338D02*
Y66210D01*
X117125Y70145D01*
X121060Y66210D01*
Y58338D01*
Y64242D01*
X113189D01*
M02*
