G04*
G04 #@! TF.GenerationSoftware,Altium Limited,Altium Designer,23.4.1 (23)*
G04*
G04 Layer_Physical_Order=2*
G04 Layer_Color=36540*
%FSLAX25Y25*%
%MOIN*%
G70*
G04*
G04 #@! TF.SameCoordinates,00EE7723-3E56-4DBD-843E-103F5348B9A9*
G04*
G04*
G04 #@! TF.FilePolarity,Positive*
G04*
G01*
G75*
%ADD26C,0.08268*%
%ADD31C,0.13287*%
G36*
X164013Y261584D02*
X86562D01*
X54505Y229528D01*
X27165D01*
Y252108D01*
X91842Y316784D01*
X164013D01*
Y261584D01*
D02*
G37*
G36*
Y205285D02*
X88944D01*
X83319Y199660D01*
X40778D01*
X40271Y200167D01*
X39059Y200867D01*
X37708Y201229D01*
X36308D01*
X34956Y200867D01*
X33744Y200167D01*
X33237Y199660D01*
X32791D01*
X27165Y205285D01*
Y227953D01*
X54724Y227953D01*
X87152Y260380D01*
X164013D01*
Y205285D01*
D02*
G37*
G36*
Y148986D02*
X111932D01*
X91461Y169457D01*
X27165D01*
Y185845D01*
X33363Y192043D01*
X33744Y191661D01*
X34956Y190961D01*
X36308Y190599D01*
X37708D01*
X39059Y190961D01*
X40271Y191661D01*
X41261Y192650D01*
X41961Y193862D01*
X42323Y195214D01*
Y196614D01*
X41961Y197965D01*
X41928Y198022D01*
X42178Y198455D01*
X83319D01*
X83780Y198547D01*
X84170Y198808D01*
X84170Y198808D01*
X89443Y204081D01*
X164013D01*
Y148986D01*
D02*
G37*
G36*
X111081Y148134D02*
X111321Y147974D01*
X112148Y147147D01*
X164013D01*
Y92687D01*
X102983D01*
X52362Y143307D01*
X27165D01*
Y168253D01*
X90962D01*
X111081Y148134D01*
D02*
G37*
G36*
X102131Y91835D02*
X102522Y91574D01*
X102983Y91482D01*
X102983Y91482D01*
X164013D01*
Y36387D01*
X99438Y36387D01*
X27165Y108660D01*
Y142103D01*
X51863D01*
X102131Y91835D01*
D02*
G37*
%LPC*%
G36*
X135783Y314190D02*
X134465D01*
X133192Y313849D01*
X132050Y313190D01*
X131118Y312258D01*
X130459Y311117D01*
X130118Y309843D01*
Y308525D01*
X130459Y307252D01*
X131118Y306110D01*
X132050Y305178D01*
X133192Y304519D01*
X134465Y304178D01*
X135783D01*
X137056Y304519D01*
X138198Y305178D01*
X139130Y306110D01*
X139789Y307252D01*
X140130Y308525D01*
Y309843D01*
X139789Y311117D01*
X139130Y312258D01*
X138198Y313190D01*
X137056Y313849D01*
X135783Y314190D01*
D02*
G37*
G36*
Y274190D02*
X134465D01*
X133192Y273849D01*
X132050Y273190D01*
X131118Y272258D01*
X130459Y271116D01*
X130118Y269843D01*
Y268525D01*
X130459Y267252D01*
X131118Y266110D01*
X132050Y265178D01*
X133192Y264519D01*
X134465Y264178D01*
X135783D01*
X137056Y264519D01*
X138198Y265178D01*
X139130Y266110D01*
X139789Y267252D01*
X140130Y268525D01*
Y269843D01*
X139789Y271116D01*
X139130Y272258D01*
X138198Y273190D01*
X137056Y273849D01*
X135783Y274190D01*
D02*
G37*
G36*
Y257891D02*
X134465D01*
X133192Y257550D01*
X132050Y256891D01*
X131118Y255959D01*
X130459Y254817D01*
X130118Y253544D01*
Y252226D01*
X130459Y250953D01*
X131118Y249811D01*
X132050Y248879D01*
X133192Y248220D01*
X134465Y247879D01*
X135783D01*
X137056Y248220D01*
X138198Y248879D01*
X139130Y249811D01*
X139789Y250953D01*
X140130Y252226D01*
Y253544D01*
X139789Y254817D01*
X139130Y255959D01*
X138198Y256891D01*
X137056Y257550D01*
X135783Y257891D01*
D02*
G37*
G36*
Y217891D02*
X134465D01*
X133192Y217550D01*
X132050Y216891D01*
X131118Y215959D01*
X130459Y214817D01*
X130118Y213544D01*
Y212226D01*
X130459Y210953D01*
X131118Y209811D01*
X132050Y208879D01*
X133192Y208220D01*
X134465Y207879D01*
X135783D01*
X137056Y208220D01*
X138198Y208879D01*
X139130Y209811D01*
X139789Y210953D01*
X140130Y212226D01*
Y213544D01*
X139789Y214817D01*
X139130Y215959D01*
X138198Y216891D01*
X137056Y217550D01*
X135783Y217891D01*
D02*
G37*
G36*
Y201592D02*
X134465D01*
X133192Y201251D01*
X132050Y200592D01*
X131118Y199660D01*
X130459Y198518D01*
X130118Y197245D01*
Y195927D01*
X130459Y194653D01*
X131118Y193512D01*
X132050Y192580D01*
X133192Y191921D01*
X134465Y191580D01*
X135783D01*
X137056Y191921D01*
X138198Y192580D01*
X139130Y193512D01*
X139789Y194653D01*
X140130Y195927D01*
Y197245D01*
X139789Y198518D01*
X139130Y199660D01*
X138198Y200592D01*
X137056Y201251D01*
X135783Y201592D01*
D02*
G37*
G36*
Y161592D02*
X134465D01*
X133192Y161251D01*
X132050Y160592D01*
X131118Y159660D01*
X130459Y158518D01*
X130118Y157245D01*
Y155927D01*
X130459Y154654D01*
X131118Y153512D01*
X132050Y152580D01*
X133192Y151921D01*
X134465Y151580D01*
X135783D01*
X137056Y151921D01*
X138198Y152580D01*
X139130Y153512D01*
X139789Y154654D01*
X140130Y155927D01*
Y157245D01*
X139789Y158518D01*
X139130Y159660D01*
X138198Y160592D01*
X137056Y161251D01*
X135783Y161592D01*
D02*
G37*
G36*
Y145293D02*
X134465D01*
X133192Y144951D01*
X132050Y144292D01*
X131118Y143360D01*
X130459Y142219D01*
X130118Y140946D01*
Y139628D01*
X130459Y138354D01*
X131118Y137213D01*
X132050Y136281D01*
X133192Y135622D01*
X134465Y135281D01*
X135783D01*
X137056Y135622D01*
X138198Y136281D01*
X139130Y137213D01*
X139789Y138354D01*
X140130Y139628D01*
Y140946D01*
X139789Y142219D01*
X139130Y143360D01*
X138198Y144292D01*
X137056Y144951D01*
X135783Y145293D01*
D02*
G37*
G36*
Y105293D02*
X134465D01*
X133192Y104952D01*
X132050Y104293D01*
X131118Y103360D01*
X130459Y102219D01*
X130118Y100946D01*
Y99628D01*
X130459Y98354D01*
X131118Y97213D01*
X132050Y96281D01*
X133192Y95622D01*
X134465Y95280D01*
X135783D01*
X137056Y95622D01*
X138198Y96281D01*
X139130Y97213D01*
X139789Y98354D01*
X140130Y99628D01*
Y100946D01*
X139789Y102219D01*
X139130Y103360D01*
X138198Y104293D01*
X137056Y104952D01*
X135783Y105293D01*
D02*
G37*
G36*
Y88994D02*
X134465D01*
X133192Y88652D01*
X132050Y87993D01*
X131118Y87061D01*
X130459Y85920D01*
X130118Y84646D01*
Y83328D01*
X130459Y82055D01*
X131118Y80914D01*
X132050Y79981D01*
X133192Y79322D01*
X134465Y78981D01*
X135783D01*
X137056Y79322D01*
X138198Y79981D01*
X139130Y80914D01*
X139789Y82055D01*
X140130Y83328D01*
Y84646D01*
X139789Y85920D01*
X139130Y87061D01*
X138198Y87993D01*
X137056Y88652D01*
X135783Y88994D01*
D02*
G37*
G36*
Y48994D02*
X134465D01*
X133192Y48652D01*
X132050Y47993D01*
X131118Y47061D01*
X130459Y45920D01*
X130118Y44646D01*
Y43328D01*
X130459Y42055D01*
X131118Y40914D01*
X132050Y39981D01*
X133192Y39323D01*
X134465Y38981D01*
X135783D01*
X137056Y39323D01*
X138198Y39981D01*
X139130Y40914D01*
X139789Y42055D01*
X140130Y43328D01*
Y44646D01*
X139789Y45920D01*
X139130Y47061D01*
X138198Y47993D01*
X137056Y48652D01*
X135783Y48994D01*
D02*
G37*
%LPD*%
D26*
X37008Y235914D02*
D03*
Y215914D02*
D03*
Y175914D02*
D03*
Y155914D02*
D03*
Y135914D02*
D03*
D31*
X150085Y289184D02*
D03*
Y232885D02*
D03*
Y176586D02*
D03*
Y120287D02*
D03*
Y63987D02*
D03*
M02*
