G04*
G04 #@! TF.GenerationSoftware,Altium Limited,Altium Designer,23.4.1 (23)*
G04*
G04 Layer_Physical_Order=2*
G04 Layer_Color=36540*
%FSLAX25Y25*%
%MOIN*%
G70*
G04*
G04 #@! TF.SameCoordinates,2BB8E5CD-71FA-4005-98E6-CD4F27987408*
G04*
G04*
G04 #@! TF.FilePolarity,Positive*
G04*
G01*
G75*
%ADD26C,0.08268*%
%ADD31C,0.13287*%
G36*
X193307Y261689D02*
X87257D01*
X87257Y261689D01*
X86796Y261598D01*
X86776Y261584D01*
X86562D01*
X54505Y229528D01*
X13780D01*
Y242520D01*
X88044Y316784D01*
X193307D01*
Y261689D01*
D02*
G37*
G36*
Y205285D02*
X88944D01*
X83319Y199660D01*
X40778D01*
X40271Y200167D01*
X39059Y200867D01*
X37708Y201229D01*
X36308D01*
X34956Y200867D01*
X33744Y200167D01*
X33237Y199660D01*
X16482D01*
X13780Y202362D01*
Y227953D01*
X54724Y227953D01*
X87257Y260485D01*
X193307D01*
Y205285D01*
D02*
G37*
G36*
Y148986D02*
X112012D01*
X91642Y169355D01*
X91252Y169616D01*
X90791Y169708D01*
X90791Y169708D01*
X13780Y169708D01*
Y189764D01*
X19930Y195914D01*
X31693D01*
Y195214D01*
X32055Y193862D01*
X32755Y192650D01*
X33744Y191661D01*
X34956Y190961D01*
X36308Y190599D01*
X37708D01*
X39059Y190961D01*
X40271Y191661D01*
X41261Y192650D01*
X41961Y193862D01*
X42323Y195214D01*
Y196614D01*
X41961Y197965D01*
X41928Y198022D01*
X42178Y198455D01*
X83319D01*
X83780Y198547D01*
X84170Y198808D01*
X84170Y198808D01*
X89443Y204081D01*
X193307D01*
Y148986D01*
D02*
G37*
G36*
X90791Y168504D02*
X112148Y147147D01*
X193307D01*
Y92687D01*
X102983D01*
X52362Y143307D01*
X13780D01*
Y168504D01*
X90791Y168504D01*
D02*
G37*
G36*
X102131Y91835D02*
X102522Y91574D01*
X102983Y91482D01*
X102983Y91482D01*
X193307D01*
Y36387D01*
X99438Y36387D01*
X13780Y122046D01*
Y142103D01*
X51863D01*
X102131Y91835D01*
D02*
G37*
%LPC*%
G36*
X175783Y314190D02*
X174465D01*
X173192Y313849D01*
X172050Y313190D01*
X171118Y312258D01*
X170459Y311117D01*
X170118Y309843D01*
Y308525D01*
X170459Y307252D01*
X171118Y306110D01*
X172050Y305178D01*
X173192Y304519D01*
X174465Y304178D01*
X175783D01*
X177056Y304519D01*
X178198Y305178D01*
X179130Y306110D01*
X179789Y307252D01*
X180130Y308525D01*
Y309843D01*
X179789Y311117D01*
X179130Y312258D01*
X178198Y313190D01*
X177056Y313849D01*
X175783Y314190D01*
D02*
G37*
G36*
X135783D02*
X134465D01*
X133192Y313849D01*
X132050Y313190D01*
X131118Y312258D01*
X130459Y311117D01*
X130118Y309843D01*
Y308525D01*
X130459Y307252D01*
X131118Y306110D01*
X132050Y305178D01*
X133192Y304519D01*
X134465Y304178D01*
X135783D01*
X137056Y304519D01*
X138198Y305178D01*
X139130Y306110D01*
X139789Y307252D01*
X140130Y308525D01*
Y309843D01*
X139789Y311117D01*
X139130Y312258D01*
X138198Y313190D01*
X137056Y313849D01*
X135783Y314190D01*
D02*
G37*
G36*
X175783Y274190D02*
X174465D01*
X173192Y273849D01*
X172050Y273190D01*
X171118Y272258D01*
X170459Y271116D01*
X170118Y269843D01*
Y268525D01*
X170459Y267252D01*
X171118Y266110D01*
X172050Y265178D01*
X173192Y264519D01*
X174465Y264178D01*
X175783D01*
X177056Y264519D01*
X178198Y265178D01*
X179130Y266110D01*
X179789Y267252D01*
X180130Y268525D01*
Y269843D01*
X179789Y271116D01*
X179130Y272258D01*
X178198Y273190D01*
X177056Y273849D01*
X175783Y274190D01*
D02*
G37*
G36*
X135783D02*
X134465D01*
X133192Y273849D01*
X132050Y273190D01*
X131118Y272258D01*
X130459Y271116D01*
X130118Y269843D01*
Y268525D01*
X130459Y267252D01*
X131118Y266110D01*
X132050Y265178D01*
X133192Y264519D01*
X134465Y264178D01*
X135783D01*
X137056Y264519D01*
X138198Y265178D01*
X139130Y266110D01*
X139789Y267252D01*
X140130Y268525D01*
Y269843D01*
X139789Y271116D01*
X139130Y272258D01*
X138198Y273190D01*
X137056Y273849D01*
X135783Y274190D01*
D02*
G37*
G36*
X175783Y257891D02*
X174465D01*
X173192Y257550D01*
X172050Y256891D01*
X171118Y255959D01*
X170459Y254817D01*
X170118Y253544D01*
Y252226D01*
X170459Y250953D01*
X171118Y249811D01*
X172050Y248879D01*
X173192Y248220D01*
X174465Y247879D01*
X175783D01*
X177056Y248220D01*
X178198Y248879D01*
X179130Y249811D01*
X179789Y250953D01*
X180130Y252226D01*
Y253544D01*
X179789Y254817D01*
X179130Y255959D01*
X178198Y256891D01*
X177056Y257550D01*
X175783Y257891D01*
D02*
G37*
G36*
X135783D02*
X134465D01*
X133192Y257550D01*
X132050Y256891D01*
X131118Y255959D01*
X130459Y254817D01*
X130118Y253544D01*
Y252226D01*
X130459Y250953D01*
X131118Y249811D01*
X132050Y248879D01*
X133192Y248220D01*
X134465Y247879D01*
X135783D01*
X137056Y248220D01*
X138198Y248879D01*
X139130Y249811D01*
X139789Y250953D01*
X140130Y252226D01*
Y253544D01*
X139789Y254817D01*
X139130Y255959D01*
X138198Y256891D01*
X137056Y257550D01*
X135783Y257891D01*
D02*
G37*
G36*
X175783Y217891D02*
X174465D01*
X173192Y217550D01*
X172050Y216891D01*
X171118Y215959D01*
X170459Y214817D01*
X170118Y213544D01*
Y212226D01*
X170459Y210953D01*
X171118Y209811D01*
X172050Y208879D01*
X173192Y208220D01*
X174465Y207879D01*
X175783D01*
X177056Y208220D01*
X178198Y208879D01*
X179130Y209811D01*
X179789Y210953D01*
X180130Y212226D01*
Y213544D01*
X179789Y214817D01*
X179130Y215959D01*
X178198Y216891D01*
X177056Y217550D01*
X175783Y217891D01*
D02*
G37*
G36*
X135783D02*
X134465D01*
X133192Y217550D01*
X132050Y216891D01*
X131118Y215959D01*
X130459Y214817D01*
X130118Y213544D01*
Y212226D01*
X130459Y210953D01*
X131118Y209811D01*
X132050Y208879D01*
X133192Y208220D01*
X134465Y207879D01*
X135783D01*
X137056Y208220D01*
X138198Y208879D01*
X139130Y209811D01*
X139789Y210953D01*
X140130Y212226D01*
Y213544D01*
X139789Y214817D01*
X139130Y215959D01*
X138198Y216891D01*
X137056Y217550D01*
X135783Y217891D01*
D02*
G37*
G36*
X175783Y201592D02*
X174465D01*
X173192Y201251D01*
X172050Y200592D01*
X171118Y199660D01*
X170459Y198518D01*
X170118Y197245D01*
Y195927D01*
X170459Y194653D01*
X171118Y193512D01*
X172050Y192580D01*
X173192Y191921D01*
X174465Y191580D01*
X175783D01*
X177056Y191921D01*
X178198Y192580D01*
X179130Y193512D01*
X179789Y194653D01*
X180130Y195927D01*
Y197245D01*
X179789Y198518D01*
X179130Y199660D01*
X178198Y200592D01*
X177056Y201251D01*
X175783Y201592D01*
D02*
G37*
G36*
X135783D02*
X134465D01*
X133192Y201251D01*
X132050Y200592D01*
X131118Y199660D01*
X130459Y198518D01*
X130118Y197245D01*
Y195927D01*
X130459Y194653D01*
X131118Y193512D01*
X132050Y192580D01*
X133192Y191921D01*
X134465Y191580D01*
X135783D01*
X137056Y191921D01*
X138198Y192580D01*
X139130Y193512D01*
X139789Y194653D01*
X140130Y195927D01*
Y197245D01*
X139789Y198518D01*
X139130Y199660D01*
X138198Y200592D01*
X137056Y201251D01*
X135783Y201592D01*
D02*
G37*
G36*
X175783Y161592D02*
X174465D01*
X173192Y161251D01*
X172050Y160592D01*
X171118Y159660D01*
X170459Y158518D01*
X170118Y157245D01*
Y155927D01*
X170459Y154654D01*
X171118Y153512D01*
X172050Y152580D01*
X173192Y151921D01*
X174465Y151580D01*
X175783D01*
X177056Y151921D01*
X178198Y152580D01*
X179130Y153512D01*
X179789Y154654D01*
X180130Y155927D01*
Y157245D01*
X179789Y158518D01*
X179130Y159660D01*
X178198Y160592D01*
X177056Y161251D01*
X175783Y161592D01*
D02*
G37*
G36*
X135783D02*
X134465D01*
X133192Y161251D01*
X132050Y160592D01*
X131118Y159660D01*
X130459Y158518D01*
X130118Y157245D01*
Y155927D01*
X130459Y154654D01*
X131118Y153512D01*
X132050Y152580D01*
X133192Y151921D01*
X134465Y151580D01*
X135783D01*
X137056Y151921D01*
X138198Y152580D01*
X139130Y153512D01*
X139789Y154654D01*
X140130Y155927D01*
Y157245D01*
X139789Y158518D01*
X139130Y159660D01*
X138198Y160592D01*
X137056Y161251D01*
X135783Y161592D01*
D02*
G37*
G36*
X175783Y145293D02*
X174465D01*
X173192Y144951D01*
X172050Y144292D01*
X171118Y143360D01*
X170459Y142219D01*
X170118Y140946D01*
Y139628D01*
X170459Y138354D01*
X171118Y137213D01*
X172050Y136281D01*
X173192Y135622D01*
X174465Y135281D01*
X175783D01*
X177056Y135622D01*
X178198Y136281D01*
X179130Y137213D01*
X179789Y138354D01*
X180130Y139628D01*
Y140946D01*
X179789Y142219D01*
X179130Y143360D01*
X178198Y144292D01*
X177056Y144951D01*
X175783Y145293D01*
D02*
G37*
G36*
X135783D02*
X134465D01*
X133192Y144951D01*
X132050Y144292D01*
X131118Y143360D01*
X130459Y142219D01*
X130118Y140946D01*
Y139628D01*
X130459Y138354D01*
X131118Y137213D01*
X132050Y136281D01*
X133192Y135622D01*
X134465Y135281D01*
X135783D01*
X137056Y135622D01*
X138198Y136281D01*
X139130Y137213D01*
X139789Y138354D01*
X140130Y139628D01*
Y140946D01*
X139789Y142219D01*
X139130Y143360D01*
X138198Y144292D01*
X137056Y144951D01*
X135783Y145293D01*
D02*
G37*
G36*
X175783Y105293D02*
X174465D01*
X173192Y104952D01*
X172050Y104293D01*
X171118Y103360D01*
X170459Y102219D01*
X170118Y100946D01*
Y99628D01*
X170459Y98354D01*
X171118Y97213D01*
X172050Y96281D01*
X173192Y95622D01*
X174465Y95280D01*
X175783D01*
X177056Y95622D01*
X178198Y96281D01*
X179130Y97213D01*
X179789Y98354D01*
X180130Y99628D01*
Y100946D01*
X179789Y102219D01*
X179130Y103360D01*
X178198Y104293D01*
X177056Y104952D01*
X175783Y105293D01*
D02*
G37*
G36*
X135783D02*
X134465D01*
X133192Y104952D01*
X132050Y104293D01*
X131118Y103360D01*
X130459Y102219D01*
X130118Y100946D01*
Y99628D01*
X130459Y98354D01*
X131118Y97213D01*
X132050Y96281D01*
X133192Y95622D01*
X134465Y95280D01*
X135783D01*
X137056Y95622D01*
X138198Y96281D01*
X139130Y97213D01*
X139789Y98354D01*
X140130Y99628D01*
Y100946D01*
X139789Y102219D01*
X139130Y103360D01*
X138198Y104293D01*
X137056Y104952D01*
X135783Y105293D01*
D02*
G37*
G36*
X175783Y88994D02*
X174465D01*
X173192Y88652D01*
X172050Y87993D01*
X171118Y87061D01*
X170459Y85920D01*
X170118Y84646D01*
Y83328D01*
X170459Y82055D01*
X171118Y80914D01*
X172050Y79981D01*
X173192Y79322D01*
X174465Y78981D01*
X175783D01*
X177056Y79322D01*
X178198Y79981D01*
X179130Y80914D01*
X179789Y82055D01*
X180130Y83328D01*
Y84646D01*
X179789Y85920D01*
X179130Y87061D01*
X178198Y87993D01*
X177056Y88652D01*
X175783Y88994D01*
D02*
G37*
G36*
X135783D02*
X134465D01*
X133192Y88652D01*
X132050Y87993D01*
X131118Y87061D01*
X130459Y85920D01*
X130118Y84646D01*
Y83328D01*
X130459Y82055D01*
X131118Y80914D01*
X132050Y79981D01*
X133192Y79322D01*
X134465Y78981D01*
X135783D01*
X137056Y79322D01*
X138198Y79981D01*
X139130Y80914D01*
X139789Y82055D01*
X140130Y83328D01*
Y84646D01*
X139789Y85920D01*
X139130Y87061D01*
X138198Y87993D01*
X137056Y88652D01*
X135783Y88994D01*
D02*
G37*
G36*
X175783Y48994D02*
X174465D01*
X173192Y48652D01*
X172050Y47993D01*
X171118Y47061D01*
X170459Y45920D01*
X170118Y44646D01*
Y43328D01*
X170459Y42055D01*
X171118Y40914D01*
X172050Y39981D01*
X173192Y39323D01*
X174465Y38981D01*
X175783D01*
X177056Y39323D01*
X178198Y39981D01*
X179130Y40914D01*
X179789Y42055D01*
X180130Y43328D01*
Y44646D01*
X179789Y45920D01*
X179130Y47061D01*
X178198Y47993D01*
X177056Y48652D01*
X175783Y48994D01*
D02*
G37*
G36*
X135783D02*
X134465D01*
X133192Y48652D01*
X132050Y47993D01*
X131118Y47061D01*
X130459Y45920D01*
X130118Y44646D01*
Y43328D01*
X130459Y42055D01*
X131118Y40914D01*
X132050Y39981D01*
X133192Y39323D01*
X134465Y38981D01*
X135783D01*
X137056Y39323D01*
X138198Y39981D01*
X139130Y40914D01*
X139789Y42055D01*
X140130Y43328D01*
Y44646D01*
X139789Y45920D01*
X139130Y47061D01*
X138198Y47993D01*
X137056Y48652D01*
X135783Y48994D01*
D02*
G37*
%LPD*%
D26*
X37008Y235914D02*
D03*
Y215914D02*
D03*
Y175914D02*
D03*
Y155914D02*
D03*
Y135914D02*
D03*
D31*
X150085Y289184D02*
D03*
Y232885D02*
D03*
Y176586D02*
D03*
Y120287D02*
D03*
Y63987D02*
D03*
M02*
